<?xml version="1.0" encoding="utf-8"?>
<!-- Generator: Adobe Illustrator 16.0.2, SVG Export Plug-In . SVG Version: 6.00 Build 0)  -->
<!DOCTYPE svg PUBLIC "-//W3C//DTD SVG 1.1//EN" "http://www.w3.org/Graphics/SVG/1.1/DTD/svg11.dtd">
<svg version="1.1" id="Layer_1" xmlns="http://www.w3.org/2000/svg" xmlns:xlink="http://www.w3.org/1999/xlink" x="0px" y="0px"
	 width="1170.117px" height="339.034px" viewBox="0 0 1170.117 339.034" enable-background="new 0 0 1170.117 339.034"
	 xml:space="preserve">
<g>
	<defs>
		<rect id="SVGID_1_" x="-0.76" y="1.195" width="1170" height="338"/>
	</defs>
	<clipPath id="SVGID_2_">
		<use xlink:href="#SVGID_1_"  overflow="visible"/>
	</clipPath>
	
		<circle opacity="0.5" clip-path="url(#SVGID_2_)" fill-rule="evenodd" clip-rule="evenodd" fill="none" stroke="#5D5D5D" stroke-width="6" stroke-miterlimit="10" cx="-29.459" cy="458.693" r="168.124"/>
	
		<circle opacity="0.5" clip-path="url(#SVGID_2_)" fill-rule="evenodd" clip-rule="evenodd" fill="none" stroke="#5D5D5D" stroke-width="6" stroke-miterlimit="10" cx="-26.016" cy="458.25" r="210.566"/>
	
		<circle opacity="0.5" clip-path="url(#SVGID_2_)" fill-rule="evenodd" clip-rule="evenodd" fill="none" stroke="#5D5D5D" stroke-width="6" stroke-miterlimit="10" cx="1070.541" cy="-111.307" r="168.124"/>
	
		<circle opacity="0.5" clip-path="url(#SVGID_2_)" fill-rule="evenodd" clip-rule="evenodd" fill="none" stroke="#5D5D5D" stroke-width="6" stroke-miterlimit="10" cx="1073.984" cy="-111.75" r="210.566"/>
	<g clip-path="url(#SVGID_2_)">
		<path fill="none" stroke="#5D5D5D" stroke-width="6" stroke-miterlimit="10" d="M765.166,323.69
			c2.407-3.21,36.104-28.08,36.104-28.08l34.498,28.08l32.893-48.939l69.799,33.696l32.092-96.274l45.729,32.092
			c0,0,20.059-32.894,22.465-32.092s36.904,31.289,36.102,27.68c-0.801-3.611,67.393-104.698,67.393-104.698l32.893-16.046"/>
		<circle fill="#FFFF36" stroke="#000000" stroke-miterlimit="10" cx="764.898" cy="327.433" r="11.232"/>
		<circle fill="#FFFF36" stroke="#000000" stroke-miterlimit="10" cx="800.199" cy="292.935" r="11.232"/>
		<circle fill="#FFFF36" stroke="#000000" stroke-miterlimit="10" cx="833.895" cy="319.409" r="11.232"/>
		<circle fill="#FFFF36" stroke="#000000" stroke-miterlimit="10" cx="869.997" cy="274.482" r="11.232"/>
		<circle fill="#FFFF36" stroke="#000000" stroke-miterlimit="10" cx="936.586" cy="304.969" r="11.232"/>
		<circle fill="#FFFF36" cx="970.281" cy="210.3" r="11.232"/>
		<circle fill="#FFFF36" stroke="#000000" stroke-miterlimit="10" cx="1038.475" cy="212.707" r="11.231"/>
		<circle fill="#FFFF36" stroke="#000000" stroke-miterlimit="10" cx="1073.777" cy="236.774" r="11.232"/>
		<circle fill="#FFFF36" stroke="#000000" stroke-miterlimit="10" cx="1141.97" cy="134.886" r="11.232"/>
		<circle fill="#FFFF36" stroke="#000000" stroke-miterlimit="10" cx="1177.27" cy="118.84" r="11.231"/>
	</g>
	<path clip-path="url(#SVGID_2_)" fill-rule="evenodd" clip-rule="evenodd" fill="#FFFF36" d="M65.284,45.97
		c-1.479,1.277-3.889,2.851-5.631,4.975c-2.704,3.309-5.245,6.287-9.909,3.424c-4.307-2.648-4.494-6.08-1.944-10.156
		c2.994-4.796,1.491-8.545-2.617-12.061c-3.654-3.122-7.098-6.581-10.136-10.303c-3.483-4.271-7.206-5.547-11.989-2.549
		c-4.016,2.513-7.432,2.406-10.223-1.861c-3.149-4.808,0.004-7.643,3.443-9.774c5.32-3.296,6.044-7.325,3.857-12.852
		c-1.531-3.869-2.672-8.017-3.177-12.136c-0.724-5.897-3.877-8.581-9.492-8.776c-4.414-0.155-8.096-1.384-8.224-6.494
		c-0.135-5.463,3.69-6.915,8.347-7.01c5.718-0.119,8.705-2.867,9.555-8.668c0.636-4.323,1.877-8.657,3.539-12.697
		c2.259-5.479,0.788-9.042-3.937-12.303c-2.195-1.511-4.525-4.215-4.903-6.672c-0.76-4.943,5.344-8.398,10.144-5.579
		c6.322,3.714,10.959,2.664,15.103-3.129c1.451-2.024,3.245-3.953,5.257-5.4c6.887-4.955,9.861-10.415,4.537-18.57
		c-0.883-1.356,0.835-5.687,2.588-7.09c1.519-1.213,4.915-0.652,7.261-0.04c1.308,0.346,2.33,2.298,3.209,3.698
		c3.042,4.832,6.843,6.12,12.307,3.813c4.024-1.698,8.382-2.867,12.701-3.507c5.623-0.832,8.072-3.901,8.247-9.25
		c0.143-4.577,1.264-8.597,6.795-8.577c5.527,0.02,6.549,4.036,6.768,8.621c0.25,5.328,2.883,8.394,8.505,9.042
		c3.714,0.425,7.56,1.221,10.951,2.736c6.645,2.966,11.333,2,15.333-4.521c3.089-5.038,8.318-4.955,11.11-0.151
		c1.01,1.75,1.042,5.082,0.024,6.812c-3.638,6.179-2.036,10.442,3.356,14.502c3.32,2.497,6.211,5.667,8.916,8.852
		c3.495,4.12,7.253,5.547,12.064,2.465c3.968-2.537,7.507-2.517,10.235,1.773c2.927,4.609,0.322,7.484-3.34,9.838
		c-4.549,2.923-5.901,6.434-3.706,11.747c1.905,4.612,3.098,9.591,4.032,14.514c0.93,4.895,3.531,7.512,8.37,7.762
		c4.442,0.227,8.029,1.531,8.108,6.625c0.076,5.046-3.34,6.649-7.849,6.879c-5.186,0.267-7.738,3.082-8.525,8.275
		c-0.692,4.529-1.766,9.134-3.535,13.337c-2.398,5.694-0.966,9.4,3.893,12.88c5.154,3.69,5.186,8.871,0.088,11.496
		c-1.917,0.986-5.313,0.533-7.396-0.525c-4.608-2.334-7.817-1.3-11.07,2.326c-3.634,4.052-7.492,7.941-11.547,11.576
		c-3.615,3.241-5.042,6.585-2.314,11.007c2.557,4.147,1.833,7.623-2.354,10.156c-4.43,2.676-7.114-0.036-9.313-3.408
		c-2.879-4.41-6.386-5.261-11.333-3.368c-4.668,1.79-9.615,3.066-14.558,3.869c-5.209,0.851-7.917,3.471-8.179,8.629
		c-0.231,4.541-1.957,7.854-6.983,7.734c-4.684-0.115-6.279-3.313-6.454-7.591c-0.223-5.452-3.129-8.033-8.553-9.039
		C78.585,50.133,72.617,48.018,65.284,45.97z M100.969-79.455c-26.146-0.147-47.455,20.841-47.606,46.886
		c-0.147,26.137,20.852,47.459,46.89,47.606c26.141,0.147,47.455-20.844,47.602-46.886C148.002-57.99,127.006-79.308,100.969-79.455
		z"/>
	<path clip-path="url(#SVGID_2_)" fill-rule="evenodd" clip-rule="evenodd" fill="#FFFF36" d="M231.876,74.628
		c-0.878,0.757-2.307,1.691-3.34,2.95c-1.604,1.963-3.111,3.729-5.877,2.031c-2.555-1.57-2.666-3.606-1.153-6.023
		c1.776-2.845,0.885-5.069-1.552-7.154c-2.167-1.852-4.21-3.904-6.012-6.112c-2.066-2.533-4.274-3.29-7.112-1.512
		c-2.382,1.491-4.408,1.427-6.064-1.104c-1.868-2.852,0.002-4.533,2.042-5.798c3.156-1.955,3.585-4.345,2.288-7.623
		c-0.908-2.295-1.585-4.755-1.884-7.199c-0.43-3.498-2.3-5.09-5.63-5.206c-2.618-0.092-4.802-0.821-4.878-3.852
		c-0.08-3.241,2.189-4.102,4.951-4.159c3.392-0.071,5.164-1.7,5.668-5.142c0.377-2.564,1.113-5.135,2.099-7.531
		c1.34-3.25,0.467-5.364-2.335-7.298c-1.302-0.896-2.684-2.5-2.908-3.958c-0.451-2.932,3.17-4.981,6.017-3.309
		c3.75,2.203,6.5,1.58,8.958-1.856c0.86-1.201,1.924-2.345,3.118-3.204c4.085-2.938,5.85-6.177,2.691-11.015
		c-0.524-0.805,0.495-3.373,1.536-4.206c0.901-0.719,2.915-0.387,4.307-0.023c0.776,0.205,1.382,1.363,1.903,2.193
		c1.805,2.866,4.06,3.63,7.3,2.262c2.387-1.007,4.972-1.7,7.534-2.08c3.335-0.493,4.788-2.314,4.893-5.486
		c0.084-2.714,0.75-5.1,4.03-5.087c3.279,0.012,3.885,2.394,4.015,5.113c0.148,3.161,1.71,4.979,5.045,5.364
		c2.203,0.252,4.484,0.724,6.496,1.623c3.941,1.759,6.722,1.186,9.095-2.682c1.833-2.989,4.934-2.939,6.589-0.089
		c0.6,1.038,0.618,3.014,0.014,4.04c-2.158,3.666-1.208,6.194,1.991,8.602c1.97,1.481,3.685,3.361,5.289,5.25
		c2.073,2.444,4.302,3.291,7.156,1.462c2.354-1.504,4.453-1.493,6.071,1.052c1.736,2.734,0.191,4.439-1.981,5.835
		c-2.698,1.734-3.5,3.816-2.198,6.968c1.129,2.735,1.837,5.688,2.392,8.608c0.552,2.904,2.094,4.456,4.965,4.604
		c2.634,0.134,4.762,0.908,4.809,3.929c0.045,2.994-1.981,3.944-4.656,4.081c-3.076,0.158-4.59,1.827-5.057,4.908
		c-0.411,2.687-1.047,5.417-2.097,7.911c-1.422,3.378-0.573,5.576,2.309,7.64c3.057,2.188,3.076,5.262,0.052,6.818
		c-1.137,0.585-3.151,0.316-4.387-0.311c-2.733-1.385-4.637-0.771-6.566,1.38c-2.156,2.403-4.444,4.709-6.849,6.866
		c-2.144,1.922-2.991,3.906-1.373,6.529c1.517,2.46,1.087,4.521-1.396,6.024c-2.627,1.587-4.22-0.021-5.524-2.021
		c-1.708-2.616-3.788-3.121-6.722-1.998c-2.769,1.062-5.703,1.818-8.635,2.295c-3.09,0.505-4.696,2.059-4.852,5.119
		c-0.137,2.693-1.161,4.658-4.142,4.587c-2.779-0.068-3.724-1.965-3.828-4.502c-0.132-3.234-1.856-4.765-5.073-5.362
		C239.766,77.097,236.226,75.842,231.876,74.628z M253.043,0.231c-15.508-0.087-28.148,12.362-28.238,27.811
		c-0.087,15.504,12.369,28.151,27.813,28.238c15.505,0.087,28.147-12.364,28.235-27.811C280.941,12.963,268.488,0.318,253.043,0.231
		z"/>
	<path clip-path="url(#SVGID_2_)" fill-rule="evenodd" clip-rule="evenodd" fill="#FFFF36" d="M349.446,67.269
		c-0.555,0.478-1.458,1.068-2.11,1.864c-1.013,1.24-1.965,2.355-3.713,1.283c-1.613-0.992-1.684-2.278-0.728-3.805
		c1.122-1.797,0.559-3.202-0.98-4.519c-1.369-1.17-2.659-2.466-3.797-3.861c-1.305-1.6-2.7-2.078-4.492-0.955
		c-1.505,0.941-2.784,0.901-3.83-0.697c-1.18-1.801,0.001-2.863,1.29-3.662c1.994-1.235,2.265-2.744,1.445-4.815
		c-0.574-1.45-1.001-3.004-1.19-4.547c-0.271-2.209-1.453-3.215-3.556-3.288c-1.654-0.058-3.034-0.519-3.082-2.433
		c-0.05-2.047,1.383-2.591,3.127-2.627c2.143-0.044,3.261-1.074,3.58-3.248c0.238-1.62,0.703-3.243,1.326-4.757
		c0.846-2.053,0.295-3.388-1.475-4.609c-0.822-0.566-1.695-1.579-1.837-2.5c-0.285-1.852,2.002-3.146,3.8-2.09
		c2.369,1.391,4.106,0.998,5.659-1.172c0.543-0.759,1.215-1.481,1.969-2.023c2.581-1.856,3.695-3.902,1.7-6.958
		c-0.331-0.508,0.313-2.13,0.97-2.656c0.569-0.454,1.841-0.244,2.721-0.015c0.49,0.129,0.873,0.861,1.202,1.385
		c1.14,1.811,2.564,2.293,4.611,1.429c1.508-0.636,3.141-1.074,4.758-1.314c2.107-0.312,3.024-1.461,3.09-3.465
		c0.054-1.714,0.474-3.221,2.546-3.213c2.071,0.007,2.454,1.512,2.536,3.229c0.094,1.997,1.08,3.145,3.187,3.388
		c1.392,0.16,2.833,0.458,4.104,1.025c2.489,1.111,4.246,0.749,5.745-1.694c1.158-1.888,3.117-1.856,4.162-0.057
		c0.379,0.656,0.391,1.904,0.009,2.552c-1.363,2.315-0.763,3.912,1.257,5.433c1.244,0.936,2.327,2.124,3.34,3.316
		c1.31,1.543,2.718,2.079,4.521,0.923c1.486-0.95,2.813-0.942,3.834,0.665c1.097,1.727,0.121,2.804-1.251,3.686
		c-1.704,1.095-2.21,2.411-1.388,4.401c0.713,1.728,1.16,3.593,1.51,5.438c0.349,1.834,1.323,2.814,3.136,2.908
		c1.664,0.085,3.008,0.574,3.038,2.482c0.028,1.891-1.251,2.491-2.941,2.578c-1.942,0.1-2.899,1.154-3.194,3.101
		c-0.259,1.697-0.662,3.422-1.325,4.997c-0.898,2.134-0.362,3.522,1.458,4.826c1.931,1.382,1.943,3.324,0.033,4.307
		c-0.718,0.37-1.99,0.2-2.771-0.196c-1.727-0.875-2.929-0.487-4.148,0.872c-1.361,1.518-2.807,2.975-4.326,4.337
		c-1.354,1.214-1.889,2.467-0.867,4.124c0.958,1.554,0.687,2.856-0.882,3.805c-1.66,1.002-2.665-0.013-3.489-1.276
		c-1.079-1.653-2.393-1.971-4.246-1.262c-1.749,0.67-3.603,1.148-5.454,1.45c-1.952,0.319-2.966,1.3-3.064,3.233
		c-0.086,1.701-0.733,2.942-2.616,2.897c-1.755-0.043-2.353-1.241-2.418-2.844c-0.083-2.042-1.173-3.01-3.205-3.387
		C354.43,68.828,352.193,68.036,349.446,67.269z M362.816,20.276c-9.796-0.055-17.78,7.808-17.836,17.566
		c-0.055,9.793,7.813,17.781,17.568,17.836c9.794,0.055,17.779-7.81,17.834-17.566C380.438,28.318,372.571,20.332,362.816,20.276z"
		/>
	<path clip-path="url(#SVGID_2_)" fill-rule="evenodd" clip-rule="evenodd" fill="#5D5D5D" d="M449.574,323.801
		c-0.293,0.253-0.771,0.565-1.116,0.986c-0.537,0.655-1.04,1.245-1.964,0.678c-0.854-0.524-0.891-1.205-0.386-2.014
		c0.593-0.95,0.295-1.693-0.52-2.391c-0.725-0.618-1.407-1.304-2.009-2.042c-0.69-0.847-1.429-1.1-2.377-0.506
		c-0.797,0.498-1.474,0.478-2.027-0.369c-0.624-0.953,0.001-1.515,0.683-1.938c1.054-0.653,1.198-1.452,0.765-2.548
		c-0.304-0.767-0.53-1.589-0.629-2.405c-0.144-1.17-0.769-1.701-1.882-1.74c-0.875-0.03-1.605-0.274-1.63-1.287
		c-0.026-1.083,0.731-1.371,1.655-1.39c1.134-0.023,1.726-0.568,1.895-1.719c0.126-0.856,0.372-1.716,0.702-2.518
		c0.448-1.086,0.156-1.792-0.78-2.438c-0.435-0.3-0.896-0.836-0.972-1.323c-0.151-0.979,1.06-1.665,2.011-1.105
		c1.254,0.735,2.173,0.527,2.995-0.621c0.287-0.401,0.642-0.783,1.042-1.07c1.365-0.982,1.955-2.064,0.899-3.682
		c-0.174-0.269,0.166-1.127,0.514-1.405c0.301-0.24,0.974-0.13,1.439-0.008c0.26,0.068,0.461,0.456,0.637,0.733
		c0.603,0.957,1.356,1.213,2.44,0.756c0.797-0.337,1.661-0.568,2.518-0.695c1.114-0.165,1.601-0.773,1.635-1.834
		c0.029-0.907,0.251-1.704,1.347-1.7s1.298,0.8,1.342,1.709c0.049,1.057,0.572,1.664,1.686,1.793
		c0.737,0.084,1.499,0.241,2.171,0.542c1.318,0.588,2.247,0.396,3.04-0.896c0.613-0.999,1.65-0.982,2.203-0.03
		c0.201,0.348,0.208,1.008,0.006,1.351c-0.722,1.226-0.404,2.07,0.666,2.875c0.658,0.496,1.231,1.124,1.767,1.755
		c0.693,0.816,1.438,1.101,2.391,0.489c0.787-0.503,1.489-0.499,2.03,0.352c0.581,0.914,0.064,1.483-0.662,1.95
		c-0.901,0.579-1.171,1.275-0.736,2.329c0.378,0.914,0.615,1.901,0.8,2.877c0.185,0.97,0.701,1.489,1.66,1.539
		c0.88,0.045,1.59,0.304,1.607,1.313c0.015,1-0.662,1.317-1.556,1.363c-1.029,0.053-1.534,0.611-1.691,1.641
		c-0.136,0.897-0.349,1.811-0.7,2.645c-0.475,1.128-0.192,1.863,0.771,2.553c1.022,0.731,1.028,1.759,0.017,2.279
		c-0.38,0.195-1.052,0.105-1.465-0.104c-0.914-0.463-1.55-0.258-2.196,0.461c-0.72,0.804-1.485,1.575-2.288,2.296
		c-0.717,0.642-1,1.305-0.459,2.182c0.507,0.822,0.363,1.511-0.467,2.014c-0.877,0.53-1.41-0.008-1.846-0.677
		c-0.57-0.874-1.266-1.042-2.246-0.667c-0.926,0.354-1.907,0.607-2.887,0.767c-1.033,0.169-1.57,0.688-1.622,1.711
		c-0.045,0.9-0.387,1.557-1.384,1.533c-0.928-0.022-1.245-0.656-1.279-1.505c-0.043-1.081-0.62-1.592-1.695-1.792
		C452.211,324.626,451.027,324.206,449.574,323.801z M456.648,298.935c-5.183-0.028-9.408,4.132-9.437,9.295
		c-0.029,5.182,4.134,9.409,9.295,9.438c5.183,0.029,9.409-4.132,9.438-9.296C465.973,303.19,461.811,298.964,456.648,298.935z"/>
	<path clip-path="url(#SVGID_2_)" fill-rule="evenodd" clip-rule="evenodd" fill="#5D5D5D" d="M509.375,309.826
		c-0.456,0.393-1.198,0.879-1.734,1.533c-0.834,1.018-1.616,1.935-3.052,1.053c-1.328-0.814-1.385-1.873-0.599-3.129
		c0.922-1.477,0.459-2.632-0.808-3.716c-1.126-0.96-2.187-2.025-3.122-3.173c-1.073-1.316-2.22-1.709-3.694-0.786
		c-1.239,0.773-2.291,0.742-3.15-0.574c-0.969-1.48,0.001-2.354,1.061-3.011c1.638-1.016,1.862-2.257,1.188-3.959
		c-0.472-1.191-0.824-2.47-0.978-3.738c-0.224-1.818-1.195-2.644-2.925-2.705c-1.359-0.047-2.495-0.426-2.534-2
		c-0.041-1.683,1.137-2.131,2.571-2.159c1.762-0.036,2.683-0.884,2.944-2.671c0.196-1.331,0.578-2.667,1.09-3.913
		c0.696-1.688,0.243-2.784-1.212-3.789c-0.676-0.466-1.393-1.299-1.511-2.057c-0.234-1.522,1.647-2.588,3.125-1.718
		c1.949,1.143,3.377,0.819,4.654-0.965c0.445-0.624,0.998-1.218,1.619-1.664c2.121-1.526,3.038-3.208,1.397-5.722
		c-0.271-0.417,0.257-1.751,0.798-2.184c0.468-0.373,1.514-0.202,2.236-0.012c0.403,0.105,0.717,0.708,0.989,1.14
		c0.937,1.487,2.108,1.885,3.792,1.175c1.239-0.524,2.582-0.884,3.913-1.081c1.731-0.256,2.487-1.202,2.54-2.85
		c0.046-1.41,0.39-2.648,2.094-2.643s2.018,1.243,2.086,2.656c0.077,1.642,0.889,2.586,2.62,2.786
		c1.146,0.13,2.33,0.375,3.374,0.842c2.048,0.914,3.492,0.616,4.724-1.393c0.953-1.553,2.565-1.527,3.423-0.047
		c0.313,0.54,0.322,1.565,0.009,2.099c-1.122,1.904-0.628,3.217,1.035,4.468c1.022,0.771,1.913,1.747,2.746,2.728
		c1.077,1.269,2.234,1.71,3.716,0.76c1.223-0.781,2.313-0.775,3.154,0.547c0.902,1.42,0.1,2.305-1.029,3.03
		c-1.401,0.9-1.82,1.982-1.144,3.62c0.587,1.42,0.955,2.954,1.243,4.471c0.287,1.507,1.089,2.314,2.58,2.392
		c1.368,0.07,2.472,0.472,2.498,2.041c0.023,1.555-1.029,2.048-2.418,2.119c-1.599,0.082-2.384,0.95-2.628,2.55
		c-0.212,1.395-0.542,2.813-1.088,4.109c-0.739,1.753-0.299,2.896,1.199,3.967c1.588,1.137,1.597,2.733,0.026,3.542
		c-0.59,0.304-1.635,0.164-2.277-0.162c-1.42-0.719-2.409-0.4-3.413,0.717c-1.119,1.249-2.308,2.447-3.556,3.567
		c-1.114,0.997-1.554,2.027-0.713,3.391c0.788,1.278,0.564,2.348-0.726,3.13c-1.364,0.823-2.192-0.013-2.869-1.052
		c-0.886-1.358-1.967-1.62-3.49-1.037c-1.439,0.551-2.964,0.944-4.486,1.191c-1.605,0.263-2.439,1.07-2.521,2.659
		c-0.07,1.399-0.602,2.419-2.151,2.383c-1.443-0.035-1.935-1.021-1.988-2.339c-0.067-1.68-0.964-2.474-2.634-2.785
		C513.474,311.108,511.633,310.456,509.375,309.826z M520.369,271.183c-8.055-0.044-14.62,6.421-14.666,14.444
		c-0.046,8.053,6.424,14.623,14.445,14.668c8.054,0.046,14.622-6.421,14.667-14.446C534.86,277.797,528.392,271.229,520.369,271.183
		z"/>
</g>
</svg>
