<svg width="176" height="251" viewBox="0 0 176 251" fill="none" xmlns="http://www.w3.org/2000/svg">
<g clip-path="url(#clip0)">
<path d="M176 251C117.306 251 58.7757 251 0 251C0.817464 247.444 1.55318 244.011 2.37065 240.578C7.35718 218.751 12.3846 196.925 17.412 175.14C19.2104 167.374 20.9271 159.649 22.7664 151.884C24.7283 143.709 30.287 138.477 37.3581 134.676C40.7097 132.878 44.3883 131.774 47.9034 130.303C49.334 129.69 50.3558 130.057 51.5002 131.161C62.6586 141.951 73.8987 152.66 85.1389 163.369C86.079 164.268 87.019 165.085 88.1226 166.107C91.1881 163.205 94.131 160.426 97.0739 157.606C106.393 148.736 115.712 139.826 124.949 130.916C125.849 130.057 126.625 129.812 127.811 130.18C135.863 132.551 143.179 136.066 148.697 142.646C150.986 145.344 152.539 148.409 153.315 151.843C160.754 184.255 168.234 216.708 175.673 249.12C175.796 249.692 175.877 250.305 176 251Z" fill="#EE1E5B"/>
<path d="M138.642 60.5328C138.478 67.3177 137.416 73.939 135.29 80.397C133.941 84.4025 134.718 87.8358 137.865 90.5743C141.053 93.3128 144.65 93.4354 148.329 91.5144C148.697 91.31 149.064 91.1465 149.432 90.983C152.784 89.3481 152.784 89.3481 155.4 91.9231C160.591 97.0731 160.509 103 155.114 107.945C150.209 112.482 144.241 115.261 137.947 117.019C130.426 119.104 122.742 120.534 115.14 122.332C114.2 122.537 113.178 122.905 112.442 123.518C97.4825 135.534 78.6808 135.575 63.803 123.6C63.0264 122.946 61.9228 122.496 60.9419 122.332C50.2331 120.616 39.6061 118.572 29.7965 113.708C26.6084 112.114 23.502 110.111 20.8453 107.741C15.5726 103.122 15.6135 97.1957 20.4774 92.2092C21.1722 91.4735 22.0306 90.8604 22.7663 90.1656C24.5238 88.5715 26.077 87.7949 28.652 89.062C31.7584 90.6152 34.9465 89.5116 37.5215 87.1818C40.26 84.7295 41.0775 81.5823 40.0965 78.0672C37.7668 69.4839 36.7858 60.8189 37.8894 51.9903C40.3009 32.2079 48.7617 15.9405 66.5006 5.76318C83.7082 -4.12804 105.289 -0.980831 119.677 13.0385C132.266 25.2186 138.928 41.9356 138.642 60.5328ZM98.4635 36.5813C97.973 36.5813 97.646 36.5404 97.319 36.5813C84.1987 38.6249 71.7733 42.5896 60.8193 50.3554C55.3422 54.2383 51.7454 59.3475 50.6827 66.2141C49.7835 72.2633 49.3339 78.2307 50.0287 84.3207C51.3775 95.5608 55.2605 105.738 63.0264 114.117C71.4054 123.15 81.5828 127.605 94.0083 125.275C104.063 123.395 111.666 117.469 117.102 109.049C128.424 91.4735 129.364 72.8764 121.393 53.707C119.35 48.8023 116.407 44.388 112.606 40.5051C104.881 46.7995 95.8067 49.0475 86.2833 50.1919C92.7412 47.8213 97.8095 44.3063 98.4635 36.5813Z" fill="#EE1E5B"/>
</g>
<defs>
<clipPath id="clip0">
<rect width="176" height="251" fill="white"/>
</clipPath>
</defs>
</svg>
