<svg width="233" height="274" viewBox="0 0 233 274" fill="none" xmlns="http://www.w3.org/2000/svg">
<g clip-path="url(#clip0)">
<path d="M118.011 274.001C109.018 272.675 102.679 267.223 96.5609 261.034C68.6982 232.89 40.6144 204.893 12.5306 176.97C2.43216 166.95 -1.32709 155.015 0.368259 140.943C2.6533 122.155 4.49607 103.368 6.7811 84.5806C7.4445 78.7602 8.03419 72.6451 10.2455 67.4142C14.963 56.5102 23.8083 50.1004 35.8969 48.7005C40.6881 48.1848 45.4793 47.5954 50.5653 47.0797C51.4499 40.9646 52.3344 34.7758 53.2927 28.6607C54.3246 21.5142 55.2828 14.3677 56.5359 7.22111C57.1993 3.46365 59.7792 1.10602 63.4648 0.295592C67.0766 -0.514841 70.1724 0.66397 72.5312 3.53732C74.3002 5.74759 74.8162 8.25257 74.374 11.0522C72.7523 21.8826 71.2044 32.7129 69.6565 43.6169C69.5828 43.9853 69.5828 44.28 69.509 44.9431C75.1848 44.3537 80.7131 43.6906 86.3151 43.1012C92.5805 42.4381 98.9197 41.554 105.185 41.1856C116.684 40.5962 126.561 44.501 134.669 52.6054C164.596 82.3703 194.449 112.209 224.228 142.121C235.874 153.762 235.874 170.634 224.302 182.275C196.66 210.05 168.871 237.605 141.23 265.381C136.365 270.243 130.468 272.822 123.908 274.075C121.991 274.001 120.001 274.001 118.011 274.001ZM49.1648 56.5102C44.1525 57.0259 39.7299 57.3206 35.3072 58.0574C25.0614 59.6045 17.9114 67.3405 16.8058 77.5814C14.3733 99.3894 11.9409 121.197 9.5084 142.932C8.25532 153.615 11.3512 162.677 19.0908 170.339C48.4277 199.515 77.6909 228.838 106.954 258.087C115.873 267.002 126.561 267.002 135.48 258.087C162.753 230.827 190.026 203.641 217.226 176.381C226.145 167.466 226.145 156.783 217.299 147.868C187.815 118.398 158.331 89.0012 128.92 59.5309C122.065 52.679 113.809 49.4373 104.227 50.3214C92.8017 51.3529 81.3765 52.7527 69.9513 54.1525C69.2142 54.2262 68.1823 55.1103 68.0348 55.7734C67.5189 58.2784 67.2977 60.7834 66.9292 63.4357C67.4451 63.5094 67.8137 63.583 68.1085 63.5094C79.8286 62.2569 91.5486 61.0044 103.195 59.6045C110.861 58.6468 117.274 60.7834 122.655 66.2354C151.991 95.5583 181.328 124.881 210.665 154.204C216.267 159.804 216.194 164.445 210.592 170.118C183.466 197.231 156.34 224.343 129.215 251.456C123.613 257.055 118.895 257.055 113.367 251.53C83.9564 222.281 54.6932 193.031 25.3562 163.782C19.7542 158.183 17.6903 151.552 18.5748 143.816C21.081 122.155 23.4398 100.421 25.8722 78.6866C26.683 71.6137 30.8108 67.4878 38.0345 66.8248C41.2778 66.5301 44.5211 66.088 47.8381 65.7196C48.2803 62.6252 48.7226 59.7519 49.1648 56.5102ZM109.976 106.168C107.175 109.115 104.817 111.62 102.31 114.051C101.057 115.23 100.836 116.335 101.131 118.029C105.554 138.732 109.903 159.509 114.325 180.212C116.094 188.537 117.863 196.862 119.854 205.998C122.581 203.125 124.792 200.546 127.225 198.262C128.625 196.936 128.92 195.684 128.551 193.768C123.539 170.339 118.6 146.91 113.662 123.481C112.556 117.956 111.303 112.43 109.976 106.168ZM83.8827 179.401C92.6543 179.254 100.541 173.36 102.9 165.992C105.701 157.372 102.384 150.52 96.2661 144.7C91.4012 140.058 85.7254 137.259 78.7966 139.322C66.0446 143.079 60.59 157.299 67.74 168.497C71.7941 174.76 77.3224 179.18 83.8827 179.401ZM125.972 153.615C125.898 157.372 128.625 162.161 132.606 166.361C137.544 171.444 143.441 174.391 150.591 172.549C157.962 170.634 162.827 165.624 164.817 158.33C167.029 150.299 163.564 143.89 157.962 138.511C153.908 134.606 149.264 131.807 143.441 132.396C134.375 133.28 126.266 142.195 125.972 153.615ZM64.3493 80.3074C64.2019 81.1179 64.0544 81.9283 63.907 82.665C63.2436 87.0856 62.8014 91.5061 61.8431 95.853C60.6637 101.084 56.0937 104.031 51.3762 103.073C46.3638 102.042 43.3417 97.7686 44.0051 92.3902C44.5948 87.454 45.4056 82.5914 46.069 77.5814C39.5824 79.276 34.2015 87.454 34.6438 94.6742C35.2335 103.957 41.7938 111.178 50.7128 112.283C59.1158 113.388 67.6663 108.083 70.3199 100.2C72.7523 92.6113 70.0987 83.4755 64.3493 80.3074Z" fill="#EE1E5B"/>
<path d="M86.3893 168.791C85.7996 168.644 84.6203 168.496 83.662 167.98C80.1976 165.991 77.2492 163.413 75.4801 159.802C73.8585 156.413 74.5956 153.393 77.4703 150.961C79.9765 148.898 83.0723 148.53 85.7996 150.888C88.527 153.245 91.2542 155.824 93.0233 158.918C95.5295 163.118 91.8439 168.717 86.3893 168.791Z" fill="#EE1E5B"/>
<path d="M143.22 143.299C148.159 143.373 155.235 150.151 155.456 155.087C155.677 159.729 150.444 163.781 146.169 162.087C141.599 160.245 138.282 156.929 136.586 152.288C134.965 147.867 138.503 143.226 143.22 143.299Z" fill="#EE1E5B"/>
</g>
<defs>
<clipPath id="clip0">
<rect width="233" height="274" fill="white"/>
</clipPath>
</defs>
</svg>
