<svg width="250" height="282" viewBox="0 0 250 282" fill="none" xmlns="http://www.w3.org/2000/svg">
<g clip-path="url(#clip0)">
<path d="M117.338 282C112.259 281.224 107.094 280.62 102.014 279.757C90.4786 277.772 79.4593 273.975 68.9565 268.711C56.8181 262.585 45.971 254.732 36.4152 245.067C27.1177 235.662 19.4559 225.134 13.5158 213.312C7.92005 202.267 4.04608 190.618 1.89388 178.451C-0.344415 165.852 -0.516591 153.254 1.11908 140.569C3.44346 123.224 9.0392 107.088 17.9924 92.073C24.7072 80.7688 33.1439 70.8453 42.9579 62.2162C53.0302 53.4145 64.3078 46.4249 76.7045 41.1611C87.8959 36.4151 99.5179 33.5675 111.57 32.1868C113.378 32.0142 113.808 31.2376 113.722 29.6844C113.636 27.9585 113.722 26.2327 113.722 24.852C111.484 24.1617 109.418 23.7302 107.696 22.9536C104.597 21.4867 102.789 18.8116 102.445 15.36C102.1 11.3043 101.584 7.07602 104.769 3.88324C106.319 2.33 108.385 1.3808 110.193 0.0864258C120.093 0.0864258 129.993 0.0864258 139.893 0.0864258C141.701 1.2945 143.767 2.33 145.317 3.88324C148.502 7.16231 147.985 11.4769 147.641 15.6189C147.297 18.8979 145.575 21.4004 142.648 22.8673C140.84 23.7302 138.688 24.1617 136.536 24.9383C136.536 27.0956 136.536 29.5118 136.536 31.9279C141.443 32.7908 146.178 33.4812 150.826 34.4304C164.17 37.1054 176.739 41.6788 188.275 49.0136C195.248 53.4145 201.704 58.6782 208.419 63.5106C209.022 63.942 210.227 64.2009 210.572 63.942C213.068 61.9573 215.393 59.7137 217.803 57.6427C216.942 56.521 216.684 56.0895 216.426 55.658C214.704 52.5516 215.393 49.5314 218.492 46.6837C221.333 44.1813 224.173 43.8361 226.928 46.2523C230.544 49.4451 233.815 52.8967 237.173 56.2621C239.669 58.7645 240.272 61.6984 239.067 64.2009C237.345 67.6525 234.246 69.3784 230.716 68.9469C230.114 68.8606 229.253 68.9469 228.908 69.2921C226.24 71.7082 223.743 74.2107 221.246 76.7131C221.849 77.576 222.193 78.1801 222.624 78.6978C234.074 92.9359 241.908 108.9 246.384 126.59C250.603 143.071 251.205 159.812 248.536 176.638C245.179 197.521 237.087 216.419 224.087 233.159C217.631 241.53 210.313 249.209 201.877 255.509C196.367 259.651 190.599 263.361 184.659 266.813C173.295 273.371 160.985 277.599 148.072 279.843C143.165 280.706 138.171 281.31 133.264 282.086C127.755 282 122.503 282 117.338 282ZM124.828 265.26C184.831 265.087 233.127 216.764 233.213 156.878C233.299 96.9053 184.831 48.1507 125.172 48.0644C64.8243 48.0644 16.8732 96.4738 16.615 156.274C16.3567 216.16 65.1687 265.173 124.828 265.26Z" fill="#EE1E5B"/>
<path d="M221.419 155.583C219.181 155.583 217.459 155.756 215.823 155.497C215.22 155.411 214.532 154.203 214.446 153.512C213.757 148.594 211.346 144.624 206.784 142.64C204.546 141.691 201.877 141.086 199.466 141.086C182.421 140.914 165.289 141 148.244 141C146.953 141 146.006 140.741 145.231 139.62C140.065 131.767 132.662 127.711 123.364 126.848C122.762 126.762 122.159 126.676 121.298 126.59C121.298 125.727 121.298 124.95 121.298 124.173C121.298 102.169 121.298 80.1648 121.212 58.2468C121.212 56.0032 121.901 55.5718 123.967 55.6581C139.549 56.2621 154.27 59.9726 168.044 67.3074C175.792 71.4494 182.851 76.5406 189.308 82.581C199.552 92.1593 207.473 103.463 213.068 116.321C216.598 124.432 219.008 132.975 220.041 141.863C220.644 146.178 220.988 150.751 221.419 155.583Z" fill="#EE1E5B"/>
<path d="M171.488 159.035C162.19 159.035 152.893 159.122 143.681 158.949C141.787 158.949 140.84 159.467 140.065 161.279C134.9 174.481 116.563 177.243 107.18 166.543C97.7961 155.756 102.187 137.721 117.855 133.924C126.463 131.853 136.708 137.031 139.979 145.315C140.668 147.127 141.615 147.731 143.595 147.731C161.932 147.645 180.269 147.645 198.605 147.731C199.638 147.731 200.671 147.817 201.704 147.99C204.545 148.508 206.353 150.665 206.267 153.426C206.267 156.188 204.373 158.345 201.532 158.776C200.758 158.863 199.897 158.863 199.036 158.863C189.91 159.035 180.699 159.035 171.488 159.035Z" fill="#EE1E5B"/>
</g>
<defs>
<clipPath id="clip0">
<rect width="250" height="282" fill="white"/>
</clipPath>
</defs>
</svg>
