<svg width="187" height="236" viewBox="0 0 187 236" fill="none" xmlns="http://www.w3.org/2000/svg">
<path d="M144.682 0C151.225 4.83995 147.954 12.2051 149.326 18.9389C158.507 18.9389 167.688 18.9389 176.764 18.9389C184.573 18.9389 187 21.2537 187 28.724C187 94.5894 187 160.56 187 226.425C187 233.475 184.573 236 177.608 236C121.677 236 65.7455 236 9.81433 236C1.89955 236 0 234.001 0 225.899C0 160.35 0 94.7998 0 29.2501C0 21.1485 2.21614 18.9389 10.2365 18.9389C20.3674 18.9389 30.6038 18.9389 41.0514 18.9389C42.5288 12.3103 39.6795 4.62951 46.6445 0C79.2534 0 111.968 0 144.682 0ZM15.6185 34.5109C15.6185 96.7989 15.6185 158.771 15.6185 220.533C67.8561 220.533 119.566 220.533 171.487 220.533C171.487 158.35 171.487 96.5885 171.487 34.5109C163.889 34.5109 156.607 34.5109 148.904 34.5109C148.904 38.6144 149.009 42.4021 148.904 46.1899C148.798 52.6081 146.371 55.2385 140.039 55.2385C110.174 55.3437 80.3087 55.3437 50.338 55.2385C44.3228 55.2385 41.6845 52.6081 41.4735 46.6108C41.2624 42.6126 41.4735 38.6144 41.4735 34.5109C32.3979 34.5109 24.0609 34.5109 15.6185 34.5109ZM57.1975 39.6665C82.7359 39.6665 107.852 39.6665 133.074 39.6665C133.074 31.6701 133.074 23.8841 133.074 16.0981C107.536 16.0981 82.5248 16.0981 57.1975 16.0981C57.1975 23.9893 57.1975 31.5649 57.1975 39.6665Z" fill="#EE1E5B"/>
<path d="M95.0829 111.424C77.1427 111.424 59.2025 111.424 41.3679 111.424C34.1918 111.424 30.2872 106.163 33.031 100.587C35.036 96.4832 38.8351 95.9572 42.8453 96.0624C65.6399 96.0624 88.54 96.0624 111.335 96.0624C123.998 96.0624 136.662 95.9572 149.326 96.0624C155.763 96.1676 159.562 100.376 158.19 105.532C156.924 110.267 153.441 111.529 148.903 111.529C130.963 111.424 113.023 111.424 95.0829 111.424Z" fill="#EE1E5B"/>
<path d="M95.0829 148.46C77.3538 148.46 59.6247 148.46 41.8956 148.46C35.4582 148.46 32.0812 145.724 32.2923 140.779C32.3978 136.044 35.6693 133.414 41.79 133.414C77.5649 133.414 113.445 133.414 149.22 133.414C153.547 133.414 157.451 134.571 157.874 139.096C158.19 141.726 156.502 144.883 154.708 147.092C153.758 148.355 150.803 148.355 148.798 148.355C130.858 148.46 112.918 148.46 95.0829 148.46Z" fill="#EE1E5B"/>
<path d="M67.6451 170.45C76.4041 170.45 85.2687 170.345 94.0277 170.45C99.6208 170.45 102.681 173.291 102.681 178.026C102.681 182.866 99.8319 185.496 93.9222 185.496C76.2986 185.601 58.7805 185.601 41.157 185.496C35.2472 185.496 31.9758 182.55 32.1869 177.71C32.3979 173.08 35.5638 170.45 41.2625 170.45C50.0215 170.345 58.8861 170.45 67.6451 170.45Z" fill="#EE1E5B"/>
</svg>
