<svg width="396" height="59" viewBox="0 0 396 59" fill="none" xmlns="http://www.w3.org/2000/svg">
<g clip-path="url(#clip0)">
<path d="M104.765 57.9989C104.765 39.0625 104.765 20.2514 104.765 1.34633C105.169 1.28374 105.511 1.18984 105.853 1.18984C114.088 1.18984 122.324 1.03334 130.56 1.31503C135.657 1.47153 140.412 3.06782 143.644 7.41848C148.523 13.9288 146.503 23.2874 139.417 27.4503C138.796 27.8259 138.174 28.1702 137.304 28.671C138.019 28.984 138.516 29.2031 139.044 29.3909C145.633 31.9262 148.554 35.7447 148.648 41.9108C148.741 48.5463 145.478 53.836 139.324 56.1835C136.651 57.1851 133.73 57.905 130.902 57.9989C122.573 58.2493 114.213 58.1241 105.884 58.1241C105.573 58.1241 105.262 58.0615 104.765 57.9989ZM110.949 52.584C111.571 52.584 112.068 52.584 112.566 52.584C118.191 52.584 123.847 52.6779 129.472 52.5214C131.617 52.4588 133.792 52.1145 135.874 51.5198C140.319 50.2365 143.053 46.6371 143.147 42.2864C143.24 38.0296 140.94 34.8371 136.278 33.3973C133.792 32.6461 131.119 32.2392 128.509 32.1453C123.194 31.9575 117.849 32.114 112.534 32.0514C111.167 32.0201 110.763 32.4583 110.763 33.8355C110.825 39.5007 110.794 45.1973 110.794 50.8625C110.825 51.3946 110.887 51.8954 110.949 52.584ZM110.825 16.558C110.825 19.375 110.856 22.192 110.794 25.0089C110.763 26.167 111.043 26.6678 112.348 26.6365C117.476 26.5426 122.604 26.6678 127.701 26.5426C129.534 26.48 131.43 26.167 133.139 25.5723C139.821 23.2874 142.214 15.1182 137.646 10.2355C135.191 7.60628 131.865 6.82379 128.478 6.76119C123.039 6.63599 117.631 6.76119 112.193 6.69859C111.074 6.69859 110.763 7.10549 110.794 8.13838C110.856 10.9554 110.825 13.7723 110.825 16.558Z" fill="#EE1E5B"/>
<path d="M223.236 57.9986C221.091 57.9986 219.195 57.9986 217.082 57.9986C217.082 57.2787 217.082 56.684 217.082 56.058C217.082 38.4362 217.082 20.8145 217.082 3.19274C217.082 1.12695 217.082 1.12695 219.071 1.12695C226.778 1.15825 234.517 1.06435 242.224 1.25215C246.544 1.37735 250.709 2.59804 254.376 5.07072C262.146 10.3291 263.14 22.0352 256.272 29.015C254.376 30.9556 252.076 32.4893 249.776 34.336C253.226 42.0044 256.8 49.8919 260.467 58.0612C258.23 58.0612 256.241 58.1238 254.283 57.9986C253.91 57.9673 253.475 57.2787 253.257 56.8092C250.305 50.3301 247.383 43.8198 244.524 37.3094C244.027 36.214 243.468 35.7758 242.224 35.7758C236.537 35.8384 230.819 35.8697 225.131 35.7758C223.671 35.7445 223.173 36.1514 223.204 37.685C223.298 43.8511 223.236 49.9858 223.236 56.1519C223.236 56.7466 223.236 57.31 223.236 57.9986ZM223.236 18.4983C223.236 21.9413 223.267 25.3842 223.204 28.8272C223.173 29.9853 223.546 30.3609 224.696 30.3296C229.669 30.267 234.641 30.4235 239.614 30.267C243.716 30.1418 247.601 29.1402 250.802 26.3232C256.396 21.4405 255.681 12.8957 249.186 9.32748C247.073 8.16939 244.555 7.293 242.162 7.1365C236.288 6.7609 230.384 6.8861 224.479 6.76091C223.422 6.72961 223.173 7.2304 223.173 8.16939C223.267 11.6124 223.236 15.0553 223.236 18.4983Z" fill="#EE1E5B"/>
<path d="M196.446 26.5734C196.446 28.514 196.446 30.1729 196.446 32.0508C195.762 32.0821 195.11 32.1447 194.488 32.1447C186.252 32.1447 178.017 32.1447 169.781 32.1447C167.605 32.1447 167.605 32.1447 167.605 34.3983C167.605 39.7193 167.605 45.0402 167.605 50.3612C167.605 52.5209 167.605 52.5209 169.843 52.5209C180.037 52.5209 190.23 52.5209 200.455 52.5209C201.139 52.5209 201.791 52.5209 202.599 52.5209C202.599 54.3676 202.599 56.089 202.599 57.967C188.987 57.967 175.344 57.967 161.607 57.967C161.607 39.0933 161.607 20.2195 161.607 1.2832C175.157 1.2832 188.645 1.2832 202.258 1.2832C202.258 3.03599 202.258 4.78877 202.258 6.76066C201.667 6.76066 201.046 6.76066 200.455 6.76066C190.137 6.76066 179.85 6.79196 169.532 6.72936C167.916 6.72936 167.543 7.23015 167.574 8.76384C167.667 14.1787 167.636 19.6248 167.574 25.0397C167.574 26.2604 167.947 26.636 169.159 26.636C177.613 26.5734 186.035 26.6047 194.488 26.6047C195.11 26.5734 195.7 26.5734 196.446 26.5734Z" fill="#EE1E5B"/>
<path d="M39.5627 58.1864C39.8424 57.4352 39.9978 56.9657 40.2154 56.5275C47.9539 38.5615 55.7235 20.6267 63.4309 2.66069C63.9592 1.4713 64.6119 1.0957 65.855 1.0957C70.2681 1.1583 70.2681 1.0957 72.0396 5.19597C79.4052 22.2543 86.7707 39.2814 94.1052 56.3084C94.3228 56.8405 94.5092 57.3413 94.82 58.1238C92.6445 58.1238 90.6555 58.1864 88.6665 58.0612C88.3246 58.0299 87.8896 57.31 87.672 56.8405C85.8384 52.7716 84.0048 48.6713 82.2644 44.571C81.7982 43.4755 81.2388 43.006 79.9957 43.006C71.3559 43.0686 62.685 43.0686 54.0452 43.006C52.8643 43.006 52.3049 43.3816 51.8387 44.4458C50.0672 48.6087 48.1404 52.709 46.3689 56.8718C45.9649 57.8108 45.4365 58.249 44.3799 58.1864C42.8881 58.1238 41.3653 58.1864 39.5627 58.1864ZM79.1565 37.4347C75.1474 27.6066 71.2316 17.9663 67.0981 7.88775C62.9647 17.9976 58.9867 27.6066 54.9776 37.4347C63.089 37.4347 70.9519 37.4347 79.1565 37.4347Z" fill="#EE1E5B"/>
<path d="M391.09 43.4757C392.581 44.5086 394.073 45.5102 395.534 46.543C390.561 54.681 378.876 60.6905 367.004 58.5934C352.988 56.0895 342.918 44.6338 342.452 30.5802C341.986 16.9335 350.719 4.8205 364.02 1.09583C376.732 -2.47234 389.753 3.22421 395.969 12.9584C394.446 13.9913 392.892 14.9929 391.369 16.0258C381.549 2.94252 365.108 3.38071 355.785 12.1446C346.244 21.0651 345.715 35.995 354.417 45.604C362.933 54.9001 380.368 57.185 391.09 43.4757Z" fill="#EE1E5B"/>
<path d="M0 1.22085C0.683723 1.18955 1.27421 1.12695 1.89578 1.12695C14.6379 1.12695 27.38 1.12695 40.1221 1.12695C42.1733 1.12695 42.1733 1.12695 42.1733 3.16144C42.1733 6.76091 42.1733 6.76091 38.5682 6.76091C28.3745 6.76091 18.1497 6.7922 7.95605 6.72961C6.46429 6.72961 5.99812 7.1678 6.0292 8.67019C6.12243 14.3667 6.12243 20.032 6.0292 25.7285C5.99812 27.1996 6.49537 27.5439 7.89389 27.5439C15.4149 27.4813 22.9047 27.5126 30.4257 27.5126C30.9851 27.5126 31.5445 27.5126 32.3215 27.5126C32.3215 29.1715 32.3836 30.7365 32.2593 32.2702C32.2282 32.6145 31.4513 33.1153 30.9851 33.1153C28.188 33.2092 25.391 33.1466 22.5939 33.1466C17.7768 33.1466 12.9597 33.1466 8.14252 33.1466C6.06027 33.1466 6.06027 33.1466 6.06027 35.1811C6.06027 42.2235 6.0292 49.2659 6.09135 56.3084C6.12243 57.7795 5.62518 58.2177 4.25773 58.1238C2.89028 58.0299 1.49176 58.0925 0.0310783 58.0925C0 39.0935 0 20.2824 0 1.22085Z" fill="#EE1E5B"/>
<path d="M311.187 58.0298C299.16 58.0298 287.412 58.0298 275.509 58.0298C275.509 39.0935 275.509 20.2197 275.509 1.1582C277.063 1.1582 278.555 1.1582 280.047 1.1582C280.513 1.1582 280.948 1.2208 281.601 1.2834C281.601 1.972 281.601 2.59799 281.601 3.19269C281.601 18.9991 281.632 34.8054 281.57 50.6118C281.57 52.0516 281.942 52.4898 283.372 52.4898C292.012 52.4272 300.683 52.4898 309.322 52.4272C310.814 52.4272 311.374 52.8341 311.218 54.3365C311.094 55.4945 311.187 56.6839 311.187 58.0298Z" fill="#EE1E5B"/>
<path d="M324.769 1.00195C326.882 1.00195 328.871 1.00195 330.953 1.00195C330.953 20.0009 330.953 38.9059 330.953 57.9049C328.902 57.9049 326.882 57.9049 324.769 57.9049C324.769 38.9685 324.769 20.0635 324.769 1.00195Z" fill="#EE1E5B"/>
<path d="M224.257 634.796C479.665 712.847 719.994 755.92 808.232 767.7L674.563 1489.02C638.638 1457.67 -223.501 1286.94 -527.424 1200.44C-770.563 1131.25 -1419.57 922.654 -1713.69 827.007L-1569.7 49.9999C-1425.47 84.9554 -1065.79 179.587 -780.855 278.471C-424.687 402.076 -95.0039 537.231 224.257 634.796Z" fill="#00ACA0" fill-opacity="0.2"/>
</g>
<defs>
<clipPath id="clip0">
<rect width="396" height="59" fill="white"/>
</clipPath>
</defs>
</svg>
