<?xml version="1.0" encoding="utf-8"?>
<!-- Generator: Adobe Illustrator 16.0.2, SVG Export Plug-In . SVG Version: 6.00 Build 0)  -->
<!DOCTYPE svg PUBLIC "-//W3C//DTD SVG 1.1//EN" "http://www.w3.org/Graphics/SVG/1.1/DTD/svg11.dtd">
<svg version="1.1" id="Layer_1" xmlns="http://www.w3.org/2000/svg" xmlns:xlink="http://www.w3.org/1999/xlink" x="0px" y="0px"
	 width="437px" height="475px" viewBox="0 0 437 475" enable-background="new 0 0 437 475" xml:space="preserve">
<circle opacity="0.2" fill-rule="evenodd" clip-rule="evenodd" fill="none" stroke="#5D5D5D" stroke-width="8" stroke-miterlimit="10" cx="222.078" cy="239.66" r="142.661"/>
<circle opacity="0.5" fill-rule="evenodd" clip-rule="evenodd" fill="none" stroke="#FFFF36" stroke-width="6" stroke-miterlimit="10" cx="218.983" cy="237.25" r="210.566"/>
<path fill-rule="evenodd" clip-rule="evenodd" d="M-1118.792,247.627c0.529,8.434-1.127,17.32,6.252,23.093
	c3.075,2.405,7.357,4.072,11.249,4.45c6.808,0.66,12.931-2.405,15.456-8.792c2.25-5.691,2.552-12.153,3.756-18.504
	c10.426-2.038,15.782,2.185,15.786,13.12c0.017,41.163,0.015,82.325-0.002,123.487c-0.005,10.511-3.255,13.746-13.71,13.748
	c-47.995,0.01-95.99,0.016-143.985,0.012c-9.964-0.001-13.147-3.192-13.148-13.109c-0.001-41.329-0.005-82.657,0.004-123.986
	c0.002-11.23,4.679-15.088,16.9-13.144c0,3.276-0.182,6.721,0.034,10.141c0.645,10.195,7.591,17.086,17.156,17.212
	c9.729,0.129,17.078-6.86,17.824-17.155c0.239-3.303,0.038-6.638,0.038-10.409c5.235,0,10.104,0,15.938,0
	c0,3.543-0.208,7.146,0.04,10.719c0.676,9.728,7.335,16.422,16.474,16.81c9.509,0.404,16.863-5.699,18.25-15.512
	c0.552-3.906,0.419-7.91,0.612-12.18C-1128.884,247.627-1124.123,247.627-1118.792,247.627z M-1222.994,292.303
	c0,1.959,0,3.583,0,5.207c0.002,24.998,0.001,49.996,0.008,74.994c0.002,8.672,1.876,10.584,10.492,10.586
	c40.497,0.012,80.993,0.01,121.49,0.001c8.376-0.002,10.302-1.878,10.313-10.248c0.036-25.331,0.028-50.662,0.016-75.993
	c0-1.447-0.198-2.895-0.319-4.547C-1128.245,292.303-1175.192,292.303-1222.994,292.303z"/>
<path fill-rule="evenodd" clip-rule="evenodd" d="M-590.904,77.883c-57.107,0-113.401,0-170.192,0
	c-0.147-1.47-0.407-2.876-0.412-4.282c-0.039-10.665-0.082-21.33-0.019-31.995c0.063-10.667,4.711-15.231,15.271-15.221
	c12.151,0.012,24.303,0.002,37.243,0.002c0-5.104-0.05-9.867,0.011-14.63c0.107-8.454,4.558-12.963,12.984-13.007
	c13.164-0.067,26.329-0.082,39.493,0.001c8.771,0.056,13.065,4.465,13.187,13.324c0.062,4.479,0.011,8.958,0.011,14.019
	c2.086,0.108,3.836,0.272,5.587,0.277c10.831,0.026,21.663-0.033,32.493,0.035c9.393,0.06,14.263,4.824,14.324,14.084
	C-590.843,52.786-590.904,65.083-590.904,77.883z M-695.922,25.99c13.234,0,26.45,0,40.07,0c0-3.025-0.172-5.677,0.039-8.296
	c0.326-4.047-1.147-5.697-5.393-5.554c-7.818,0.265-15.651,0.076-23.479,0.075c-12.911,0-12.912,0-11.795,12.903
	C-696.466,25.266-696.307,25.399-695.922,25.99z"/>
<path fill-rule="evenodd" clip-rule="evenodd" d="M-1072.766,511.269c8.658,0.941,8.66,0.941,8.66,8.795
	c0.001,29.488,0.004,58.978-0.003,88.466c-0.001,6.657-0.507,7.189-7.033,7.191c-54.979,0.011-109.957,0.017-164.936,0.005
	c-7.624-0.001-7.936-0.352-7.937-7.807c-0.003-29.146-0.002-58.293-0.001-87.44c0-8.174,0.002-8.174,8.564-9.193
	c0-3.661,0.089-7.432-0.026-11.197c-0.105-3.425,1.167-5.527,4.568-6.73c24.831-8.778,49.273-8.905,73.141,3.177
	c2.705,1.369,4.751,1.286,7.384-0.034c23.712-11.889,47.995-11.959,72.694-3.338c3.495,1.22,5.164,3.213,4.965,6.981
	C-1072.916,503.761-1072.766,507.396-1072.766,511.269z M-1082.391,594.39c0.11-0.311,0.315-0.621,0.316-0.932
	c0.031-29.642,0.101-59.284-0.099-88.925c-0.01-1.385-2.175-3.51-3.745-4.013c-20.2-6.472-39.963-5.351-59.259,3.724
	c-3.162,1.487-4.256,3.312-4.238,6.82c0.14,27.478,0.058,54.955,0.062,82.433c0,1.741,0.147,3.482,0.232,5.377
	C-1125.618,590.739-1117.688,586.791-1082.391,594.39z M-1158.862,598.856c0-30.236,0.045-60.031-0.139-89.826
	c-0.009-1.428-1.738-3.447-3.18-4.174c-19.564-9.869-39.789-10.826-60.591-4.321c-2.926,0.914-3.343,2.442-3.34,5.05
	c0.018,19.311-0.092,38.621-0.138,57.932c-0.025,10.301-0.004,20.602-0.004,30.991
	C-1193.96,589.656-1193.96,589.656-1158.862,598.856z"/>
<path fill-rule="evenodd" clip-rule="evenodd" d="M-761.214,92.2c21.442,0,42.669,0,64.317,0c0,6.503,0.083,12.775-0.023,19.044
	c-0.104,6.076,1.046,7.428,7.094,7.455c9.329,0.043,18.66-0.1,27.987,0.061c4.521,0.078,6.29-1.78,6.146-6.275
	c-0.215-6.625-0.056-13.262-0.056-20.221c21.737,0,42.96,0,64.509,0c0.113,1.294,0.32,2.566,0.322,3.839
	c0.021,14.827,0.048,29.653-0.004,44.48c-0.035,10.071-4.646,14.729-14.613,14.73c-47.142,0.006-94.283-0.01-141.425-0.06
	c-9.651-0.01-14.437-4.779-14.491-14.409c-0.083-14.825-0.068-29.651-0.069-44.478C-761.521,95.063-761.334,93.76-761.214,92.2z"/>
<path fill-rule="evenodd" clip-rule="evenodd" d="M-478.957-0.095c0,4.199,0.016,7.673-0.01,11.146
	c-0.009,1.136-0.127,2.271-0.224,3.884c-5.474,0-10.728,0-16.38,0c0,45.727,0,90.946,0,136.608c21.633,0,43.34,0,65.831,0
	c0-16.525,0-33.208,0-50.331c16.861,0,32.95,0,49.379,0c0-28.823,0-57.193,0-86.062c-5.434,0-10.69,0-16.277,0
	c0-5.209,0-9.925,0-15.036c6.397,0,12.722-0.506,18.929,0.132c7.211,0.741,12.482,7.345,12.666,15.128
	c0.216,9.157,0.095,18.322,0.096,27.483c0.006,34.981,0.009,69.964-0.001,104.945c-0.005,13.814-5.536,19.353-19.348,19.354
	c-36.314,0.003-72.629,0.018-108.943-0.042c-11.778-0.02-17.694-6.052-17.702-17.945c-0.03-43.811-0.028-87.621-0.002-131.432
	c0.007-11.719,6.152-17.791,17.875-17.83C-488.597-0.106-484.125-0.095-478.957-0.095z M-418.855,149.088
	c12.883-11.577,25.955-23.325,39.027-35.072c-0.608-0.565-1.216-1.13-1.824-1.694c-12.36,0-24.721,0-37.203,0
	C-418.855,125.101-418.855,137.501-418.855,149.088z"/>
<path fill-rule="evenodd" clip-rule="evenodd" d="M-853.544,535.999c-5.143,4.508-10.424,8.326-14.69,13.059
	c-7.09,7.862-15.679,11.169-25.977,13.201c-8.324,1.643-15.962,6.915-23.74,10.897c-0.676,0.346-0.569,3.226-0.085,4.682
	c8.491,25.523-7.533,52.381-33.826,56.313c-16.787,2.511-30.721-3.095-40.883-16.476c-10.073-13.264-11.189-28.033-4.94-43.473
	c1.078-2.663,1.59-5.671,1.786-8.559c2.043-30.066,12.742-55.229,41.27-69.085c7.831-3.803,17.133-5.565,25.908-6.193
	c11.73-0.839,23.604,0.403,35.419,0.605c2.621,0.045,5.265-0.431,7.874-0.824c3.156-0.475,4.936-1.692,4.396-5.622
	c-0.237-1.725,1.507-4.477,3.146-5.566c5.529-3.675,11.358-6.916,17.182-10.125c5.03-2.771,8.288-1.785,11.223,3.275
	c9.098,15.69,18.161,31.401,27.171,47.144c3.556,6.214,2.731,8.953-3.504,12.591c-4.455,2.6-8.924,5.178-13.395,7.75
	C-845.869,543.426-847.777,543.064-853.544,535.999z M-983.291,556.288c3.854-1.754,7.188-3.803,10.812-4.771
	c3.729-0.997,5.577-2.864,6.24-6.581c1.582-8.868,7.158-14.846,14.722-19.102c10.809-6.081,22.085-5.123,33.366-1.601
	c1.043,0.325,1.977,2.063,2.341,3.323c2.526,8.739,0.382,15.111-7.41,20.188c-6.816,4.439-14.009,8.307-21.066,12.372
	c-3.567,2.055-3.604,4.728-1.762,7.979c1.918,3.385,4.564,5.021,8.236,3.092c7.492-3.934,14.921-7.997,22.271-12.19
	c7.427-4.236,14.958-7.676,23.758-8.347c3.716-0.283,7.833-2.187,10.762-4.583c7.637-6.248,14.718-13.175,22.347-20.129
	c-5.146-8.882-10.702-18.47-16.475-28.433c-8.58,5.033-17.506,4.09-26.533,3.928c-12.927-0.23-26.605-1.99-38.657,1.462
	C-966.979,510.527-979.674,526.937-983.291,556.288z M-958.149,559.374c-14.308-0.701-27.483,8.88-31.813,22.875
	c-4.432,14.322,1.521,30.02,14.311,37.741c12.964,7.827,29.357,5.919,40.061-4.662c9.906-9.793,12.822-25.531,6.678-36.031
	C-948.075,586.213-957.731,579.746-958.149,559.374z M-956.051,548.938c11.256,2.899,17.874-5.84,26.191-9.747
	c1.875-0.88,3.089-3.166,4.979-5.208C-940.313,529.136-952.976,535.358-956.051,548.938z"/>
<path fill-rule="evenodd" clip-rule="evenodd" d="M102.146,422.27c-3.982,0-7.401-0.248-10.749,0.134
	c-1.165,0.133-2.67,1.623-3.139,2.833c-3.297,8.514-6.431,17.093-9.471,25.702c-1.194,3.384-2.914,5.14-6.691,3.648
	c-3.497-1.382-4.204-2.998-2.721-7.14c2.932-8.187,5.907-16.359,9.024-24.979c-1.634-0.084-2.803-0.192-3.971-0.195
	c-8.051-0.021-16.104,0.106-24.152-0.056c-9.58-0.193-16.25-6.151-16.321-15.301c-0.212-27.426-0.19-54.855-0.004-82.281
	c0.06-8.866,6.651-15.159,15.499-15.178c38.617-0.082,77.234-0.078,115.851-0.001c8.207,0.016,14.942,6.151,15.009,14.277
	c0.229,27.971,0.232,55.945,0.026,83.916c-0.062,8.334-6.509,14.196-15.285,14.487c-8.043,0.268-16.1,0.094-24.15,0.113
	c-1.481,0.004-2.963,0.001-5.068,0.001c1.8,5.037,3.421,9.599,5.061,14.153c1.431,3.976,2.837,7.962,4.338,11.911
	c1.248,3.282,0.013,5.112-3.115,6.289c-3.256,1.224-5.217,0.237-6.367-2.942c-3.105-8.587-6.375-17.117-9.32-25.758
	c-0.941-2.761-2.17-4.017-5.201-3.703c-2.813,0.291-5.681,0.063-9.056,0.063c0,9.415-0.037,18.51,0.02,27.604
	c0.02,3.228-1.072,5.252-4.621,5.371c-3.935,0.132-5.373-1.15-5.405-5.314c-0.06-7.642-0.019-15.283-0.02-22.926
	C102.146,425.655,102.146,424.311,102.146,422.27z M106.96,412.063c0-0.019,0-0.037,0-0.056c18.829,0,37.658,0.013,56.487-0.009
	c5.145-0.005,6.95-1.753,6.954-6.784c0.022-26.196,0.025-52.394,0.004-78.59c-0.004-5.501-1.805-7.222-7.433-7.224
	c-36.976-0.013-73.952-0.015-110.927-0.012c-6.354,0-7.938,1.563-7.942,7.948c-0.016,25.787-0.007,51.574-0.001,77.361
	c0.001,5.859,1.575,7.366,7.601,7.365C70.122,412.061,88.542,412.063,106.96,412.063z"/>
<path fill-rule="evenodd" clip-rule="evenodd" d="M-429.677,374.683c2.118,8.676,4.195,17.183,6.271,25.689
	c0.352,0.06,0.704,0.12,1.056,0.18c6.997-18.991,13.994-37.982,21.534-58.444c14.049,9.818,27.854,18.705,40.757,28.75
	c8.722,6.79,12.771,16.844,13.688,27.964c0.47,5.699-0.803,7.175-6.599,7.177c-55.32,0.018-110.641,0.02-165.961,0.013
	c-6.165-0.001-7.546-1.646-6.863-7.926c1.413-12.998,7.603-23.535,17.957-31.052c11.935-8.664,24.566-16.367,37.441-24.848
	c7.197,19.863,14.118,38.966,21.039,58.067c0.328-0.025,0.656-0.051,0.983-0.076c1.813-7.841,3.717-15.663,5.323-23.545
	c0.204-1.001-0.883-2.629-1.825-3.437c-3.807-3.263-6.262-12.243-4.012-16.381c0.497-0.915,2.082-1.719,3.186-1.745
	c6.494-0.155,12.999-0.179,19.489,0.052c1.099,0.038,2.778,1.326,3.113,2.379C-420.974,364.178-423.352,370.422-429.677,374.683z"/>
<path fill-rule="evenodd" clip-rule="evenodd" fill="#5D5D5D" d="M181.861,280.706c-22.594,5.447-51.152-4.973-66.453-27.938
	c-17.534-26.318-14.467-60.825,7.393-83.479c21.702-22.49,55.944-26.824,82.806-10.432c25.888,15.799,35.644,46.138,30.168,68.612
	c-4.711-1.763-9.382-3.51-14.148-5.293c0.853-9.657-0.189-18.725-4.089-27.4c-10.269-22.85-34.9-34.865-59.467-28.902
	c-23.406,5.681-39.938,28.176-38.624,52.555c1.504,27.896,25.651,49.756,53.591,48.283c2.945-0.155,4.141,0.675,4.951,3.286
	C179.111,273.61,180.549,277.125,181.861,280.706z"/>
<path fill-rule="evenodd" clip-rule="evenodd" d="M-458.229,228.514c0.188-2.367,0.341-4.288,0.517-6.494
	c2.62,1.241,4.899,2.32,7.381,3.496c0.46-3.314,0.838-6.028,1.216-8.747c10.734,4.136,20.83,8.437,31.198,11.929
	c18.98,6.393,28.774,19.945,31.766,39.127c0.832,5.332,1.202,10.418,6.38,14.219c2.253,1.654,3.358,6.28,3.241,9.492
	c-0.385,10.539-4.696,19.189-14.067,24.93c-1.67,1.022-3.019,2.953-3.934,4.759c-5.588,11.028-13.261,19.948-24.866,24.873
	c-18.164,7.71-38.788,1.648-51.567-15.026c-0.606-0.791-1.207-1.594-1.733-2.439c-3.617-5.805-7.16-11.222-12.995-15.667
	c-7.943-6.052-11.567-15.312-9.42-25.773c0.413-2.018,1.374-4.632,2.928-5.572c4.544-2.748,4.235-6.839,4.481-11.151
	c0.264-4.632,0.837-9.302,1.855-13.824C-482.499,241.777-473.126,232.555-458.229,228.514z M-432.985,341.552
	c2.802-0.878,8.097-1.874,12.775-4.141c9.75-4.724,15.63-13.12,19.783-22.902c0.706-1.664,1.855-3.742,3.335-4.372
	c7.149-3.045,12.383-9.909,12.596-17.534c0.094-3.377-0.794-6.475-4.59-7.346c-3.641-0.835-6.38,0.185-7.922,4.121
	c-0.569,1.455-2.682,2.306-4.091,3.433c-0.948-1.592-2.521-3.105-2.732-4.789c-0.726-5.772-1.158-11.598-1.354-17.414
	c-0.214-6.386-3.188-10.834-8.928-13.2c-14.663-6.043-29.5-6.167-44.199-0.225c-5.409,2.188-8.827,6.227-9.054,12.569
	c-0.219,6.142-0.719,12.288-1.481,18.385c-0.209,1.667-1.809,3.159-2.77,4.731c-1.396-1.179-3.48-2.095-4.051-3.589
	c-1.321-3.457-3.725-5.252-6.831-3.926c-2.149,0.918-4.477,3.529-4.982,5.775c-1.363,6.062,4.221,16.11,10.134,17.94
	c3.91,1.21,5.264,3.602,6.789,6.875C-463.617,330.843-452.8,340.629-432.985,341.552z"/>
<path fill-rule="evenodd" clip-rule="evenodd" d="M-1197.511,93.232c2.294-2.639,4.845-5.288,7.021-8.217
	c0.851-1.145,1.375-2.998,1.151-4.383c-0.502-3.103-1.528-6.125-2.411-9.16c-1.007-3.459-2.515-6.72,1.896-9.41
	c1.359-0.828,1.386-3.841,2.022-5.854c12.01,0.536,20.849,7.052,22.862,16.263c2.339,10.698,5.645,21.186,8.5,31.772
	c0.301,1.118,0.782,2.409,0.488,3.418c-0.493,1.696-1.242,4.203-2.438,4.571c-1.303,0.4-3.904-0.789-4.779-2.075
	c-3.906-5.735-7.398-11.753-12.026-17.527c-0.217,4.849-0.66,9.699-0.608,14.545c0.129,12.152,0.484,24.302,0.744,36.452
	c0.028,1.332,0.502,2.917-0.05,3.943c-1.137,2.112-2.503,4.889-4.404,5.531c-1.3,0.438-4.62-1.854-5.389-3.636
	c-3.752-8.697-6.939-17.639-10.356-26.481c-0.574-1.483-1.3-2.908-2.548-5.672c-1.37,2.623-2.283,4.037-2.882,5.573
	c-3.206,8.213-6.366,16.445-9.473,24.696c-1.217,3.232-2.402,6.628-6.8,5.654c-4.325-0.958-4.071-4.588-4.039-8.009
	c0.158-16.63,0.272-33.261,0.375-49.891c0.006-0.914-0.225-1.828-0.494-3.872c-4.005,6.517-7.241,12.268-11.02,17.637
	c-1.146,1.629-3.791,2.204-5.75,3.262c-0.68-1.989-2.318-4.219-1.888-5.93c3.237-12.888,6.186-25.92,10.629-38.408
	c3.207-9.011,12.256-10.674,19.472-12.102c2.35,3.347,4.217,5.804,5.83,8.418c0.519,0.84,0.62,2.134,0.462,3.15
	c-0.277,1.797-0.625,3.677-1.423,5.283C-1209.181,81.531-1205.092,87.443-1197.511,93.232z"/>
<path fill-rule="evenodd" clip-rule="evenodd" d="M-1133.25,91.36c-4.147,6.788-7.417,12.579-11.185,18.024
	c-1.07,1.546-3.594,2.086-5.452,3.088c-0.733-1.956-2.461-4.161-2.043-5.829c3.267-13.049,6.182-26.272,10.761-38.877
	c3.151-8.674,12.098-10.515,19.367-11.836c2.222,3.207,4.07,5.7,5.7,8.329c0.517,0.833,0.733,2.069,0.589,3.048
	c-0.263,1.795-0.645,3.656-1.417,5.28c-4.111,8.649-0.794,14.853,7.486,20.537c2.213-2.584,4.845-5.349,7.067-8.411
	c0.806-1.11,1.064-3.008,0.816-4.413c-0.545-3.1-1.509-6.133-2.416-9.159c-1.005-3.356-2.17-6.407,1.889-9.014
	c1.38-0.887,1.431-3.844,2.097-5.876c10.085-0.53,19.643,5.774,22.365,15.211c3.271,11.335,6.3,22.741,9.261,34.161
	c0.635,2.449,1.581,5.439-2.039,6.769c-3.561,1.308-4.633-1.504-6.018-3.741c-3.371-5.449-6.732-10.905-10.098-16.358
	c-0.452,0.077-0.904,0.155-1.356,0.232c0,3.098-0.042,6.196,0.008,9.293c0.229,14.484,0.45,28.97,0.754,43.452
	c0.073,3.496,0.085,7.031-4.108,7.997c-4.406,1.016-5.576-2.476-6.791-5.679c-3.128-8.244-6.286-16.478-9.469-24.701
	c-0.57-1.472-1.319-2.873-2.576-5.578c-1.369,2.708-2.26,4.168-2.873,5.735c-3.269,8.368-6.537,16.738-9.657,25.163
	c-1.13,3.05-2.493,5.669-6.265,5.063c-4.149-0.667-4.321-3.9-4.292-7.264c0.149-17.143,0.236-34.286,0.328-51.43
	C-1132.813,93.958-1132.977,93.338-1133.25,91.36z"/>
<path fill-rule="evenodd" clip-rule="evenodd" fill="#5D5D5D" d="M207.69,216.959c-19.188-7.189-37.989-14.232-57.753-21.637
	c7.305,19.535,14.342,38.355,21.427,57.303c-19.043,1.965-37.603-15.686-38.064-35.584c-0.521-22.432,17.507-40.157,39.54-38.876
	C192.988,179.336,210.263,198.21,207.69,216.959z"/>
<path fill-rule="evenodd" clip-rule="evenodd" d="M241.927,270.86c-5.781,5.78-10.773,10.771-16.229,16.224
	c-7.625-7.844-15.283-15.721-23.424-24.094c-4.025,4.508-7.72,8.646-12.145,13.603c-8.416-22.418-16.353-43.56-24.671-65.72
	c22.063,8.271,43.208,16.198,65.216,24.449c-4.691,4.213-8.806,7.909-13.113,11.779C226.14,255.466,233.994,263.125,241.927,270.86z
	"/>
<path fill-rule="evenodd" clip-rule="evenodd" d="M-691.157,617.415c2.117-1.25,3.831-2.229,5.515-3.26
	c19.149-11.707,38.295-23.423,57.993-35.474c-2.788-3.951-5.406-7.662-8.541-12.104c15.772-2.097,30.801-4.095,46.84-6.227
	c-7.108,14.559-13.769,28.198-20.744,42.483c-3.098-4.23-5.707-7.794-8.523-11.641c-12.482,7.625-24.667,15.067-36.853,22.511
	c-10.647,6.504-21.27,13.05-31.953,19.495c-5.876,3.546-9.052,2.848-13.183-2.631c-2.6-3.447-5.182-6.908-8.11-10.815
	c-7.443,4.91-14.741,9.731-22.047,14.538c-1.944,1.279-3.834,2.678-5.895,3.739c-3.867,1.993-7.279,0.856-9.666-2.475
	c-2.464-3.438-2.191-7.479,1.189-9.833c11.46-7.984,23.129-15.683,34.936-23.146c3.522-2.226,7.098-0.809,9.66,2.52
	C-697.5,609.045-694.499,613.023-691.157,617.415z"/>
<path fill-rule="evenodd" clip-rule="evenodd" d="M-711.01,551.136c7.834,3.059,15.321,6.17,22.948,8.889
	c4.422,1.576,7.204,4.2,8.824,8.668c2.549,7.034,5.651,13.866,8.412,20.826c2.135,5.382,0.769,9.638-3.489,11.454
	c-4.551,1.943-8.476-0.109-10.845-5.712c-1.62-3.831-3.618-7.566-4.697-11.548c-1.932-7.129-6.348-10.833-13.375-12.884
	c-7.945-2.318-15.569-5.751-23.305-8.771c-6.741-2.633-8.119-5.276-5.949-12.272c3.301-10.641,6.767-21.231,10.311-31.794
	c1.944-5.795,5.098-7.404,11.155-5.943c7.277,1.754,14.493,3.776,21.809,5.34c2.058,0.44,4.529,0.113,6.536-0.618
	c4.522-1.648,8.829-3.879,13.306-5.669c4.691-1.876,9.098-0.088,10.769,4.131c1.628,4.109-0.057,7.984-4.67,10.077
	c-6.06,2.75-12.024,5.989-18.386,7.691c-4.038,1.081-8.827,0.269-13.095-0.602c-9.411-1.92-9.37-2.156-12.294,6.641
	C-708.301,542.818-709.526,546.608-711.01,551.136z"/>
<path fill-rule="evenodd" clip-rule="evenodd" d="M-438.403,26.832c-7.153,0-14.307,0.07-21.459-0.02
	c-7.711-0.097-12.1-4.415-12.26-12.027c-0.105-4.988,0.128-9.987-0.093-14.969c-0.155-3.48,0.779-5.191,4.64-5.216
	c7.43-0.047,12.606-2.845,14.043-11.146c0.349-2.016,4.005-4.621,6.378-4.896c6.07-0.706,12.281-0.414,18.425-0.196
	c3.38,0.119,5.811,1.774,6.819,5.445c2.371,8.627,4.056,10.198,13.019,10.681c4.282,0.23,5.41,1.831,5.193,5.756
	c-0.256,4.644-0.001,9.313-0.062,13.971c-0.107,8.206-4.367,12.458-12.685,12.646c-3.658,0.083-7.319-0.004-10.979-0.008
	c-3.659-0.004-7.319-0.001-10.979-0.001C-438.403,26.845-438.403,26.838-438.403,26.832z M-428.993-5.65
	c-0.063-4.813-4.135-8.954-8.844-8.995c-4.915-0.042-9.205,4.338-9.097,9.289c0.105,4.819,4.189,8.971,8.876,9.022
	C-433.192,3.72-428.927-0.665-428.993-5.65z"/>
<path fill-rule="evenodd" clip-rule="evenodd" d="M-1085.79,27.767c-0.039,13.594-10.881,24.34-24.48,24.264
	c-13.495-0.076-24.491-11.153-24.353-24.533c0.139-13.468,11.207-24.433,24.6-24.371
	C-1096.567,3.188-1085.752,14.186-1085.79,27.767z"/>
<path fill-rule="evenodd" clip-rule="evenodd" d="M-1222.327,27.849c-0.015-13.717,10.614-24.623,24.1-24.729
	c13.471-0.104,24.525,10.821,24.571,24.287c0.047,13.68-10.604,24.548-24.135,24.63
	C-1211.416,52.118-1222.312,41.377-1222.327,27.849z"/>
<path fill-rule="evenodd" clip-rule="evenodd" d="M-698.972,466.977c10.645,0.207,19.197,9.15,18.94,19.807
	c-0.256,10.648-9.171,19.265-19.756,19.095c-10.82-0.174-19.532-9.326-19.19-20.16C-718.641,475.058-709.79,466.767-698.972,466.977
	z"/>
<path fill-rule="evenodd" clip-rule="evenodd" d="M-734.105,562.405c2.459,1.272,4.296,2.401,6.264,3.211
	c8.696,3.578,8.175,3.541,8.104,13.055c-0.066,8.838-3.247,15.095-10.756,19.767c-4.908,3.054-9.162,7.147-13.774,10.69
	c-4.256,3.269-8.625,3.08-11.543-0.357c-3.119-3.674-2.47-8.122,1.864-11.722c3.45-2.864,6.732-6.11,10.607-8.245
	c6.959-3.833,8.583-9.854,8.607-16.993C-734.721,568.838-734.348,565.867-734.105,562.405z"/>
<path fill-rule="evenodd" clip-rule="evenodd" d="M-1212.219,247.319c0-3.493-0.144-6.995,0.034-10.479
	c0.267-5.234,3.816-8.878,8.694-9.227c5.109-0.364,9.792,2.995,10.089,8.249c0.441,7.79,0.447,15.646-0.021,23.434
	c-0.298,4.957-4.92,8.188-9.84,7.966c-4.975-0.225-8.574-3.792-8.933-8.963c-0.126-1.821-0.044-3.658-0.05-5.488
	s-0.001-3.66-0.001-5.491C-1212.238,247.319-1212.229,247.319-1212.219,247.319z"/>
<path fill-rule="evenodd" clip-rule="evenodd" d="M-1142.25,247.114c0.002,3.66,0.185,7.331-0.04,10.977
	c-0.346,5.591-4.471,9.315-9.814,9.186c-5.179-0.126-8.968-3.777-9.114-9.264c-0.185-6.982-0.185-13.976-0.012-20.959
	c0.137-5.54,3.791-9.191,8.951-9.434c5.302-0.25,9.522,3.407,9.975,9.019C-1142.024,240.109-1142.252,243.621-1142.25,247.114z"/>
<path fill-rule="evenodd" clip-rule="evenodd" d="M-1110.313,247.386c-0.006-3.661-0.212-7.335,0.043-10.978
	c0.366-5.228,4.057-8.622,9.088-8.773c4.995-0.151,9.368,3.056,9.652,8.155c0.435,7.792,0.428,15.645-0.018,23.437
	c-0.284,4.947-4.896,8.27-9.771,8.086c-4.938-0.186-8.634-3.735-8.946-8.947C-1110.484,254.717-1110.308,251.046-1110.313,247.386z"
	/>
<path fill-rule="evenodd" clip-rule="evenodd" d="M-724.397,514.551c-2.074,6.265-3.803,11.552-5.599,16.816
	c-0.193,0.565-0.725,1.367-1.191,1.437c-6.901,1.019-8.885,7.469-12.918,11.626c-1.499,1.545-2.609,3.482-4.172,4.946
	c-3.213,3.011-6.802,3.307-10.38,0.61c-3.109-2.342-3.969-6.956-1.477-10.285c4.578-6.115,9.477-11.992,14.33-17.896
	c0.697-0.849,1.803-1.563,2.857-1.885C-737.138,518.153-731.287,516.527-724.397,514.551z"/>
<path fill-rule="evenodd" clip-rule="evenodd" d="M-682.545,92.212c4.413,0,8.346,0,12.648,0c0,4.031,0,7.93,0,12.241
	c-4.126,0-8.186,0-12.648,0C-682.545,100.625-682.545,96.751-682.545,92.212z"/>
<g>
	<path fill-rule="evenodd" clip-rule="evenodd" d="M102.44,79.78c-2.792-1.781-5.619-3.508-8.37-5.348
		c-3.561-2.379-4.5-5.704-2.36-9.342c3.041-5.169,3.898-10.638,3.13-16.502c-0.901-6.877-0.417-13.65,2.404-20.06
		c6.713-15.255,23.73-22.357,40.035-16.808c20.025,6.815,28.197,31.77,15.932,48.906c-4.339,6.063-10.431,9.838-17.34,12.437
		c-2.899,1.09-5.946,2.07-8.482,3.766c-2.432,1.625-4.501,3.94-6.348,6.257c-2.894,3.633-6.237,4.471-10.217,2.021
		C108.003,83.372,105.231,81.561,102.44,79.78z M114.775,78.206c5.249-6.636,8.698-9.016,16.611-11.785
		c2.265-0.793,4.527-1.677,6.65-2.787c10.806-5.649,15.436-16.216,12.277-27.783c-2.653-9.712-10.725-16.736-20.747-18.052
		c-9.762-1.282-19.408,3.211-24.102,11.418c-3.213,5.618-3.766,11.77-3.012,18.079c0.676,5.644,0.697,11.215-1.546,16.574
		c-0.605,1.448-1.332,2.849-1.995,4.258c1.028,0.655,1.838,1.169,2.606,1.659c0.282-0.239,0.494-0.335,0.565-0.494
		c3.55-7.853,7.12-15.698,10.571-23.594c0.269-0.615-0.143-1.664-0.493-2.389c-1.65-3.428-0.391-6.992,3.084-8.488
		c3.183-1.371,6.544,0.076,7.866,3.385c1.304,3.266-0.392,6.647-3.742,8.049c-1.119,0.468-2.316,1.495-2.819,2.573
		c-3.258,6.996-6.375,14.058-9.42,21.149c-0.422,0.983-0.196,2.244-0.27,3.376c0.989-0.635,2.187-1.087,2.935-1.935
		c5.105-5.789,10.159-11.625,15.107-17.547c0.705-0.844,1.099-2.264,1.029-3.379c-0.231-3.676,1.989-6.557,5.588-6.854
		c3.517-0.292,6.333,2.125,6.497,5.573c0.178,3.721-2.553,6.481-6.285,6.499c-0.905,0.004-2.146,0.133-2.658,0.712
		c-5.765,6.522-11.418,13.143-17.247,19.905C112.868,76.992,113.748,77.551,114.775,78.206z"/>
	<path fill-rule="evenodd" clip-rule="evenodd" d="M96.103,89.865c3.208,2.046,6.377,4.162,9.647,6.105
		c1.978,1.176,1.557,2.331,0.554,3.919c-1.007,1.595-1.905,2-3.604,0.893c-6.376-4.155-12.802-8.237-19.261-12.263
		c-1.812-1.13-1.463-2.215-0.534-3.707c0.943-1.513,1.826-2.262,3.578-1.099C89.652,85.819,92.893,87.817,96.103,89.865z"/>
	<path fill-rule="evenodd" clip-rule="evenodd" d="M100.983,82.465c3.209,2.042,6.379,4.144,9.639,6.099
		c1.85,1.108,1.438,2.236,0.526,3.703c-0.925,1.486-1.785,2.271-3.572,1.115c-6.47-4.184-12.983-8.301-19.502-12.407
		c-1.834-1.156-1.257-2.335-0.337-3.745c0.886-1.356,1.726-2.135,3.372-1.054c3.261,2.143,6.576,4.204,9.868,6.299
		C100.979,82.472,100.98,82.468,100.983,82.465z"/>
	<path fill-rule="evenodd" clip-rule="evenodd" d="M88.168,102.026c-0.974-1.063-3.803-1.189-2.239-4.056
		c1.187-2.173,2.511-3.039,4.674-1.241c0.458,0.38,0.988,0.687,1.518,0.968c1.939,1.027,2.906,2.08,1.373,4.438
		c-1.484,2.283-2.773,1.688-4.385,0.493C88.868,102.45,88.604,102.303,88.168,102.026z"/>
</g>
<g>
	<path fill-rule="evenodd" clip-rule="evenodd" fill="#FFFF36" d="M344.227,408.167c-0.126,11.897-9.53,21.211-21.281,21.078
		c-11.563-0.131-20.885-9.599-20.845-21.172c0.039-11.729,9.634-21.223,21.319-21.097
		C334.989,387.102,344.349,396.635,344.227,408.167z"/>
	<path fill-rule="evenodd" clip-rule="evenodd" d="M394.808,394.89c-0.047,8.797-7.155,15.736-15.99,15.611
		c-8.613-0.122-15.587-7.151-15.589-15.715c-0.002-8.697,7.197-15.884,15.883-15.854
		C387.874,378.963,394.854,386.059,394.808,394.89z"/>
	<path fill-rule="evenodd" clip-rule="evenodd" d="M272.997,365.425c8.558,0.05,15.268,6.919,15.205,15.568
		c-0.06,8.335-6.921,15.102-15.322,15.11c-8.508,0.009-15.418-6.891-15.45-15.426C257.398,372.249,264.413,365.375,272.997,365.425z
		"/>
	<path fill-rule="evenodd" clip-rule="evenodd" d="M354.127,457.523c-6.73,0.027-12.188-5.301-12.298-12.006
		c-0.112-6.895,5.34-12.451,12.2-12.431c7.004,0.021,12.3,5.357,12.248,12.343C366.228,452.192,360.9,457.496,354.127,457.523z"/>
	<path fill-rule="evenodd" clip-rule="evenodd" d="M337.494,362.956c-0.059,6.653-5.625,12.13-12.253,12.056
		c-6.621-0.075-12.074-5.605-12.086-12.26c-0.013-6.861,5.554-12.283,12.463-12.139
		C332.402,350.755,337.554,356.108,337.494,362.956z"/>
	<path fill-rule="evenodd" clip-rule="evenodd" d="M277.659,446.825c0.016-6.529,5.066-11.577,11.604-11.598
		c6.524-0.019,11.688,5.051,11.721,11.51c0.034,6.646-5.169,11.851-11.823,11.827C282.762,458.542,277.643,453.317,277.659,446.825z
		"/>
	<path fill-rule="evenodd" clip-rule="evenodd" fill="#5D5D5D" d="M291.352,384.716c4.485,2.451,8.952,4.892,13.41,7.328
		c-1.765,3.191-3.393,6.136-5.149,9.313c-4.485-2.432-8.956-4.854-13.422-7.275C287.888,391.001,289.507,388.063,291.352,384.716z"
		/>
	<path fill-rule="evenodd" clip-rule="evenodd" fill="#5D5D5D" d="M345.186,397.41c4.558-1.105,9.143-2.218,13.73-3.33
		c0.879,3.495,1.698,6.752,2.595,10.317c-4.46,1.08-9.027,2.186-13.771,3.333C346.858,404.17,346.055,400.922,345.186,397.41z"/>
	<path fill-rule="evenodd" clip-rule="evenodd" fill="#5D5D5D" d="M303.428,422.625c2.858,2.484,5.327,4.629,8.036,6.982
		c-2.758,3.164-5.526,6.341-8.218,9.429c-2.75-2.387-5.271-4.574-8.051-6.985C297.843,429.019,300.611,425.85,303.428,422.625z"/>
	<path fill-rule="evenodd" clip-rule="evenodd" fill="#5D5D5D" d="M334.378,429.946c2.843-2.392,5.416-4.558,8.147-6.856
		c1.952,2.323,3.971,4.725,6.003,7.144c-2.744,2.347-5.357,4.582-8.102,6.929C338.547,434.919,336.524,432.507,334.378,429.946z"/>
	<path fill-rule="evenodd" clip-rule="evenodd" fill="#5D5D5D" d="M319.289,383.953c0-2.234,0-4.265,0-6.363
		c3.554,0.172,6.883,0.334,10.401,0.505c0,1.894,0,4.019,0,6.375C326.113,384.292,322.792,384.128,319.289,383.953z"/>
</g>
<g>
	<path fill-rule="evenodd" clip-rule="evenodd" fill="#FFFF36" d="M13.663,129.13c25.63,0,51.077,0,76.648,0
		c0,25.634,0,51.141,0,76.775c-25.542,0-50.982,0-76.648,0C13.663,180.372,13.663,154.818,13.663,129.13z M24.126,166.142
		c-1.24,3.277-3.969,2.597-6.212,2.816c0,2.822,0,5.452,0,8.771c5.841-5.776,11.235-11.111,16.453-16.271
		c5.918,5.701,11.926,11.488,18.049,17.387c5.608-8.288,11.259-16.639,16.979-25.092c5.615,4.294,11.036,8.441,16.662,12.744
		c0-5.396,0-10.34,0-15.415c-3.644,0-7.092,0.113-10.53-0.042c-2.071-0.093-4.124-0.601-6.238-0.93
		c-1.015,0.277-2.283,0.884-3.567,0.925c-4.077,0.13-8.16,0.048-12.228,0.048c0,5.197,0,10.07,0,15.134c1.461,0,2.75,0,4.079,0
		c-0.47,2.454-2.153,2.839-3.941,2.745c-0.315,1.935-0.604,3.702-0.892,5.469c-0.289,0.025-0.578,0.05-0.866,0.076
		c-0.408-0.786-0.996-1.534-1.174-2.368c-0.205-0.962-0.047-2-0.047-2.946c-5.234-1.103-5.234-1.103-6.149-3.143
		c2.039,0,3.976,0,5.948,0c0-5.097,0-9.96,0-14.839c-5.013,0-9.829,0-14.862,0c0,1.999,0,3.874,0,5.606
		c-1.075,0.124-1.898,0.219-2.898,0.334c0-1.933,0-3.885,0-5.92c-5.052,0-9.92,0-14.812,0c0,5.023,0,9.896,0,14.911
		C19.993,166.142,21.953,166.142,24.126,166.142z M86.025,148.314c0-4.998,0-9.918,0-14.802c-5.068,0-9.934,0-14.776,0
		c0,5.05,0,9.912,0,14.802C76.265,148.314,81.094,148.314,86.025,148.314z M50.48,148.326c0-5.091,0-9.958,0-14.855
		c-5.037,0-9.912,0-14.816,0c0,5.027,0,9.909,0,14.855C40.62,148.326,45.447,148.326,50.48,148.326z M17.836,148.269
		c4.994,0,9.859,0,14.831,0c0-4.983,0-9.843,0-14.811c-4.994,0-9.857,0-14.831,0C17.836,138.388,17.836,143.198,17.836,148.269z
		 M53.477,133.419c0,5.095,0,9.953,0,14.821c5.016,0,9.875,0,14.754,0c0-5.012,0-9.872,0-14.821
		C63.269,133.419,58.462,133.419,53.477,133.419z"/>
	<path fill-rule="evenodd" clip-rule="evenodd" d="M24.126,166.142c-2.173,0-4.133,0-6.247,0c0-5.015,0-9.888,0-14.911
		c4.892,0,9.76,0,14.812,0c0,2.035,0,3.987,0,5.92c1-0.115,1.824-0.21,2.898-0.334c0-1.732,0-3.607,0-5.606c5.034,0,9.85,0,14.862,0
		c0,4.878,0,9.742,0,14.839c-1.972,0-3.91,0-5.948,0c0.915,2.04,0.915,2.04,6.149,3.143c0,0.945-0.157,1.984,0.047,2.946
		c0.178,0.834,0.766,1.582,1.174,2.368c0.288-0.025,0.577-0.05,0.866-0.076c0.288-1.767,0.577-3.534,0.892-5.469
		c1.789,0.095,3.471-0.291,3.941-2.745c-1.329,0-2.618,0-4.079,0c0-5.064,0-9.937,0-15.134c4.067,0,8.15,0.082,12.228-0.048
		c1.285-0.041,2.552-0.648,3.567-0.925c2.114,0.33,4.167,0.837,6.238,0.93c3.438,0.154,6.886,0.042,10.53,0.042
		c0,5.075,0,10.019,0,15.415c-5.626-4.303-11.047-8.45-16.662-12.744c-5.72,8.453-11.371,16.805-16.979,25.092
		c-6.123-5.898-12.131-11.686-18.049-17.387c-5.218,5.16-10.612,10.494-16.453,16.271c0-3.319,0-5.949,0-8.771
		C20.157,168.739,22.886,169.419,24.126,166.142z"/>
	<path fill-rule="evenodd" clip-rule="evenodd" d="M86.025,148.314c-4.931,0-9.76,0-14.776,0c0-4.89,0-9.752,0-14.802
		c4.842,0,9.708,0,14.776,0C86.025,138.396,86.025,143.317,86.025,148.314z"/>
	<path fill-rule="evenodd" clip-rule="evenodd" d="M50.48,148.326c-5.034,0-9.86,0-14.816,0c0-4.946,0-9.828,0-14.855
		c4.904,0,9.779,0,14.816,0C50.48,138.368,50.48,143.235,50.48,148.326z"/>
	<path fill-rule="evenodd" clip-rule="evenodd" d="M17.836,148.269c0-5.07,0-9.88,0-14.811c4.974,0,9.837,0,14.831,0
		c0,4.968,0,9.827,0,14.811C27.695,148.269,22.83,148.269,17.836,148.269z"/>
	<path fill-rule="evenodd" clip-rule="evenodd" d="M53.477,133.419c4.985,0,9.792,0,14.754,0c0,4.949,0,9.809,0,14.821
		c-4.879,0-9.738,0-14.754,0C53.477,143.372,53.477,138.514,53.477,133.419z"/>
</g>
<path fill-rule="evenodd" clip-rule="evenodd" fill="#FFFFFF" d="M350.936,125.748c0.045,3.033-2.59,5.708-5.628,5.713
	c-3.037,0.005-5.788-2.658-5.798-5.612c-0.009-2.862,2.826-5.74,5.698-5.783C348.192,120.022,350.891,122.698,350.936,125.748z"/>
<path fill-rule="evenodd" clip-rule="evenodd" fill="#FFFFFF" d="M-1222.994,292.303c47.801,0,94.749,0,142,0
	c0.121,1.652,0.319,3.1,0.319,4.547c0.013,25.331,0.021,50.662-0.016,75.993c-0.012,8.37-1.938,10.246-10.313,10.248
	c-40.497,0.009-80.994,0.011-121.49-0.001c-8.616-0.002-10.49-1.914-10.492-10.586c-0.007-24.998-0.006-49.996-0.008-74.994
	C-1222.994,295.886-1222.994,294.262-1222.994,292.303z M-1180.164,358.982c-0.19-0.355-0.38-0.712-0.57-1.067
	c1.583-1.379,3.236-2.686,4.735-4.15c6.168-6.027,13.035-11.527,18.252-18.294c7.925-10.279,5.063-23.726-5.279-29.928
	c-11.35-6.807-28.239-2.665-33.509,8.402c-1.258,2.643-1.857,5.661-2.341,8.576c-0.164,0.988,0.785,2.995,1.524,3.155
	c3.061,0.662,6.352,1.398,9.315,0.833c1.215-0.231,1.975-3.638,2.664-5.693c1.903-5.676,7.414-8.208,13.227-5.943
	c5.299,2.063,7.172,7.304,4.054,12.754c-1.703,2.977-4.042,5.71-6.538,8.086c-5.539,5.271-11.861,9.803-16.896,15.491
	c-3.726,4.209-6.333,9.585-8.667,14.787c-1.642,3.661,0.172,5.855,4.605,5.801c12.478-0.153,24.962-0.21,37.438,0.022
	c5.146,0.096,5.002-2.971,5.033-6.511c0.031-3.635-0.062-6.605-5.139-6.397C-1165.545,359.205-1172.859,358.982-1180.164,358.982z
	 M-1111.223,333.691c3.969-4.574,5.93-9.505,4.714-15.366c-1.944-9.365-9.868-15.565-20.308-15.9
	c-10.425-0.335-18.627,5.724-21.681,15.706c-1.193,3.9-0.374,5.801,3.895,6.567c4.642,0.832,8.247,1.421,9.479-4.852
	c0.883-4.498,4.724-6.315,9.24-5.646c4.203,0.624,6.542,3.424,6.446,7.597c-0.106,4.591-3.334,6.567-7.46,7.371
	c-0.652,0.127-1.307,0.254-1.967,0.326c-4.53,0.497-6.061,2.876-5.523,8.896c0.415,4.648,3.802,2.536,6.079,2.407
	c6.282-0.355,10.32,2.084,11.417,7.192c1.212,5.645-1.866,11.232-7.013,12.73c-6,1.747-10.223-0.919-12.667-7.995
	c-1.471-4.26-4.002-4.905-10.504-3.114c-4.03,1.11-2.868,3.805-2.263,6.353c2.216,9.324,9.552,15.632,19.418,16.771
	c10.46,1.208,20.567-4.134,24.823-13.119C-1100.845,350.638-1102.771,342.138-1111.223,333.691z"/>
<path fill-rule="evenodd" clip-rule="evenodd" fill="#FFFFFF" d="M-695.922,25.99c-0.385-0.591-0.544-0.725-0.557-0.871
	c-1.117-12.903-1.116-12.903,11.795-12.903c7.827,0.001,15.66,0.189,23.479-0.075c4.245-0.144,5.719,1.507,5.393,5.554
	c-0.211,2.619-0.039,5.271-0.039,8.296C-669.472,25.99-682.688,25.99-695.922,25.99z"/>
<path fill-rule="evenodd" clip-rule="evenodd" fill="#FFFFFF" d="M-1082.393,594.39c-35.296-7.599-43.225-3.65-66.729,4.484
	c-0.085-1.895-0.231-3.636-0.232-5.377c-0.004-27.478,0.078-54.955-0.062-82.433c-0.018-3.509,1.076-5.333,4.238-6.82
	c19.296-9.074,39.06-10.195,59.259-3.724c1.57,0.503,3.735,2.628,3.745,4.013c0.199,29.641,0.13,59.283,0.099,88.925
	C-1082.075,593.769-1082.28,594.079-1082.393,594.39z"/>
<path fill-rule="evenodd" clip-rule="evenodd" fill="#FFFFFF" d="M-1158.862,598.856c-35.098-9.2-35.098-9.2-67.393-4.349
	c0-10.39-0.021-20.69,0.004-30.991c0.046-19.311,0.156-38.621,0.138-57.932c-0.002-2.607,0.415-4.136,3.34-5.05
	c20.803-6.505,41.027-5.548,60.591,4.321c1.441,0.727,3.171,2.746,3.18,4.174C-1158.816,538.825-1158.862,568.62-1158.862,598.856z"
	/>
<path fill-rule="evenodd" clip-rule="evenodd" fill="#FFFFFF" d="M-418.855,149.088c0-11.587,0-23.987,0-36.767
	c12.482,0,24.843,0,37.203,0c0.608,0.564,1.216,1.129,1.824,1.694C-392.9,125.763-405.973,137.511-418.855,149.088z"/>
<path fill-rule="evenodd" clip-rule="evenodd" fill="#FFFFFF" d="M-983.291,556.288c3.617-29.352,16.312-45.761,42.951-53.393
	c12.052-3.452,25.73-1.692,38.657-1.462c9.027,0.162,17.953,1.105,26.533-3.928c5.772,9.963,11.328,19.551,16.475,28.433
	c-7.629,6.954-14.71,13.881-22.347,20.129c-2.929,2.396-7.046,4.3-10.762,4.583c-8.8,0.671-16.331,4.11-23.758,8.347
	c-7.351,4.193-14.779,8.257-22.271,12.19c-3.672,1.929-6.318,0.293-8.236-3.092c-1.842-3.252-1.806-5.925,1.762-7.979
	c7.058-4.065,14.25-7.933,21.066-12.372c7.792-5.076,9.937-11.448,7.41-20.188c-0.364-1.261-1.298-2.998-2.341-3.323
	c-11.281-3.522-22.558-4.48-33.366,1.601c-7.563,4.256-13.14,10.233-14.722,19.102c-0.663,3.717-2.511,5.584-6.24,6.581
	C-976.103,552.485-979.437,554.534-983.291,556.288z"/>
<path fill-rule="evenodd" clip-rule="evenodd" fill="#FFFFFF" d="M-958.149,559.374c0.418,20.372,10.074,26.839,29.235,19.923
	c6.145,10.5,3.229,26.238-6.678,36.031c-10.703,10.581-27.097,12.489-40.061,4.662c-12.79-7.722-18.742-23.419-14.311-37.741
	C-985.633,568.254-972.457,558.673-958.149,559.374z"/>
<path fill-rule="evenodd" clip-rule="evenodd" fill="#FFFFFF" d="M-956.051,548.938c3.075-13.58,15.738-19.803,31.171-14.955
	c-1.891,2.042-3.104,4.328-4.979,5.208C-938.177,543.099-944.795,551.838-956.051,548.938z"/>
<g>
	<path fill-rule="evenodd" clip-rule="evenodd" d="M352.969,258.967c-12.49-3.908-24.983-7.807-37.469-11.731
		c-5.321-1.673-6.266-3.475-4.634-8.695c4.951-15.822,9.9-31.644,14.86-47.463c1.523-4.857,3.491-5.921,8.283-4.424
		c25.296,7.9,50.589,15.813,75.879,23.734c4.828,1.513,5.922,3.554,4.436,8.318c-4.966,15.931-9.952,31.857-14.951,47.777
		c-1.532,4.877-3.478,5.905-8.305,4.401C378.364,266.925,365.67,262.94,352.969,258.967z M360.681,234.674
		c14.627-6.794,28.951-13.446,43.862-20.373c-23.058-7.216-45.314-14.182-68.271-21.366
		C344.578,207.139,352.531,220.738,360.681,234.674z M320.675,243.176c23.025,7.206,45.276,14.17,68.034,21.293
		c-5.828-9.959-11.368-19.424-17.034-29.105c-2.435,1.113-4.699,2.135-6.953,3.18c-4.781,2.214-6.795,1.616-9.453-2.834
		c-1.321-2.213-2.636-4.43-4.003-6.729C341.116,233.69,331.25,238.268,320.675,243.176z M408.95,218.026
		c-11.212,5.205-21.787,10.114-32.549,15.107c6.115,10.418,11.962,20.378,18.146,30.915
		C399.437,248.426,404.073,233.61,408.95,218.026z M348.672,224.451c-6.098-10.403-11.985-20.447-18.05-30.794
		c-4.854,15.509-9.512,30.389-14.329,45.784C327.271,234.359,337.729,229.518,348.672,224.451z"/>
	<path fill-rule="evenodd" clip-rule="evenodd" d="M357.106,165.299c-2.995,0.214-5.244,0.376-7.921,0.568
		c0.303,7.194,0.604,14.294,0.926,21.942c-3.116-0.975-5.929-1.677-8.566-2.792c-0.741-0.315-1.31-1.815-1.381-2.813
		c-0.377-5.191-0.565-10.394-0.837-15.881c-2.58,0.051-4.923,0.096-7.764,0.152c3.792-9.497,7.446-18.647,11.011-27.572
		C347.319,147.522,352.063,156.138,357.106,165.299z"/>
	<path fill-rule="evenodd" clip-rule="evenodd" d="M409.377,184.684c-2.021-1.616-3.782-3.021-5.863-4.682
		c9.15-4.336,18.016-8.537,26.346-12.484c-1.858,8.116-4.063,17.745-6.347,27.715c-2.297-1.641-4.203-3.003-6.322-4.517
		c-3.251,4.229-6.466,8.181-9.405,12.33c-1.319,1.861-2.57,2.263-4.626,1.43c-2.105-0.854-4.336-1.401-7.061-2.253
		C400.604,196.273,404.89,190.613,409.377,184.684z"/>
	<path fill-rule="evenodd" clip-rule="evenodd" d="M391.329,179.53c-2.738-0.857-4.973-1.556-7.551-2.363
		c-2.026,6.479-3.969,12.682-5.975,19.09c-3.2-1.001-6.053-1.895-9.263-2.899c1.953-6.243,3.894-12.442,5.944-18.997
		c-2.562-0.802-4.787-1.498-7.589-2.375c6.961-7.798,13.522-15.152,20.622-23.107C388.823,159.365,390.045,169.202,391.329,179.53z"
		/>
	<path fill-rule="evenodd" clip-rule="evenodd" fill="#FFFF36" d="M360.681,234.674c-8.149-13.936-16.103-27.535-24.409-41.739
		c22.957,7.185,45.214,14.15,68.271,21.366C389.632,221.228,375.308,227.88,360.681,234.674z"/>
	<path fill-rule="evenodd" clip-rule="evenodd" fill="#FFFF36" d="M320.675,243.176c10.575-4.908,20.441-9.485,30.591-14.196
		c1.367,2.3,2.682,4.517,4.003,6.729c2.658,4.45,4.672,5.048,9.453,2.834c2.254-1.045,4.519-2.066,6.953-3.18
		c5.666,9.682,11.206,19.146,17.034,29.105C365.951,257.346,343.7,250.382,320.675,243.176z"/>
	<path fill-rule="evenodd" clip-rule="evenodd" fill="#FFFF36" d="M408.95,218.026c-4.877,15.584-9.514,30.399-14.402,46.022
		c-6.185-10.537-12.031-20.497-18.146-30.915C387.163,228.141,397.738,223.231,408.95,218.026z"/>
	<path fill-rule="evenodd" clip-rule="evenodd" fill="#FFFF36" d="M348.672,224.451c-10.943,5.066-21.401,9.908-32.379,14.99
		c4.817-15.395,9.475-30.275,14.329-45.784C336.687,204.004,342.574,214.048,348.672,224.451z"/>
</g>
<path fill-rule="evenodd" clip-rule="evenodd" fill="#FFFFFF" d="M-432.985,341.552c-19.814-0.923-30.632-10.709-37.573-25.607
	c-1.525-3.273-2.879-5.665-6.789-6.875c-5.913-1.83-11.497-11.879-10.134-17.94c0.506-2.246,2.833-4.857,4.982-5.775
	c3.106-1.326,5.51,0.469,6.831,3.926c0.57,1.494,2.654,2.41,4.051,3.589c0.961-1.572,2.561-3.064,2.77-4.731
	c0.763-6.097,1.263-12.243,1.481-18.385c0.227-6.343,3.645-10.382,9.054-12.569c14.699-5.942,29.536-5.818,44.199,0.225
	c5.739,2.366,8.714,6.814,8.928,13.2c0.196,5.816,0.629,11.642,1.354,17.414c0.212,1.684,1.784,3.197,2.733,4.789
	c1.408-1.127,3.521-1.978,4.09-3.433c1.542-3.937,4.281-4.956,7.922-4.121c3.796,0.871,4.684,3.969,4.59,7.346
	c-0.213,7.625-5.446,14.489-12.596,17.534c-1.479,0.63-2.629,2.708-3.335,4.372c-4.153,9.782-10.033,18.179-19.783,22.902
	C-424.889,339.678-430.184,340.674-432.985,341.552z"/>
<path fill-rule="evenodd" clip-rule="evenodd" fill="#FFFFFF" d="M-428.993-5.65c0.066,4.985-4.199,9.37-9.064,9.316
	c-4.687-0.052-8.771-4.203-8.876-9.022c-0.108-4.951,4.182-9.331,9.097-9.289C-433.128-14.604-429.057-10.464-428.993-5.65z"/>
<g>
	<path fill-rule="evenodd" clip-rule="evenodd" d="M299.256,328.17c1.194-0.99,2.225-1.93,3.346-2.741
		c0.672-0.486,2.028-1.228,2.158-1.075c0.854,1.009,1.912,2.19,2.015,3.393c0.093,1.081,0.25,1.716,1.068,2.39
		c2.198,1.807,4.32,3.706,6.744,5.39c-1.252-2.999-2.498-5.997-3.751-8.995c-1.227-2.927-2.456-5.854-3.85-9.174
		c4.379-0.479,8.43-1.127,12.5-1.306c3.486-0.152,6.513,1.266,8.816,4.013c1.788,2.137,3.582,4.271,5.418,6.364
		c0.957,1.091,1.057,1.929-0.18,2.948c-11.443,9.443-22.862,18.916-34.263,28.411c-1.203,1.002-1.986,0.844-2.901-0.36
		c-1.517-1.996-3.079-3.967-4.757-5.825c-3.057-3.386-3.596-7.323-2.497-11.512c0.931-3.559,2.201-7.026,3.406-10.8
		c5.528,3.688,10.872,7.249,16.214,10.812c0.089-0.084,0.175-0.168,0.263-0.252c-1.57-2.671-3.126-5.35-4.732-7.999
		c-0.171-0.28-0.653-0.554-0.97-0.535C301.142,331.454,300.301,329.946,299.256,328.17z"/>
	<path fill-rule="evenodd" clip-rule="evenodd" d="M278,297.861c6.127-5.116,14.563-4.485,19.808,1.525
		c0.839,0.958,1.569,1.624,3.037,1.738c2.778,0.219,4.819,4.62,4.137,8.118c-0.229,1.171-0.276,2.441-0.099,3.618
		c0.711,4.656-0.193,8.776-3.937,11.88c-3.73,3.096-7.956,3.24-12.411,1.766c-1.132-0.374-2.39-0.592-3.575-0.536
		c-4.109,0.188-7.087-2.44-7.337-6.567c-0.028-0.494-0.422-0.982-0.696-1.442c-0.817-1.372-1.786-2.669-2.472-4.102
		C271.694,308.084,273.086,301.965,278,297.861z M284.083,319.021c-0.175,0.147-0.349,0.297-0.523,0.446
		c-0.392-0.063-0.792-0.217-1.173-0.178c-0.792,0.085-1.572,0.272-2.36,0.417c0.185,0.8,0.119,1.823,0.599,2.355
		c1.278,1.42,2.968,1.924,4.931,1.552c0.725-0.137,1.614-0.08,2.278,0.222c4.093,1.865,8.121,2.227,11.771-0.801
		c3.616-3.002,3.818-7.001,2.773-11.267c-0.176-0.713-0.084-1.589,0.166-2.29c0.651-1.813,0.268-4.537-1.105-5.613
		c-0.448-0.352-1.345-0.542-1.827-0.33c-0.485,0.214-0.825,0.982-1.017,1.575c-0.193,0.593-0.123,1.27-0.168,1.91
		c-0.714-0.333-1.451-0.625-2.132-1.019c-0.348-0.2-0.621-0.556-0.884-0.878c-1.505-1.847-3.372-2.023-5.451-1.198
		c-2.92,1.16-5.318,3.021-7.186,5.53c-1.985,2.669-1.97,3.956-0.189,6.809C283.14,317.148,283.588,318.1,284.083,319.021z"/>
	<path fill-rule="evenodd" clip-rule="evenodd" d="M307.318,302.674c-1.474-3.108-2.826-6.067-4.297-8.967
		c-0.34-0.667-1.044-1.185-1.664-1.663c-1.409-1.085-3.049-1.931-4.271-3.187c-1.885-1.94-3.537-4.113-5.223-6.24
		c-3.123-3.939-2.638-9.055,1.178-12.291c3.186-2.7,6.398-5.368,9.645-7.996c3.997-3.237,9.145-2.798,12.485,1.063
		c1.865,2.157,3.691,4.355,5.457,6.595c3.033,3.856,2.7,8.708-0.897,12.019c-2.2,2.023-4.635,3.794-6.83,5.823
		c-0.86,0.794-1.621,1.901-1.966,3.009c-1.184,3.782-2.161,7.627-3.22,11.447C307.7,302.342,307.62,302.383,307.318,302.674z
		 M306.814,294.772c0.469-1.739,0.926-3.036,1.153-4.371c0.37-2.194,1.513-3.748,3.293-5.054c2.182-1.603,4.245-3.375,6.272-5.176
		c2.736-2.432,2.994-5.699,0.731-8.527c-1.695-2.116-3.432-4.201-5.196-6.262c-2.361-2.756-5.722-3.115-8.501-0.863
		c-3.295,2.668-6.563,5.375-9.786,8.13c-2.41,2.058-2.832,5.35-0.926,7.861c1.892,2.491,3.938,4.866,5.991,7.226
		c0.525,0.604,1.323,1.333,2.021,1.361c2.449,0.096,3.164,1.825,3.92,3.628C306.021,293.28,306.326,293.807,306.814,294.772z"/>
	<path fill-rule="evenodd" clip-rule="evenodd" fill="#FFFFFF" d="M284.083,319.021c-0.495-0.921-0.943-1.872-1.498-2.757
		c-1.78-2.853-1.796-4.14,0.189-6.809c1.867-2.509,4.266-4.37,7.186-5.53c2.079-0.825,3.946-0.648,5.451,1.198
		c0.263,0.322,0.536,0.678,0.884,0.878c0.681,0.394,1.418,0.686,2.132,1.019c0.045-0.641-0.025-1.317,0.168-1.91
		c0.191-0.593,0.531-1.361,1.017-1.575c0.482-0.212,1.379-0.021,1.827,0.33c1.373,1.076,1.757,3.8,1.105,5.613
		c-0.25,0.701-0.342,1.577-0.166,2.29c1.045,4.266,0.843,8.265-2.773,11.267c-3.649,3.027-7.678,2.666-11.771,0.801
		c-0.664-0.302-1.554-0.358-2.278-0.222c-1.963,0.372-3.652-0.132-4.931-1.552c-0.479-0.532-0.414-1.556-0.599-2.355
		c0.788-0.145,1.568-0.332,2.36-0.417c0.381-0.039,0.781,0.114,1.173,0.178C283.734,319.317,283.908,319.168,284.083,319.021z"/>
	<path fill-rule="evenodd" clip-rule="evenodd" fill="#FFFF36" d="M306.814,294.772c-0.488-0.966-0.793-1.492-1.026-2.047
		c-0.756-1.803-1.471-3.532-3.92-3.628c-0.698-0.028-1.496-0.758-2.021-1.361c-2.054-2.359-4.1-4.734-5.991-7.226
		c-1.906-2.512-1.484-5.804,0.926-7.861c3.224-2.755,6.491-5.462,9.786-8.13c2.779-2.252,6.14-1.893,8.501,0.863
		c1.765,2.061,3.501,4.146,5.196,6.262c2.263,2.828,2.005,6.096-0.731,8.527c-2.027,1.801-4.091,3.573-6.272,5.176
		c-1.78,1.306-2.923,2.859-3.293,5.054C307.74,291.736,307.283,293.033,306.814,294.772z"/>
</g>
<path fill-rule="evenodd" clip-rule="evenodd" d="M-1180.164,358.982c7.305,0,14.619,0.223,21.911-0.076
	c5.077-0.208,5.17,2.763,5.139,6.397c-0.031,3.54,0.113,6.606-5.033,6.511c-12.476-0.232-24.96-0.176-37.438-0.022
	c-4.433,0.055-6.248-2.14-4.605-5.801c2.334-5.202,4.941-10.578,8.667-14.787c5.036-5.688,11.357-10.221,16.896-15.491
	c2.497-2.376,4.835-5.109,6.538-8.086c3.118-5.45,1.245-10.69-4.054-12.754c-5.813-2.265-11.324,0.268-13.227,5.943
	c-0.689,2.056-1.449,5.462-2.664,5.693c-2.963,0.565-6.254-0.171-9.315-0.833c-0.739-0.16-1.688-2.167-1.524-3.155
	c0.484-2.915,1.083-5.934,2.341-8.576c5.27-11.067,22.159-15.209,33.509-8.402c10.342,6.202,13.204,19.648,5.279,29.928
	c-5.217,6.767-12.084,12.267-18.252,18.294c-1.499,1.465-3.153,2.771-4.735,4.15
	C-1180.544,358.271-1180.354,358.627-1180.164,358.982z"/>
<path fill-rule="evenodd" clip-rule="evenodd" d="M-1111.223,333.691c8.452,8.446,10.378,16.946,6.125,25.925
	c-4.256,8.985-14.363,14.327-24.823,13.119c-9.866-1.14-17.202-7.447-19.418-16.771c-0.605-2.548-1.767-5.242,2.263-6.353
	c6.501-1.791,9.033-1.146,10.504,3.114c2.444,7.076,6.668,9.742,12.667,7.995c5.147-1.498,8.225-7.086,7.013-12.73
	c-1.097-5.108-5.134-7.548-11.417-7.192c-2.276,0.129-5.664,2.241-6.079-2.407c-0.538-6.02,0.994-8.398,5.523-8.896
	c0.66-0.072,1.314-0.199,1.967-0.326c4.126-0.804,7.354-2.78,7.46-7.371c0.096-4.173-2.243-6.973-6.446-7.597
	c-4.517-0.67-8.357,1.147-9.24,5.646c-1.232,6.272-4.837,5.684-9.479,4.852c-4.269-0.767-5.088-2.667-3.895-6.567
	c3.054-9.982,11.255-16.041,21.681-15.706c10.439,0.335,18.364,6.535,20.308,15.9
	C-1105.293,324.187-1107.254,329.117-1111.223,333.691z"/>
<g>
	<path d="M399,115.814c0,7.834-6.352,14.186-14.187,14.186H255.187c-7.835,0-14.187-6.352-14.187-14.186V33.186
		C241,25.352,247.352,19,255.187,19h129.627C392.648,19,399,25.352,399,33.186V115.814z"/>
	<path fill="#5D5D5D" d="M218.668,121.29c0,0.887-1.182,6.206,2.364,7.979c3.547,1.773,193.877,1.478,193.877,1.478
		s8.052-4.844,6.982-8.776L218.668,121.29z"/>
	<rect x="249" y="25" fill="#5D5D5D" width="142" height="93"/>
	<g>
		<rect x="262" y="91" fill="#FFFF36" width="4" height="9"/>
		<rect x="268" y="84" fill="#FFFF36" width="4" height="16"/>
		<rect x="274" y="80" fill="#FFFF36" width="4" height="20"/>
		<rect x="280" y="80" fill="#FFFF36" width="4" height="20"/>
		<rect x="286" y="86" fill="#FFFF36" width="4" height="14"/>
		<rect x="292" y="78" fill="#FFFF36" width="4" height="22"/>
		<rect x="299" y="73" fill="#FFFF36" width="4" height="27"/>
		<rect x="305" y="77" fill="#FFFF36" width="4" height="23"/>
		<rect x="311" y="77" fill="#FFFF36" width="4" height="23"/>
		<rect x="317" y="67" fill="#FFFF36" width="4" height="33"/>
		<rect x="323" y="84" fill="#FFFF36" width="4" height="16"/>
		<rect x="329" y="86" fill="#FFFF36" width="4" height="14"/>
		<rect x="336" y="73" fill="#FFFF36" width="4" height="27"/>
		<rect x="342" y="70" fill="#FFFF36" width="4" height="30"/>
		<rect x="349" y="74" fill="#FFFF36" width="4" height="26"/>
		<rect x="355" y="72" fill="#FFFF36" width="4" height="28"/>
		<rect x="361" y="54" fill="#FFFF36" width="4" height="46"/>
		<rect x="366" y="57" fill="#FFFF36" width="4" height="43"/>
		<rect x="372" y="64" fill="#FFFF36" width="4" height="36"/>
		<path fill="none" stroke="#FFFFFF" stroke-width="1.5" stroke-miterlimit="10" d="M263.443,83.756
			c0.443-0.739,11.526-8.275,11.526-8.275l12.855,4.729l7.685-13.004l13.004,5.911l10.048-15.664c0,0,10.788,24.53,11.083,24.53
			c0.296,0,8.423-16.698,9.605-16.698c1.182,0,13.3,5.32,13.3,5.32s9.014-22.609,9.753-22.166
			c0.738,0.443,10.787,8.127,10.787,8.127"/>
		<circle cx="262.482" cy="84.568" r="2.143"/>
		<circle cx="275.486" cy="75.111" r="2.143"/>
		<circle cx="287.309" cy="79.84" r="2.143"/>
		<circle cx="295.583" cy="66.836" r="2.143"/>
		<circle cx="307.405" cy="72.747" r="2.143"/>
		<circle cx="318.045" cy="57.379" r="2.143"/>
		<circle cx="329.866" cy="82.204" r="2.143"/>
		<circle cx="339.324" cy="65.654" r="2.143"/>
		<circle cx="352.328" cy="70.383" r="2.143"/>
		<circle cx="373.607" cy="56.196" r="2.143"/>
	</g>
	<circle cx="361.785" cy="47.921" r="2.143"/>
</g>
<rect x="42" y="317" fill-rule="evenodd" clip-rule="evenodd" fill="#FFFF36" width="131" height="96"/>
<path fill-rule="evenodd" clip-rule="evenodd" fill="#5D5D5D" d="M85.303,377.216c-5.976,5.509-11.769,10.852-17.566,16.19
	c-0.802,0.737-1.552,1.563-2.454,2.155c-2.845,1.867-5.678,1.84-8.19-0.576c-2.409-2.316-2.694-6.057-0.18-8.46
	c8.178-7.82,16.458-15.543,24.933-23.038c2.743-2.426,6.04-1.591,8.436,1.023c3.496,3.813,6.746,7.853,10.135,11.834
	c9.334-7.982,17.301-14.795,26.403-22.579c-3.326-2.38-6.389-4.571-9.451-6.763c0.303-0.484,0.607-0.97,0.911-1.454
	c11.804-3.574,23.607-7.148,36.331-11c-3.803,12.634-7.397,24.573-11.35,37.706c-2.955-3.501-5.304-6.285-7.813-9.259
	c-9.654,8.234-18.68,15.896-27.659,23.608c-5.639,4.844-7.498,4.857-12.818-0.184C91.817,383.432,88.677,380.429,85.303,377.216z"/>
</svg>
