<?xml version="1.0" encoding="utf-8"?>
<!-- Generator: Adobe Illustrator 16.0.2, SVG Export Plug-In . SVG Version: 6.00 Build 0)  -->
<!DOCTYPE svg PUBLIC "-//W3C//DTD SVG 1.1//EN" "http://www.w3.org/Graphics/SVG/1.1/DTD/svg11.dtd">
<svg version="1.1" id="Layer_1" xmlns="http://www.w3.org/2000/svg" xmlns:xlink="http://www.w3.org/1999/xlink" x="0px" y="0px"
	 width="549px" height="477px" viewBox="0 0 549 477" enable-background="new 0 0 549 477" xml:space="preserve">
<g>
	<path fill-rule="evenodd" clip-rule="evenodd" d="M230.963,83.246c1.986,0,3.971-0.012,5.956,0.002
		c3.089,0.023,5.421-1.305,7.078-3.89c1.875-2.924,3.761-5.841,5.653-8.754c1.258-1.939,2.715-3.693,4.745-4.882
		c3.924-2.298,7.909-2.064,11.81-0.054c3.221,1.66,6.365,3.476,9.481,5.328c3.279,1.948,6.45,1.946,9.726-0.005
		c3.049-1.816,6.145-3.558,9.273-5.232c6.035-3.232,12.345-1.661,16.164,4.019c2.045,3.04,4.027,6.124,5.965,9.233
		c1.846,2.962,4.427,4.396,7.932,4.242c3.356-0.146,6.718-0.323,10.072-0.259c1.956,0.038,4.011,0.219,5.834,0.865
		c4.882,1.73,7.151,5.601,7.717,10.555c0.394,3.45,0.671,6.915,0.923,10.379c0.267,3.68,1.94,6.306,5.344,7.881
		c3.116,1.441,6.169,3.021,9.229,4.58c6.6,3.36,8.95,9.438,6.279,16.337c-1.309,3.38-2.709,6.725-4.115,10.066
		c-1.302,3.099-0.906,5.952,1.064,8.639c2.143,2.925,4.29,5.848,6.394,8.802c2.173,3.052,3.205,6.408,2.4,10.162
		c-0.609,2.832-2.188,5.107-4.345,6.975c-2.742,2.372-5.509,4.718-8.32,7.008c-2.521,2.057-3.669,4.598-3.183,7.855
		c0.524,3.51,1.072,7.02,1.472,10.545c0.188,1.654,0.254,3.373,0.023,5.014c-0.816,5.793-4.724,8.633-10.015,9.945
		c-3.369,0.834-6.772,1.535-10.172,2.248c-3.323,0.697-5.503,2.639-6.599,5.838c-1.186,3.467-2.327,6.949-3.594,10.385
		c-1.543,4.188-4.272,7.193-8.797,8.215c-2.449,0.553-4.857,0.209-7.238-0.451c-3.198-0.889-6.402-1.754-9.589-2.684
		c-3.327-0.971-6.154-0.17-8.622,2.207c-2.502,2.41-5.023,4.801-7.568,7.164c-5.529,5.133-12.107,5.129-17.62-0.008
		c-2.458-2.291-4.914-4.586-7.312-6.938c-2.676-2.625-5.712-3.436-9.336-2.314c-3.278,1.014-6.603,1.889-9.922,2.766
		c-6.979,1.84-12.761-1.176-15.24-7.969c-1.203-3.297-2.351-6.615-3.437-9.953c-1.114-3.426-3.3-5.557-6.883-6.277
		c-3.366-0.678-6.713-1.447-10.059-2.223c-7.22-1.672-10.85-6.715-10.124-14.059c0.143-1.441,0.388-2.873,0.608-4.307
		c0.319-2.074,0.672-4.145,0.986-6.219c0.568-3.754-0.577-6.811-3.6-9.199c-2.634-2.084-5.215-4.238-7.735-6.457
		c-3.294-2.903-5.235-6.438-4.662-11.005c0.293-2.33,1.253-4.398,2.597-6.285c1.948-2.737,3.88-5.489,5.945-8.136
		c2.4-3.077,2.817-6.307,1.277-9.869c-1.301-3.012-2.534-6.054-3.777-9.089c-0.94-2.295-1.431-4.672-1.11-7.162
		c0.553-4.296,2.985-7.287,6.699-9.262c3.3-1.756,6.662-3.399,10.037-5.01c2.988-1.426,4.669-3.726,4.988-7.003
		c0.366-3.761,0.656-7.529,1.038-11.288c0.687-6.764,5.624-11.24,12.431-11.311c1.944-0.021,3.889-0.003,5.833-0.003
		C230.963,83.044,230.963,83.145,230.963,83.246z M218.956,159.395c0.01,33.941,27.643,61.806,61.331,61.849
		c33.866,0.043,61.71-27.408,61.717-60.844c0.007-34.701-27.116-62.144-61.417-62.139
		C246.846,98.266,218.945,125.941,218.956,159.395z"/>
	<path fill-rule="evenodd" clip-rule="evenodd" d="M239.53,160.617c0.379-0.941,0.561-2.042,1.175-2.782
		c1.257-1.515,2.641-2.969,4.168-4.207c2.144-1.738,4.079-1.641,6.248,0.083c1.673,1.33,3.311,2.708,4.91,4.127
		c4.54,4.027,9.054,8.083,13.574,12.132c1.329,1.191,2.103,1.109,3.43-0.443c5.907-6.903,11.8-13.818,17.712-20.719
		c5.835-6.814,11.676-13.623,17.534-20.418c2.964-3.439,4.145-3.56,7.77-0.866c1.256,0.933,2.529,1.855,3.688,2.899
		c1.944,1.751,2.167,3.205,0.94,5.505c-0.465,0.873-1.012,1.709-1.583,2.518c-10.113,14.308-20.236,28.609-30.357,42.912
		c-3.836,5.422-7.668,10.848-11.509,16.266c-0.418,0.592-0.842,1.188-1.343,1.707c-1.58,1.637-3.67,1.756-5.456,0.34
		c-0.356-0.283-0.691-0.607-0.984-0.955c-8.812-10.447-17.629-20.889-26.404-31.366c-0.972-1.161-1.775-2.487-2.506-3.819
		C240.073,162.685,239.887,161.686,239.53,160.617z"/>
</g>
<circle opacity="0.2" fill-rule="evenodd" clip-rule="evenodd" fill="none" stroke="#5D5D5D" stroke-width="8" stroke-miterlimit="10" cx="271.82" cy="241.349" r="153.839"/>
<circle opacity="0.5" fill-rule="evenodd" clip-rule="evenodd" fill="none" stroke="#FFFF36" stroke-width="6" stroke-miterlimit="10" cx="268.483" cy="238.75" r="227.066"/>
<g>
	<path fill-rule="evenodd" clip-rule="evenodd" d="M432.781,332.247c-8.053,4.071-16.033,8.291-24.175,12.174
		c-9.35,4.461-17.521,1.849-22.224-7.398c-10.881-21.404-21.611-42.887-32.152-64.461c-4.172-8.538-1.395-16.992,6.796-21.37
		c7.935-4.241,16.116-8.022,24.765-12.289c1.855,3.534,3.644,6.802,5.307,10.132c12.755,25.549,25.473,51.117,38.257,76.65
		c0.914,1.824,2.274,3.426,3.427,5.131C432.781,331.292,432.781,331.77,432.781,332.247z M407.41,334.951
		c2.969-3.765,6.335-6.262,5.984-8.017c-0.482-2.415-3.523-5.395-5.959-5.94c-1.465-0.329-5.209,3.358-5.455,5.522
		C401.744,328.585,404.711,331.018,407.41,334.951z"/>
	<path fill-rule="evenodd" clip-rule="evenodd" d="M205.903,405.211c-10.945-4.271-13.693-8.298-13.173-19.272
		c-10.887-3.036-16.329-9.656-13.297-21.642c0.318-1.254-1.368-3.338-2.58-4.601c-4.457-4.644-9.034-9.18-13.708-13.606
		c-3.758-3.56-4.104-7.284-1.18-11.44c13.568-19.295,27.068-38.639,40.813-57.809c1.341-1.869,4.086-3.527,6.359-3.803
		c14.629-1.775,29.335-4.147,43.521,2.713c1.752,0.848,4.564,0.435,6.555-0.295c10.495-3.852,20.68-8.707,31.389-11.745
		c5.822-1.651,12.541-0.958,18.728-0.235c4.374,0.51,8.422,3.468,12.81,4.26c19.346,3.489,30.791,14.953,37.617,33.171
		c5.063,13.513,12.438,26.183,19.13,39.048c2.661,5.115,2.015,8.77-2.304,12.502c-7.359,6.363-14.428,13.063-22.006,19.975
		c2.586,2.77,4.92,5.063,7.021,7.554c7.694,9.122,4.496,23.329-6.365,28.3c-4.72,2.161-8.902,2.085-12.922-2.107
		c-8.909-9.295-18.146-18.277-27.312-27.323c-1.516-1.496-3.346-2.672-5.031-3.995c-0.589,0.549-1.178,1.099-1.768,1.647
		c1.338,1.857,2.461,3.926,4.049,5.536c9.047,9.164,18.094,18.334,27.387,27.246c3.055,2.93,3.432,5.416,0.713,8.493
		c-2.051,2.323-3.941,4.821-6.205,6.915c-7.395,6.836-15.451,6.628-22.568-0.443c-10.152-10.085-20.257-20.216-30.434-30.275
		c-1.542-1.525-3.36-2.771-6.11-3.146c3.148,7.39,9.389,12.189,14.711,17.647c5.645,5.789,11.679,11.198,17.435,16.67
		c-10.257,13.646-21.203,14.651-32.164,3.677c-4.353-4.357-8.623-8.798-12.932-13.2c-0.723,0.578-1.446,1.157-2.169,1.736
		c3.264,4.386,6.527,8.771,9.867,13.261c-8.082,9.571-30.624,5.194-39.243-8.07C214.355,429.224,204.266,422.262,205.903,405.211z
		 M349.351,368.67c7.667-6.93,14.157-13.205,21.112-18.917c3.627-2.98,4.188-5.426,1.959-9.576
		c-5.289-9.846-10.08-19.961-15.099-29.953c-4.591-9.139-7.252-20.484-14.371-26.773c-7.304-6.452-18.98-7.957-28.747-11.62
		c-2.67-1.002-5.29-2.526-8.041-2.833c-4.133-0.459-8.686-1.056-12.488,0.172c-10.843,3.505-21.51,7.64-31.994,12.115
		c-2.985,1.275-6.076,4.102-7.47,7.007c-7.817,16.294-15.191,32.801-22.582,49.296c-2.792,6.232-0.106,10.502,6.73,10.108
		c3.362-0.194,7.005-1.603,9.857-3.474c9.337-6.124,15.098-15.188,18.343-25.639c2.369-7.631,3.708-15.58,5.555-23.601
		c2.365,0,5.072-0.445,7.523,0.157c1.636,0.4,3.243,2.065,4.262,3.572c1.613,2.384,2.211,5.6,4.133,7.605
		c8.572,8.947,17.527,17.527,26.223,26.359C325.938,344.541,337.508,356.514,349.351,368.67z M240.294,398.578
		c-1.802-2.224-3.233-5.611-5.575-6.448c-2.668-0.953-6.927-0.687-9.114,0.925c-4.344,3.2-7.951,7.509-11.47,11.691
		c-3.383,4.021-3.283,8.437,0.68,12.097c3.749,3.461,7.933,3.162,11.513-0.267c3.949-3.782,7.655-7.837,11.229-11.979
		C238.713,403.257,239.112,401.263,240.294,398.578z M208.864,399.162c2.937-2.542,6.271-5.017,9.103-7.972
		c5.174-5.396,5.276-10.451,0.698-14.159c-4.854-3.932-10.532-1.781-17.077,6.468c-3.668,4.622-3.378,10.263,0.889,13.141
		C203.974,397.649,205.9,398.023,208.864,399.162z M184.906,369.868c0.194,5.503,3.118,8.719,8.263,8.877
		c5.144,0.158,8.627-2.961,8.783-8.185c0.154-5.187-2.96-8.5-8.232-8.66C188.47,361.742,185.477,364.72,184.906,369.868z
		 M254.516,418.699c-0.702-5.188-3.595-8.519-8.908-8.296c-5.251,0.222-8.341,3.579-8.114,8.95c0.214,5.063,3.535,7.997,8.378,7.988
		C251.118,427.333,254.051,424.044,254.516,418.699z"/>
	<path fill-rule="evenodd" clip-rule="evenodd" d="M170.886,232.444c8.255,5.824,16.003,10.918,23.326,16.564
		c6.9,5.32,8.334,13.777,3.352,21.008c-13.92,20.2-28.025,40.276-42.361,60.182c-5.416,7.52-13.879,8.944-21.48,4.004
		c-7.566-4.918-14.8-10.348-22.96-16.102C130.738,289.642,150.511,261.472,170.886,232.444z M136.466,307.425
		c-2.802,3.809-5.798,6.098-5.691,8.23c0.111,2.208,3.234,4.264,5.04,6.387c2.104-2.055,5.4-3.846,5.926-6.244
		C142.147,313.944,139.08,311.329,136.466,307.425z"/>
	<path fill-rule="evenodd" clip-rule="evenodd" fill="#5D5D5D" d="M407.41,334.951c-2.699-3.934-5.666-6.366-5.43-8.435
		c0.246-2.164,3.99-5.852,5.455-5.522c2.436,0.546,5.477,3.525,5.959,5.94C413.745,328.689,410.379,331.187,407.41,334.951z"/>
	<path fill-rule="evenodd" clip-rule="evenodd" fill="#FFFF36" d="M349.351,368.67c-11.843-12.156-23.413-24.129-35.095-35.993
		c-8.695-8.832-17.65-17.412-26.223-26.359c-1.922-2.006-2.52-5.222-4.133-7.605c-1.019-1.507-2.626-3.172-4.262-3.572
		c-2.451-0.603-5.158-0.157-7.523-0.157c-1.847,8.021-3.187,15.97-5.555,23.601c-3.245,10.451-9.006,19.515-18.343,25.639
		c-2.852,1.871-6.495,3.279-9.857,3.474c-6.836,0.394-9.521-3.876-6.73-10.108c7.391-16.495,14.765-33.002,22.582-49.296
		c1.395-2.905,4.485-5.731,7.47-7.007c10.484-4.476,21.151-8.61,31.994-12.115c3.803-1.228,8.355-0.631,12.488-0.172
		c2.751,0.307,5.371,1.831,8.041,2.833c9.767,3.663,21.443,5.168,28.747,11.62c7.119,6.289,9.78,17.635,14.371,26.773
		c5.019,9.992,9.81,20.107,15.099,29.953c2.229,4.15,1.668,6.596-1.959,9.576C363.508,355.465,357.018,361.74,349.351,368.67z"/>
	<path fill-rule="evenodd" clip-rule="evenodd" fill="#FFFF36" d="M240.294,398.578c-1.182,2.685-1.581,4.679-2.736,6.019
		c-3.573,4.143-7.279,8.197-11.229,11.979c-3.58,3.429-7.764,3.728-11.513,0.267c-3.963-3.66-4.063-8.076-0.68-12.097
		c3.519-4.183,7.125-8.491,11.47-11.691c2.187-1.611,6.445-1.878,9.114-0.925C237.061,392.967,238.492,396.354,240.294,398.578z"/>
	<path fill-rule="evenodd" clip-rule="evenodd" fill="#FFFF36" d="M208.864,399.162c-2.964-1.139-4.89-1.513-6.388-2.522
		c-4.267-2.878-4.557-8.519-0.889-13.141c6.545-8.249,12.223-10.399,17.077-6.468c4.578,3.708,4.476,8.763-0.698,14.159
		C215.134,394.146,211.8,396.62,208.864,399.162z"/>
	<path fill-rule="evenodd" clip-rule="evenodd" fill="#FFFF36" d="M184.906,369.868c0.571-5.148,3.564-8.126,8.814-7.968
		c5.272,0.16,8.386,3.474,8.232,8.66c-0.155,5.224-3.639,8.343-8.783,8.185C188.023,378.587,185.1,375.371,184.906,369.868z"/>
	<path fill-rule="evenodd" clip-rule="evenodd" fill="#FFFF36" d="M254.516,418.699c-0.465,5.345-3.397,8.634-8.644,8.643
		c-4.843,0.009-8.165-2.925-8.378-7.988c-0.227-5.371,2.863-8.729,8.114-8.95C250.921,410.181,253.813,413.512,254.516,418.699z"/>
	<path fill-rule="evenodd" clip-rule="evenodd" fill="#5D5D5D" d="M136.466,307.425c2.614,3.904,5.681,6.52,5.275,8.373
		c-0.525,2.398-3.822,4.189-5.926,6.244c-1.806-2.123-4.929-4.179-5.04-6.387C130.668,313.522,133.665,311.233,136.466,307.425z"/>
</g>
<path fill-rule="evenodd" clip-rule="evenodd" fill="#5D5D5D" d="M469.736,195.567c-18.021,4.344-40.798-3.967-53.002-22.282
	c-13.984-20.991-11.538-48.513,5.896-66.581c17.309-17.938,44.619-21.395,66.044-8.32c20.647,12.601,28.429,36.798,24.062,54.723
	c-3.758-1.405-7.483-2.799-11.285-4.222c0.681-7.701-0.15-14.935-3.261-21.854c-8.189-18.224-27.835-27.807-47.429-23.051
	c-18.668,4.531-31.854,22.473-30.806,41.917c1.2,22.248,20.459,39.684,42.743,38.508c2.349-0.123,3.302,0.538,3.947,2.621
	C467.543,189.907,468.689,192.711,469.736,195.567z"/>
<path fill-rule="evenodd" clip-rule="evenodd" fill="#5D5D5D" d="M490.336,144.724c-15.304-5.733-30.299-11.351-46.063-17.256
	c5.826,15.58,11.439,30.59,17.09,45.702c-15.188,1.567-29.99-12.51-30.359-28.38c-0.415-17.892,13.964-32.029,31.537-31.007
	C478.61,114.717,492.389,129.771,490.336,144.724z"/>
<path fill-rule="evenodd" clip-rule="evenodd" d="M517.643,187.714c-4.611,4.61-8.593,8.591-12.944,12.939
	c-6.082-6.256-12.189-12.538-18.683-19.216c-3.21,3.595-6.157,6.896-9.686,10.849c-6.713-17.88-13.043-34.741-19.678-52.416
	c17.598,6.597,34.462,12.919,52.015,19.5c-3.741,3.36-7.022,6.308-10.459,9.395C505.051,175.437,511.315,181.545,517.643,187.714z"
	/>
<g>
	<path fill="#5D5D5D" d="M37,365c0,0,8.661,75.368,8.661,73.544s10.028-57.353,10.028-57.353l61.989-1.942L109.93,365H37z"/>
	<path d="M45.432,446c0.456-6.837,10.256-64,10.256-64h100.277l-8.205,64H45.432z"/>
	<path fill="#FFFF36" d="M45.771,440.66c0.018-0.287,0-0.978,0.056-1.88c0.65-10.58,3.843-59.756,3.843-59.756l90.33-5.958
		c0,0,3,8.934,0,8.934c-4,0-83.856,0-83.856,0H55"/>
</g>
</svg>
