<?xml version="1.0" encoding="utf-8"?>
<!-- Generator: Adobe Illustrator 16.0.2, SVG Export Plug-In . SVG Version: 6.00 Build 0)  -->
<!DOCTYPE svg PUBLIC "-//W3C//DTD SVG 1.1//EN" "http://www.w3.org/Graphics/SVG/1.1/DTD/svg11.dtd">
<svg version="1.1" id="Layer_1" xmlns="http://www.w3.org/2000/svg" xmlns:xlink="http://www.w3.org/1999/xlink" x="0px" y="0px"
	 width="460.478px" height="443.978px" viewBox="0 0 460.478 443.978" enable-background="new 0 0 460.478 443.978"
	 xml:space="preserve">
<circle opacity="0.2" fill-rule="evenodd" clip-rule="evenodd" fill="none" stroke="#5D5D5D" stroke-width="8" stroke-miterlimit="10" cx="224.476" cy="223.059" r="142.661"/>
<circle opacity="0.5" fill-rule="evenodd" clip-rule="evenodd" fill="none" stroke="#FFFF36" stroke-width="6" stroke-miterlimit="10" cx="226.382" cy="222.648" r="210.566"/>
<g>
	<path fill-rule="evenodd" clip-rule="evenodd" d="M61.355,254.231c1.98-2.733,3.52-6.002,6.042-8.076
		c4.095-3.368,9.062-3.382,13.769-0.944c4.579,2.37,7.048,6.35,7.174,11.489c0.166,6.805,0.036,13.617,0.055,20.427
		c0.003,1.251,0.108,2.501,0.184,4.132c7.37-1.496,12.041,2.448,16.539,7.195c5.832,6.15,11.875,12.107,17.979,17.993
		c4.253,4.101,6.163,9.005,6.124,14.819c-0.04,6-0.009,12-0.009,17.923c6.704,1.031,6.705,1.031,6.708,7.521
		c0.003,5.141,0.178,10.288-0.093,15.413c-0.099,1.87-1.267,3.682-1.947,5.52c-16.716,0-33.433,0-50.149,0
		c-0.642-1.205-1.809-2.396-1.84-3.616c-0.177-6.929-0.11-13.865-0.064-20.799c0.015-2.284,1.192-3.554,3.584-3.598
		c0.963-0.017,1.923-0.216,3.794-0.441c-1.167-1.975-1.772-3.635-2.893-4.794c-5.444-5.631-10.946-11.211-16.584-16.646
		c-3.748-3.61-7.007-7.449-8.371-12.599C61.355,288.178,61.355,271.204,61.355,254.231z M122.305,339.409
		c0-6.359-0.138-12.505,0.052-18.642c0.116-3.751-1.114-6.713-3.733-9.303c-7.038-6.96-13.991-14.005-21.029-20.966
		c-3.709-3.667-7.419-3.939-10.47-0.927c-2.951,2.913-2.687,6.982,0.788,10.515c5.047,5.133,10.139,10.222,15.237,15.304
		c1.634,1.629,2.553,3.48,0.793,5.377c-1.799,1.938-3.712,1.104-5.351-0.529c-5.459-5.448-11.017-10.805-16.336-16.386
		c-4.664-4.893-5.099-10.796-1.813-16.659c0.713-1.271,1.243-2.836,1.265-4.275c0.119-8.097,0.108-16.197,0.038-24.295
		c-0.047-5.377-2.648-8.329-7.015-8.233c-4.225,0.095-6.562,2.944-6.571,8.19c-0.026,14.141,0.06,28.281-0.052,42.422
		c-0.032,4.024,1.357,7.145,4.213,9.906c5.359,5.183,10.545,10.542,15.849,15.783c3.643,3.598,7.718,6.901,7.109,12.718
		C104.569,339.409,113.261,339.409,122.305,339.409z M129.119,346.469c-13.763,0-27.156,0-40.507,0c0,4.899,0,9.477,0,14.065
		c13.621,0,27.015,0,40.507,0C129.119,355.742,129.119,351.264,129.119,346.469z"/>
	<path fill-rule="evenodd" clip-rule="evenodd" d="M162.424,367.644c-0.68-1.836-1.848-3.647-1.947-5.515
		c-0.271-5.124-0.096-10.271-0.093-15.409c0.003-6.534,0.004-6.534,6.708-7.504c0-5.661,0.125-11.403-0.033-17.137
		c-0.179-6.423,1.947-11.687,6.646-16.15c6.145-5.835,12.154-11.825,17.982-17.979c4.35-4.591,8.957-8.129,16.23-6.607
		c0-8.345-0.064-16.264,0.021-24.181c0.063-5.814,2.789-10.021,8.164-12.357c5.256-2.288,10.259-1.433,14.246,2.436
		c2.082,2.021,3.1,5.14,4.6,7.763c0,16.716,0,33.433,0,50.148c-1.347,5.162-4.642,8.982-8.375,12.597
		c-5.626,5.447-11.146,11.006-16.57,16.652c-1.153,1.199-1.704,2.977-2.688,4.775c7.214,1.003,7.217,1.003,7.221,7.523
		c0.003,5.264,0.159,10.534-0.091,15.787c-0.083,1.745-1.217,3.439-1.871,5.157C195.857,367.644,179.141,367.644,162.424,367.644z
		 M200.915,339.401c-0.103-4.621,2.173-7.836,5.264-10.81c6.113-5.88,12.234-11.781,17.923-18.063
		c1.99-2.197,3.775-5.508,3.85-8.356c0.385-14.775,0.203-29.564,0.16-44.349c-0.004-1.244-0.199-2.609-0.735-3.709
		c-1.475-3.024-4.119-4.252-7.35-3.601c-3.232,0.65-5.32,2.82-5.375,6.169c-0.153,9.125-0.111,18.254-0.051,27.38
		c0.006,0.94,0.542,1.941,1.028,2.804c3.751,6.65,3.064,12.297-2.37,17.84c-4.859,4.958-9.824,9.81-14.711,14.741
		c-1.74,1.756-3.752,3.414-5.945,1.319c-2.464-2.354-0.477-4.375,1.32-6.171c4.912-4.906,9.853-9.785,14.7-14.755
		c3.239-3.319,3.399-7.435,0.578-10.247c-2.956-2.949-6.741-2.797-10.198,0.615c-7.228,7.135-14.454,14.274-21.503,21.583
		c-1.529,1.587-3.173,3.844-3.286,5.872c-0.399,7.151-0.155,14.338-0.155,21.737C183.021,339.401,191.713,339.401,200.915,339.401z
		 M207.814,346.467c-13.762,0-27.155,0-40.505,0c0,4.898,0,9.474,0,14.069c13.624,0,27.016,0,40.505,0
		C207.814,355.746,207.814,351.268,207.814,346.467z"/>
	<path fill-rule="evenodd" clip-rule="evenodd" d="M153.166,194.053c3.831,0.955,7.761,1.624,11.477,2.91
		c22.938,7.942,37.389,31.355,33.905,54.688c-3.752,25.121-24.122,43.357-49.291,44.127c-25.941,0.792-49.543-19.933-51.639-45.343
		c-2.314-28.071,16.468-52.208,43.347-55.731c0.74-0.097,1.448-0.429,2.171-0.651C146.48,194.053,149.823,194.053,153.166,194.053z
		 M147.861,288.948c24.39,0.012,44.364-19.448,44.502-43.358c0.143-24.632-19.491-44.6-43.974-44.723
		c-24.39-0.121-44.479,19.671-44.454,43.796C103.962,269.171,123.568,288.937,147.861,288.948z"/>
	<path fill-rule="evenodd" clip-rule="evenodd" fill="#FFFFFF" d="M122.305,339.409c-9.044,0-17.736,0-27.026,0
		c0.609-5.816-3.466-9.12-7.109-12.718c-5.304-5.241-10.49-10.601-15.849-15.783c-2.856-2.762-4.246-5.882-4.213-9.906
		c0.112-14.141,0.025-28.281,0.052-42.422c0.009-5.246,2.347-8.096,6.571-8.19c4.367-0.096,6.968,2.856,7.015,8.233
		c0.07,8.098,0.081,16.198-0.038,24.295c-0.021,1.439-0.552,3.004-1.265,4.275c-3.286,5.863-2.851,11.767,1.813,16.659
		c5.32,5.581,10.877,10.938,16.336,16.386c1.638,1.634,3.552,2.468,5.351,0.529c1.76-1.896,0.841-3.748-0.793-5.377
		c-5.098-5.082-10.19-10.171-15.237-15.304c-3.475-3.532-3.739-7.602-0.788-10.515c3.051-3.013,6.761-2.74,10.47,0.927
		c7.038,6.961,13.991,14.006,21.029,20.966c2.619,2.59,3.849,5.552,3.733,9.303C122.167,326.904,122.305,333.05,122.305,339.409z"/>
	<path fill-rule="evenodd" clip-rule="evenodd" fill="#5D5D5D" d="M129.119,346.469c0,4.795,0,9.273,0,14.065
		c-13.492,0-26.886,0-40.507,0c0-4.589,0-9.166,0-14.065C101.962,346.469,115.356,346.469,129.119,346.469z"/>
	<path fill-rule="evenodd" clip-rule="evenodd" fill="#FFFFFF" d="M200.915,339.401c-9.202,0-17.893,0-26.858,0
		c0-7.399-0.244-14.586,0.155-21.737c0.113-2.028,1.756-4.285,3.286-5.872c7.05-7.309,14.275-14.448,21.503-21.583
		c3.457-3.412,7.242-3.564,10.198-0.615c2.821,2.813,2.661,6.928-0.578,10.247c-4.847,4.97-9.788,9.849-14.7,14.755
		c-1.797,1.796-3.784,3.816-1.32,6.171c2.193,2.095,4.205,0.437,5.945-1.319c4.887-4.932,9.852-9.783,14.711-14.741
		c5.434-5.543,6.121-11.189,2.37-17.84c-0.486-0.862-1.022-1.863-1.028-2.804c-0.06-9.126-0.102-18.255,0.051-27.38
		c0.056-3.349,2.143-5.519,5.375-6.169c3.231-0.651,5.875,0.576,7.35,3.601c0.536,1.1,0.731,2.465,0.735,3.709
		c0.043,14.784,0.225,29.573-0.16,44.349c-0.074,2.849-1.859,6.159-3.85,8.356c-5.689,6.282-11.81,12.184-17.923,18.063
		C203.088,331.565,200.812,334.78,200.915,339.401z"/>
	<path fill-rule="evenodd" clip-rule="evenodd" fill="#5D5D5D" d="M207.814,346.467c0,4.801,0,9.279,0,14.069
		c-13.49,0-26.882,0-40.505,0c0-4.596,0-9.171,0-14.069C180.659,346.467,194.053,346.467,207.814,346.467z"/>
	<path fill-rule="evenodd" clip-rule="evenodd" fill="#FFFF36" d="M147.861,288.948c-24.293-0.012-43.899-19.777-43.926-44.285
		c-0.026-24.125,20.064-43.917,44.454-43.796c24.483,0.123,44.117,20.091,43.974,44.723
		C192.225,269.5,172.251,288.96,147.861,288.948z M147.893,207.609c-2.29,0.258-4.583,0.483-6.867,0.781
		c-2.302,0.301-3.997,1.325-3.586,3.976c0.432,2.791,2.556,2.661,4.737,2.58c3.691-0.14,7.461-0.563,11.073-0.027
		c15.959,2.369,27.031,17.307,25.288,33.72c-1.618,15.235-16.305,27.791-31.519,26.944c-16.39-0.911-29.463-13.975-29.196-29.938
		c0.083-4.967,2.154-9.884,3.111-14.864c0.256-1.331,0.152-3.06-0.532-4.128c-0.453-0.705-2.427-1.039-3.373-0.663
		c-1.017,0.401-1.875,1.715-2.381,2.824c-6.039,13.253-5.068,26.081,3.404,37.877c8.61,11.986,20.803,17.023,35.302,15.085
		c18.978-2.538,33.389-20.145,32.046-38.239C183.847,222.614,168.247,207.731,147.893,207.609z M147.207,269.007
		c0.61,0.022,1.22,0.043,1.83,0.065c0.86-1.572,1.805-3.106,2.554-4.731c0.542-1.176,0.438-3.066,1.284-3.615
		c4.297-2.786,6.162-6.528,4.952-11.47c-1.22-4.979-4.729-7.239-9.768-7.754c-1.172-0.121-2.511-1.612-3.147-2.807
		c-0.348-0.654,0.34-2.581,1.043-2.914c1.222-0.578,2.828-0.518,4.251-0.415c0.655,0.047,1.239,1.166,1.888,1.201
		c1.496,0.081,3.973,0.26,4.31-0.44c0.606-1.259,0.128-3.188-0.295-4.727c-0.188-0.686-1.268-1.311-2.075-1.606
		c-2.016-0.738-2.232-2.158-2.582-4.09c-0.294-1.627-1.909-4.031-3.228-4.238c-2.578-0.403-3.342,1.896-3.642,4.354
		c-0.167,1.366-1.05,2.951-2.112,3.843c-3.089,2.593-4.795,5.64-4.284,9.716c0.621,4.947,3.918,7.878,9.169,8.874
		c1.5,0.284,3.127,1.534,3.987,2.818c0.399,0.595-0.715,3.201-1.472,3.364c-1.535,0.329-3.339-0.24-4.942-0.731
		c-0.778-0.239-1.311-1.566-2.033-1.641c-1.359-0.137-3.126-0.154-4.05,0.601c-0.702,0.576-0.865,2.69-0.363,3.646
		c0.729,1.387,2.113,2.617,3.504,3.419c1.979,1.141,2.787,2.429,2.851,4.811C144.877,266.047,146.367,267.519,147.207,269.007z
		 M127.61,222.511c1.59-2.117,3.19-3.313,3.157-4.464c-0.034-1.167-1.681-2.287-2.621-3.428c-1.188,1.043-3.022,1.915-3.357,3.185
		C124.533,218.775,126.169,220.245,127.61,222.511z"/>
	<path fill-rule="evenodd" clip-rule="evenodd" d="M147.893,207.609c20.354,0.122,35.954,15.005,37.507,35.928
		c1.343,18.095-13.068,35.701-32.046,38.239c-14.499,1.938-26.692-3.099-35.302-15.085c-8.472-11.796-9.443-24.624-3.404-37.877
		c0.505-1.109,1.364-2.423,2.381-2.824c0.946-0.376,2.919-0.042,3.373,0.663c0.685,1.068,0.788,2.797,0.532,4.128
		c-0.957,4.98-3.028,9.897-3.111,14.864c-0.267,15.963,12.806,29.026,29.196,29.938c15.214,0.847,29.901-11.709,31.519-26.944
		c1.743-16.413-9.329-31.351-25.288-33.72c-3.612-0.536-7.382-0.112-11.073,0.027c-2.181,0.081-4.305,0.211-4.737-2.58
		c-0.41-2.65,1.285-3.675,3.586-3.976C143.311,208.093,145.604,207.867,147.893,207.609z"/>
	<path fill-rule="evenodd" clip-rule="evenodd" d="M147.207,269.007c-0.84-1.488-2.329-2.96-2.37-4.469
		c-0.064-2.382-0.872-3.67-2.851-4.811c-1.391-0.802-2.776-2.032-3.504-3.419c-0.502-0.955-0.339-3.069,0.363-3.646
		c0.924-0.755,2.691-0.737,4.05-0.601c0.722,0.074,1.254,1.401,2.033,1.641c1.604,0.491,3.407,1.061,4.942,0.731
		c0.757-0.163,1.872-2.77,1.472-3.364c-0.859-1.284-2.487-2.534-3.987-2.818c-5.25-0.996-8.548-3.927-9.169-8.874
		c-0.511-4.076,1.195-7.123,4.284-9.716c1.062-0.892,1.945-2.477,2.112-3.843c0.3-2.457,1.064-4.757,3.642-4.354
		c1.319,0.207,2.934,2.611,3.228,4.238c0.35,1.932,0.565,3.352,2.582,4.09c0.807,0.296,1.886,0.921,2.075,1.606
		c0.423,1.539,0.901,3.468,0.295,4.727c-0.336,0.7-2.813,0.521-4.31,0.44c-0.648-0.035-1.232-1.154-1.888-1.201
		c-1.423-0.103-3.029-0.163-4.251,0.415c-0.703,0.333-1.391,2.26-1.043,2.914c0.636,1.194,1.975,2.686,3.147,2.807
		c5.04,0.515,8.548,2.774,9.768,7.754c1.21,4.941-0.654,8.684-4.952,11.47c-0.847,0.549-0.743,2.439-1.284,3.615
		c-0.749,1.625-1.693,3.159-2.554,4.731C148.427,269.05,147.816,269.029,147.207,269.007z"/>
	<path fill-rule="evenodd" clip-rule="evenodd" d="M127.61,222.511c-1.441-2.266-3.077-3.735-2.821-4.707
		c0.334-1.27,2.168-2.142,3.357-3.185c0.94,1.141,2.587,2.261,2.621,3.428C130.8,219.197,129.2,220.394,127.61,222.511z"/>
</g>
<g>
	<path fill-rule="evenodd" clip-rule="evenodd" fill="#FFFF36" d="M145.94,68.114c0.78-2.105,1.561-4.21,2.342-6.315
		c3.203-3.397,7.004-6.052,11.442-7.33c7.018-2.021,9.765-6.973,11.238-13.626c2.602-11.745,9.949-16.45,21.832-14.428
		c5.303,0.902,9.919,0.345,13.488-4.272c1.694-2.192,3.748-4.137,5.804-6.013c3.633-3.312,8.082-4.717,12.819-3.741
		c4.524,0.932,8.69,3.232,12.239,6.134c3.475,2.842,6.808,2.553,10.589,1.251c4.956-1.705,9.849-3.797,15.279-3.429
		c1.841,0.682,3.684,1.365,5.524,2.049c2.987,3.146,5.749,6.357,7.585,10.443c2.473,5.502,6.771,8.22,13.193,8.633
		c3.613,0.233,7.762,0.63,11.078,2.988c5.069,3.606,7.364,8.755,7.103,14.718c-0.32,7.351,1.258,13.399,8.123,17.302
		c0.574,0.326,1.323,0.566,1.895,1.027c4.356,3.519,7.318,7.918,7.838,13.554c0.3,3.256-0.771,6.397-2.534,9.173
		c-4.011,6.32-4.847,12.526-0.476,19.181c2.521,3.837,3.448,8.37,3.263,13.036c-0.685,1.842-1.367,3.684-2.049,5.526
		c-1.47,0.167-1.479,1.776-2.574,2.499c-8.758,5.78-14.421,12.858-13.3,24.56c0.696,7.278-5.171,12.64-12.513,14.195
		c-2.598,0.55-5.206,1.109-7.841,1.417c-4.279,0.5-7.255,2.516-8.982,6.549c-0.875,2.043-2.161,3.919-3.33,5.828
		c-4.835,7.884-11.826,10.807-20.435,7.164c-7.832-3.314-14.488-3.028-20.948,2.595c-3.623,3.154-8.156,3.851-12.8,3.958
		c-2.104-0.781-4.21-1.562-6.314-2.342c-3.083-3.144-6.167-6.289-9.251-9.433c-1.869-1.904-4.135-2.725-6.788-2.502
		c-4.39,0.37-8.78,0.737-13.169,1.105c-2.105-0.781-4.211-1.562-6.315-2.342c-5.061-3.877-7.049-9.463-8.316-15.354
		c-1.109-5.162-4.017-8.454-9.081-9.921c-1.338-0.389-2.618-0.989-3.913-1.518c-8.72-3.552-13.112-9.916-10.618-18.755
		c2.732-9.676,0.433-16.765-6.28-23.784c-5.431-5.681-4.953-13.185-0.169-19.597c1.417-1.898,2.723-3.918,4.371-5.597
		c3.403-3.465,4.035-7.333,2.816-11.93C146.713,76.649,145.92,72.426,145.94,68.114z M316.318,92.713
		c2.679-6.477,1.996-9.047-3.004-12.928c-1.434-1.114-2.815-2.309-4.326-3.308c-5.828-3.854-8.497-9.128-8.681-16.212
		c-0.351-13.548-1.025-14.059-14.397-16.016c-6.297-0.921-11.434-3.498-14.458-9.469c-1.263-2.492-2.787-4.865-4.343-7.192
		c-2.193-3.281-5.304-4.414-9.105-3.313c-2.692,0.78-5.408,1.54-7.986,2.616c-6.037,2.523-11.501,1.147-16.781-2.077
		c-2.146-1.311-4.262-2.681-6.448-3.923c-3.767-2.137-7.254-1.666-10.344,1.371c-1.647,1.617-3.313,3.227-4.817,4.973
		c-4.36,5.064-9.626,7.417-16.483,6.894c-14.725-1.124-14.742-0.961-18.41,13.398c-1.404,5.497-4.589,9.515-9.782,11.875
		c-2.938,1.334-5.89,2.637-8.834,3.955c-3.803,1.703-4.983,4.781-4.498,8.688c0.221,1.78,0.268,3.655,0.885,5.302
		c3.265,8.7,0.564,15.822-5.497,22.176c-0.86,0.902-1.549,1.971-2.296,2.979c-3.294,4.446-2.724,8.693,1.082,12.772
		c6.121,6.561,10.541,13.782,7.21,23.369c-0.59,1.7-0.897,3.547-1.023,5.348c-0.201,2.879-0.548,5.713,2.75,7.616
		c3.456,1.993,7.112,4.032,10.643,5.309c5.235,1.892,7.474,5.524,9.2,9.887c1.25,3.154,2.445,6.385,2.896,9.858
		c0.345,2.661,5.762,5.51,8.469,5.231c8.892-0.915,17.542-1.866,24.744,5.892c9.236,9.95,9.019,10.298,20.796,2.135
		c7.706-5.341,15.203-3.595,22.737-0.798c4.64,1.722,9.832,1.447,11.68-2.916c4.946-11.667,13.246-17.74,25.942-18.462
		c4.146-0.235,6.568-3.353,6.663-7.84c0.065-3.061,0.374-6.118,0.506-9.18c0.23-5.188,2.208-9.462,6.376-12.664
		c2.554-1.96,5.13-3.898,7.576-5.983c3.11-2.65,4.004-5.959,2.382-9.798c-0.655-1.549-1.277-3.136-2.143-4.569
		c-4.554-7.544-4.812-15.033,0.007-22.568C315.803,94.208,316.14,93.107,316.318,92.713z"/>
	<path fill-rule="evenodd" clip-rule="evenodd" d="M253.605,96.491c3.896,1.444,7.613,3.13,11.504,4.163
		c2.861,0.759,4.579,2.915,6.682,4.499c2.544,1.92,1.873,7.168-1.081,10.272c-1.057,1.108-1.802,1.958-1.272,3.49
		c0.086,0.253,0.137,0.597,0.04,0.827c-2.173,5.046-2.925,11.082-6.074,15.162c-2.721,3.521-7.407,5.749-10.127,9.905
		c-1.012,1.552-3.581,2.142-5.436,1.466c-9.73-3.544-19.769-6.334-28.954-11.253c-1.821-0.976-3.369-2.471-5.024-3.75
		c-2.76-2.135-5.181-5.104-9.295-2.148c-1.302,0.934-3.242,0.146-4.856-0.473c-4.454-1.708-8.9-3.448-13.424-4.949
		c-2.875-0.953-3.724-2.362-2.604-5.32c5.402-14.303,10.732-28.634,15.935-43.01c1.164-3.213,2.891-3.644,5.787-2.459
		c3.894,1.59,7.852,3.035,11.83,4.397c3.382,1.156,6.161,2.913,6.834,6.66c0.425,2.359,2.057,1.556,3.186,1.368
		c6.684-1.119,11.736-5.028,16.165-9.87c1.028-1.125,1.602-2.737,2.753-3.663c1.735-1.397,1.423-4.847,5.289-4.278
		c4.87,0.715,8.247,2.779,9.658,7.444c1.151,3.802,0.146,7.478-1.674,10.902C257.612,89.328,255.679,92.73,253.605,96.491z
		 M217.144,106.303c-1.657,4.468-3.337,8.927-4.951,13.41c-0.354,0.981-1.322,2.127-0.177,3.081
		c3.092,2.573,6.058,5.399,9.474,7.462c7.481,4.519,16.088,6.431,24.102,9.737c1.999,0.823,4.132,1.716,5.583-0.678
		c1.441-2.374-1.013-2.985-2.224-4.135c-1.126-1.069-1.66-2.362-0.477-3.646c0.848-0.918,1.792-1.546,3.105-0.185
		c1.463,1.516,3.684,0.834,5.555,1.183c1.349,0.25,2.509-0.379,2.92-1.81c0.464-1.616-0.315-2.698-1.75-3.347
		c-0.889-0.405-1.834-0.694-2.743-1.06c-2.052-0.83-4.856-1.478-3.582-4.483c1.214-2.867,3.215-0.534,4.867-0.021
		c0.399,0.125,0.813,0.244,1.18,0.443c2.36,1.286,4.591,0.854,5.635-1.479c1.293-2.89-1.376-3.497-3.325-4.121
		c-2.514-0.801-5.562-2.183-4.58-4.798c1.293-3.445,4.633-1.513,6.88-0.396c2.175,1.084,3.941,1.451,4.909-1.06
		c0.914-2.378-1.059-3.087-2.834-3.743c-7.365-2.716-14.704-5.5-22.092-8.153c-2.2-0.791-4.132-1.996-3.129-4.403
		c0.866-2.073,3.05-1.833,5.078-1.016c1.293,0.521,2.812,1.887,4.176,0.17c3.523-4.442,6.039-9.439,7.316-14.955
		c0.531-2.289-0.878-4.282-2.935-5.049c-1.85-0.69-2.335,1.521-3.156,2.643c-4.925,6.719-10.935,13.206-19.144,13.908
		c-8.218,0.703-10.078,5.284-11.804,11.369C218.527,102.919,217.776,104.594,217.144,106.303z M196.875,98.421
		c-1.216,3.279-2.431,6.558-3.647,9.838c-4.19,11.298-4.19,11.298,7.347,15.039c0.134,0.043,0.264,0.092,0.394,0.145
		c2.431,0.984,4.066,0.179,4.961-2.231c4.141-11.147,8.262-22.302,12.415-33.444c0.981-2.632,0.193-4.28-2.468-5.193
		c-2.91-0.997-5.832-1.998-8.646-3.233c-2.153-0.945-3.191-0.56-3.982,1.75C201.253,86.911,199.016,92.649,196.875,98.421z"/>
	<path fill-rule="evenodd" clip-rule="evenodd" d="M254.622,47.319c-10.138-4.053-20.627-4.911-31.344-3.264
		c-2.72,0.418-5.412,0.622-5.933-2.722c-0.489-3.145,1.787-4.21,4.654-4.645c9.679-1.466,19.302-1.212,28.684,1.492
		c11.26,3.245,21.672,8.275,30.16,16.63c7.501,7.384,13.021,16.015,17.038,25.801c8.347,20.332,6.583,39.946-3.328,59.139
		c-2.502,4.845-5.666,9.272-9.433,13.273c-1.885,2.001-3.695,3.799-6.273,1.376c-2.596-2.436-0.775-4.506,0.938-6.489
		c20.666-23.945,21.36-57.424,1.566-81.696C274.224,57.472,265.374,51.012,254.622,47.319z"/>
	<path fill-rule="evenodd" clip-rule="evenodd" d="M208.535,172.168c-45.988-17.08-60.934-74.75-28.984-111.904
		c0.728-0.846,1.408-1.955,2.355-2.337c1.366-0.552,3.064-2.161,4.416-0.281c1.113,1.546,2.834,3.242,0.765,5.456
		c-1.707,1.827-3.352,3.745-4.79,5.787c-11.944,16.975-15.485,35.373-9.648,55.514c2.862,9.87,7.532,18.95,14.795,25.819
		c5.826,5.509,12.23,10.919,20.332,13.724c4.933,1.708,9.849,4.541,14.844,4.823c6.393,0.36,13.006,1.325,19.441-0.376
		c0.406-0.107,0.829-0.144,1.24-0.231c2.564-0.549,4.697,0.135,5.058,2.9c0.336,2.572-1.196,4.037-3.891,4.471
		C232.185,177.512,220.217,176.416,208.535,172.168z"/>
	<path fill-rule="evenodd" clip-rule="evenodd" fill="#FFFF36" d="M261.564,162.972c2.389,1.145,3.262,2.958,2.556,4.97
		c-0.717,2.039-2.723,3.035-4.783,2.303c-2.031-0.719-2.987-2.538-2.21-4.749C257.909,163.271,259.775,162.909,261.564,162.972z"/>
	<path fill-rule="evenodd" clip-rule="evenodd" fill="#FFFF36" d="M206.337,42.082c1.867,0.952,2.979,2.422,2.305,4.373
		c-0.733,2.119-2.369,3.595-4.819,2.651c-2.084-0.803-2.786-2.933-2.217-4.758C202.234,42.339,204.217,41.665,206.337,42.082z"/>
	<path fill-rule="evenodd" clip-rule="evenodd" fill="#5D5D5D" d="M217.144,106.303c0.633-1.708,1.384-3.384,1.878-5.131
		c1.726-6.085,3.586-10.667,11.804-11.369c8.209-0.702,14.219-7.188,19.144-13.908c0.821-1.121,1.307-3.333,3.156-2.643
		c2.057,0.767,3.466,2.761,2.935,5.049c-1.277,5.516-3.793,10.512-7.316,14.955c-1.364,1.717-2.883,0.351-4.176-0.17
		c-2.028-0.816-4.212-1.057-5.078,1.016c-1.003,2.407,0.929,3.612,3.129,4.403c7.388,2.654,14.727,5.437,22.092,8.153
		c1.775,0.655,3.748,1.365,2.834,3.743c-0.968,2.511-2.734,2.144-4.909,1.06c-2.247-1.118-5.587-3.049-6.88,0.396
		c-0.981,2.616,2.066,3.997,4.58,4.798c1.949,0.624,4.618,1.23,3.325,4.121c-1.044,2.333-3.274,2.765-5.635,1.479
		c-0.367-0.2-0.78-0.319-1.18-0.443c-1.652-0.512-3.653-2.845-4.867,0.021c-1.274,3.005,1.53,3.653,3.582,4.483
		c0.909,0.366,1.854,0.655,2.743,1.06c1.435,0.649,2.214,1.731,1.75,3.347c-0.411,1.43-1.571,2.06-2.92,1.81
		c-1.871-0.348-4.092,0.333-5.555-1.183c-1.313-1.362-2.258-0.734-3.105,0.185c-1.184,1.283-0.649,2.577,0.477,3.646
		c1.211,1.149,3.665,1.761,2.224,4.135c-1.451,2.394-3.584,1.501-5.583,0.678c-8.014-3.306-16.62-5.218-24.102-9.737
		c-3.416-2.063-6.382-4.889-9.474-7.462c-1.146-0.953-0.177-2.099,0.177-3.081C213.807,115.23,215.486,110.771,217.144,106.303z"/>
	<path fill-rule="evenodd" clip-rule="evenodd" fill="#5D5D5D" d="M196.875,98.421c2.141-5.772,4.378-11.51,6.373-17.331
		c0.791-2.31,1.829-2.695,3.982-1.75c2.814,1.236,5.736,2.236,8.646,3.233c2.661,0.914,3.449,2.561,2.468,5.193
		c-4.153,11.143-8.274,22.297-12.415,33.444c-0.895,2.41-2.53,3.215-4.961,2.231c-0.13-0.053-0.26-0.102-0.394-0.145
		c-11.537-3.741-11.537-3.741-7.347-15.039C194.444,104.979,195.659,101.701,196.875,98.421z M200.726,111.771
		c-1.488-0.387-2.712-0.095-3.364,1.477c-0.65,1.567-0.143,2.708,1.407,3.33c1.498,0.601,2.728,0.319,3.35-1.327
		C202.703,113.707,202.157,112.577,200.726,111.771z"/>
	<path fill-rule="evenodd" clip-rule="evenodd" fill="#FFFF36" d="M200.726,111.771c1.432,0.806,1.978,1.936,1.393,3.479
		c-0.622,1.646-1.852,1.927-3.35,1.327c-1.55-0.621-2.058-1.762-1.407-3.33C198.014,111.676,199.237,111.383,200.726,111.771z"/>
</g>
<g>
	<path fill-rule="evenodd" clip-rule="evenodd" d="M262.203,325.067c0.47-5.475,0.888-10.956,1.442-16.424
		c0.142-1.389-0.401-2.216-1.323-3.09c-4.049-3.844-8.095-7.694-12.053-11.63c-2.276-2.263-2.423-4.799-0.694-7.539
		c2.954-4.682,5.861-9.393,8.898-14.019c0.736-1.121,0.706-2.006,0.293-3.188c-1.775-5.098-3.499-10.215-5.147-15.354
		c-1.198-3.731-0.226-5.909,3.173-7.833c4.696-2.661,9.354-5.39,14.055-8.044c0.974-0.549,1.441-1.256,1.607-2.361
		c0.828-5.525,1.738-11.038,2.596-16.558c0.493-3.171,2.615-5.004,6.038-5.143c5.585-0.224,11.168-0.461,16.754-0.642
		c0.961-0.031,1.615-0.315,2.2-1.11c3.308-4.496,6.678-8.946,10.005-13.426c2.144-2.888,4.78-3.528,8.002-1.98
		c5.155,2.48,10.324,4.935,15.512,7.345c0.457,0.213,1.186,0.203,1.646-0.012c5.229-2.431,10.438-4.905,15.634-7.405
		c3.01-1.448,5.674-0.824,7.686,1.871c3.367,4.51,6.756,9.004,10.094,13.534c0.606,0.825,1.279,1.158,2.302,1.189
		c5.493,0.171,10.983,0.421,16.478,0.624c3.849,0.144,5.768,1.942,6.339,5.751c0.813,5.434,1.756,10.849,2.582,16.279
		c0.152,1,0.673,1.534,1.474,1.992c4.688,2.677,9.351,5.396,14.049,8.055c3.488,1.975,4.451,4.075,3.23,7.916
		c-1.649,5.188-3.405,10.343-5.186,15.486c-0.381,1.1-0.348,1.917,0.32,2.938c2.927,4.476,5.729,9.035,8.604,13.546
		c2.229,3.496,1.954,6.012-1.029,8.855c-3.873,3.695-7.726,7.41-11.63,11.069c-0.898,0.841-1.171,1.723-1.061,2.93
		c0.499,5.472,0.959,10.95,1.351,16.432c0.263,3.662-1.209,5.563-4.751,6.563c-5.42,1.529-10.816,3.142-16.247,4.629
		c-1.139,0.313-1.347,1.19-1.69,1.991c-2.004,4.663-3.981,9.338-5.922,14.026c-0.945,2.287-2.018,4.479-4.77,4.87
		c-1.189,0.169-2.475-0.035-3.676-0.274c-5.343-1.059-10.666-2.214-16.012-3.264c-0.533-0.104-1.297,0.128-1.732,0.479
		c-4.203,3.385-8.338,6.854-12.543,10.238c-0.991,0.798-2.094,1.565-3.272,1.993c-2.383,0.864-4.286-0.366-6.051-1.819
		c-4.133-3.402-8.277-6.789-12.383-10.222c-0.827-0.69-1.593-0.811-2.648-0.58c-5.55,1.202-11.116,2.332-16.686,3.435
		c-3.032,0.602-5.344-0.666-6.563-3.518c-2.158-5.048-4.326-10.093-6.414-15.17c-0.554-1.348-1.301-2.069-2.79-2.462
		c-5.354-1.413-10.663-3.006-15.972-4.584C263.344,330.571,262.081,328.508,262.203,325.067z M327.558,294.505
		c-0.368-0.335-0.577-0.507-0.767-0.699c-5.705-5.786-11.401-11.584-17.116-17.361c-2.164-2.187-5.092-2.326-7.163-0.294
		c-2.371,2.327-4.695,4.704-6.985,7.113c-1.751,1.842-1.792,4.862-0.082,6.696c2.012,2.158,4.097,4.249,6.167,6.353
		c5.343,5.419,10.686,10.839,16.05,16.24c2.307,2.323,4.481,4.825,7.037,6.84c4.047,3.191,8.285,2.301,11.147-1.978
		c4.873-7.285,9.744-14.571,14.614-21.859c7.636-11.43,15.268-22.862,22.906-34.291c1.818-2.72,1.217-5.727-1.514-7.583
		c-2.402-1.634-4.797-3.279-7.169-4.957c-2.722-1.923-5.687-1.34-7.528,1.447c-3.179,4.812-6.4,9.596-9.603,14.394
		c-4.917,7.369-9.831,14.74-14.748,22.108C331.092,289.24,329.371,291.8,327.558,294.505z"/>
	<path fill-rule="evenodd" clip-rule="evenodd" fill="#FFFF36" d="M327.558,294.505c1.813-2.705,3.534-5.265,5.247-7.831
		c4.917-7.368,9.831-14.739,14.748-22.108c3.202-4.798,6.424-9.582,9.603-14.394c1.842-2.787,4.807-3.37,7.528-1.447
		c2.372,1.678,4.767,3.323,7.169,4.957c2.73,1.856,3.332,4.863,1.514,7.583c-7.639,11.429-15.271,22.861-22.906,34.291
		c-4.87,7.288-9.741,14.574-14.614,21.859c-2.862,4.278-7.101,5.169-11.147,1.978c-2.556-2.015-4.73-4.517-7.037-6.84
		c-5.364-5.401-10.707-10.821-16.05-16.24c-2.07-2.104-4.155-4.194-6.167-6.353c-1.71-1.834-1.669-4.854,0.082-6.696
		c2.29-2.409,4.614-4.786,6.985-7.113c2.071-2.032,4.999-1.893,7.163,0.294c5.715,5.777,11.411,11.575,17.116,17.361
		C326.98,293.998,327.189,294.17,327.558,294.505z"/>
</g>
</svg>
