<?xml version="1.0" encoding="utf-8"?>
<!-- Generator: Adobe Illustrator 16.0.2, SVG Export Plug-In . SVG Version: 6.00 Build 0)  -->
<!DOCTYPE svg PUBLIC "-//W3C//DTD SVG 1.1//EN" "http://www.w3.org/Graphics/SVG/1.1/DTD/svg11.dtd">
<svg version="1.1" id="Layer_1" xmlns="http://www.w3.org/2000/svg" xmlns:xlink="http://www.w3.org/1999/xlink" x="0px" y="0px"
	 width="436px" height="475px" viewBox="0 0 436 475" enable-background="new 0 0 436 475" xml:space="preserve">
<circle opacity="0.2" fill-rule="evenodd" clip-rule="evenodd" fill="none" stroke="#5D5D5D" stroke-width="8" stroke-miterlimit="10" cx="215.078" cy="247.66" r="142.661"/>
<circle opacity="0.5" fill-rule="evenodd" clip-rule="evenodd" fill="none" stroke="#FFFF36" stroke-width="6" stroke-miterlimit="10" cx="216.983" cy="236.25" r="210.566"/>
<g>
	<path opacity="0.3" fill="none" stroke="#000000" stroke-width="5" stroke-miterlimit="10" d="M384.744,475.318
		c-2.727-4.51-43.535-41.423-43.535-41.423l-48.767,32.209l-36.616-68.273l-95.649,34.946l-29.391-130.055l-63.973,35.99
		c0,0-21.932-45.622-25.182-44.89c-3.25,0.736-52.331,36.091-50.81,31.477c1.519-4.616-74.444-145.67-74.444-145.67l-40.91-25.271"
		/>
	<path fill="#FFFF36" stroke="#000000" stroke-miterlimit="10" d="M118.481,300.602c-0.809,8.109,5.109,15.338,13.221,16.147
		c8.106,0.808,15.338-5.106,16.149-13.217c0.809-8.109-5.109-15.339-13.219-16.147C126.521,286.573,119.292,292.491,118.481,300.602
		z"/>
	<path fill="#FFFF36" stroke="#000000" stroke-miterlimit="10" d="M277.986,462.18c-0.809,8.11,5.108,15.339,13.221,16.149
		c8.107,0.809,15.339-5.106,16.146-13.219c0.811-8.107-5.107-15.338-13.216-16.146C286.025,448.154,278.795,454.072,277.986,462.18z
		"/>
	<path fill="#FFFF36" stroke="#000000" stroke-miterlimit="10" d="M239.032,398.937c-0.809,8.11,5.108,15.34,13.221,16.15
		c8.108,0.809,15.339-5.107,16.146-13.219c0.811-8.108-5.107-15.338-13.215-16.146C247.073,384.912,239.842,390.83,239.032,398.937z
		"/>
	<circle fill="#FFFF36" stroke="#000000" stroke-miterlimit="10" cx="163.241" cy="432.559" r="14.757"/>
	<path fill="#FFFF36" stroke="#000000" stroke-miterlimit="10" d="M329.049,432.29c-0.81,8.108,5.108,15.338,13.22,16.146
		c8.108,0.809,15.339-5.106,16.147-13.216c0.812-8.114-5.108-15.343-13.215-16.15C337.089,418.259,329.857,424.176,329.049,432.29z"
		/>
	<circle fill="#FFFF36" stroke="#000000" stroke-miterlimit="10" cx="67.347" cy="337.587" r="14.757"/>
	<circle fill="#FFFF36" stroke="#000000" stroke-miterlimit="10" cx="41.189" cy="292.269" r="14.757"/>
	
		<rect x="-39.709" y="285.013" transform="matrix(-0.9659 -0.2589 0.2589 -0.9659 151.0857 1081.9253)" fill="none" width="373" height="492"/>
	
		<rect x="-38.484" y="284.307" transform="matrix(-0.9659 -0.2589 0.2589 -0.9659 153.6788 1080.8535)" fill="none" width="373" height="491.999"/>
</g>
<path fill-rule="evenodd" clip-rule="evenodd" d="M-581,989c2.164,0.04,4.329,0.115,6.493,0.115
	c529.004,0.006,1058.009,0.006,1587.014,0c2.165,0,4.329-0.075,6.493-0.115c0,33.333,0,66.667,0,100c-533.333,0-1066.667,0-1600,0
	C-581,1055.667-581,1022.333-581,989z M-484.89,1041.296c-0.026-6.86,0.271-13.063-5.294-19.218
	c-10.7-11.836-26.453-14.866-39.255-5.583c-12.046,8.735-14.969,25.762-6.572,38.294c8.589,12.82,25.459,16.09,38.765,7.512
	c1.396-0.899,2.699-2.024,4.208-2.657c8.138-3.412,8.155-3.37,8.149-11.854C-484.892,1045.625-484.89,1043.461-484.89,1041.296z
	 M-320.864,1052.955c0-4.65-0.26-8.814,0.144-12.913c0.139-1.412,1.932-2.661,2.97-3.985c1.035,1.048,2.49,1.919,3.022,3.18
	c1.289,3.051,2.424,6.226,3.113,9.459c0.925,4.33,3.296,5.326,7.55,3.845c-1.591-4.842-3.186-9.682-4.771-14.525
	c-2.615-7.99-3.783-8.738-12.191-7.403c0-3.836,0-7.6,0-11.41c-2.214,0-3.948,0-6.014,0c0,5.873,0,11.472,0,17.807
	c-1.584-1.731-2.563-3.003-3.739-4.055c-6.582-5.884-18.483-3.058-19.719,5.27c-1.1,7.413-0.23,15.117-0.23,22.923
	c2.137-0.101,3.884-0.184,5.919-0.279c0-3.128,0-5.761,0-8.852c7.414,2.959,13.088,0.909,17.527-5.6
	c0.184,2.579,0.32,4.499,0.466,6.54C-324.804,1052.955-323.177,1052.955-320.864,1052.955z M-457.195,1037.696
	c0-7.139,0-12.888,0-18.849c-2.233,0.122-3.974,0.217-5.939,0.324c0,2.315,0,4.135,0,5.954c0,1.815,0,3.631,0,5.503
	c-8.732-1.522-14.312,0.859-16.489,6.838c-1.728,4.742,0.534,11.509,5.167,13.872c2.24,1.142,5.441,2.231,7.516,1.468
	c3.786-1.394,7.057-4.184,10.609-6.435c4.486,6.309,9.422,8.209,15.32,5.821c3.789-1.534,3.383-4.104,2.75-7.034
	c-2.741,0.756-5.204,1.436-7.666,2.114c-0.546-0.784-1.092-1.568-1.638-2.354c4.036-3.1,8.072-6.2,12.05-9.256
	C-443.126,1027.633-450.145,1028.226-457.195,1037.696z M-413.108,1037.849c-4.043-6.63-8.208-9.063-13.545-7.753
	c-4.9,1.202-8.785,4.202-9.195,9.354c-0.563,7.063-0.141,14.205-0.141,21.363c2.24,0,3.979,0,5.947,0
	c0.131-2.979,0.25-5.676,0.373-8.456c8.616,2.046,11.054,1.03,16.749-6.599c5.049,6.722,9.565,8.649,15.4,6.573
	c4.738-1.686,7.742-6.078,7.629-11.152c-0.111-4.967-3.383-9.312-8.156-10.831C-403.394,1028.646-408.566,1031.14-413.108,1037.849z
	 M-247.882,1040.981c-0.056-5.988-5.123-11.043-11.091-11.062c-6.09-0.02-11.164,5.241-11.152,11.561
	c0.013,6.497,4.841,11.561,11.069,11.609C-252.914,1053.139-247.821,1047.619-247.882,1040.981z M-282.905,1041.332
	c-0.107-6.446-5.165-11.578-11.255-11.42c-6.25,0.163-11.033,5.311-10.933,11.764c0.103,6.521,5.022,11.524,11.243,11.431
	C-287.776,1053.016-282.8,1047.662-282.905,1041.332z M-275.075,1023.475c-5.146,1.314-9.04,7.402-7.971,11.44
	c0.837,3.163,1.683,6.402,1.866,9.646c0.404,7.109,3.559,9.544,11.016,7.727c0-1.524,0-3.118,0-4.979
	c-1.419-0.193-2.811-0.384-4.441-0.605c0-3.489,0-6.737,0-10.138c1.614-0.36,3.126-0.697,4.748-1.059
	c-0.085-1.929-0.156-3.548-0.233-5.303c-1.661-0.246-3.073-0.455-4.603-0.682C-274.821,1027.493-274.935,1025.706-275.075,1023.475z
	 M-358.085,1023.201c-5.082,1.445-8.995,7.623-7.984,11.588c0.81,3.18,1.715,6.419,1.868,9.666
	c0.353,7.518,3.583,9.959,11.118,7.764c0-1.426,0-2.887,0-4.523c-1.542-0.309-2.945-0.59-4.478-0.897c0-3.592,0-6.988,0-10.325
	c1.716-0.32,3.113-0.582,4.468-0.835c0-1.944,0-3.565,0-5.306c-1.681-0.36-3.196-0.686-4.666-1
	C-357.873,1027.191-357.97,1025.382-358.085,1023.201z M-232.748,1034.849c-3.693-5.225-8.255-6.444-11.75-3.318
	c-1.354,1.212-2.378,3.272-2.683,5.092c-0.993,5.929,5.451,6.087,7.632,10.323c-1.817-0.432-3.635-0.862-5.733-1.36
	c-0.85,1.138-1.802,2.413-2.717,3.638c4.391,4.344,8.952,5.363,12.15,2.164c7.727-7.733-0.459-10.889-5.621-14.816
	c0.356-0.263,0.712-0.526,1.068-0.789c1.396,0.509,2.792,1.019,4.579,1.67C-234.85,1036.628-233.744,1035.691-232.748,1034.849z
	 M-378.047,1037.52c1.098-0.819,2.27-1.693,3.307-2.468c-2.013-4.226-5.032-6.073-8.38-4.836c-2.372,0.875-4.877,3.42-5.769,5.801
	c-1.355,3.618,1.136,6.147,4.543,7.667c1.025,0.457,1.838,1.392,2.748,2.108c-0.228,0.422-0.455,0.844-0.683,1.266
	c-1.616-0.568-3.233-1.137-4.998-1.758c-0.897,1.171-1.772,2.313-2.601,3.395c3.723,4.771,8.026,5.877,11.46,2.746
	c1.343-1.225,2.364-3.23,2.712-5.039c1.088-5.654-4.362-6.855-7.771-9.419c0.292-0.4,0.584-0.801,0.877-1.2
	C-381.134,1036.341-379.669,1036.9-378.047,1037.52z M-373.855,1030.045c0,7.9,0,15.265,0,22.813c2.015,0,3.74,0,5.974,0
	c0-3.999,0-7.763,0-11.526c0-3.734,0-7.468,0-11.286C-370.232,1030.045-371.852,1030.045-373.855,1030.045z M672.212,1045.429
	c10.065-0.963,3.097-7.865,5.364-11.263c0.101-0.15-2.777-2.297-4.283-3.496c-0.099-0.078-0.329-0.024-0.489,0.011
	c-6.698,1.46-0.886,7.59-3.76,10.656C668.834,1041.562,671.372,1044.361,672.212,1045.429z M693.932,1045.381
	c10.134-0.733,3.927-7.244,5.543-10.666c0.294-0.621-2.366-2.645-3.681-4.004c-0.082-0.085-0.322-0.04-0.485-0.021
	c-7.089,0.821-1.781,7.123-4.26,10.176C690.646,1041.361,693.181,1044.245,693.932,1045.381z M716.04,1045.363
	c10.171-0.734,3.66-7.513,5.431-11.02c0.221-0.438-2.705-3.594-4.026-3.496c-7.244,0.535-2.046,7.093-4.356,10.316
	C712.717,1041.681,715.252,1044.28,716.04,1045.363z M976.861,1044.883c0.741,0.013,1.482,0.025,2.223,0.038
	c-0.228-3.272-0.377-6.554-0.773-9.806c-0.057-0.463-1.302-1.092-2.013-1.113c-3.682-0.112-7.368-0.052-10.714-0.052
	c0,4.305,0,7.636,0,11.547c3.262-2.922-0.983-8.13,4.723-9.579c0.432,3.26,0.818,6.19,1.206,9.122c0.546-0.05,1.091-0.1,1.637-0.149
	c0-2.111-0.189-4.247,0.089-6.32c0.118-0.883,1.216-1.633,1.868-2.443c0.585,0.82,1.569,1.592,1.675,2.47
	C977.031,1040.665,976.861,1042.784,976.861,1044.883z M766.139,1039.563c-0.988-2.205-1.775-3.964-2.564-5.723
	c-0.523,0.205-1.049,0.41-1.573,0.615c1.065,3.612,2.13,7.226,3.195,10.838c0.461-0.055,0.922-0.11,1.383-0.166
	c0.811-1.568,1.622-3.137,2.582-4.995c0.862,2.058,1.511,3.604,2.159,5.15c0.483-0.048,0.967-0.095,1.45-0.143
	c1.115-3.565,2.23-7.131,3.345-10.696c-0.556-0.174-1.112-0.348-1.668-0.521c-0.765,1.674-1.529,3.348-2.464,5.393
	c-0.949-2.096-1.743-3.846-3.032-6.691C767.736,1035.62,767.042,1037.334,766.139,1039.563z M787.044,1039.4
	c-1.046-2.25-1.854-3.988-3.15-6.772c-1.187,3.015-1.86,4.726-2.698,6.854c-1.057-2.213-1.888-3.954-2.719-5.695
	c-0.498,0.2-0.996,0.4-1.494,0.601c1.057,3.628,2.112,7.256,3.169,10.884c0.482-0.029,0.964-0.06,1.446-0.089
	c0.792-1.572,1.584-3.145,2.45-4.861c0.979,1.91,1.777,3.468,2.576,5.026c0.451-0.085,0.903-0.169,1.354-0.254
	c0.985-3.578,1.971-7.157,2.956-10.736c-0.476-0.169-0.951-0.339-1.427-0.508C788.768,1035.517,788.028,1037.184,787.044,1039.4z
	 M799.972,1034.208c-0.446-0.181-0.892-0.361-1.338-0.541c-0.818,1.803-1.637,3.606-2.61,5.751
	c-0.987-2.261-1.717-3.932-2.446-5.602c-0.514,0.19-1.026,0.381-1.54,0.571c1.052,3.622,2.104,7.245,3.157,10.868
	c0.467-0.028,0.933-0.056,1.399-0.084c0.791-1.577,1.582-3.154,2.512-5.006c0.879,1.998,1.555,3.532,2.23,5.066
	c0.5,0,1.002-0.001,1.502-0.002c1.035-3.601,2.07-7.201,3.105-10.801c-0.496-0.179-0.991-0.357-1.487-0.535
	c-0.825,1.706-1.651,3.413-2.688,5.556C801.028,1037.291,800.5,1035.75,799.972,1034.208z M575.178,1035.405
	c-6.66-1.635-8.713-1.002-9.321,2.845c-0.244,1.543-0.257,3.875,0.655,4.683c1.595,1.41,3.987,1.919,6.045,2.805
	c0.04,0.251,0.08,0.502,0.119,0.753c-2.163,0-4.327,0-6.491,0c-0.094,0.461-0.187,0.922-0.28,1.383
	c2.093,0.366,4.778,1.74,6.173,0.92C577.489,1045.611,573.869,1040.09,575.178,1035.405z M831.905,1042.804
	c-0.217-0.441-0.435-0.882-0.651-1.323c-5.051,1.768-5.051,1.768-6.175-1.226c2.3-0.12,4.571-0.24,7.012-0.368
	c-0.036-3.654-1.478-6.328-4.844-5.734c-1.992,0.351-4.465,2.685-5.146,4.668c-1.019,2.965,0.816,5.771,4.136,6.038
	C828.06,1045.005,830.012,1043.541,831.905,1042.804z M599.723,1046.375c4.131-1.521,8.375-1.855,10.188-4.129
	c1.536-1.924,1.491-7.149-0.092-8.994c-1.89-2.203-6.162-2.361-10.097-3.629C599.723,1035.539,599.723,1039.968,599.723,1046.375z
	 M560.395,1036.335c-1.822,3.581-7.946,1.566-6.121,6.738c0.561,1.589,5.455,1.649,8.364,2.41c0.24-0.457,0.48-0.914,0.721-1.371
	c-1.698-3.094,1.998-8.021-3.427-9.619c-1.631-0.48-3.848,1.024-5.795,1.62c0.145,0.348,0.29,0.695,0.436,1.043
	C556.513,1036.883,558.454,1036.608,560.395,1036.335z M541.544,1035.888c0.665,0.057,1.33,0.113,1.994,0.17
	c0.209,1.484,0.43,2.968,0.623,4.455c0.189,1.452,0.352,2.908,0.525,4.363c0.554-0.028,1.108-0.057,1.662-0.085
	c0-1.574-0.203-3.184,0.06-4.713c0.246-1.439,0.984-2.796,1.507-4.189c0.578,0.022,1.157,0.044,1.735,0.065
	c0.529,2.999,1.058,5.998,1.587,8.997c0.412-0.069,0.825-0.139,1.237-0.209c0-2.287,0.33-4.645-0.124-6.838
	c-0.272-1.32-1.72-3.347-2.723-3.397c-3.755-0.19-7.544,0.303-11.69,0.563c0.199,3.739,0.359,6.752,0.52,9.765
	c0.337-0.042,0.674-0.083,1.011-0.125C540.16,1041.77,540.853,1038.829,541.544,1035.888z M819.458,1044.607
	c0-5.151,0-9.856,0-14.562c-0.325-0.002-0.649-0.003-0.975-0.005c-0.327,1.2-0.653,2.4-0.975,3.582
	c-5.35,0.676-7.307,2.737-6.53,7.05C811.925,1045.924,815.716,1045.223,819.458,1044.607z M647.737,1041.582
	c-0.239,0.582-0.479,1.165-0.72,1.748c1.553,0.622,3.213,1.911,4.629,1.684c1.49-0.24,3.383-1.67,3.95-3.052
	c0.772-1.88,0.661-4.217,0.557-6.34c-0.148-3.041-1.913-5.491-4.963-4.762c-1.746,0.418-3.9,2.959-4.184,4.803
	c-0.474,3.091,1.756,4.744,5.069,4.388c0.556-0.061,1.134,0.092,1.994,0.174C652.65,1045.038,650.187,1043.274,647.737,1041.582z
	 M586.046,1040.111c0.382-3.844-1.352-5.681-4.396-5.793c-3.15-0.116-5.227,2.075-4.809,5.027c0.29,2.046,1.892,4.469,3.634,5.541
	c1.081,0.664,3.522-0.883,5.354-1.437c-0.143-0.469-0.284-0.938-0.426-1.405c-4.563,1.929-4.563,1.929-6.08-1.438
	C581.504,1040.445,583.611,1040.29,586.046,1040.111z M834.299,1047.19c2.093-1.106,3.789-1.756,5.179-2.81
	c1.342-1.019,3-2.274,3.417-3.74c1.479-5.195-1.738-7.309-8.596-5.937C834.299,1039.069,834.299,1043.415,834.299,1047.19z
	 M878.295,1034.199c0,4.733,0,9.213,0,13.15c2.121-0.91,4.157-1.467,5.801-2.595c1.235-0.85,2.469-2.304,2.832-3.714
	C888.219,1036.032,885.658,1034.029,878.295,1034.199z M702.123,1041.495c2.122,3.728,4.498,4.583,6.771,2.995
	c2.987-2.087,3.473-10.43,0.487-12.622c-1.152-0.847-3.264-1.275-4.543-0.81c-1.24,0.451-2.615,2.199-2.816,3.544
	c-0.779,5.221,2.794,5.852,7.051,5.405C707.916,1045.136,705.107,1043.28,702.123,1041.495z M915.051,1038.131
	c-0.025,0.765-0.051,1.529-0.075,2.293c1.906,1.555,3.624,4.015,5.762,4.461c3.642,0.76,5.31-1.913,5.334-5.443
	c0.022-3.333-1.63-5.866-4.964-5.332C918.93,1034.458,917.059,1036.724,915.051,1038.131z M626.383,1042.419
	c2.475-2.133,4.496-3.278,5.584-5.011c0.799-1.271,1.061-3.779,0.309-4.88c-0.792-1.158-3.152-1.9-4.683-1.704
	c-1.397,0.18-2.603,1.859-4.317,3.214c3.213-0.319,5.215-0.518,7.218-0.717c-1.023,2.019-1.89,4.139-3.116,6.024
	c-1.09,1.676-2.58,3.092-4.438,5.258c4.061,0,6.927,0,9.793,0c0.021-0.31,0.041-0.618,0.061-0.927
	C631.122,1043.349,629.451,1043.021,626.383,1042.419z M635.304,1034.038c3.203-0.333,5.209-0.542,7.215-0.751
	c-1.025,2.034-1.888,4.174-3.126,6.068c-1.089,1.667-2.599,3.059-4.509,5.242c4.12,0,6.993,0,9.867,0
	c0.022-0.314,0.046-0.63,0.069-0.945c-1.728-0.347-3.454-0.693-6.497-1.305c2.476-2.086,4.513-3.205,5.609-4.924
	c0.801-1.257,1.041-3.76,0.292-4.87c-0.776-1.151-3.127-1.901-4.641-1.703C638.188,1031.034,636.986,1032.709,635.304,1034.038z
	 M927.559,1041.442c-0.248,0.497-0.497,0.995-0.746,1.492c1.871,0.708,3.733,1.912,5.615,1.943c1.185,0.02,2.398-1.719,3.6-2.668
	c-1.811-1.934-3.62-3.868-5.57-5.95c1.488,0.193,3.161,0.41,4.834,0.628c0.116-0.532,0.232-1.064,0.349-1.597
	c-1.805-0.439-3.647-1.313-5.4-1.16c-1.101,0.097-2.067,1.733-3.095,2.679c2.012,1.814,4.023,3.63,6.976,6.293
	C931.348,1042.401,929.453,1041.922,927.559,1041.442z M964.001,1040.536c-0.011-0.773-0.021-1.546-0.033-2.319
	c-1.979-1.43-3.831-3.787-5.968-4.084c-3.621-0.502-5.18,2.292-5.091,5.754c0.088,3.399,2.109,5.67,5.306,5
	C960.354,1044.438,962.086,1042.054,964.001,1040.536z M856.751,1041.487c-0.316,0.385-0.634,0.77-0.95,1.154
	c1.609,0.819,3.214,2.26,4.829,2.272c1.449,0.011,2.911-1.549,4.367-2.415c-1.806-2.052-3.61-4.104-5.62-6.388
	c1.59,0.289,3.172,0.577,4.754,0.864c0.169-0.484,0.338-0.97,0.507-1.454c-1.701-0.524-3.423-1.493-5.098-1.418
	c-1.148,0.052-2.23,1.557-3.343,2.411c2.018,1.947,4.034,3.895,6.985,6.743C860.379,1042.486,858.565,1041.986,856.751,1041.487z
	 M891.498,1033.821c-0.343-1.275-0.686-2.55-1.029-3.825c-0.333,0.049-0.667,0.097-1.001,0.146c0,4.904,0,9.809,0,14.712
	c0.559,0.027,1.116,0.054,1.675,0.08c0-2.008-0.237-4.057,0.098-6.007c0.174-1.013,1.361-1.851,2.091-2.767
	c0.515,0.901,1.306,1.751,1.486,2.715c0.376,2.009,0.428,4.078,0.613,6.123C898.498,1036.531,897.46,1034.184,891.498,1033.821z
	 M844.047,1038.241c-0.014,0.778-0.027,1.556-0.042,2.334c1.94,1.501,3.697,3.833,5.863,4.312c3.382,0.748,5.073-1.839,5.198-5.087
	c0.134-3.448-1.387-6.274-5.082-5.683C847.841,1034.461,846.016,1036.8,844.047,1038.241z M909.979,1040.469
	c-0.007-0.768-0.013-1.536-0.019-2.305c-1.977-1.414-3.804-3.663-5.966-4.053c-3.38-0.608-4.969,2.037-5.071,5.252
	c-0.114,3.572,1.785,6.131,5.291,5.512C906.329,1044.502,908.07,1042.01,909.979,1040.469z M679.966,1032.082
	c0.124,0.481,0.247,0.963,0.371,1.444c1.961,0,3.922,0,5.882,0c-0.749,1.416-1.498,2.833-1.668,3.154
	c0.868,2.228,1.508,3.869,2.148,5.511c-2.105,0-4.21,0-6.571,0c0.513,2.878,3.253,3.917,5.884,2.645
	c1.529-0.739,2.141-3.702,2.788-5.782c0.271-0.868-0.381-2.06-0.712-3.072c-0.551-1.688-0.889-4.542-1.839-4.774
	C684.341,1030.739,682.081,1031.707,679.966,1032.082z M951.193,1042.23c-0.242-0.276-0.484-0.553-0.727-0.829
	c-1.801,0.248-3.602,0.496-5.401,0.744c-0.148-1.564-0.836-4.251-0.347-4.485c1.586-0.762,3.604-0.623,5.455-0.832
	c-1.193-1.494-3.715-3.211-4.618-2.586c-1.704,1.178-3.47,3.768-3.35,5.651c0.115,1.797,2.313,4.08,4.154,4.905
	C947.383,1045.256,949.545,1043.17,951.193,1042.23z M912.457,1030.522c-0.65,0.068-1.302,0.137-1.953,0.206
	c0.335,4.479,0.595,8.969,1.136,13.424c0.048,0.395,1.937,0.566,2.648,0.756c-0.451-2.745-1.82-5.552-0.946-6.858
	C915.478,1034.854,913.279,1032.923,912.457,1030.522z M873.693,1029.694c-3.899,5.055-1.364,9.738-1.316,14.185
	c0.006,0.459,1.983,0.896,3.109,1.37c-0.533-2.903-2.071-5.958-1.143-7.274C876.625,1034.738,873.712,1032.981,873.693,1029.694z
	 M664.216,1030.36c-2.062,1.659-3.515,2.829-5.329,4.29c7.009,1.081,1.558,7.491,5.329,10.7
	C664.216,1040.125,664.216,1035.643,664.216,1030.36z M-371.081,1017.651c-1.39,2.069-2.93,3.36-2.784,4.418
	c0.154,1.112,1.904,2.739,2.99,2.766c0.963,0.023,2.69-1.796,2.758-2.884C-368.048,1020.854-369.609,1019.656-371.081,1017.651z
	 M594.225,1044.73c0.352-0.021,0.703-0.043,1.055-0.064c0-4.568,0-9.137,0-13.705c-0.352,0.014-0.703,0.025-1.055,0.038
	C594.225,1035.576,594.225,1040.153,594.225,1044.73z M534.521,1031.069c-0.355,0-0.711,0-1.066-0.001c0,4.555,0,9.107,0,13.661
	c0.355-0.011,0.711-0.021,1.066-0.031C534.521,1040.155,534.521,1035.612,534.521,1031.069z"/>
<path fill-rule="evenodd" clip-rule="evenodd" d="M128.712,135.964c36.116,0,72.173,0,108.41,0c0,0.513,0,0.974,0,1.435
	c0.001,9.971,0.001,19.942,0.003,29.913c0.001,2.479,0.682,3.172,3.163,3.175c11.445,0.013,22.89,0.019,34.335,0.026
	c0.338,0.001,0.676,0,1.197,0c0,0.699,0,1.289,0,1.879c0,34.423-0.005,68.847,0.025,103.269c0.002,1.029-0.309,1.509-1.244,1.92
	c-5.396,2.374-10.245,5.602-14.579,9.602c-0.182,0.168-0.37,0.327-0.743,0.654c0-1.154,0-2.088,0-3.021
	c-0.003-16.863-0.006-33.728-0.01-50.591c0-2.585-0.65-3.236-3.186-3.266c-3.884-0.044-7.768-0.152-11.652-0.147
	c-31.423,0.038-62.845,0.098-94.268,0.15c-0.91,0.002-1.823-0.024-2.73,0.028c-1.395,0.082-2.232,0.937-2.255,2.344
	c-0.037,2.211-0.019,4.423-0.019,6.634c0,23.324,0,46.648,0,69.973c0,10.647,0,21.295,0,31.941c0,2.49,0.766,3.26,3.261,3.26
	c31.778-0.001,63.556,0.006,95.333-0.039c1.298-0.002,1.878,0.37,2.321,1.579c2.233,6.086,5.619,11.499,9.85,16.396
	c0.24,0.277,0.455,0.576,0.782,0.991c-42.771,0-85.351,0-127.994,0C128.712,287.999,128.712,212.027,128.712,135.964z
	 M202.3,200.786c17.94,0,35.88,0.001,53.819-0.002c1.814,0,2.848-0.845,2.838-2.296c-0.01-1.466-1.004-2.257-2.859-2.257
	c-35.922-0.003-71.844-0.004-107.767-0.004c-1.802,0-2.886,0.875-2.859,2.285c0.027,1.43,1.1,2.274,2.879,2.274
	C166.333,200.786,184.317,200.786,202.3,200.786z M202.174,186.045c9.793,0,19.586,0,29.379,0c8.189,0,16.38,0.002,24.569-0.002
	c1.788,0,2.877-0.886,2.853-2.288c-0.024-1.452-1.031-2.241-2.887-2.258c-0.996-0.009-1.993-0.016-2.99-0.016
	c-34.708-0.002-69.417-0.003-104.125-0.001c-0.519,0-1.134-0.124-1.535,0.105c-0.696,0.399-1.558,0.928-1.788,1.596
	c-0.207,0.602,0.123,1.704,0.613,2.145c0.553,0.497,1.549,0.689,2.353,0.691C166.468,186.054,184.321,186.046,202.174,186.045z
	 M202.278,210.975c-17.94,0-35.881,0-53.822,0.001c-0.346,0-0.698-0.021-1.038,0.029c-1.153,0.17-1.942,1.089-1.955,2.238
	c-0.012,1.032,0.772,1.997,1.845,2.189c0.507,0.091,1.034,0.1,1.552,0.1c35.534,0.002,71.069,0,106.602-0.006
	c0.563,0,1.136,0.005,1.683-0.101c1.177-0.226,1.799-0.984,1.815-2.186c0.017-1.126-0.816-2.079-1.953-2.238
	c-0.426-0.059-0.865-0.028-1.299-0.029C237.899,210.972,220.089,210.973,202.278,210.975z"/>
<path fill-rule="evenodd" clip-rule="evenodd" d="M158.01,243.79c29.532,0,58.979,0,88.576,0c0,0.53,0,0.994,0,1.458
	c0,20.024,0.002,40.048-0.014,60.072c0,0.59-0.09,1.22-0.305,1.765c-3.133,7.953-4.385,16.178-3.639,24.7
	c0.011,0.122-0.045,0.249-0.092,0.479c-28.139,0-56.283,0-84.527,0C158.01,302.804,158.01,273.366,158.01,243.79z M228.281,274.172
	c-0.385,0.308-0.791,0.623-1.186,0.95c-6.936,5.751-13.89,11.48-20.788,17.277c-1.287,1.082-2.434,2.022-4.127,0.887
	c-0.132-0.089-0.337-0.106-0.505-0.099c-0.915,0.046-1.229-0.478-1.473-1.284c-2.04-6.75-4.108-13.492-6.21-20.223
	c-0.249-0.798-0.186-1.271,0.454-1.896c2.914-2.851,2.925-7.301,0.116-10.14c-2.798-2.826-7.318-2.834-10.153-0.017
	c-2.83,2.813-2.838,7.267,0.063,10.118c0.632,0.622,0.563,1.105,0.324,1.823c-4.3,12.893-8.582,25.791-12.845,38.696
	c-0.289,0.873-0.689,1.309-1.685,1.435c-3.201,0.408-5.669,3.244-5.929,6.624c-0.241,3.138,1.915,6.244,5.028,7.247
	c3.1,0.999,6.487-0.278,8.23-3.104c1.708-2.769,1.383-6.407-0.923-8.61c-0.742-0.708-0.758-1.272-0.47-2.133
	c3.828-11.456,7.628-22.921,11.438-34.383c0.533-1.603,1.082-3.2,1.717-5.076c0.241,0.657,0.387,1.008,0.499,1.369
	c2.017,6.534,4.013,13.073,6.061,19.597c0.255,0.815,0.153,1.284-0.495,1.888c-2.504,2.334-2.888,6.18-1.007,9.032
	c1.915,2.903,5.531,3.977,8.819,2.618c3.152-1.303,4.916-4.679,4.131-8.072c-0.19-0.82-0.08-1.306,0.595-1.859
	c6.429-5.277,12.826-10.592,19.229-15.901c1.42-1.178,2.82-2.378,4.36-3.678C230.396,276.172,229.367,275.199,228.281,274.172z
	 M212.528,250.165c-5.429,0.23-9.812,4.755-9.528,9.835c0.298,5.346,4.654,9.592,9.686,9.443c5.539-0.163,9.793-4.61,9.58-10.032
	C222.051,253.918,217.625,250.123,212.528,250.165z M171.841,262.453c-5.315-0.011-9.694,4.25-9.715,9.45
	c-0.021,5.326,4.362,9.8,9.577,9.774c5.361-0.026,9.722-4.357,9.703-9.637C181.388,266.737,177.124,262.463,171.841,262.453z
	 M224.818,314.155c-1.975,1.896-3.789,3.625-5.59,5.371c-1.222,1.185-1.35,2.511-0.369,3.512c0.986,1.009,2.321,0.9,3.518-0.316
	c1.776-1.808,3.535-3.632,5.42-5.569c2.055,2.101,3.875,4.08,5.848,5.895c0.498,0.458,1.59,0.692,2.213,0.473
	c0.631-0.222,1.362-1.1,1.425-1.75c0.069-0.726-0.396-1.676-0.927-2.253c-1.695-1.842-3.528-3.557-5.591-5.601
	c0.466-0.299,0.888-0.482,1.194-0.784c1.607-1.577,3.195-3.175,4.77-4.786c0.702-0.719,1.003-1.679,0.406-2.478
	c-0.459-0.615-1.295-1.183-2.031-1.285c-0.574-0.08-1.369,0.468-1.863,0.945c-1.822,1.76-3.559,3.606-5.386,5.479
	c-1.952-1.966-3.709-3.759-5.493-5.525c-1.242-1.23-2.498-1.314-3.547-0.291c-0.914,0.892-0.799,2.313,0.334,3.438
	C220.957,310.423,222.797,312.188,224.818,314.155z M236.658,270.078c-0.176,0.645-0.283,1.058-0.402,1.466
	c-0.9,3.068-1.818,6.131-2.697,9.205c-0.419,1.463,0.172,2.661,1.414,3.027c1.271,0.375,2.454-0.285,2.884-1.701
	c1.442-4.759,2.881-9.519,4.269-14.293c0.627-2.159-0.83-3.6-3.027-3.042c-3.225,0.82-6.439,1.678-9.658,2.522
	c-1.547,0.406-3.102,0.78-4.633,1.239c-1.373,0.412-2.064,1.579-1.738,2.756c0.357,1.287,1.511,1.917,2.963,1.609
	c0.168-0.035,0.327-0.11,0.494-0.154C229.824,271.854,233.125,270.997,236.658,270.078z"/>
<path fill-rule="evenodd" clip-rule="evenodd" d="M296.607,377.066c-28.535-0.065-50.674-23.887-49.623-51.639
	c1.063-28.125,24.711-49.488,52.406-48.004c27.924,1.496,48.195,24.802,47.256,51.433
	C345.643,357.288,322.136,377.328,296.607,377.066z M296.836,370.285c23.568,0.235,45.146-20.052,42.969-46.801
	c-1.65-20.288-18.511-39.166-42.912-39.373c-23.549-0.2-43.156,19.287-43.197,42.744
	C253.652,350.938,272.836,370.25,296.836,370.285z"/>
<path fill-rule="evenodd" clip-rule="evenodd" d="M243.268,336.922c0.262,1.232,0.495,2.327,0.75,3.526c-31.409,0-62.761,0-94.212,0
	c0-34.935,0-69.88,0-104.868c34.974,0,69.866,0,104.931,0c0,0.571,0,1.118,0,1.665c0,17.558-0.021,35.115,0.03,52.673
	c0.006,1.865-0.159,3.498-1.583,4.876c-0.719,0.695-1.213,1.623-2.052,2.782c0-1.155-0.001-1.911,0-2.668
	c0.003-17.47,0.005-34.94,0.008-52.411c0.001-2.697-0.681-3.386-3.367-3.386c-30.294,0-60.588-0.001-90.882,0
	c-2.971,0-3.578,0.617-3.578,3.563c0.001,21.155-0.003,42.311-0.003,63.466c0,9.221,0.001,18.44,0.003,27.66
	c0,2.367,0.744,3.12,3.095,3.12c28.438,0.001,56.877,0.001,85.314,0.001C242.197,336.922,242.672,336.922,243.268,336.922z"/>
<path fill-rule="evenodd" clip-rule="evenodd" d="M241.821,138.79c10.118,9.058,20.086,17.98,30.269,27.095
	c-10.262,0-20.201,0-30.269,0C241.821,156.96,241.821,148.023,241.821,138.79z"/>
<path fill-rule="evenodd" clip-rule="evenodd" fill="#FFFFFF" d="M-484.89,1041.296c0,2.165-0.001,4.329,0,6.494
	c0.006,8.483-0.011,8.441-8.149,11.854c-1.509,0.633-2.811,1.758-4.208,2.657c-13.306,8.578-30.176,5.309-38.765-7.512
	c-8.396-12.532-5.474-29.559,6.572-38.294c12.803-9.283,28.555-6.253,39.255,5.583
	C-484.619,1028.233-484.916,1034.436-484.89,1041.296z M-509.144,1055.878c4.992,0,9.984-0.013,14.977,0.005
	c4.062,0.014,6.165-1.779,6.065-6.046c-0.124-5.322-0.002-10.65-0.061-15.975c-0.06-5.391-1.378-6.661-6.843-6.719
	c-2.945-0.031-5.323-1.163-8.033-2.358c-3.805-1.679-8.947-0.678-13.462-0.246c-2.368,0.227-4.586,2.334-6.927,2.446
	c-4.407,0.213-6.457,2.082-6.458,6.388c-0.001,5.657,0.114,11.317-0.023,16.972c-0.101,4.137,1.887,5.651,5.79,5.568
	C-519.129,1055.807-514.136,1055.887-509.144,1055.878z"/>
<path fill-rule="evenodd" clip-rule="evenodd" fill="#FFFFFF" d="M-320.864,1052.955c-2.313,0-3.939,0-5.954,0
	c-0.146-2.041-0.282-3.961-0.466-6.54c-4.439,6.509-10.113,8.559-17.527,5.6c0,3.091,0,5.724,0,8.852
	c-2.035,0.096-3.782,0.179-5.919,0.279c0-7.806-0.869-15.51,0.23-22.923c1.235-8.327,13.137-11.153,19.719-5.27
	c1.176,1.052,2.155,2.323,3.739,4.055c0-6.335,0-11.934,0-17.807c2.065,0,3.8,0,6.014,0c0,3.811,0,7.574,0,11.41
	c8.408-1.335,9.576-0.587,12.191,7.403c1.586,4.844,3.181,9.684,4.771,14.525c-4.254,1.481-6.625,0.485-7.55-3.845
	c-0.689-3.233-1.824-6.408-3.113-9.459c-0.532-1.261-1.987-2.132-3.022-3.18c-1.038,1.324-2.831,2.573-2.97,3.985
	C-321.124,1044.141-320.864,1048.305-320.864,1052.955z M-339.02,1035.883c-3.647,0.254-6.306,2.466-5.625,5.885
	c0.445,2.234,3.243,5.112,5.463,5.619c3.267,0.745,6.015-1.529,6.077-5.415C-333.044,1038.172-335.368,1036.399-339.02,1035.883z"/>
<path fill-rule="evenodd" clip-rule="evenodd" fill="#FFFFFF" d="M-457.195,1037.696c7.05-9.471,14.069-10.063,21.68-2.032
	c-3.978,3.056-8.014,6.156-12.05,9.256c0.546,0.785,1.092,1.569,1.638,2.354c2.462-0.679,4.924-1.358,7.666-2.114
	c0.633,2.931,1.039,5.5-2.75,7.034c-5.898,2.388-10.834,0.487-15.32-5.821c-3.552,2.251-6.823,5.041-10.609,6.435
	c-2.075,0.764-5.276-0.326-7.516-1.468c-4.633-2.363-6.894-9.13-5.167-13.872c2.177-5.979,7.757-8.36,16.489-6.838
	c0-1.872,0-3.688,0-5.503c0-1.819,0-3.639,0-5.954c1.965-0.107,3.706-0.202,5.939-0.324
	C-457.195,1024.809-457.195,1030.558-457.195,1037.696z M-462.812,1043.046c-0.539-5.178-2.507-7.063-6.049-7.053
	c-3.702,0.011-5.549,2.206-5.399,5.721c0.145,3.417,2.229,6.145,5.646,5.491C-466.256,1046.754-464.305,1044.183-462.812,1043.046z
	 M-443.868,1036.213c-6.235,0.229-7.361,1.484-6.703,6.138C-448.614,1040.559-446.593,1038.708-443.868,1036.213z"/>
<path fill-rule="evenodd" clip-rule="evenodd" fill="#FFFFFF" d="M-413.108,1037.849c4.542-6.709,9.714-9.202,15.062-7.5
	c4.773,1.52,8.045,5.864,8.156,10.831c0.113,5.074-2.891,9.467-7.629,11.152c-5.835,2.076-10.351,0.148-15.4-6.573
	c-5.695,7.629-8.133,8.645-16.749,6.599c-0.123,2.78-0.242,5.477-0.373,8.456c-1.968,0-3.707,0-5.947,0
	c0-7.158-0.422-14.3,0.141-21.363c0.41-5.152,4.294-8.152,9.195-9.354C-421.315,1028.786-417.151,1031.219-413.108,1037.849z
	 M-418.759,1041.747c-0.427-3.466-2.042-5.865-6.005-5.742c-3.771,0.116-5.204,2.521-5.246,5.918
	c-0.046,3.716,2.333,5.557,5.647,5.597C-420.933,1047.562-418.898,1045.473-418.759,1041.747z M-395.922,1041.441
	c-0.24-3.562-2.102-5.555-5.687-5.587c-3.643-0.033-5.596,2.084-5.649,5.579c-0.053,3.573,2.033,5.61,5.605,5.599
	C-398.111,1047.02-396.195,1045.006-395.922,1041.441z"/>
<path fill-rule="evenodd" clip-rule="evenodd" fill="#FFFFFF" d="M-247.882,1040.981c0.061,6.638-5.032,12.157-11.174,12.108
	c-6.229-0.049-11.057-5.112-11.069-11.609c-0.012-6.319,5.063-11.58,11.152-11.561
	C-253.005,1029.938-247.938,1034.993-247.882,1040.981z M-258.315,1035.969c-4.318-0.054-6.105,2.291-6.192,5.555
	c-0.091,3.376,1.833,5.573,5.532,5.541c3.399-0.029,5.32-1.937,5.355-5.182C-253.584,1038.57-255.184,1036.207-258.315,1035.969z"/>
<path fill-rule="evenodd" clip-rule="evenodd" fill="#FFFFFF" d="M-282.905,1041.332c0.105,6.33-4.871,11.684-10.944,11.774
	c-6.221,0.094-11.141-4.909-11.243-11.431c-0.101-6.453,4.683-11.601,10.933-11.764
	C-288.07,1029.754-283.013,1034.886-282.905,1041.332z M-295.782,1035.881c-0.928,1.375-3.354,3.428-3.616,5.727
	c-0.361,3.181,1.947,5.498,5.596,5.42c3.441-0.073,5.198-2.275,5.2-5.378C-288.601,1038.376-290.254,1035.987-295.782,1035.881z"/>
<path fill-rule="evenodd" clip-rule="evenodd" fill="#FFFFFF" d="M-275.075,1023.475c0.141,2.231,0.254,4.019,0.382,6.048
	c1.529,0.227,2.941,0.436,4.603,0.682c0.077,1.755,0.148,3.374,0.233,5.303c-1.622,0.361-3.134,0.698-4.748,1.059
	c0,3.4,0,6.648,0,10.138c1.631,0.222,3.022,0.412,4.441,0.605c0,1.86,0,3.454,0,4.979c-7.457,1.817-10.611-0.617-11.016-7.727
	c-0.184-3.243-1.029-6.482-1.866-9.646C-284.115,1030.877-280.221,1024.789-275.075,1023.475z"/>
<path fill-rule="evenodd" clip-rule="evenodd" fill="#FFFFFF" d="M-358.085,1023.201c0.115,2.181,0.212,3.99,0.325,6.131
	c1.47,0.314,2.985,0.64,4.666,1c0,1.74,0,3.361,0,5.306c-1.354,0.253-2.752,0.515-4.468,0.835c0,3.337,0,6.733,0,10.325
	c1.532,0.308,2.936,0.589,4.478,0.897c0,1.637,0,3.098,0,4.523c-7.535,2.195-10.765-0.246-11.118-7.764
	c-0.152-3.247-1.058-6.486-1.868-9.666C-367.08,1030.824-363.167,1024.646-358.085,1023.201z"/>
<path fill-rule="evenodd" clip-rule="evenodd" fill="#FFFFFF" d="M-232.748,1034.849c-0.996,0.843-2.102,1.779-3.074,2.603
	c-1.787-0.651-3.183-1.161-4.579-1.67c-0.356,0.263-0.712,0.526-1.068,0.789c5.162,3.928,13.348,7.083,5.621,14.816
	c-3.198,3.199-7.76,2.18-12.15-2.164c0.915-1.225,1.867-2.5,2.717-3.638c2.099,0.498,3.916,0.929,5.733,1.36
	c-2.181-4.236-8.625-4.395-7.632-10.323c0.305-1.819,1.328-3.88,2.683-5.092C-241.003,1028.404-236.441,1029.624-232.748,1034.849z"
	/>
<path fill-rule="evenodd" clip-rule="evenodd" fill="#FFFFFF" d="M-378.047,1037.52c-1.622-0.619-3.087-1.179-4.553-1.737
	c-0.292,0.399-0.584,0.8-0.877,1.2c3.409,2.563,8.858,3.765,7.771,9.419c-0.348,1.809-1.37,3.814-2.712,5.039
	c-3.434,3.131-7.737,2.025-11.46-2.746c0.829-1.082,1.704-2.224,2.601-3.395c1.765,0.621,3.382,1.189,4.998,1.758
	c0.228-0.422,0.455-0.844,0.683-1.266c-0.91-0.717-1.723-1.651-2.748-2.108c-3.408-1.52-5.899-4.049-4.543-7.667
	c0.892-2.381,3.396-4.926,5.769-5.801c3.349-1.237,6.368,0.61,8.38,4.836C-375.777,1035.826-376.949,1036.7-378.047,1037.52z"/>
<path fill-rule="evenodd" clip-rule="evenodd" fill="#FFFFFF" d="M-373.855,1030.045c2.004,0,3.624,0,5.974,0
	c0,3.818,0,7.552,0,11.286c0,3.764,0,7.527,0,11.526c-2.234,0-3.959,0-5.974,0C-373.855,1045.31-373.855,1037.945-373.855,1030.045z
	"/>
<path fill-rule="evenodd" clip-rule="evenodd" fill="#FFFFFF" d="M672.212,1045.429c-0.84-1.067-3.378-3.867-3.168-4.092
	c2.874-3.066-2.938-9.196,3.76-10.656c0.16-0.035,0.391-0.089,0.489-0.011c1.506,1.199,4.384,3.346,4.283,3.496
	C675.309,1037.563,682.277,1044.466,672.212,1045.429z M673.936,1036.966c-1.445,1.7-2.859,2.651-2.768,3.426
	c0.131,1.112,1.357,2.097,2.117,3.136c0.911-0.72,2.485-1.368,2.57-2.176C675.971,1040.272,674.932,1039.07,673.936,1036.966z"/>
<path fill-rule="evenodd" clip-rule="evenodd" fill="#FFFFFF" d="M693.932,1045.381c-0.751-1.136-3.286-4.02-2.883-4.516
	c2.479-3.053-2.829-9.354,4.26-10.176c0.163-0.019,0.403-0.063,0.485,0.021c1.314,1.359,3.975,3.383,3.681,4.004
	C697.858,1038.137,704.065,1044.647,693.932,1045.381z M699.163,1041.186c-1.589-1.382-2.669-2.928-3.338-2.766
	c-1.091,0.264-2.321,1.508-2.677,2.604c-0.174,0.537,1.399,2.222,2.342,2.369C696.354,1043.528,697.431,1042.295,699.163,1041.186z"
	/>
<path fill-rule="evenodd" clip-rule="evenodd" fill="#FFFFFF" d="M716.04,1045.363c-0.788-1.083-3.323-3.683-2.952-4.199
	c2.311-3.224-2.888-9.781,4.356-10.316c1.321-0.098,4.247,3.058,4.026,3.496C719.7,1037.851,726.211,1044.629,716.04,1045.363z
	 M721.246,1040.612c-1.914-1.091-3.036-2.217-4.116-2.178c-0.737,0.026-2.162,1.931-1.954,2.55c0.35,1.04,1.668,2.193,2.746,2.393
	C718.624,1043.507,719.623,1042.031,721.246,1040.612z"/>
<path fill-rule="evenodd" clip-rule="evenodd" fill="#FFFFFF" d="M976.861,1044.883c0-2.099,0.17-4.218-0.08-6.286
	c-0.105-0.878-1.09-1.649-1.675-2.47c-0.652,0.811-1.75,1.561-1.868,2.443c-0.278,2.073-0.089,4.209-0.089,6.32
	c-0.546,0.05-1.091,0.1-1.637,0.149c-0.388-2.932-0.774-5.862-1.206-9.122c-5.706,1.449-1.461,6.657-4.723,9.579
	c0-3.911,0-7.242,0-11.547c3.346,0,7.032-0.061,10.714,0.052c0.711,0.021,1.956,0.65,2.013,1.113
	c0.396,3.252,0.546,6.533,0.773,9.806C978.344,1044.908,977.603,1044.896,976.861,1044.883z"/>
<path fill-rule="evenodd" clip-rule="evenodd" fill="#FFFFFF" d="M766.139,1039.563c0.903-2.229,1.598-3.942,2.813-6.939
	c1.289,2.846,2.083,4.596,3.032,6.691c0.935-2.045,1.699-3.719,2.464-5.393c0.556,0.174,1.112,0.348,1.668,0.521
	c-1.114,3.565-2.229,7.131-3.345,10.696c-0.483,0.048-0.967,0.095-1.45,0.143c-0.648-1.546-1.297-3.093-2.159-5.15
	c-0.96,1.858-1.771,3.427-2.582,4.995c-0.461,0.056-0.922,0.111-1.383,0.166c-1.065-3.612-2.13-7.226-3.195-10.838
	c0.524-0.205,1.05-0.41,1.573-0.615C764.363,1035.599,765.15,1037.357,766.139,1039.563z"/>
<path fill-rule="evenodd" clip-rule="evenodd" fill="#FFFFFF" d="M787.044,1039.4c0.984-2.217,1.724-3.884,2.464-5.551
	c0.476,0.169,0.951,0.339,1.427,0.508c-0.985,3.579-1.971,7.158-2.956,10.736c-0.451,0.085-0.903,0.169-1.354,0.254
	c-0.799-1.559-1.597-3.116-2.576-5.026c-0.866,1.717-1.658,3.289-2.45,4.861c-0.482,0.029-0.964,0.06-1.446,0.089
	c-1.057-3.628-2.112-7.256-3.169-10.884c0.498-0.2,0.996-0.4,1.494-0.601c0.831,1.741,1.662,3.482,2.719,5.695
	c0.838-2.129,1.512-3.84,2.698-6.854C785.189,1035.412,785.998,1037.15,787.044,1039.4z"/>
<path fill-rule="evenodd" clip-rule="evenodd" fill="#FFFFFF" d="M799.972,1034.208c0.528,1.542,1.057,3.083,1.797,5.242
	c1.036-2.143,1.862-3.85,2.688-5.556c0.496,0.178,0.991,0.356,1.487,0.535c-1.035,3.6-2.07,7.2-3.105,10.801
	c-0.5,0.001-1.002,0.002-1.502,0.002c-0.676-1.534-1.352-3.068-2.23-5.066c-0.93,1.852-1.721,3.429-2.512,5.006
	c-0.467,0.028-0.933,0.056-1.399,0.084c-1.053-3.623-2.105-7.246-3.157-10.868c0.514-0.19,1.026-0.381,1.54-0.571
	c0.729,1.67,1.459,3.341,2.446,5.602c0.974-2.145,1.792-3.948,2.61-5.751C799.08,1033.847,799.525,1034.027,799.972,1034.208z"/>
<path fill-rule="evenodd" clip-rule="evenodd" fill="#FFFFFF" d="M575.178,1035.405c-1.309,4.685,2.312,10.206-3.101,13.388
	c-1.395,0.82-4.08-0.554-6.173-0.92c0.094-0.461,0.187-0.922,0.28-1.383c2.164,0,4.328,0,6.491,0
	c-0.039-0.251-0.079-0.502-0.119-0.753c-2.058-0.886-4.45-1.395-6.045-2.805c-0.912-0.808-0.899-3.14-0.655-4.683
	C566.465,1034.403,568.518,1033.771,575.178,1035.405z M570.592,1044.794c1.162-2.65,2.326-4.053,2.154-5.265
	c-0.172-1.216-1.677-2.243-2.598-3.353c-0.848,1.21-2.302,2.388-2.368,3.639C567.717,1041.016,569.094,1042.292,570.592,1044.794z"
	/>
<path fill-rule="evenodd" clip-rule="evenodd" fill="#FFFFFF" d="M831.905,1042.804c-1.894,0.737-3.846,2.201-5.668,2.055
	c-3.319-0.268-5.154-3.073-4.136-6.038c0.681-1.983,3.153-4.317,5.146-4.668c3.366-0.594,4.808,2.08,4.844,5.734
	c-2.44,0.128-4.712,0.248-7.012,0.368c1.124,2.993,1.124,2.993,6.175,1.226C831.471,1041.922,831.688,1042.362,831.905,1042.804z"/>
<path fill-rule="evenodd" clip-rule="evenodd" fill="#FFFFFF" d="M599.723,1046.375c0-6.407,0-10.836,0-16.752
	c3.935,1.268,8.207,1.426,10.097,3.629c1.583,1.845,1.628,7.07,0.092,8.994C608.098,1044.52,603.854,1044.854,599.723,1046.375z
	 M601.572,1031.705c0,3.848-0.023,6.153,0.013,8.457c0.013,0.8,0.171,1.597,0.386,3.453c2.361-0.844,5.318-1.015,6.059-2.384
	c0.999-1.85,1.051-5.022,0.073-6.865C607.358,1032.965,604.376,1032.752,601.572,1031.705z"/>
<path fill-rule="evenodd" clip-rule="evenodd" fill="#FFFFFF" d="M560.395,1036.335c-1.94,0.273-3.882,0.548-5.822,0.821
	c-0.146-0.348-0.291-0.695-0.436-1.043c1.947-0.596,4.164-2.101,5.795-1.62c5.425,1.598,1.729,6.525,3.427,9.619
	c-0.24,0.457-0.48,0.914-0.721,1.371c-2.909-0.761-7.804-0.821-8.364-2.41C552.448,1037.901,558.572,1039.916,560.395,1036.335z"/>
<path fill-rule="evenodd" clip-rule="evenodd" fill="#FFFFFF" d="M541.544,1035.888c-0.691,2.941-1.384,5.882-2.076,8.822
	c-0.337,0.042-0.674,0.083-1.011,0.125c-0.16-3.013-0.32-6.025-0.52-9.765c4.146-0.261,7.936-0.754,11.69-0.563
	c1.003,0.051,2.45,2.077,2.723,3.397c0.454,2.193,0.124,4.551,0.124,6.838c-0.412,0.07-0.825,0.14-1.237,0.209
	c-0.529-2.999-1.058-5.998-1.587-8.997c-0.578-0.021-1.157-0.043-1.735-0.065c-0.522,1.394-1.261,2.75-1.507,4.189
	c-0.263,1.529-0.06,3.139-0.06,4.713c-0.554,0.028-1.108,0.057-1.662,0.085c-0.174-1.455-0.336-2.911-0.525-4.363
	c-0.193-1.487-0.414-2.971-0.623-4.455C542.874,1036.001,542.209,1035.944,541.544,1035.888z"/>
<path fill-rule="evenodd" clip-rule="evenodd" fill="#FFFFFF" d="M819.458,1044.607c-3.742,0.615-7.533,1.316-8.479-3.935
	c-0.776-4.313,1.181-6.374,6.53-7.05c0.321-1.182,0.647-2.382,0.975-3.582c0.325,0.002,0.649,0.003,0.975,0.005
	C819.458,1034.751,819.458,1039.456,819.458,1044.607z M815.704,1044.64c1.146-2.66,2.156-3.916,2.053-5.071
	c-0.107-1.203-1.291-2.309-2.004-3.458c-0.855,1.184-2.218,2.292-2.408,3.574C813.186,1040.763,814.392,1042.043,815.704,1044.64z"
	/>
<path fill-rule="evenodd" clip-rule="evenodd" fill="#FFFFFF" d="M647.737,1041.582c2.449,1.692,4.913,3.456,6.333-1.357
	c-0.86-0.082-1.438-0.234-1.994-0.174c-3.313,0.356-5.543-1.297-5.069-4.388c0.283-1.844,2.438-4.385,4.184-4.803
	c3.05-0.729,4.814,1.721,4.963,4.762c0.104,2.123,0.216,4.46-0.557,6.34c-0.567,1.382-2.46,2.812-3.95,3.052
	c-1.416,0.228-3.076-1.062-4.629-1.684C647.258,1042.747,647.498,1042.164,647.737,1041.582z M651.55,1030.992
	c-1.237,2.084-2.494,3.266-2.431,4.372c0.057,1.012,1.541,1.943,2.396,2.911c0.842-0.983,2.281-1.92,2.361-2.962
	C653.959,1034.229,652.729,1033.045,651.55,1030.992z"/>
<path fill-rule="evenodd" clip-rule="evenodd" fill="#FFFFFF" d="M586.046,1040.111c-2.435,0.179-4.542,0.334-6.724,0.495
	c1.518,3.367,1.518,3.367,6.08,1.438c0.142,0.468,0.283,0.937,0.426,1.405c-1.831,0.554-4.272,2.101-5.354,1.437
	c-1.742-1.072-3.344-3.495-3.634-5.541c-0.418-2.952,1.658-5.144,4.809-5.027C584.694,1034.431,586.428,1036.268,586.046,1040.111z"
	/>
<path fill-rule="evenodd" clip-rule="evenodd" fill="#FFFFFF" d="M834.299,1047.19c0-3.775,0-8.121,0-12.486
	c6.857-1.372,10.074,0.741,8.596,5.937c-0.417,1.466-2.075,2.722-3.417,3.74C838.088,1045.435,836.392,1046.084,834.299,1047.19z
	 M836.923,1042.663c0.916,0.075,1.833,0.15,2.749,0.226c0.208-1.936,0.492-3.872,0.477-5.806c-0.002-0.151-2.102-0.284-3.226-0.427
	C836.923,1038.658,836.923,1040.661,836.923,1042.663z"/>
<path fill-rule="evenodd" clip-rule="evenodd" fill="#FFFFFF" d="M878.295,1034.199c7.363-0.17,9.924,1.833,8.633,6.842
	c-0.363,1.41-1.597,2.864-2.832,3.714c-1.644,1.128-3.68,1.685-5.801,2.595C878.295,1043.412,878.295,1038.933,878.295,1034.199z
	 M886.675,1041.454c-0.425-0.773-0.849-1.547-1.272-2.321c-1.008-1.03-2.017-2.061-3.024-3.091
	c-0.762,1.089-2.188,2.226-2.114,3.254c0.092,1.256,1.232,3.099,2.31,3.436C883.698,1043.082,885.288,1041.942,886.675,1041.454z"/>
<path fill-rule="evenodd" clip-rule="evenodd" fill="#FFFFFF" d="M702.123,1041.495c2.984,1.785,5.793,3.641,6.949-1.487
	c-4.257,0.446-7.83-0.185-7.051-5.405c0.201-1.345,1.576-3.093,2.816-3.544c1.279-0.466,3.391-0.037,4.543,0.81
	c2.985,2.192,2.5,10.535-0.487,12.622C706.621,1046.078,704.245,1045.223,702.123,1041.495z M706.513,1030.916
	c-1.229,2.105-2.479,3.292-2.396,4.376c0.081,1.06,1.522,2.015,2.367,3.015c0.848-0.998,2.282-1.942,2.379-3.009
	C708.96,1034.227,707.725,1033.034,706.513,1030.916z"/>
<path fill-rule="evenodd" clip-rule="evenodd" fill="#FFFFFF" d="M915.051,1038.131c2.008-1.407,3.879-3.673,6.057-4.021
	c3.334-0.534,4.986,1.999,4.964,5.332c-0.024,3.53-1.692,6.203-5.334,5.443c-2.138-0.446-3.855-2.906-5.762-4.461
	C915,1039.66,915.025,1038.896,915.051,1038.131z M920.938,1044.609c1.427-2.527,2.776-3.843,2.672-5.029
	c-0.108-1.231-1.626-2.338-2.528-3.498c-0.935,1.122-2.488,2.173-2.63,3.388C918.313,1040.665,919.606,1042.027,920.938,1044.609z"
	/>
<path fill-rule="evenodd" clip-rule="evenodd" fill="#FFFFFF" d="M626.383,1042.419c3.068,0.603,4.739,0.93,6.41,1.258
	c-0.02,0.309-0.04,0.617-0.061,0.927c-2.866,0-5.732,0-9.793,0c1.857-2.166,3.348-3.582,4.438-5.258
	c1.227-1.886,2.093-4.006,3.116-6.024c-2.003,0.199-4.005,0.397-7.218,0.717c1.715-1.354,2.92-3.034,4.317-3.214
	c1.53-0.196,3.891,0.546,4.683,1.704c0.752,1.101,0.49,3.608-0.309,4.88C630.879,1039.141,628.857,1040.286,626.383,1042.419z"/>
<path fill-rule="evenodd" clip-rule="evenodd" fill="#FFFFFF" d="M635.304,1034.038c1.683-1.329,2.884-3.004,4.28-3.188
	c1.514-0.198,3.864,0.552,4.641,1.703c0.749,1.11,0.509,3.613-0.292,4.87c-1.097,1.719-3.134,2.838-5.609,4.924
	c3.043,0.611,4.77,0.958,6.497,1.305c-0.023,0.315-0.047,0.631-0.069,0.945c-2.874,0-5.747,0-9.867,0
	c1.91-2.184,3.42-3.575,4.509-5.242c1.238-1.895,2.101-4.034,3.126-6.068C640.513,1033.496,638.507,1033.705,635.304,1034.038z"/>
<path fill-rule="evenodd" clip-rule="evenodd" fill="#FFFFFF" d="M927.559,1041.442c1.895,0.479,3.789,0.959,6.562,1.66
	c-2.952-2.663-4.964-4.479-6.976-6.293c1.027-0.945,1.994-2.582,3.095-2.679c1.753-0.153,3.596,0.721,5.4,1.16
	c-0.116,0.532-0.232,1.064-0.349,1.597c-1.673-0.218-3.346-0.435-4.834-0.628c1.95,2.082,3.76,4.017,5.57,5.95
	c-1.201,0.949-2.415,2.688-3.6,2.668c-1.882-0.031-3.744-1.235-5.615-1.943C927.062,1042.438,927.311,1041.939,927.559,1041.442z"/>
<path fill-rule="evenodd" clip-rule="evenodd" fill="#FFFFFF" d="M964.001,1040.536c-1.915,1.518-3.647,3.901-5.786,4.351
	c-3.196,0.67-5.218-1.601-5.306-5c-0.089-3.462,1.47-6.256,5.091-5.754c2.137,0.297,3.988,2.654,5.968,4.084
	C963.979,1038.99,963.99,1039.763,964.001,1040.536z M958.113,1044.568c1.318-2.561,2.589-3.901,2.463-5.096
	c-0.129-1.208-1.638-2.271-2.542-3.397c-0.917,1.146-2.453,2.23-2.571,3.453C955.349,1040.71,956.695,1042.033,958.113,1044.568z"/>
<path fill-rule="evenodd" clip-rule="evenodd" fill="#FFFFFF" d="M856.751,1041.487c1.814,0.499,3.628,0.999,6.432,1.771
	c-2.951-2.849-4.968-4.796-6.985-6.743c1.112-0.854,2.194-2.359,3.343-2.411c1.675-0.075,3.396,0.894,5.098,1.418
	c-0.169,0.484-0.338,0.97-0.507,1.454c-1.582-0.287-3.164-0.575-4.754-0.864c2.01,2.284,3.814,4.336,5.62,6.388
	c-1.456,0.866-2.918,2.426-4.367,2.415c-1.615-0.013-3.22-1.453-4.829-2.272C856.117,1042.257,856.435,1041.872,856.751,1041.487z"
	/>
<path fill-rule="evenodd" clip-rule="evenodd" fill="#FFFFFF" d="M891.498,1033.82c5.962,0.363,7,2.711,3.933,11.178
	c-0.186-2.045-0.237-4.114-0.613-6.123c-0.181-0.964-0.972-1.813-1.486-2.715c-0.729,0.916-1.917,1.754-2.091,2.767
	c-0.335,1.95-0.098,3.999-0.098,6.007c-0.559-0.026-1.116-0.053-1.675-0.08c0-4.903,0-9.808,0-14.712
	c0.334-0.049,0.668-0.097,1.001-0.146C890.813,1031.271,891.155,1032.546,891.498,1033.82z"/>
<path fill-rule="evenodd" clip-rule="evenodd" fill="#FFFFFF" d="M844.047,1038.241c1.969-1.441,3.794-3.78,5.938-4.124
	c3.695-0.592,5.216,2.234,5.082,5.683c-0.125,3.248-1.816,5.835-5.198,5.087c-2.166-0.479-3.923-2.811-5.863-4.312
	C844.02,1039.797,844.033,1039.02,844.047,1038.241z M850.381,1034.438c-1.559,2.398-3.002,3.637-2.945,4.802
	c0.06,1.258,1.522,2.448,2.374,3.668c0.982-1.063,2.588-2.026,2.774-3.214C852.774,1038.489,851.563,1037.064,850.381,1034.438z"/>
<path fill-rule="evenodd" clip-rule="evenodd" fill="#FFFFFF" d="M909.979,1040.469c-1.909,1.541-3.65,4.033-5.765,4.406
	c-3.506,0.619-5.405-1.939-5.291-5.512c0.103-3.215,1.691-5.86,5.071-5.252c2.162,0.39,3.989,2.639,5.966,4.053
	C909.967,1038.933,909.973,1039.701,909.979,1040.469z M907.809,1040.004c-1.549-1.725-2.536-2.824-3.523-3.925
	c-1.016,1.029-2.796,2.024-2.844,3.097c-0.055,1.215,1.443,2.499,2.267,3.754C904.871,1042.1,906.034,1041.27,907.809,1040.004z"/>
<path fill-rule="evenodd" clip-rule="evenodd" fill="#FFFFFF" d="M679.966,1032.082c2.115-0.375,4.375-1.343,6.283-0.875
	c0.95,0.232,1.288,3.086,1.839,4.774c0.331,1.013,0.982,2.204,0.712,3.072c-0.647,2.08-1.259,5.043-2.788,5.782
	c-2.631,1.272-5.371,0.233-5.884-2.645c2.361,0,4.466,0,6.571,0c-0.641-1.642-1.28-3.283-2.148-5.511
	c0.17-0.321,0.919-1.738,1.668-3.154c-1.96,0-3.921,0-5.882,0C680.213,1033.045,680.09,1032.563,679.966,1032.082z"/>
<path fill-rule="evenodd" clip-rule="evenodd" fill="#FFFFFF" d="M951.193,1042.23c-1.648,0.939-3.811,3.025-4.833,2.568
	c-1.841-0.825-4.039-3.108-4.154-4.905c-0.12-1.884,1.646-4.474,3.35-5.651c0.903-0.625,3.425,1.092,4.618,2.586
	c-1.852,0.209-3.869,0.07-5.455,0.832c-0.489,0.234,0.198,2.921,0.347,4.485c1.8-0.248,3.601-0.496,5.401-0.744
	C950.709,1041.678,950.951,1041.954,951.193,1042.23z"/>
<path fill-rule="evenodd" clip-rule="evenodd" fill="#FFFFFF" d="M912.457,1030.522c0.822,2.4,3.021,4.332,0.885,7.527
	c-0.874,1.307,0.495,4.113,0.946,6.858c-0.712-0.189-2.601-0.361-2.648-0.756c-0.541-4.455-0.801-8.944-1.136-13.424
	C911.155,1030.659,911.807,1030.591,912.457,1030.522z"/>
<path fill-rule="evenodd" clip-rule="evenodd" fill="#FFFFFF" d="M873.693,1029.694c0.019,3.287,2.932,5.044,0.65,8.28
	c-0.929,1.316,0.609,4.371,1.143,7.274c-1.126-0.474-3.104-0.911-3.109-1.37C872.329,1039.433,869.794,1034.749,873.693,1029.694z"
	/>
<path fill-rule="evenodd" clip-rule="evenodd" fill="#FFFFFF" d="M664.216,1030.36c0,5.282,0,9.765,0,14.99
	c-3.771-3.209,1.68-9.619-5.329-10.7C660.701,1033.189,662.154,1032.02,664.216,1030.36z"/>
<path fill-rule="evenodd" clip-rule="evenodd" fill="#FFFFFF" d="M-371.081,1017.651c1.472,2.005,3.033,3.203,2.964,4.3
	c-0.068,1.088-1.795,2.907-2.758,2.884c-1.086-0.026-2.836-1.653-2.99-2.766C-374.011,1021.012-372.471,1019.721-371.081,1017.651z"
	/>
<path fill-rule="evenodd" clip-rule="evenodd" fill="#FFFFFF" d="M594.225,1044.73c0-4.577,0-9.154,0-13.731
	c0.352-0.013,0.703-0.024,1.055-0.038c0,4.568,0,9.137,0,13.705C594.928,1044.688,594.576,1044.709,594.225,1044.73z"/>
<path fill-rule="evenodd" clip-rule="evenodd" fill="#FFFFFF" d="M534.521,1031.069c0,4.543,0,9.086,0,13.629
	c-0.355,0.011-0.711,0.021-1.066,0.031c0-4.554,0-9.106,0-13.661C533.811,1031.069,534.166,1031.069,534.521,1031.069z"/>
<path fill-rule="evenodd" clip-rule="evenodd" fill="#FFFF36" d="M202.3,200.786c-17.983,0-35.966,0-53.949,0.001
	c-1.779,0-2.852-0.845-2.879-2.274c-0.027-1.41,1.057-2.285,2.859-2.285c35.923,0,71.845,0.001,107.767,0.004
	c1.855,0,2.85,0.791,2.859,2.257c0.01,1.451-1.023,2.296-2.838,2.296C238.18,200.787,220.24,200.786,202.3,200.786z"/>
<path fill-rule="evenodd" clip-rule="evenodd" fill="#FFFF36" d="M202.174,186.045c-17.853,0.001-35.706,0.009-53.558-0.027
	c-0.804-0.002-1.8-0.194-2.353-0.691c-0.49-0.44-0.82-1.543-0.613-2.145c0.229-0.668,1.092-1.196,1.788-1.596
	c0.4-0.229,1.016-0.105,1.535-0.105c34.708-0.002,69.417-0.001,104.125,0.001c0.997,0,1.994,0.007,2.99,0.016
	c1.855,0.017,2.862,0.806,2.887,2.258c0.024,1.402-1.064,2.288-2.853,2.288c-8.189,0.004-16.38,0.002-24.569,0.002
	C221.76,186.045,211.967,186.045,202.174,186.045z"/>
<path fill-rule="evenodd" clip-rule="evenodd" fill="#FFFF36" d="M202.278,210.974c17.811-0.001,35.621-0.002,53.431-0.001
	c0.434,0.001,0.873-0.029,1.299,0.029c1.137,0.159,1.97,1.112,1.953,2.238c-0.017,1.201-0.639,1.96-1.815,2.186
	c-0.547,0.105-1.12,0.101-1.683,0.101c-35.533,0.006-71.068,0.008-106.602,0.006c-0.518,0-1.045-0.009-1.552-0.1
	c-1.072-0.192-1.856-1.157-1.845-2.189c0.013-1.149,0.802-2.068,1.955-2.238c0.34-0.05,0.691-0.029,1.038-0.029
	C166.397,210.975,184.338,210.975,202.278,210.974z"/>
<path fill-rule="evenodd" clip-rule="evenodd" fill="#FFFF36" d="M228.281,274.172c1.086,1.027,2.115,2,3.267,3.088
	c-1.54,1.3-2.94,2.5-4.36,3.678c-6.402,5.31-12.8,10.624-19.229,15.901c-0.675,0.554-0.785,1.039-0.595,1.859
	c0.785,3.394-0.979,6.77-4.131,8.072c-3.288,1.358-6.904,0.285-8.819-2.618c-1.881-2.853-1.498-6.698,1.007-9.032
	c0.647-0.604,0.75-1.072,0.495-1.888c-2.048-6.523-4.044-13.063-6.061-19.597c-0.111-0.361-0.258-0.712-0.499-1.369
	c-0.635,1.876-1.184,3.474-1.717,5.076c-3.81,11.462-7.61,22.927-11.438,34.383c-0.288,0.86-0.272,1.425,0.47,2.133
	c2.306,2.203,2.631,5.842,0.923,8.61c-1.743,2.825-5.13,4.103-8.23,3.104c-3.114-1.003-5.27-4.109-5.028-7.247
	c0.26-3.38,2.728-6.216,5.929-6.624c0.996-0.126,1.396-0.562,1.685-1.435c4.263-12.905,8.545-25.804,12.845-38.696
	c0.239-0.718,0.308-1.201-0.324-1.823c-2.901-2.852-2.893-7.306-0.063-10.118c2.835-2.817,7.355-2.81,10.153,0.017
	c2.81,2.839,2.798,7.289-0.116,10.14c-0.64,0.625-0.703,1.098-0.454,1.896c2.103,6.73,4.171,13.473,6.21,20.223
	c0.244,0.807,0.559,1.33,1.473,1.284c0.168-0.008,0.373,0.01,0.505,0.099c1.693,1.136,2.84,0.195,4.127-0.887
	c6.898-5.797,13.852-11.526,20.788-17.277C227.49,274.795,227.896,274.479,228.281,274.172z M174.097,318.744
	c0.017-1.492-1.102-2.631-2.581-2.627c-1.498,0.003-2.64,1.109-2.654,2.571c-0.014,1.482,1.09,2.594,2.603,2.619
	C172.968,321.333,174.08,320.251,174.097,318.744z M200.392,302.801c1.513-0.002,2.598-1.098,2.585-2.611
	c-0.013-1.534-1.103-2.601-2.628-2.574c-1.433,0.025-2.54,1.125-2.563,2.547C197.761,301.618,198.932,302.803,200.392,302.801z
	 M192.063,264.655c-0.006-1.479-1.173-2.616-2.66-2.59c-1.392,0.025-2.541,1.176-2.576,2.582c-0.037,1.442,1.152,2.633,2.629,2.634
	C190.98,267.282,192.069,266.186,192.063,264.655z"/>
<path fill-rule="evenodd" clip-rule="evenodd" fill="#FFFFFF" d="M212.528,250.165c5.097-0.042,9.523,3.753,9.738,9.246
	c0.213,5.422-4.042,9.869-9.58,10.032c-5.032,0.148-9.387-4.098-9.686-9.443C202.716,254.92,207.099,250.396,212.528,250.165z
	 M207.596,259.764c-0.012,2.797,2.193,5.052,4.979,5.093c2.827,0.042,5.15-2.238,5.15-5.056c0-2.867-2.229-5.086-5.111-5.086
	C209.839,254.715,207.607,256.961,207.596,259.764z"/>
<path fill-rule="evenodd" clip-rule="evenodd" fill="#FFFFFF" d="M171.841,262.453c5.282,0.01,9.547,4.284,9.565,9.588
	c0.019,5.279-4.342,9.61-9.703,9.637c-5.215,0.025-9.598-4.448-9.577-9.774C162.147,266.703,166.526,262.442,171.841,262.453z
	 M166.741,272.041c-0.031,2.826,2.111,5.006,4.971,5.059c2.808,0.052,5.18-2.278,5.16-5.069c-0.02-2.747-2.296-5.043-5.042-5.085
	C168.983,266.9,166.773,269.113,166.741,272.041z"/>
<path fill-rule="evenodd" clip-rule="evenodd" fill="#FFFFFF" d="M224.818,314.155c-2.021-1.968-3.861-3.732-5.67-5.526
	c-1.133-1.125-1.248-2.546-0.334-3.438c1.049-1.023,2.305-0.939,3.547,0.291c1.784,1.767,3.541,3.56,5.493,5.525
	c1.827-1.873,3.563-3.72,5.386-5.479c0.494-0.478,1.289-1.025,1.863-0.945c0.736,0.103,1.572,0.67,2.031,1.285
	c0.597,0.799,0.296,1.759-0.406,2.478c-1.574,1.611-3.162,3.209-4.77,4.786c-0.307,0.302-0.729,0.485-1.194,0.784
	c2.063,2.044,3.896,3.759,5.591,5.601c0.531,0.577,0.996,1.527,0.927,2.253c-0.063,0.65-0.794,1.528-1.425,1.75
	c-0.623,0.22-1.715-0.015-2.213-0.473c-1.973-1.814-3.793-3.794-5.848-5.895c-1.885,1.938-3.644,3.762-5.42,5.569
	c-1.196,1.217-2.531,1.325-3.518,0.316c-0.981-1.001-0.853-2.327,0.369-3.512C221.029,317.78,222.844,316.051,224.818,314.155z"/>
<path fill-rule="evenodd" clip-rule="evenodd" fill="#FFFFFF" d="M236.658,270.078c-3.533,0.919-6.834,1.775-10.133,2.635
	c-0.167,0.044-0.326,0.119-0.494,0.154c-1.452,0.308-2.605-0.322-2.963-1.609c-0.326-1.177,0.365-2.344,1.738-2.756
	c1.531-0.459,3.086-0.833,4.633-1.239c3.219-0.845,6.434-1.702,9.658-2.522c2.197-0.558,3.654,0.883,3.027,3.042
	c-1.388,4.774-2.826,9.534-4.269,14.293c-0.43,1.416-1.612,2.076-2.884,1.701c-1.242-0.366-1.833-1.564-1.414-3.027
	c0.879-3.074,1.797-6.137,2.697-9.205C236.375,271.136,236.482,270.723,236.658,270.078z"/>
<path fill-rule="evenodd" clip-rule="evenodd" fill="#5D5D5D" d="M296.836,370.285c-24-0.035-43.184-19.347-43.141-43.43
	c0.041-23.457,19.648-42.944,43.197-42.744c24.401,0.207,41.262,19.085,42.912,39.373
	C341.981,350.233,320.404,370.521,296.836,370.285z M296.795,288.671c-20.932-0.044-38.197,17.103-38.547,37.729
	c-0.364,21.453,17.247,40.189,40.177,39.348c18.48-0.679,37.61-15.805,36.882-40.184
	C334.706,305.405,317.912,288.652,296.795,288.671z"/>
<path fill-rule="evenodd" clip-rule="evenodd" d="M-509.144,1055.883c-4.992,0.004-9.986-0.076-14.976,0.03
	c-3.903,0.083-5.891-1.432-5.79-5.568c0.138-5.654,0.022-11.314,0.023-16.972c0.001-4.306,2.051-6.175,6.458-6.388
	c2.341-0.112,4.56-2.22,6.927-2.446c4.515-0.432,9.658-1.433,13.462,0.246c2.71,1.195,5.088,2.327,8.033,2.358
	c5.465,0.058,6.783,1.328,6.843,6.719c0.059,5.324-0.063,10.652,0.061,15.975c0.1,4.267-2.004,6.06-6.065,6.046
	C-499.159,1055.865-504.151,1055.878-509.144,1055.883z M-497.902,1041.564c0.015-6.615-5.093-11.73-11.639-11.654
	c-6.432,0.074-11.415,4.945-11.542,11.281c-0.131,6.559,4.908,11.81,11.43,11.91
	C-503.093,1053.203-497.917,1048.12-497.902,1041.564z"/>
<path fill-rule="evenodd" clip-rule="evenodd" d="M-339.02,1035.883c3.651,0.517,5.976,2.289,5.915,6.089
	c-0.063,3.886-2.811,6.16-6.077,5.415c-2.22-0.507-5.018-3.385-5.463-5.619C-345.325,1038.349-342.667,1036.137-339.02,1035.883z"/>
<path fill-rule="evenodd" clip-rule="evenodd" d="M-462.812,1043.046c-1.493,1.137-3.445,3.708-5.802,4.159
	c-3.417,0.653-5.501-2.074-5.646-5.491c-0.149-3.515,1.697-5.71,5.399-5.721C-465.318,1035.982-463.35,1037.868-462.812,1043.046z"
	/>
<path fill-rule="evenodd" clip-rule="evenodd" d="M-443.868,1036.213c-2.725,2.495-4.746,4.346-6.703,6.138
	C-451.229,1037.697-450.104,1036.442-443.868,1036.213z"/>
<path fill-rule="evenodd" clip-rule="evenodd" d="M-418.759,1041.747c-0.139,3.726-2.174,5.814-5.604,5.772
	c-3.314-0.04-5.693-1.881-5.647-5.597c0.042-3.397,1.474-5.802,5.246-5.918C-420.801,1035.882-419.186,1038.281-418.759,1041.747z"
	/>
<path fill-rule="evenodd" clip-rule="evenodd" d="M-395.922,1041.441c-0.273,3.564-2.188,5.578-5.73,5.591
	c-3.573,0.012-5.659-2.025-5.605-5.599c0.053-3.495,2.006-5.612,5.649-5.579C-398.024,1035.887-396.162,1037.88-395.922,1041.441z"
	/>
<path fill-rule="evenodd" clip-rule="evenodd" d="M-258.315,1035.969c3.132,0.238,4.731,2.602,4.695,5.914
	c-0.035,3.245-1.956,5.152-5.355,5.182c-3.699,0.032-5.623-2.165-5.532-5.541C-264.421,1038.26-262.634,1035.915-258.315,1035.969z"
	/>
<path fill-rule="evenodd" clip-rule="evenodd" d="M-295.782,1035.881c5.528,0.106,7.182,2.495,7.18,5.769
	c-0.002,3.103-1.759,5.305-5.2,5.378c-3.648,0.078-5.957-2.239-5.596-5.42C-299.137,1039.309-296.71,1037.256-295.782,1035.881z"/>
<path fill-rule="evenodd" clip-rule="evenodd" d="M673.936,1036.966c0.996,2.104,2.035,3.307,1.92,4.386
	c-0.085,0.808-1.659,1.456-2.57,2.176c-0.76-1.039-1.986-2.023-2.117-3.136C671.076,1039.617,672.49,1038.666,673.936,1036.966z"/>
<path fill-rule="evenodd" clip-rule="evenodd" d="M699.163,1041.186c-1.732,1.109-2.81,2.343-3.673,2.207
	c-0.942-0.147-2.516-1.832-2.342-2.369c0.355-1.096,1.586-2.34,2.677-2.604C696.494,1038.258,697.574,1039.804,699.163,1041.186z"/>
<path fill-rule="evenodd" clip-rule="evenodd" d="M721.246,1040.612c-1.623,1.419-2.622,2.895-3.324,2.765
	c-1.078-0.199-2.396-1.353-2.746-2.393c-0.208-0.619,1.217-2.523,1.954-2.55C718.21,1038.396,719.332,1039.521,721.246,1040.612z"/>
<path fill-rule="evenodd" clip-rule="evenodd" d="M570.592,1044.794c-1.498-2.502-2.875-3.778-2.812-4.979
	c0.066-1.251,1.521-2.429,2.368-3.639c0.921,1.109,2.426,2.137,2.598,3.353C572.918,1040.741,571.754,1042.144,570.592,1044.794z"/>
<path fill-rule="evenodd" clip-rule="evenodd" d="M601.572,1031.705c2.804,1.047,5.786,1.26,6.53,2.661
	c0.978,1.843,0.926,5.016-0.073,6.865c-0.74,1.369-3.697,1.54-6.059,2.384c-0.215-1.856-0.373-2.653-0.386-3.453
	C601.549,1037.858,601.572,1035.553,601.572,1031.705z"/>
<path fill-rule="evenodd" clip-rule="evenodd" d="M815.704,1044.64c-1.313-2.597-2.519-3.877-2.359-4.955
	c0.19-1.282,1.553-2.391,2.408-3.574c0.713,1.149,1.896,2.255,2.004,3.458C817.86,1040.724,816.85,1041.979,815.704,1044.64z"/>
<path fill-rule="evenodd" clip-rule="evenodd" d="M651.55,1030.992c1.18,2.053,2.409,3.237,2.327,4.321
	c-0.08,1.042-1.52,1.979-2.361,2.962c-0.855-0.968-2.34-1.899-2.396-2.911C649.056,1034.258,650.313,1033.076,651.55,1030.992z"/>
<path fill-rule="evenodd" clip-rule="evenodd" d="M836.923,1042.663c0-2.002,0-4.005,0-6.007c1.124,0.143,3.224,0.275,3.226,0.427
	c0.016,1.934-0.269,3.87-0.477,5.806C838.756,1042.813,837.839,1042.738,836.923,1042.663z"/>
<path fill-rule="evenodd" clip-rule="evenodd" d="M886.675,1041.454c-1.387,0.488-2.977,1.628-4.102,1.277
	c-1.077-0.337-2.218-2.18-2.31-3.436c-0.074-1.028,1.353-2.165,2.114-3.254c1.008,1.03,2.017,2.061,3.024,3.091
	C885.826,1039.907,886.25,1040.681,886.675,1041.454z"/>
<path fill-rule="evenodd" clip-rule="evenodd" d="M706.513,1030.916c1.212,2.118,2.447,3.311,2.351,4.382
	c-0.097,1.066-1.531,2.011-2.379,3.009c-0.845-1-2.286-1.955-2.367-3.015C704.034,1034.208,705.283,1033.021,706.513,1030.916z"/>
<path fill-rule="evenodd" clip-rule="evenodd" d="M920.938,1044.609c-1.332-2.582-2.625-3.944-2.486-5.14
	c0.142-1.215,1.695-2.266,2.63-3.388c0.902,1.16,2.42,2.267,2.528,3.498C923.715,1040.767,922.365,1042.082,920.938,1044.609z"/>
<path fill-rule="evenodd" clip-rule="evenodd" d="M958.113,1044.568c-1.418-2.535-2.765-3.858-2.65-5.04
	c0.118-1.223,1.654-2.308,2.571-3.453c0.904,1.126,2.413,2.189,2.542,3.397C960.702,1040.667,959.432,1042.008,958.113,1044.568z"/>
<path fill-rule="evenodd" clip-rule="evenodd" d="M850.381,1034.438c1.182,2.626,2.394,4.051,2.203,5.256
	c-0.187,1.188-1.792,2.151-2.774,3.214c-0.852-1.22-2.314-2.41-2.374-3.668C847.379,1038.075,848.822,1036.837,850.381,1034.438z"/>
<path fill-rule="evenodd" clip-rule="evenodd" d="M907.809,1040.004c-1.774,1.266-2.938,2.096-4.101,2.926
	c-0.823-1.255-2.321-2.539-2.267-3.754c0.048-1.072,1.828-2.067,2.844-3.097C905.272,1037.18,906.26,1038.279,907.809,1040.004z"/>
<path fill-rule="evenodd" clip-rule="evenodd" d="M174.097,318.744c-0.017,1.507-1.128,2.589-2.631,2.563
	c-1.513-0.025-2.617-1.137-2.603-2.619c0.014-1.462,1.156-2.568,2.654-2.571C172.995,316.113,174.113,317.252,174.097,318.744z"/>
<path fill-rule="evenodd" clip-rule="evenodd" d="M200.392,302.801c-1.46,0.002-2.63-1.183-2.607-2.639
	c0.023-1.422,1.13-2.521,2.563-2.547c1.525-0.026,2.616,1.04,2.628,2.574C202.99,301.703,201.905,302.799,200.392,302.801z"/>
<path fill-rule="evenodd" clip-rule="evenodd" d="M192.063,264.655c0.006,1.53-1.082,2.627-2.607,2.626
	c-1.478-0.001-2.667-1.191-2.629-2.634c0.036-1.406,1.185-2.557,2.576-2.582C190.89,262.039,192.057,263.176,192.063,264.655z"/>
<path fill-rule="evenodd" clip-rule="evenodd" d="M207.596,259.764c0.011-2.803,2.244-5.049,5.018-5.049
	c2.882,0,5.112,2.219,5.111,5.086c0,2.817-2.323,5.098-5.15,5.056C209.789,264.815,207.584,262.561,207.596,259.764z"/>
<path fill-rule="evenodd" clip-rule="evenodd" d="M166.741,272.041c0.032-2.928,2.242-5.141,5.09-5.096
	c2.746,0.042,5.022,2.338,5.042,5.085c0.02,2.791-2.352,5.121-5.16,5.069C168.852,277.047,166.71,274.867,166.741,272.041z"/>
<path fill-rule="evenodd" clip-rule="evenodd" d="M296.795,288.671c21.117-0.019,37.911,16.734,38.512,36.894
	c0.729,24.379-18.401,39.505-36.882,40.184c-22.93,0.842-40.541-17.895-40.177-39.348
	C258.598,305.773,275.863,288.627,296.795,288.671z M299.098,340.096c-0.004,0-0.006,0-0.008,0c0-4.159,0.042-8.318-0.04-12.476
	c-0.015-0.739-0.344-1.687-0.866-2.168c-5.637-5.188-11.337-10.309-17.039-15.427c-0.367-0.331-0.866-0.609-1.346-0.704
	c-1.049-0.209-1.888,0.249-2.368,1.192c-0.615,1.207-0.089,2.157,0.821,2.979c5.14,4.643,10.268,9.299,15.433,13.914
	c0.644,0.575,0.886,1.148,0.884,1.995c-0.029,7.667-0.02,15.335-0.016,23.003c0.001,1.758,0.918,2.87,2.313,2.836
	c1.344-0.033,2.227-1.128,2.229-2.799C299.102,348.326,299.098,344.211,299.098,340.096z M263.281,324.938
	c-0.518,0-1.037-0.026-1.554,0.006c-1.31,0.08-2.271,0.992-2.322,2.169c-0.046,1.077,0.837,2.224,2.011,2.336
	c1.239,0.118,2.509,0.127,3.744-0.006c1.18-0.127,2.025-1.314,1.931-2.394c-0.101-1.146-1.026-2.024-2.255-2.104
	C264.32,324.911,263.801,324.939,263.281,324.938z M330.459,324.935c0,0.003,0,0.007,0,0.011c-0.561,0-1.125-0.043-1.68,0.008
	c-1.295,0.12-2.213,1.066-2.249,2.259c-0.032,1.063,0.88,2.105,2.101,2.236c1.11,0.119,2.238,0.166,3.352,0.115
	c1.162-0.054,2.355-1.281,2.33-2.239c-0.031-1.272-1.072-2.304-2.432-2.386C331.408,324.91,330.933,324.935,330.459,324.935z
	 M294.551,293.639c0.004,0,0.008,0,0.012,0c0,0.561-0.035,1.124,0.008,1.681c0.094,1.224,1.024,2.114,2.182,2.136
	c1.197,0.022,2.262-0.902,2.336-2.136c0.065-1.073,0.059-2.154,0.01-3.229c-0.059-1.281-1.043-2.251-2.205-2.264
	c-1.287-0.015-2.242,0.897-2.336,2.262C294.521,292.603,294.551,293.122,294.551,293.639z M294.578,360.742c-0.01,0-0.019,0-0.027,0
	c0,0.562-0.043,1.126,0.008,1.682c0.115,1.25,1.125,2.197,2.295,2.207c1.073,0.01,2.146-0.932,2.223-2.128
	c0.076-1.2,0.061-2.419-0.059-3.615c-0.115-1.153-1.13-1.951-2.228-1.942c-1.099,0.009-2.052,0.832-2.198,1.988
	C294.516,359.527,294.578,360.139,294.578,360.742z M324.031,352.318c-0.154-0.6-0.139-0.976-0.319-1.165
	c-1.092-1.145-2.142-2.358-3.38-3.323c-0.841-0.654-1.85-0.248-2.551,0.525c-0.707,0.779-0.926,1.788-0.262,2.611
	c0.889,1.099,1.895,2.164,3.045,2.964c0.52,0.361,1.619,0.277,2.252-0.027C323.396,353.623,323.704,352.775,324.031,352.318z
	 M271.736,299.875c-0.574,0.484-1.457,0.883-1.688,1.518c-0.249,0.685-0.131,1.745,0.263,2.365c0.612,0.964,1.556,1.734,2.426,2.512
	c0.907,0.81,2.216,0.713,3.051-0.128c0.797-0.802,0.917-2.077,0.157-2.944c-0.797-0.91-1.668-1.765-2.576-2.565
	C273.004,300.31,272.455,300.196,271.736,299.875z M274.326,347.298c-0.762,0.44-1.367,0.684-1.836,1.086
	c-0.75,0.644-1.424,1.379-2.104,2.1c-0.834,0.884-0.863,2.185-0.098,3.041c0.857,0.959,2.127,1.117,3.123,0.26
	c0.91-0.785,1.873-1.596,2.506-2.59c0.387-0.605,0.452-1.683,0.186-2.36C275.855,348.205,274.976,347.825,274.326,347.298z
	 M319.097,306.965c0.702-0.202,1.213-0.202,1.494-0.456c1.051-0.951,2.149-1.894,2.991-3.019c0.673-0.9,0.488-1.985-0.434-2.785
	c-0.899-0.781-1.91-0.876-2.816-0.11c-0.951,0.804-1.918,1.657-2.609,2.673c-0.385,0.563-0.485,1.604-0.234,2.241
	C317.738,306.141,318.59,306.534,319.097,306.965z"/>
<path fill-rule="evenodd" clip-rule="evenodd" fill="#FFFFFF" d="M-497.902,1041.564c-0.015,6.556-5.191,11.639-11.75,11.537
	c-6.521-0.101-11.561-5.352-11.43-11.91c0.126-6.336,5.11-11.207,11.542-11.281
	C-502.995,1029.834-497.887,1034.949-497.902,1041.564z M-500.13,1041.604c-0.022-5.137-4.56-9.667-9.524-9.506
	c-4.932,0.159-9.154,4.441-9.221,9.352c-0.068,5.019,4.545,9.564,9.584,9.443C-504.306,1050.772-500.109,1046.517-500.13,1041.604z"
	/>
<path fill-rule="evenodd" clip-rule="evenodd" fill="#FFFF36" d="M299.098,340.096c0,4.115,0.004,8.23-0.003,12.346
	c-0.003,1.671-0.886,2.766-2.229,2.799c-1.395,0.034-2.312-1.078-2.313-2.836c-0.004-7.668-0.014-15.336,0.016-23.003
	c0.002-0.847-0.24-1.42-0.884-1.995c-5.165-4.615-10.293-9.271-15.433-13.914c-0.91-0.821-1.437-1.771-0.821-2.979
	c0.48-0.943,1.319-1.401,2.368-1.192c0.479,0.095,0.979,0.373,1.346,0.704c5.702,5.118,11.402,10.238,17.039,15.427
	c0.522,0.481,0.852,1.429,0.866,2.168c0.082,4.157,0.04,8.316,0.04,12.476C299.092,340.096,299.094,340.096,299.098,340.096z"/>
<path fill-rule="evenodd" clip-rule="evenodd" fill="#FFFFFF" d="M263.281,324.938c0.52,0.001,1.039-0.027,1.555,0.007
	c1.229,0.079,2.154,0.958,2.255,2.104c0.095,1.079-0.751,2.267-1.931,2.394c-1.235,0.133-2.505,0.124-3.744,0.006
	c-1.174-0.112-2.057-1.259-2.011-2.336c0.052-1.177,1.013-2.089,2.322-2.169C262.244,324.911,262.764,324.938,263.281,324.938z"/>
<path fill-rule="evenodd" clip-rule="evenodd" fill="#FFFFFF" d="M330.459,324.935c0.474,0,0.949-0.024,1.422,0.004
	c1.359,0.082,2.4,1.113,2.432,2.386c0.025,0.958-1.168,2.186-2.33,2.239c-1.113,0.051-2.241,0.004-3.352-0.115
	c-1.221-0.131-2.133-1.173-2.101-2.236c0.036-1.192,0.954-2.139,2.249-2.259c0.555-0.051,1.119-0.008,1.68-0.008
	C330.459,324.941,330.459,324.938,330.459,324.935z"/>
<path fill-rule="evenodd" clip-rule="evenodd" fill="#FFFFFF" d="M294.551,293.639c0-0.517-0.03-1.036,0.006-1.551
	c0.094-1.364,1.049-2.276,2.336-2.262c1.162,0.013,2.146,0.982,2.205,2.264c0.049,1.075,0.056,2.156-0.01,3.229
	c-0.074,1.233-1.139,2.158-2.336,2.136c-1.157-0.021-2.088-0.912-2.182-2.136c-0.043-0.557-0.008-1.12-0.008-1.681
	C294.559,293.639,294.555,293.639,294.551,293.639z"/>
<path fill-rule="evenodd" clip-rule="evenodd" fill="#FFFFFF" d="M294.578,360.742c0-0.604-0.063-1.215,0.014-1.809
	c0.146-1.156,1.1-1.979,2.198-1.988c1.098-0.009,2.112,0.789,2.228,1.942c0.119,1.196,0.135,2.415,0.059,3.615
	c-0.076,1.196-1.149,2.138-2.223,2.128c-1.17-0.01-2.18-0.957-2.295-2.207c-0.051-0.556-0.008-1.12-0.008-1.682
	C294.56,360.742,294.568,360.742,294.578,360.742z"/>
<path fill-rule="evenodd" clip-rule="evenodd" fill="#FFFFFF" d="M324.031,352.318c-0.327,0.457-0.635,1.305-1.215,1.585
	c-0.633,0.305-1.732,0.389-2.252,0.027c-1.15-0.8-2.156-1.865-3.045-2.964c-0.664-0.823-0.445-1.832,0.262-2.611
	c0.701-0.773,1.71-1.18,2.551-0.525c1.238,0.965,2.288,2.179,3.38,3.323C323.893,351.343,323.877,351.719,324.031,352.318z"/>
<path fill-rule="evenodd" clip-rule="evenodd" fill="#FFFFFF" d="M271.736,299.875c0.719,0.321,1.268,0.435,1.633,0.757
	c0.908,0.801,1.779,1.655,2.576,2.565c0.76,0.867,0.64,2.143-0.157,2.944c-0.835,0.841-2.144,0.938-3.051,0.128
	c-0.87-0.777-1.813-1.548-2.426-2.512c-0.394-0.62-0.512-1.681-0.263-2.365C270.279,300.758,271.162,300.359,271.736,299.875z"/>
<path fill-rule="evenodd" clip-rule="evenodd" fill="#FFFFFF" d="M274.326,347.298c0.649,0.527,1.529,0.907,1.777,1.536
	c0.267,0.678,0.201,1.755-0.186,2.36c-0.633,0.994-1.596,1.805-2.506,2.59c-0.996,0.857-2.266,0.699-3.123-0.26
	c-0.766-0.856-0.736-2.157,0.098-3.041c0.68-0.721,1.354-1.456,2.104-2.1C272.959,347.981,273.564,347.738,274.326,347.298z"/>
<path fill-rule="evenodd" clip-rule="evenodd" fill="#FFFFFF" d="M319.097,306.965c-0.507-0.431-1.358-0.824-1.608-1.456
	c-0.251-0.637-0.15-1.678,0.234-2.241c0.691-1.016,1.658-1.869,2.609-2.673c0.906-0.766,1.917-0.671,2.816,0.11
	c0.922,0.8,1.106,1.885,0.434,2.785c-0.842,1.125-1.94,2.067-2.991,3.019C320.31,306.763,319.799,306.763,319.097,306.965z"/>
<path fill-rule="evenodd" clip-rule="evenodd" d="M-500.13,1041.604c0.021,4.913-4.176,9.169-9.16,9.289
	c-5.039,0.121-9.653-4.425-9.584-9.443c0.067-4.91,4.289-9.192,9.221-9.352C-504.69,1031.937-500.152,1036.467-500.13,1041.604z
	 M-501.907,1041.399c-0.083-4.143-3.623-7.614-7.674-7.526c-4.137,0.09-7.601,3.637-7.527,7.708c0.074,4.09,3.591,7.518,7.728,7.531
	C-505.337,1049.125-501.825,1045.501-501.907,1041.399z"/>
<path fill-rule="evenodd" clip-rule="evenodd" fill="#FFFFFF" d="M-501.907,1041.399c0.082,4.102-3.43,7.726-7.473,7.713
	c-4.136-0.014-7.654-3.441-7.728-7.531c-0.074-4.071,3.39-7.618,7.527-7.708C-505.53,1033.785-501.99,1037.257-501.907,1041.399z"/>
<path fill-rule="evenodd" clip-rule="evenodd" fill="#5D5D5D" d="M270.691,138.363c-0.568,0.49-1.494,1.096-2.162,1.911
	c-1.041,1.271-2.017,2.416-3.809,1.316c-1.655-1.019-1.727-2.337-0.748-3.903c1.15-1.843,0.574-3.284-1.006-4.635
	c-1.404-1.199-2.728-2.528-3.894-3.959c-1.339-1.642-2.769-2.132-4.608-0.979c-1.543,0.966-2.855,0.924-3.928-0.715
	c-1.21-1.848,0.001-2.938,1.323-3.757c2.044-1.267,2.321-2.814,1.481-4.938c-0.588-1.486-1.027-3.081-1.221-4.664
	c-0.278-2.266-1.49-3.297-3.647-3.372c-1.695-0.06-3.112-0.532-3.16-2.495c-0.052-2.1,1.417-2.658,3.208-2.694
	c2.197-0.046,3.344-1.102,3.672-3.331c0.244-1.661,0.721-3.327,1.359-4.88c0.868-2.105,0.303-3.475-1.514-4.728
	c-0.842-0.58-1.737-1.62-1.883-2.564c-0.292-1.899,2.054-3.227,3.898-2.144c2.43,1.427,4.211,1.023,5.804-1.202
	c0.558-0.778,1.247-1.52,2.02-2.075c2.646-1.904,3.789-4.003,1.743-7.137c-0.339-0.521,0.321-2.185,0.996-2.725
	c0.584-0.466,1.888-0.25,2.789-0.015c0.503,0.133,0.895,0.883,1.233,1.421c1.17,1.856,2.631,2.352,4.73,1.465
	c1.545-0.652,3.22-1.102,4.88-1.348c2.16-0.319,3.102-1.499,3.168-3.554c0.057-1.759,0.488-3.304,2.613-3.297
	c2.123,0.008,2.516,1.552,2.6,3.313c0.098,2.048,1.108,3.226,3.269,3.475c1.429,0.163,2.905,0.47,4.208,1.052
	c2.555,1.14,4.355,0.769,5.893-1.738c1.188-1.936,3.198-1.903,4.27-0.058c0.39,0.673,0.402,1.953,0.011,2.618
	c-1.399,2.374-0.784,4.013,1.29,5.572c1.274,0.96,2.386,2.178,3.425,3.401c1.343,1.583,2.786,2.132,4.637,0.948
	c1.523-0.976,2.884-0.968,3.933,0.681c1.126,1.771,0.124,2.876-1.283,3.781c-1.747,1.123-2.269,2.472-1.425,4.514
	c0.732,1.772,1.19,3.686,1.549,5.577c0.358,1.882,1.358,2.887,3.218,2.983c1.706,0.087,3.084,0.588,3.115,2.546
	c0.029,1.938-1.282,2.555-3.016,2.644c-1.994,0.103-2.974,1.184-3.277,3.18c-0.265,1.74-0.677,3.51-1.357,5.125
	c-0.922,2.188-0.372,3.612,1.495,4.95c1.981,1.418,1.992,3.408,0.033,4.417c-0.736,0.379-2.04,0.205-2.841-0.201
	c-1.771-0.897-3.005-0.5-4.255,0.894c-1.397,1.558-2.879,3.052-4.437,4.448c-1.39,1.245-1.939,2.53-0.89,4.229
	c0.982,1.594,0.704,2.93-0.906,3.903c-1.7,1.028-2.732-0.014-3.577-1.31c-1.105-1.695-2.455-2.021-4.355-1.295
	c-1.794,0.688-3.695,1.179-5.594,1.487c-2.002,0.327-3.044,1.334-3.145,3.315c-0.088,1.745-0.751,3.019-2.684,2.973
	c-1.799-0.044-2.412-1.273-2.479-2.917c-0.086-2.095-1.204-3.087-3.287-3.474C275.804,139.963,273.51,139.15,270.691,138.363z
	 M284.404,90.164c-10.047-0.057-18.236,8.009-18.293,18.018c-0.057,10.044,8.013,18.237,18.018,18.294
	c10.046,0.057,18.236-8.01,18.294-18.018C302.479,98.413,294.412,90.221,284.404,90.164z"/>
<path fill-rule="evenodd" clip-rule="evenodd" fill="#5D5D5D" d="M330.488,165.978c-0.348,0.301-0.914,0.671-1.323,1.17
	c-0.637,0.778-1.233,1.478-2.329,0.806c-1.014-0.624-1.057-1.431-0.459-2.389c0.705-1.128,0.352-2.01-0.615-2.836
	c-0.858-0.735-1.669-1.548-2.383-2.424c-0.819-1.004-1.693-1.304-2.819-0.599c-0.944,0.591-1.748,0.565-2.404-0.438
	c-0.739-1.131,0.002-1.797,0.811-2.298c1.25-0.776,1.421-1.724,0.906-3.022c-0.359-0.911-0.629-1.886-0.747-2.854
	c-0.17-1.386-0.911-2.018-2.231-2.063c-1.038-0.036-1.904-0.325-1.935-1.526c-0.031-1.285,0.867-1.627,1.963-1.648
	c1.345-0.029,2.047-0.674,2.248-2.039c0.149-1.016,0.44-2.035,0.831-2.985c0.531-1.288,0.186-2.127-0.926-2.893
	c-0.515-0.356-1.063-0.992-1.152-1.569c-0.179-1.163,1.256-1.977,2.386-1.313c1.486,0.874,2.577,0.626,3.551-0.735
	c0.341-0.477,0.763-0.929,1.236-1.27c1.619-1.166,2.318-2.45,1.066-4.367c-0.207-0.318,0.196-1.338,0.609-1.668
	c0.357-0.285,1.155-0.152,1.707-0.009c0.308,0.081,0.548,0.541,0.755,0.869c0.716,1.138,1.609,1.439,2.895,0.897
	c0.944-0.399,1.97-0.674,2.986-0.825c1.321-0.195,1.897-0.917,1.938-2.175c0.036-1.075,0.3-2.021,1.599-2.017
	c1.302,0.004,1.54,0.948,1.592,2.027c0.06,1.253,0.679,1.973,2,2.126c0.874,0.101,1.777,0.287,2.575,0.643
	c1.563,0.699,2.665,0.471,3.606-1.063c0.728-1.184,1.956-1.164,2.611-0.035c0.24,0.411,0.246,1.195,0.008,1.602
	c-0.855,1.453-0.479,2.456,0.788,3.411c0.779,0.587,1.461,1.332,2.097,2.081c0.822,0.969,1.706,1.305,2.836,0.579
	c0.933-0.596,1.766-0.591,2.407,0.417c0.689,1.085,0.076,1.761-0.785,2.313c-1.068,0.688-1.388,1.514-0.873,2.763
	c0.449,1.085,0.73,2.256,0.949,3.413c0.219,1.151,0.831,1.766,1.97,1.825c1.042,0.054,1.886,0.359,1.905,1.558
	c0.019,1.188-0.784,1.563-1.846,1.618c-1.22,0.063-1.82,0.725-2.005,1.945c-0.162,1.065-0.414,2.148-0.83,3.137
	c-0.565,1.339-0.229,2.21,0.914,3.029c1.213,0.866,1.22,2.086,0.021,2.703c-0.452,0.23-1.25,0.125-1.739-0.124
	c-1.085-0.549-1.84-0.306-2.604,0.547c-0.855,0.952-1.762,1.867-2.714,2.722c-0.852,0.763-1.188,1.548-0.546,2.589
	c0.601,0.975,0.431,1.792-0.555,2.389c-1.039,0.629-1.672-0.01-2.188-0.803c-0.677-1.036-1.502-1.236-2.665-0.791
	c-1.099,0.42-2.261,0.721-3.423,0.909c-1.226,0.2-1.862,0.817-1.925,2.029c-0.054,1.067-0.459,1.847-1.642,1.818
	c-1.1-0.026-1.476-0.778-1.518-1.785c-0.052-1.282-0.736-1.889-2.011-2.126C333.616,166.957,332.214,166.458,330.488,165.978z
	 M338.879,136.483c-6.146-0.033-11.158,4.9-11.193,11.025c-0.035,6.146,4.904,11.159,11.025,11.194
	c6.147,0.035,11.16-4.901,11.195-11.024C349.939,141.53,345.004,136.519,338.879,136.483z"/>
<path fill-rule="evenodd" clip-rule="evenodd" fill="#5D5D5D" d="M348.188,111.118c-0.703,0.607-1.849,1.357-2.678,2.367
	c-1.286,1.574-2.495,2.991-4.714,1.629c-2.049-1.261-2.138-2.893-0.926-4.833c1.424-2.281,0.711-4.066-1.245-5.738
	c-1.739-1.485-3.379-3.131-4.823-4.901c-1.658-2.033-3.428-2.641-5.705-1.214c-1.911,1.195-3.536,1.145-4.864-0.886
	c-1.498-2.288,0.002-3.638,1.64-4.65c2.529-1.569,2.874-3.485,1.834-6.115c-0.729-1.842-1.272-3.814-1.512-5.774
	c-0.345-2.808-1.846-4.083-4.517-4.177c-2.1-0.073-3.853-0.658-3.913-3.09c-0.064-2.6,1.755-3.29,3.972-3.336
	c2.722-0.057,4.143-1.364,4.548-4.124c0.303-2.057,0.892-4.12,1.684-6.042c1.074-2.607,0.374-4.304-1.874-5.854
	c-1.043-0.72-2.152-2.006-2.333-3.175c-0.361-2.353,2.544-3.996,4.827-2.654c3.01,1.766,5.215,1.267,7.188-1.49
	c0.689-0.963,1.542-1.88,2.5-2.568c3.276-2.358,4.692-4.956,2.159-8.837c-0.42-0.646,0.397-2.705,1.231-3.374
	c0.725-0.576,2.338-0.311,3.454-0.019c0.623,0.165,1.109,1.094,1.527,1.76c1.449,2.299,3.258,2.911,5.859,1.814
	c1.911-0.809,3.985-1.365,6.042-1.669c2.674-0.396,3.84-1.856,3.922-4.4c0.07-2.178,0.604-4.091,3.235-4.082
	c2.63,0.009,3.114,1.921,3.222,4.102c0.119,2.536,1.37,3.994,4.046,4.303c1.769,0.203,3.598,0.581,5.211,1.302
	c3.161,1.412,5.391,0.952,7.295-2.151c1.47-2.397,3.961-2.357,5.287-0.071c0.483,0.832,0.498,2.419,0.013,3.241
	c-1.733,2.941-0.971,4.969,1.598,6.9c1.577,1.188,2.954,2.697,4.241,4.211c1.664,1.961,3.45,2.641,5.741,1.174
	c1.887-1.207,3.57-1.198,4.869,0.844c1.395,2.194,0.153,3.562-1.589,4.682c-2.164,1.391-2.81,3.062-1.765,5.59
	c0.907,2.194,1.476,4.563,1.919,6.906c0.443,2.328,1.681,3.574,3.983,3.693c2.114,0.108,3.819,0.729,3.857,3.152
	c0.037,2.4-1.588,3.163-3.733,3.272c-2.469,0.127-3.683,1.468-4.059,3.938c-0.327,2.154-0.837,4.346-1.681,6.346
	c-1.142,2.71-0.462,4.473,1.852,6.13c2.451,1.755,2.467,4.22,0.04,5.469c-0.91,0.469-2.525,0.254-3.518-0.249
	c-2.192-1.111-3.72-0.619-5.269,1.106c-1.73,1.928-3.563,3.778-5.492,5.509c-1.721,1.541-2.402,3.132-1.104,5.236
	c1.217,1.975,0.873,3.628-1.121,4.834c-2.106,1.272-3.384-0.019-4.429-1.623c-1.369-2.099-3.039-2.503-5.393-1.602
	c-2.224,0.851-4.577,1.458-6.929,1.84c-2.479,0.404-3.767,1.651-3.892,4.105c-0.11,2.161-0.931,3.738-3.324,3.682
	c-2.228-0.055-2.987-1.577-3.069-3.612c-0.105-2.595-1.49-3.822-4.068-4.302C354.52,113.099,351.679,112.092,348.188,111.118z
	 M365.169,51.436c-12.439-0.068-22.579,9.918-22.651,22.311c-0.068,12.438,9.922,22.584,22.312,22.652
	c12.438,0.07,22.581-9.917,22.651-22.31C387.551,61.649,377.562,51.506,365.169,51.436z"/>
</svg>
