<svg width="140" height="140" viewBox="0 0 140 140" fill="none" xmlns="http://www.w3.org/2000/svg">
<circle cx="70" cy="70" r="67.5" stroke="#F7931A" stroke-width="5"/>
<path d="M72.6102 19.1198C72.25 19.2312 72.098 19.6609 70.3691 25.3578C69.4086 28.5085 68.6163 31.1023 68.5922 31.1183C68.5762 31.1421 65.2866 30.1714 61.2767 28.978C57.2747 27.7765 53.9931 26.8058 53.9931 26.8058C53.9051 26.9013 50.5275 38.2791 50.5755 38.3189C50.6075 38.3587 51.4479 38.6213 52.4404 38.9156C55.842 39.9261 56.4663 40.2285 56.8505 41.0639C57.1147 41.6288 56.9946 42.5836 56.4423 44.5011C55.5939 47.3893 44.5085 83.8699 44.1483 84.952C43.5721 86.6627 43.2359 87.2912 42.7156 87.6095C42.0113 88.0391 41.2669 87.9357 37.8493 86.9173C36.8088 86.607 35.9363 86.3683 35.9283 86.3842C35.9123 86.4001 35.136 88.9541 34.1915 92.0651C33.255 95.1682 32.4707 97.754 32.4547 97.7938C32.4386 97.8415 35.5201 98.8043 39.7142 100.061C44.2364 101.406 46.9977 102.273 46.9977 102.337C46.9977 102.385 46.2374 104.923 45.3169 107.97C44.1083 111.948 43.6361 113.619 43.6361 113.898C43.6361 114.574 43.6841 114.598 47.9742 115.879C52.0322 117.096 52.1042 117.112 52.5444 116.706C52.8006 116.468 52.7045 116.746 54.7615 109.967C55.5539 107.342 56.2182 105.154 56.2342 105.106C56.2582 105.042 57.0026 105.233 58.4193 105.655C59.5959 106.005 60.5723 106.299 60.5803 106.299C60.5884 106.307 59.812 108.909 58.8515 112.084C57.1947 117.534 57.1067 117.852 57.2187 118.051C57.5469 118.608 57.4268 118.56 61.4528 119.762C63.5578 120.39 65.3667 120.907 65.4627 120.907C65.5588 120.907 65.7909 120.844 65.983 120.756L66.3271 120.605L68.088 114.781L69.8489 108.957L70.089 109.005C70.217 109.028 70.9454 109.172 71.6898 109.323C74.6832 109.927 76.5321 110.126 79.1734 110.126C80.7102 110.118 81.4385 110.087 82.1348 109.983C87.7216 109.124 92.1957 106.633 95.5494 102.504C98.6149 98.7247 100.352 93.6007 100.2 88.803C100.144 87.156 99.9995 86.1296 99.6154 84.6417C98.6309 80.8226 96.6699 77.9662 93.1482 75.2371L92.6039 74.8075L93.3483 74.6563C94.4929 74.4255 96.3898 73.7811 97.4623 73.248C99.3192 72.3409 100.752 71.3066 102.313 69.7551C106.251 65.8405 108.26 60.1595 107.627 54.757C107.371 52.6168 106.867 50.8663 105.946 49.0204C103.585 44.2385 99.5273 41.0082 92.772 38.5178C92.0917 38.2712 91.5314 38.0563 91.5234 38.0484C91.5154 38.0404 92.3078 35.383 93.2923 32.1526L95.0771 26.2648L94.8931 25.8908C94.789 25.684 94.6689 25.501 94.6289 25.4771C94.5889 25.4453 92.78 24.8963 90.603 24.2438L86.657 23.0583L86.2649 23.2731L85.8727 23.488L84.1038 29.3281C83.1273 32.5345 82.2949 35.1761 82.2389 35.192C82.1669 35.2159 77.9088 33.9826 77.8448 33.919C77.8287 33.911 78.6051 31.3172 79.5656 28.1664C81.0703 23.2015 81.3024 22.39 81.2624 22.0717C81.1824 21.4272 81.1344 21.4034 76.9883 20.1701C73.6187 19.1676 72.9704 19.0085 72.6102 19.1198ZM77.7407 48.2168C85.1363 50.4287 87.2093 51.3596 88.586 53.0703C89.6185 54.3513 90.0587 56.0619 89.8266 57.8521C89.3383 61.5201 87.3774 63.9946 84.3359 64.7902C83.6636 64.9653 83.3514 64.9971 82.375 65.005C80.1419 65.0209 78.4931 64.6629 72.5302 62.8727C70.6252 62.2998 69.7688 62.0134 69.7768 61.9418C69.7848 61.8781 70.7853 58.5284 72.0099 54.4945C73.3786 49.9831 74.267 47.1745 74.323 47.1904C74.3711 47.2063 75.9078 47.6678 77.7407 48.2168ZM70.3131 75.444C74.6032 76.7329 75.8358 77.1546 77.3965 77.9025C78.8212 78.5868 79.7017 79.1756 80.486 79.9553C82.2389 81.7057 82.8872 83.8381 82.487 86.5194C82.2389 88.1983 81.5105 90.0999 80.6141 91.4366C80.0858 92.2163 79.0053 93.2904 78.2049 93.8315C75.9318 95.375 74.0669 95.6217 70.3691 94.8897C69.0965 94.6351 68.4322 94.4521 64.7184 93.3302C61.7329 92.4311 61.1646 92.2163 61.0206 91.9219C60.8205 91.5082 61.0606 90.617 63.918 81.1647C65.0465 77.4411 65.991 74.3539 66.007 74.2903C66.055 74.155 65.7349 74.0675 70.3131 75.444Z" fill="#F7931A"/>
</svg>
