<svg width="140" height="140" viewBox="0 0 140 140" fill="none" xmlns="http://www.w3.org/2000/svg">
<circle cx="70" cy="70" r="67.5" stroke="#8DC351" stroke-width="5"/>
<path d="M43.0892 26.5877C42.858 26.8855 42.9799 27.3247 44.8313 32.9829C45.8517 36.1148 46.6904 38.694 46.6799 38.7208C46.6805 38.7496 43.429 39.8413 39.4597 41.1636C35.4924 42.4749 32.2475 43.562 32.2475 43.562C32.2301 43.6907 35.9894 54.9482 36.0515 54.9533C36.1006 54.9675 36.9396 54.7005 37.9214 54.3724C41.2875 53.249 41.9723 53.1386 42.7662 53.6026C43.3066 53.9139 43.7559 54.7648 44.4033 56.6523C45.365 59.5049 57.2087 95.7463 57.5344 96.8393C58.0435 98.5711 58.1287 99.2788 57.885 99.838C57.5545 100.594 56.8854 100.936 53.5017 102.062C52.4714 102.405 51.6198 102.71 51.6224 102.727C51.6184 102.749 52.4474 105.287 53.4581 108.377C54.4708 111.456 55.3115 114.024 55.3212 114.066C55.3355 114.114 58.4119 113.135 62.5685 111.76C67.0442 110.267 69.8036 109.394 69.8401 109.446C69.8674 109.485 70.7004 112 71.6943 115.024C72.9861 118.976 73.5576 120.616 73.7174 120.844C74.1053 121.398 74.1583 121.39 78.4073 119.979C82.4296 118.648 82.4978 118.62 82.6256 118.035C82.6985 117.693 82.7796 117.976 80.5763 111.243C79.7194 108.638 79.0086 106.464 78.9943 106.416C78.9775 106.35 79.6967 106.08 81.0991 105.613C82.2637 105.225 83.2324 104.906 83.239 104.901C83.2501 104.903 84.1065 107.479 85.1406 110.631C86.9095 116.046 87.02 116.357 87.2258 116.456C87.8141 116.724 87.6884 116.753 91.6754 115.428C93.7602 114.736 95.5386 114.122 95.6173 114.067C95.696 114.012 95.8496 113.827 95.9568 113.645L96.152 113.323L94.2538 107.543L92.3556 101.762L92.5797 101.663C92.6982 101.609 93.377 101.309 94.0735 101.006C96.8724 99.784 98.501 98.8864 100.665 97.3714C101.919 96.4835 102.497 96.0396 103.008 95.5555C107.092 91.6472 109.328 87.0409 109.707 81.7347C110.05 76.8805 108.534 71.687 105.658 67.8441C104.667 66.5271 103.96 65.769 102.792 64.7706C99.7953 62.2068 96.5506 60.9917 92.1005 60.7762L91.4082 60.7364L91.9312 60.1856C92.7365 59.3401 93.9207 57.7242 94.4935 56.6723C95.4943 54.8642 96.0746 53.1952 96.4632 51.029C97.4436 45.5637 95.8308 39.7578 92.2141 35.695C90.7767 34.0887 89.3596 32.9441 87.5469 31.9599C82.87 29.3972 77.693 29.0786 70.731 30.9133C70.0322 31.1014 69.4501 31.2468 69.4389 31.2449C69.4278 31.243 68.5526 28.6116 67.5062 25.4008L65.5912 19.554L65.2259 19.3533C65.022 19.2435 64.8187 19.1625 64.7722 19.1659C64.7212 19.1627 62.9246 19.7506 60.767 20.4648L56.8547 21.757L56.6567 22.1579L56.4586 22.5588L58.3594 28.3573C59.3986 31.544 60.2319 34.1853 60.1951 34.2305C60.1498 34.2913 55.9545 35.7234 55.8655 35.708C55.8478 35.7107 54.996 33.1406 53.9756 30.0088C52.3605 25.0787 52.0851 24.2808 51.8698 24.043C51.4346 23.561 51.3815 23.569 47.2779 24.9368C43.9427 26.0484 43.3203 26.2899 43.0892 26.5877ZM63.9812 47.4798C71.308 45.0498 73.5401 44.6233 75.6489 45.2349C77.2295 45.6921 78.5713 46.8408 79.4079 48.4404C81.1119 51.7251 80.9248 54.8768 78.8898 57.2731C78.4394 57.8021 78.202 58.0072 77.4067 58.5738C75.5866 59.8677 74.0306 60.5201 68.1192 62.4739C66.2302 63.0972 65.3644 63.3538 65.3299 63.2905C65.2999 63.2338 64.1982 59.9161 62.8875 55.9092C61.4211 51.4287 60.5378 48.6184 60.5929 48.5993C60.6413 48.5848 62.1649 48.0814 63.9812 47.4798ZM73.5137 74.0433C77.7672 72.6385 79.0188 72.2769 80.7263 71.9944C82.2858 71.7377 83.3447 71.715 84.4345 71.9038C86.8743 72.3323 88.6285 73.7072 89.8386 76.1331C90.5983 77.6507 91.0924 79.6261 91.1248 81.2353C91.1393 82.177 90.8703 83.6766 90.5249 84.5789C89.5483 87.1471 88.1621 88.4188 84.7132 89.9402C83.5247 90.4616 82.8755 90.6927 79.1899 91.9039C76.2286 92.8798 75.6399 93.0297 75.3531 92.8712C74.9518 92.6471 74.6374 91.7794 71.5564 82.3975C70.3451 78.7 69.348 75.6295 69.3246 75.5681C69.2864 75.4298 68.9739 75.5417 73.5137 74.0433Z" fill="#8DC351"/>
</svg>
