<svg width="140" height="140" viewBox="0 0 140 140" fill="none" xmlns="http://www.w3.org/2000/svg">
<path d="M106.59 43.2374C106.59 52.1216 100.047 60.7169 90.4761 61.8655C88.795 62.0709 87.0355 62.0709 85.3471 62.4295C79.8596 63.5637 77.4606 70.3129 81.119 74.583C82.5987 76.3509 84.7085 76.9838 86.9665 77.2093C89.2868 77.4898 91.7483 77.5605 93.9276 78.3492C101.039 80.7629 105.108 85.9372 106.307 93.4127C107.932 103.504 101.174 112.588 91.8198 114.729C81.6113 117.062 71.0629 110.101 69.2393 99.7393C68.3922 95.1852 69.3093 90.9909 71.3509 87.0051C72.1855 85.304 72.8973 83.6707 72.8255 81.6792C72.6797 78.5533 70.7084 75.9935 67.6155 74.9272C64.9417 74.0099 61.9227 74.8546 60.0184 77.2095C58.8251 78.7023 57.8394 80.405 56.6455 81.898C51.7851 87.7982 45.457 89.8571 38.1387 88.2243C30.7516 86.443 25.9741 81.6092 24.1389 74.2196C21.4653 63.7018 28.0841 53.0522 38.6358 51.0565C46.3724 49.5663 52.7032 52.122 57.4876 58.5126C58.4726 59.8689 59.3895 61.4335 60.5824 62.5722C64.4472 66.4769 71.4184 64.5635 72.7483 59.2333C73.2407 57.1695 72.8241 55.1782 71.8419 53.2538C70.0765 49.8474 68.814 46.2226 68.9511 42.3239C69.2377 33.2882 76.3367 25.554 85.1971 24.3359C95.1874 23.0699 104.405 29.6753 106.307 39.7632C106.449 40.8989 106.521 42.1005 106.59 43.2374Z" fill="#019DD6"/>
<circle cx="70" cy="70" r="67.5" stroke="#019DD6" stroke-width="5"/>
</svg>
