<svg width="497" height="73" viewBox="0 0 497 73" fill="none" xmlns="http://www.w3.org/2000/svg">
<g clip-path="url(#clip0)">
<path d="M131.485 71.7607C131.485 48.331 131.485 25.0562 131.485 1.66524C131.992 1.58779 132.421 1.47161 132.851 1.47161C143.187 1.47161 153.523 1.27797 163.859 1.62651C170.256 1.82015 176.224 3.79521 180.28 9.17824C186.404 17.2334 183.869 28.8127 174.976 33.9634C174.196 34.4281 173.416 34.8541 172.323 35.4737C173.221 35.861 173.845 36.1321 174.508 36.3644C182.777 39.5013 186.443 44.226 186.56 51.8552C186.677 60.0652 182.582 66.6101 174.859 69.5146C171.504 70.7538 167.838 71.6445 164.288 71.7607C153.835 72.0705 143.343 71.9156 132.89 71.9156C132.499 71.9156 132.109 71.8382 131.485 71.7607ZM139.247 65.061C140.027 65.061 140.652 65.061 141.276 65.061C148.335 65.061 155.434 65.1772 162.494 64.9835C165.186 64.9061 167.916 64.4801 170.529 63.7443C176.107 62.1565 179.539 57.7029 179.656 52.3199C179.773 47.053 176.887 43.1029 171.036 41.3215C167.916 40.392 164.561 39.8886 161.285 39.7724C154.615 39.54 147.906 39.7337 141.237 39.6562C139.52 39.6175 139.013 40.1597 139.013 41.8636C139.091 48.8732 139.052 55.9215 139.052 62.931C139.091 63.5894 139.169 64.209 139.247 65.061ZM139.091 20.4865C139.091 23.9719 139.13 27.4573 139.052 30.9427C139.013 32.3756 139.364 32.9952 141.003 32.9565C147.438 32.8403 153.874 32.9952 160.271 32.8403C162.572 32.7629 164.952 32.3756 167.097 31.6398C175.483 28.8127 178.486 18.705 172.753 12.6636C169.671 9.4106 165.498 8.44243 161.246 8.36498C154.42 8.21007 147.633 8.36498 140.808 8.28752C139.403 8.28752 139.013 8.79097 139.052 10.069C139.13 13.5544 139.091 17.0398 139.091 20.4865Z" fill="white"/>
<path d="M280.172 71.7607C277.481 71.7607 275.101 71.7607 272.449 71.7607C272.449 70.87 272.449 70.1342 272.449 69.3597C272.449 47.5565 272.449 25.7533 272.449 3.95013C272.449 1.39417 272.449 1.39417 274.945 1.39417C284.618 1.43289 294.331 1.31671 304.004 1.54907C309.426 1.70398 314.652 3.21432 319.255 6.27374C329.006 12.7798 330.254 27.2637 321.634 35.8997C319.255 38.3008 316.368 40.1984 313.482 42.4833C317.812 51.9714 322.297 61.7305 326.9 71.8382C324.091 71.8382 321.595 71.9156 319.138 71.7607C318.67 71.722 318.124 70.87 317.851 70.2891C314.145 62.2727 310.479 54.2175 306.89 46.1623C306.266 44.8069 305.564 44.2647 304.004 44.2647C296.866 44.3422 289.689 44.3809 282.551 44.2647C280.718 44.226 280.094 44.7294 280.133 46.6271C280.25 54.2562 280.172 61.8467 280.172 69.4759C280.172 70.2117 280.172 70.9088 280.172 71.7607ZM280.172 22.8875C280.172 27.1475 280.211 31.4074 280.133 35.6674C280.094 37.1003 280.562 37.565 282.005 37.5263C288.246 37.4488 294.487 37.6424 300.727 37.4488C305.876 37.2939 310.752 36.0546 314.769 32.5692C321.79 26.5279 320.893 15.9554 312.741 11.5406C310.089 10.1077 306.929 9.02334 303.926 8.82971C296.554 8.36499 289.143 8.51989 281.732 8.36499C280.406 8.32626 280.094 8.94589 280.094 10.1077C280.211 14.3676 280.172 18.6276 280.172 22.8875Z" fill="white"/>
<path d="M246.55 32.879C246.55 35.2801 246.55 37.3326 246.55 39.6562C245.692 39.695 244.873 39.7724 244.093 39.7724C233.756 39.7724 223.42 39.7724 213.084 39.7724C210.353 39.7724 210.353 39.7724 210.353 42.5607C210.353 49.1443 210.353 55.7278 210.353 62.3114C210.353 64.9835 210.353 64.9836 213.162 64.9836C225.955 64.9836 238.749 64.9836 251.582 64.9836C252.44 64.9836 253.259 64.9836 254.273 64.9836C254.273 67.2684 254.273 69.3984 254.273 71.722C237.189 71.722 220.066 71.722 202.825 71.722C202.825 48.3698 202.825 25.0175 202.825 1.5878C219.832 1.5878 236.76 1.5878 253.844 1.5878C253.844 3.7565 253.844 5.9252 253.844 8.36499C253.103 8.36499 252.323 8.36499 251.582 8.36499C238.632 8.36499 225.721 8.40371 212.772 8.32626C210.743 8.32626 210.275 8.94589 210.314 10.8435C210.431 17.5432 210.392 24.2817 210.314 30.9814C210.314 32.4918 210.782 32.9565 212.304 32.9565C222.913 32.879 233.483 32.9178 244.093 32.9178C244.873 32.879 245.614 32.879 246.55 32.879Z" fill="white"/>
<path d="M49.6531 71.9931C50.0041 71.0637 50.1991 70.4828 50.4722 69.9406C60.1844 47.7114 69.9356 25.521 79.6088 3.29178C80.2719 1.82016 81.091 1.35544 82.6512 1.35544C88.1899 1.43289 88.1899 1.35544 90.4132 6.42865C99.6573 27.5348 108.901 48.6021 118.107 69.6695C118.38 70.3279 118.614 70.9475 119.004 71.9157C116.273 71.9157 113.777 71.9931 111.281 71.8382C110.852 71.7995 110.306 70.9088 110.033 70.3279C107.731 65.2934 105.43 60.2202 103.246 55.147C102.661 53.7915 101.959 53.2106 100.398 53.2106C89.5551 53.2881 78.6727 53.2881 67.8293 53.2106C66.3472 53.2106 65.6451 53.6753 65.06 54.9921C62.8367 60.1427 60.4184 65.2159 58.1951 70.3666C57.6881 71.5284 57.025 72.0706 55.6988 71.9931C53.8266 71.9157 51.9154 71.9931 49.6531 71.9931ZM99.3453 46.3172C94.3136 34.157 89.399 22.2292 84.2114 9.75915C79.0237 22.2679 74.0311 34.157 68.9995 46.3172C79.1798 46.3172 89.048 46.3172 99.3453 46.3172Z" fill="white"/>
<path d="M490.837 53.7915C492.709 55.0695 494.582 56.3088 496.415 57.5867C490.174 67.6557 475.508 75.0912 460.608 72.4966C443.017 69.3984 430.38 55.2244 429.795 37.8361C429.209 20.9512 440.17 5.96392 456.864 1.35544C472.817 -3.05942 489.16 3.98886 496.961 16.0329C495.05 17.3109 493.1 18.5501 491.188 19.8281C478.863 3.64032 458.229 4.18249 446.528 15.026C434.553 26.0631 433.89 44.5358 444.811 56.4249C455.499 67.9268 477.381 70.7538 490.837 53.7915Z" fill="white"/>
<path d="M0 1.51035C0.858107 1.47162 1.5992 1.39417 2.3793 1.39417C18.3713 1.39417 34.3633 1.39417 50.3553 1.39417C52.9296 1.39417 52.9296 1.39417 52.9296 3.91141C52.9296 8.36499 52.9296 8.36499 48.405 8.36499C35.6114 8.36499 22.7788 8.40371 9.98525 8.32626C8.11301 8.32626 7.52794 8.86844 7.56695 10.7273C7.68396 17.7756 7.68396 24.7851 7.56695 31.8334C7.52794 33.6536 8.15202 34.0796 9.90724 34.0796C19.3464 34.0021 28.7466 34.0409 38.1858 34.0409C38.8879 34.0409 39.5899 34.0409 40.5651 34.0409C40.5651 36.0934 40.6431 38.0297 40.4871 39.9273C40.4481 40.3533 39.4729 40.9729 38.8879 40.9729C35.3774 41.0891 31.867 41.0117 28.3565 41.0117C22.3108 41.0117 16.265 41.0117 10.2193 41.0117C7.60595 41.0117 7.60595 41.0117 7.60595 43.5289C7.60595 52.2424 7.56695 60.956 7.64495 69.6695C7.68396 71.4897 7.05988 72.0318 5.34367 71.9157C3.62745 71.7995 1.87223 71.8769 0.0390049 71.8769C0 48.3698 0 25.095 0 1.51035Z" fill="white"/>
<path d="M390.556 71.7995C375.461 71.7995 360.717 71.7995 345.778 71.7995C345.778 48.3698 345.778 25.0175 345.778 1.43289C347.728 1.43289 349.601 1.43289 351.473 1.43289C352.058 1.43289 352.604 1.51035 353.423 1.5878C353.423 2.43979 353.423 3.21432 353.423 3.95013C353.423 23.5072 353.462 43.0642 353.384 62.6212C353.384 64.4027 353.852 64.9448 355.646 64.9448C366.49 64.8674 377.372 64.9448 388.215 64.8674C390.088 64.8674 390.79 65.3708 390.595 67.2297C390.439 68.6626 390.556 70.1342 390.556 71.7995Z" fill="white"/>
<path d="M407.601 1.23926C410.253 1.23926 412.75 1.23926 415.363 1.23926C415.363 24.7464 415.363 48.1374 415.363 71.6446C412.789 71.6446 410.253 71.6446 407.601 71.6446C407.601 48.2149 407.601 24.8239 407.601 1.23926Z" fill="white"/>
</g>
<defs>
<clipPath id="clip0">
<rect width="497" height="73" fill="white"/>
</clipPath>
</defs>
</svg>
