<svg width="226" height="33" viewBox="0 0 226 33" fill="none" xmlns="http://www.w3.org/2000/svg">
<g clip-path="url(#clip0)">
<path d="M59.79 32.4398C59.79 21.8483 59.79 11.3268 59.79 0.752833C60.0206 0.71782 60.2157 0.6653 60.4108 0.6653C65.111 0.6653 69.8112 0.577767 74.5114 0.735326C77.4203 0.822859 80.134 1.7157 81.9786 4.14912C84.7632 7.7905 83.6103 13.025 79.5664 15.3534C79.2117 15.5634 78.8569 15.756 78.3603 16.0361C78.7682 16.2112 79.052 16.3337 79.3535 16.4388C83.1137 17.8568 84.781 19.9926 84.8342 23.4414C84.8874 27.1528 83.025 30.1114 79.5132 31.4244C77.9878 31.9847 76.3206 32.3873 74.7065 32.4398C69.9531 32.5799 65.182 32.5099 60.4286 32.5099C60.2512 32.5099 60.0738 32.4748 59.79 32.4398ZM63.3196 29.4112C63.6744 29.4112 63.9581 29.4112 64.2419 29.4112C67.4523 29.4112 70.6803 29.4637 73.8907 29.3762C75.1145 29.3412 76.3561 29.1486 77.5444 28.816C80.0807 28.0982 81.6416 26.0849 81.6948 23.6515C81.748 21.2706 80.4355 19.4849 77.775 18.6796C76.3561 18.2595 74.8307 18.0319 73.3408 17.9794C70.3079 17.8743 67.2572 17.9618 64.2242 17.9268C63.4438 17.9093 63.2132 18.1544 63.2132 18.9247C63.2487 22.0934 63.2309 25.2796 63.2309 28.4483C63.2487 28.7459 63.2842 29.026 63.3196 29.4112ZM63.2487 9.26105C63.2487 10.8367 63.2664 12.4122 63.2309 13.9878C63.2132 14.6356 63.3728 14.9157 64.1178 14.8982C67.0443 14.8457 69.9709 14.9157 72.8797 14.8457C73.9261 14.8107 75.0081 14.6356 75.9836 14.303C79.797 13.025 81.1627 8.45575 78.5554 5.72472C77.1542 4.25416 75.2564 3.81649 73.3231 3.78148C70.2192 3.71145 67.133 3.78148 64.0291 3.74647C63.3906 3.74647 63.2132 3.97405 63.2309 4.55177C63.2664 6.12737 63.2487 7.70296 63.2487 9.26105Z" fill="#EE1E5B"/>
<path d="M127.402 32.4398C126.178 32.4398 125.096 32.4398 123.89 32.4398C123.89 32.0371 123.89 31.7045 123.89 31.3544C123.89 21.4981 123.89 11.6419 123.89 1.78569C123.89 0.630249 123.89 0.630249 125.025 0.630249C129.424 0.647756 133.84 0.595236 138.239 0.700276C140.704 0.770302 143.081 1.45306 145.174 2.83608C149.608 5.7772 150.176 12.3247 146.256 16.2287C145.174 17.3141 143.862 18.1719 142.549 19.2048C144.518 23.4939 146.558 27.9056 148.65 32.4748C147.373 32.4748 146.238 32.5098 145.121 32.4398C144.908 32.4223 144.66 32.0371 144.536 31.7745C142.851 28.1507 141.183 24.5093 139.552 20.8679C139.268 20.2552 138.949 20.0101 138.239 20.0101C134.993 20.0451 131.73 20.0626 128.484 20.0101C127.65 19.9926 127.367 20.2202 127.384 21.078C127.437 24.5268 127.402 27.9581 127.402 31.4069C127.402 31.7395 127.402 32.0546 127.402 32.4398ZM127.402 10.3464C127.402 12.2722 127.42 14.1979 127.384 16.1236C127.367 16.7714 127.579 16.9814 128.236 16.9639C131.073 16.9289 133.911 17.0165 136.749 16.9289C139.09 16.8589 141.307 16.2987 143.134 14.7231C146.327 11.9921 145.919 7.21274 142.212 5.21699C141.006 4.56924 139.569 4.07905 138.204 3.99152C134.851 3.78144 131.481 3.85147 128.111 3.78144C127.508 3.76394 127.367 4.04404 127.367 4.56924C127.42 6.49497 127.402 8.4207 127.402 10.3464Z" fill="#EE1E5B"/>
<path d="M112.113 14.8632C112.113 15.9486 112.113 16.8765 112.113 17.9269C111.723 17.9444 111.351 17.9794 110.996 17.9794C106.296 17.9794 101.595 17.9794 96.8952 17.9794C95.6536 17.9794 95.6536 17.9794 95.6536 19.2398C95.6536 22.216 95.6536 25.1921 95.6536 28.1682C95.6536 29.3762 95.6536 29.3762 96.9307 29.3762C102.748 29.3762 108.566 29.3762 114.401 29.3762C114.791 29.3762 115.164 29.3762 115.625 29.3762C115.625 30.4091 115.625 31.3719 115.625 32.4223C107.856 32.4223 100.07 32.4223 92.2305 32.4223C92.2305 21.8658 92.2305 11.3093 92.2305 0.717834C99.9636 0.717834 107.661 0.717834 115.43 0.717834C115.43 1.69821 115.43 2.67858 115.43 3.78149C115.093 3.78149 114.738 3.78149 114.401 3.78149C108.513 3.78149 102.642 3.799 96.7533 3.76399C95.831 3.76399 95.6182 4.04409 95.6359 4.90192C95.6891 7.93057 95.6714 10.9767 95.6359 14.0054C95.6359 14.6881 95.8487 14.8982 96.5405 14.8982C101.365 14.8632 106.171 14.8807 110.996 14.8807C111.351 14.8632 111.688 14.8632 112.113 14.8632Z" fill="#EE1E5B"/>
<path d="M22.5786 32.5449C22.7382 32.1247 22.8269 31.8621 22.9511 31.617C27.3675 21.5682 31.8017 11.5369 36.2003 1.48812C36.5019 0.822873 36.8743 0.612793 37.5838 0.612793C40.1024 0.647806 40.1024 0.612793 41.1134 2.90616C45.317 12.4473 49.5206 21.9709 53.7064 31.4945C53.8306 31.7921 53.937 32.0722 54.1143 32.5099C52.8728 32.5099 51.7376 32.5449 50.6025 32.4749C50.4074 32.4574 50.1591 32.0547 50.0349 31.7921C48.9885 29.5162 47.942 27.2229 46.9487 24.9295C46.6827 24.3168 46.3634 24.0542 45.654 24.0542C40.7232 24.0892 35.7747 24.0892 30.8439 24.0542C30.1699 24.0542 29.8506 24.2643 29.5846 24.8595C28.5736 27.1879 27.4739 29.4812 26.4629 31.8096C26.2324 32.3348 25.9308 32.5799 25.3278 32.5449C24.4764 32.5099 23.6073 32.5449 22.5786 32.5449ZM45.1751 20.938C42.8871 15.4409 40.6522 10.0489 38.2933 4.41173C35.9343 10.0664 33.664 15.4409 31.376 20.938C36.0052 20.938 40.4926 20.938 45.1751 20.938Z" fill="#EE1E5B"/>
<path d="M223.198 24.3167C224.049 24.8945 224.9 25.4547 225.734 26.0324C222.896 30.5841 216.227 33.9454 209.452 32.7724C201.453 31.3719 195.706 24.9645 195.44 17.104C195.174 9.47111 200.158 2.69604 207.749 0.612756C215.003 -1.383 222.435 1.80321 225.982 7.24777C225.113 7.82549 224.226 8.3857 223.357 8.96342C217.753 1.64565 208.37 1.89074 203.049 6.7926C197.604 11.782 197.302 20.1326 202.268 25.5072C207.128 30.7067 217.079 31.9846 223.198 24.3167Z" fill="#EE1E5B"/>
<path d="M0 0.682769C0.390206 0.665262 0.727201 0.630249 1.08193 0.630249C8.35395 0.630249 15.626 0.630249 22.898 0.630249C24.0686 0.630249 24.0686 0.630249 24.0686 1.76818C24.0686 3.78144 24.0686 3.78144 22.0111 3.78144C16.1935 3.78144 10.3582 3.79895 4.54057 3.76394C3.68922 3.76394 3.42317 4.00903 3.4409 4.84935C3.49411 8.03555 3.49411 11.2043 3.4409 14.3905C3.42317 15.2133 3.70695 15.4058 4.5051 15.4058C8.79736 15.3708 13.0719 15.3883 17.3642 15.3883C17.6834 15.3883 18.0027 15.3883 18.4461 15.3883C18.4461 16.3162 18.4816 17.1915 18.4106 18.0493C18.3929 18.2419 17.9495 18.522 17.6834 18.522C16.0871 18.5745 14.4908 18.5395 12.8945 18.5395C10.1453 18.5395 7.39617 18.5395 4.64699 18.5395C3.45864 18.5395 3.45864 18.5395 3.45864 19.6775C3.45864 23.6165 3.4409 27.5554 3.47638 31.4944C3.49411 32.3172 3.21033 32.5623 2.42992 32.5098C1.64951 32.4573 0.851358 32.4923 0.0177366 32.4923C0 21.8658 0 11.3443 0 0.682769Z" fill="#EE1E5B"/>
<path d="M177.597 32.4573C170.733 32.4573 164.028 32.4573 157.235 32.4573C157.235 21.8658 157.235 11.3093 157.235 0.647766C158.122 0.647766 158.973 0.647766 159.825 0.647766C160.091 0.647766 160.339 0.682779 160.711 0.717793C160.711 1.10294 160.711 1.45307 160.711 1.7857C160.711 10.6265 160.729 19.4674 160.694 28.3082C160.694 29.1136 160.907 29.3586 161.722 29.3586C166.653 29.3236 171.602 29.3586 176.533 29.3236C177.384 29.3236 177.703 29.5512 177.614 30.3915C177.544 31.0393 177.597 31.7045 177.597 32.4573Z" fill="#EE1E5B"/>
<path d="M185.348 0.560242C186.554 0.560242 187.689 0.560242 188.877 0.560242C188.877 11.1868 188.877 21.7608 188.877 32.3873C187.707 32.3873 186.554 32.3873 185.348 32.3873C185.348 21.7958 185.348 11.2218 185.348 0.560242Z" fill="#EE1E5B"/>
</g>
<defs>
<clipPath id="clip0">
<rect width="226" height="33" fill="white"/>
</clipPath>
</defs>
</svg>
