<svg width="264" height="66" viewBox="0 0 264 66" fill="none" xmlns="http://www.w3.org/2000/svg">
<mask id="mask0" mask-type="alpha" maskUnits="userSpaceOnUse" x="0" y="0" width="74" height="66">
<path d="M0 0L21.6973 10.5865V59.9901L0 49.4036V0Z" fill="#7427F2"/>
<path d="M25.734 10.5865L47.4314 0V49.4036L25.734 59.9901V10.5865Z" fill="#7427F2"/>
<path d="M51.4681 15.6277L73.1654 5.04119V54.4448L51.4681 65.0313V15.6277Z" fill="#7427F2"/>
</mask>
<g mask="url(#mask0)">
<path d="M0 0L21.6973 10.5865V59.9901L0 49.4036V0Z" fill="#00B3DF"/>
<path d="M25.734 10.5865L47.4314 0V49.4036L25.734 59.9901V10.5865Z" fill="#00B3DF"/>
<path d="M51.4681 15.6277L73.1654 5.04119V54.4448L51.4681 65.0313V15.6277Z" fill="#00B3DF"/>
<path d="M109.829 93.5394C109.829 128.622 81.3627 157.062 46.2464 157.062C11.1301 157.062 -17.3364 128.622 -17.3364 93.5394C-17.3364 58.457 11.1301 30.0164 46.2464 30.0164C81.3627 30.0164 109.829 58.457 109.829 93.5394Z" fill="#00B3DF" stroke="white"/>
</g>
<path d="M119.275 34.8801L115.969 23.7007H111.537L108.231 34.8438L105.143 23.7007H100.166L105.942 41.849H110.411L113.753 30.8512L117.096 41.849H121.564L127.341 23.7007H122.363L119.275 34.8801Z" fill="black"/>
<path d="M146.814 34.6986C146.923 34.009 146.995 33.3919 146.995 32.7749C146.995 30.0526 146.124 27.8023 144.38 25.9511C142.672 24.1 140.456 23.1926 137.804 23.1926C135.006 23.1926 132.681 24.1 130.901 25.9511C129.121 27.766 128.213 30.0526 128.213 32.7749C128.213 35.5334 129.121 37.8201 130.937 39.6349C132.754 41.4498 135.152 42.3572 138.167 42.3572C141.655 42.3572 144.307 41.0505 146.087 38.4734L142.309 36.2957C141.401 37.4934 140.02 38.1105 138.24 38.1105C135.442 38.1105 133.735 36.9853 133.117 34.6986H146.814ZM133.045 31.0689C133.59 28.746 135.297 27.403 137.804 27.403C139.947 27.403 141.764 28.6008 142.309 31.0689H133.045Z" fill="black"/>
<path d="M163.931 25.8422C162.514 24.0637 160.552 23.1926 158.009 23.1926C155.575 23.1926 153.504 24.1363 151.76 25.9874C150.053 27.8386 149.181 30.0889 149.181 32.7749C149.181 35.4608 150.053 37.7475 151.76 39.5986C153.504 41.4498 155.575 42.3572 158.009 42.3572C160.552 42.3572 162.514 41.4861 163.931 39.7075V41.849H168.617V23.7007H163.931V25.8422ZM155.284 36.4771C154.34 35.4971 153.867 34.263 153.867 32.7749C153.867 31.2867 154.34 30.0526 155.284 29.1089C156.229 28.1289 157.428 27.6571 158.881 27.6571C160.334 27.6571 161.533 28.1289 162.478 29.1089C163.459 30.0526 163.931 31.2867 163.931 32.7749C163.931 34.263 163.459 35.4971 162.478 36.4771C161.533 37.4208 160.334 37.8927 158.881 37.8927C157.428 37.8927 156.229 37.4208 155.284 36.4771Z" fill="black"/>
<path d="M177.554 41.849V15.3525H172.867V41.849H177.554Z" fill="black"/>
<path d="M203.998 23.1926C201.528 23.1926 199.711 24.0274 198.585 25.7334V16.4414H193.898V41.849H198.585V32.049C198.585 29.0363 200.147 27.5482 202.581 27.5482C204.761 27.5482 206.178 28.8549 206.178 31.2867V41.849H210.864V30.706C210.864 28.3467 210.211 26.5319 208.903 25.1889C207.631 23.8459 205.996 23.1926 203.998 23.1926Z" fill="black"/>
<path d="M225.002 23.2652C221.769 23.2652 219.335 24.6082 217.664 27.2578V23.7007H215.266L214.888 49.1083H217.285L217.664 38.292C219.335 40.9416 221.769 42.2846 225.002 42.2846C227.582 42.2846 229.798 41.3772 231.615 39.526C233.467 37.6749 234.376 35.4245 234.376 32.7749C234.376 30.1252 233.467 27.8748 231.615 26.0237C229.798 24.1726 227.582 23.2652 225.002 23.2652ZM219.735 37.8927C218.354 36.4771 217.664 34.7712 217.664 32.7749C217.664 30.7786 218.354 29.0726 219.735 27.6934C221.115 26.2778 222.823 25.5882 224.821 25.5882C226.819 25.5882 228.526 26.2778 229.907 27.6934C231.288 29.0726 231.978 30.7786 231.978 32.7749C231.978 34.7712 231.288 36.4771 229.907 37.8927C228.526 39.272 226.819 39.9616 224.821 39.9616C222.823 39.9616 221.115 39.272 219.735 37.8927Z" fill="black"/>
<path d="M253.985 27.2578C252.314 24.6082 249.879 23.2652 246.646 23.2652C244.067 23.2652 241.85 24.1726 239.998 26.0237C238.181 27.8748 237.273 30.1252 237.273 32.7749C237.273 35.4245 238.181 37.6749 239.998 39.526C241.85 41.3772 244.067 42.2846 246.646 42.2846C249.879 42.2846 252.314 40.9416 253.985 38.292V41.849H256.383V23.7007H253.985V27.2578ZM241.741 37.8927C240.361 36.4771 239.671 34.7712 239.671 32.7749C239.671 30.7786 240.361 29.0726 241.741 27.6934C243.122 26.2778 244.829 25.5882 246.828 25.5882C248.826 25.5882 250.533 26.2778 251.914 27.6934C253.294 29.0726 253.985 30.7786 253.985 32.7749C253.985 34.7712 253.294 36.4771 251.914 37.8927C250.533 39.272 248.826 39.9616 246.828 39.9616C244.829 39.9616 243.122 39.272 241.741 37.8927Z" fill="black"/>
<path d="M263.857 41.849V15.3525H261.459V41.849H263.857Z" fill="black"/>
<path d="M181.802 26.185V35.7512C181.802 40.7238 184.163 42.575 190.594 41.849V37.6023C187.905 37.7475 186.488 37.7112 186.488 35.7512V26.185H181.802Z" fill="black"/>
<path fill-rule="evenodd" clip-rule="evenodd" d="M185.697 14.9937V20.3645C185.697 20.8238 186.051 21.1961 186.487 21.1961H190.085V25.077H186.487C185.112 25.077 183.841 24.5921 183.02 23.5645C182.366 22.745 182.011 21.5192 182.011 20.3645V17.7657L185.697 14.9937Z" fill="#00B3DF"/>
</svg>
