<svg  fill="none" xmlns="http://www.w3.org/2000/svg">
<g clip-path="url(#clip0)">
<rect x="2.5" y="2.5" width="463" height="462" rx="21.5" stroke="#C7C7C7" stroke-width="5"/>
<circle cx="226" cy="234" r="135" stroke="#B8DAFC" stroke-width="50"/>
<circle cx="226" cy="234" r="135" stroke="url(#paint0_linear)" stroke-opacity="0.5" stroke-width="50"/>
<circle cx="415.846" cy="415.846" r="17.5" stroke="#C7C7C7" stroke-width="5"/>
<path d="M69.5684 415.846C69.5684 425.511 61.7334 433.346 52.0684 433.346C42.4034 433.346 34.5684 425.511 34.5684 415.846C34.5684 406.181 42.4034 398.346 52.0684 398.346C61.7334 398.346 69.5684 406.181 69.5684 415.846Z" stroke="#C7C7C7" stroke-width="5"/>
<circle cx="52.0684" cy="52.0685" r="17.5" stroke="#C7C7C7" stroke-width="5"/>
<path d="M433.346 52.0685C433.346 61.7335 425.511 69.5685 415.846 69.5685C406.181 69.5685 398.346 61.7335 398.346 52.0685C398.346 42.4035 406.181 34.5685 415.846 34.5685C425.511 34.5685 433.346 42.4035 433.346 52.0685Z" stroke="#C7C7C7" stroke-width="5"/>
<path d="M274.5 137C274.5 129.544 280.544 123.5 288 123.5H395.5V164.5H288C280.544 164.5 274.5 158.456 274.5 151V137Z" fill="white" stroke="#C7C7C7" stroke-width="5"/>
<path d="M274.5 317C274.5 309.544 280.544 303.5 288 303.5H395.5V344.5H288C280.544 344.5 274.5 338.456 274.5 331V317Z" fill="white" stroke="#C7C7C7" stroke-width="5"/>
<path fill-rule="evenodd" clip-rule="evenodd" d="M421.936 95.1927H408.839C402.764 95.1927 397.839 100.118 397.839 106.193V120.92C397.839 120.964 397.875 121 397.92 121C397.964 121 398 121.036 398 121.081V126V162V166.92C398 166.964 397.964 167 397.92 167C397.875 167 397.839 167.036 397.839 167.081V300.92C397.839 300.964 397.875 301 397.92 301C397.964 301 398 301.036 398 301.081V306V342V346.92C398 346.964 397.964 347 397.92 347C397.875 347 397.839 347.036 397.839 347.081V361.807C397.839 367.882 402.764 372.807 408.839 372.807H421.936C428.011 372.807 432.936 367.882 432.936 361.807V106.193C432.936 100.118 428.011 95.1927 421.936 95.1927ZM384.839 347C389.257 347 392.839 350.582 392.839 355V361.807C392.839 370.644 400.003 377.807 408.839 377.807H421.936C430.772 377.807 437.936 370.644 437.936 361.807V106.193C437.936 97.3562 430.772 90.1927 421.936 90.1927H408.839C400.003 90.1927 392.839 97.3562 392.839 106.193V113C392.839 117.419 389.257 121 384.839 121H288C279.163 121 272 128.164 272 137V151C272 159.837 279.163 167 288 167H384.839C389.257 167 392.839 170.582 392.839 175V293C392.839 297.419 389.257 301 384.839 301H288C279.163 301 272 308.164 272 317V331C272 339.837 279.163 347 288 347H384.839ZM384.839 306C389.257 306 392.839 309.582 392.839 314V334C392.839 338.419 389.257 342 384.839 342H288C281.925 342 277 337.076 277 331V317C277 310.925 281.925 306 288 306H384.839ZM288 126H384.839C389.257 126 392.839 129.582 392.839 134V154C392.839 158.419 389.257 162 384.839 162H288C281.925 162 277 157.076 277 151V137C277 130.925 281.925 126 288 126Z" fill="#C7C7C7"/>

<g id="safe-animate">
<circle cx="227" cy="234" r="72.5" stroke="#C7C7C7" stroke-width="5"/>
<circle cx="227" cy="234" r="18.5" stroke="#C7C7C7" stroke-width="5"/>
<rect x="224.5" y="163" width="5" height="52" fill="#C7C7C7"/>
<rect width="5" height="55" transform="matrix(0.422618 -0.906308 0.908946 0.416914 242.338 244)" fill="#C7C7C7"/>
<rect width="5" height="55" transform="matrix(0.422618 0.906308 -0.908947 0.416913 208.152 240)" fill="#C7C7C7"/>
</g>

</g>
<defs>
<linearGradient id="paint0_linear" x1="386" y1="234" x2="66" y2="234" gradientUnits="userSpaceOnUse">
<stop stop-color="white"/>
<stop offset="1" stop-color="white" stop-opacity="0"/>
</linearGradient>
<clipPath id="clip0">
<rect width="468" height="467" fill="white"/>
</clipPath>
</defs>
</svg>
