<?xml version="1.0" encoding="utf-8"?>
<!-- Generator: Adobe Illustrator 16.0.2, SVG Export Plug-In . SVG Version: 6.00 Build 0)  -->
<!DOCTYPE svg PUBLIC "-//W3C//DTD SVG 1.1//EN" "http://www.w3.org/Graphics/SVG/1.1/DTD/svg11.dtd">
<svg version="1.1" id="Layer_1" xmlns="http://www.w3.org/2000/svg" xmlns:xlink="http://www.w3.org/1999/xlink" x="0px" y="0px"
	 width="270px" height="260px" viewBox="0 0 270 260" enable-background="new 0 0 270 260" xml:space="preserve">
<g>
	<g>
		<path fill-rule="evenodd" clip-rule="evenodd" fill="#FCFDFD" d="M135.076,158.403c-41.063,0-82.125,0-123.188,0.007
			c-0.287,0-0.352-0.06-0.352-0.323c0.008-17.368,0.008-34.736,0-52.104c0-0.264,0.064-0.323,0.352-0.323
			c82.125,0.006,164.25,0.006,246.375,0c0.287,0,0.352,0.059,0.352,0.323c-0.008,17.368-0.008,34.735,0,52.104
			c0,0.264-0.064,0.323-0.352,0.323C217.201,158.403,176.139,158.403,135.076,158.403z M178.008,130.913
			c0.003-0.015,0.007-0.03,0.01-0.045c0.239-0.032,0.479-0.064,0.718-0.097c2.517-0.342,4.919-0.995,7.132-2.18
			c3.254-1.743,5.052-4.314,5.249-7.786c0.123-2.167-0.422-4.184-1.743-6c-1.216-1.671-2.889-2.855-4.83-3.732
			c-3.179-1.436-6.582-1.947-10.083-1.951c-4.464-0.004-8.928,0.057-13.393,0.083c-0.317,0.001-0.447,0.072-0.437,0.396
			c0.009,0.268,0.172,0.302,0.37,0.346c1.176,0.26,2.35,0.526,3.529,0.77c0.251,0.052,0.325,0.148,0.327,0.375
			c0.007,1.312,0.031,2.624,0.045,3.936c0.028,2.589,0.054,5.179,0.079,7.768c0.026,2.613,0.054,5.226,0.078,7.839
			c0.032,3.679,0.062,7.358,0.094,11.037c0.031,3.445,0.057,6.89,0.107,10.335c0.006,0.393-0.125,0.542-0.534,0.628
			c-1.091,0.23-2.164,0.532-3.257,0.751c-0.407,0.081-0.393,0.284-0.376,0.548c0.021,0.334,0.306,0.187,0.463,0.186
			c3.062-0.015,6.122-0.045,9.184-0.067c1.441-0.012,2.883-0.021,4.324-0.02c0.253,0.001,0.353-0.052,0.357-0.309
			c0.005-0.277-0.103-0.385-0.386-0.443c-1.167-0.243-2.327-0.512-3.494-0.754c-0.263-0.054-0.344-0.153-0.345-0.399
			c-0.004-1.324-0.033-2.648-0.046-3.972c-0.036-3.879-0.066-7.757-0.104-11.636c-0.014-1.522-0.038-3.046-0.058-4.568
			c-0.002-0.174-0.047-0.354,0.264-0.354c1.961-0.005,3.926-0.122,5.871,0.23c2.258,0.409,3.951,1.493,4.952,3.433
			c0.696,1.351,1.008,2.793,1.214,4.259c0.251,1.776,0.478,3.555,0.716,5.332c0.245,1.834,0.498,3.668,0.737,5.504
			c0.105,0.812,0.318,1.585,0.833,2.269c1.104,1.469,2.639,2.184,4.57,2.224c2.146,0.045,3.861-0.718,5.126-2.309
			c0.437-0.549,0.4-0.626-0.14-1.087c-0.159-0.135-0.233-0.121-0.327,0.048c-0.269,0.481-0.686,0.837-1.168,1.137
			c-0.652,0.405-1.275,0.353-1.826-0.161c-0.238-0.222-0.381-0.491-0.486-0.783c-0.195-0.538-0.24-1.1-0.315-1.656
			c-0.48-3.565-0.956-7.132-1.446-10.697c-0.248-1.803-0.966-3.399-2.42-4.693c-2.203-1.959-4.863-3.035-7.842-3.525
			C178.872,131.047,178.439,130.98,178.008,130.913z M90.425,109.759c0,0.038,0,0.075,0,0.113c-2.321,0-4.642-0.001-6.963,0.002
			c-0.126,0-0.287-0.054-0.339,0.136c-0.088,0.317,0.026,0.507,0.374,0.583c1.176,0.259,2.351,0.521,3.53,0.77
			c0.229,0.048,0.308,0.139,0.31,0.355c0.031,3.35,0.076,6.701,0.108,10.051c0.043,4.569,0.073,9.139,0.119,13.708
			c0.057,5.776,0.122,11.552,0.19,17.327c0.002,0.234-0.053,0.351-0.329,0.412c-1.174,0.264-2.336,0.574-3.515,0.821
			c-0.395,0.083-0.354,0.293-0.347,0.537c0.01,0.309,0.271,0.188,0.427,0.188c3.022-0.018,6.045-0.042,9.067-0.069
			c2.254-0.02,4.509,0.03,6.744-0.355c4.8-0.83,8.787-2.929,11.838-6.438c3.102-3.567,4.588-7.729,5.064-12.225
			c0.271-2.56,0.226-5.119-0.135-7.675c-0.436-3.086-1.407-6.01-3.056-8.732c-1.726-2.851-4.083-5.159-7.131-6.851
			c-3.317-1.841-6.941-2.644-10.792-2.658C93.869,109.753,92.147,109.759,90.425,109.759z M154.926,132.393
			c0.001-2.005-0.095-3.78-0.318-5.552c-0.433-3.426-1.416-6.703-3.112-9.785c-1.51-2.742-3.522-5.098-6.389-6.756
			c-2.07-1.197-4.327-1.879-6.794-1.85c-3.198,0.038-5.957,1.146-8.353,3.038c-2.459,1.942-4.133,4.397-5.363,7.128
			c-1.603,3.56-2.322,7.285-2.455,11.117c-0.114,3.308,0.06,6.6,0.774,9.854c0.637,2.898,1.641,5.676,3.295,8.227
			c1.453,2.241,3.252,4.201,5.692,5.591c3.27,1.862,6.752,2.434,10.464,1.312c3.186-0.963,5.605-2.864,7.534-5.33
			c1.923-2.459,3.115-5.225,3.93-8.136C154.666,138.273,154.947,135.235,154.926,132.393z M74.459,154.906c0-0.033,0-0.065,0-0.099
			c2.334,0,4.668,0.001,7.002-0.001c0.153,0,0.375,0.054,0.349-0.194c-0.02-0.188,0.15-0.442-0.246-0.522
			c-1.13-0.231-2.249-0.513-3.381-0.733c-0.41-0.08-0.61-0.241-0.737-0.614c-1.679-4.957-3.376-9.91-5.071-14.863
			c-1.714-5.01-3.431-10.018-5.146-15.027c-1.531-4.473-3.063-8.947-4.585-13.423c-0.088-0.26-0.191-0.415-0.521-0.357
			c-0.306,0.054-0.644-0.091-0.784,0.383c-1.267,4.289-2.568,8.568-3.858,12.851c-1.641,5.444-3.281,10.887-4.921,16.332
			c-1.393,4.62-2.789,9.239-4.175,13.861c-0.071,0.238-0.188,0.37-0.446,0.46c-1.299,0.452-2.583,0.938-3.884,1.385
			c-0.367,0.125-0.298,0.362-0.284,0.595c0.018,0.28,0.268,0.161,0.415,0.16c2.155-0.011,4.311-0.034,6.466-0.051
			c1.084-0.009,2.168-0.009,3.252-0.019c0.116-0.001,0.263,0.054,0.336-0.092c0.12-0.239-0.04-0.572-0.321-0.669
			c-1.277-0.438-2.551-0.882-3.833-1.306c-0.296-0.099-0.397-0.199-0.295-0.503c0.311-0.928,0.582-1.865,0.871-2.799
			c0.768-2.486,1.537-4.972,2.306-7.457c0.055-0.18,0.092-0.329,0.382-0.33c4.579-0.03,9.157-0.072,13.735-0.12
			c0.245-0.003,0.333,0.091,0.397,0.279c1.246,3.637,2.492,7.272,3.75,10.905c0.101,0.291,0.009,0.375-0.287,0.441
			c-1.15,0.257-2.289,0.555-3.442,0.798c-0.395,0.084-0.343,0.304-0.331,0.547c0.014,0.281,0.251,0.177,0.402,0.178
			C69.868,154.907,72.164,154.906,74.459,154.906z M24.014,141.786c-0.063-0.062-0.092-0.098-0.129-0.126
			c-1.529-1.187-3.059-2.371-4.584-3.56c-0.127-0.1-0.244-0.089-0.388-0.053c-1.865,0.465-3.354,1.441-4.229,3.01
			c-1.31,2.348-1.451,4.872-0.554,7.339c1.458,4.008,4.658,6.398,9.017,7.48c2.659,0.66,5.342,0.415,7.963-0.288
			c2.813-0.754,5.159-2.16,6.854-4.394c1.685-2.22,2.484-4.715,2.508-7.396c0.047-5.19-0.068-10.38-0.124-15.571
			c-0.057-5.366-0.104-10.732-0.163-16.098c-0.003-0.23,0.075-0.323,0.32-0.378c1.198-0.272,2.388-0.579,3.589-0.84
			c0.4-0.087,0.267-0.336,0.277-0.543c0.013-0.255-0.215-0.18-0.36-0.179c-0.638,0.003-1.275,0.022-1.913,0.027
			c-3.877,0.03-7.754,0.057-11.631,0.091c-0.161,0.001-0.419-0.096-0.412,0.21c0.006,0.237-0.059,0.448,0.352,0.524
			c1.185,0.219,2.354,0.509,3.532,0.759c0.26,0.055,0.331,0.167,0.332,0.407c0.012,2.167,0.042,4.334,0.061,6.502
			c0.041,4.511,0.084,9.021,0.114,13.533c0.028,4.264,0.207,8.527,0.045,12.791c-0.081,2.137-0.579,4.202-1.682,6.109
			c-0.998,1.726-2.442,2.997-4.539,3.523c-1.968,0.494-3.919,0.308-5.829-0.278c-1.553-0.478-2.901-1.26-3.939-2.444
			c-1.175-1.339-1.52-2.88-1.271-4.558c0.17-1.146,0.569-2.204,1.384-3.109c1.052-1.171,2.455-1.795,4.007-2.188
			C23.071,141.977,23.527,141.892,24.014,141.786z M256.219,131.705c-0.032-1.652-0.15-3.297-0.433-4.932
			c-0.792-4.596-2.539-8.838-5.564-12.593c-2.718-3.374-6.124-5.936-10.519-7.272c-2.929-0.891-5.913-1.063-8.938-0.501
			c-3.795,0.704-7.028,2.395-9.786,4.851c-4.252,3.787-6.737,8.461-7.995,13.724c-0.785,3.285-0.958,6.605-0.616,9.953
			c0.302,2.956,1.024,5.818,2.244,8.565c1.922,4.327,4.741,8.036,8.932,10.777c2.912,1.905,6.145,3.021,9.726,3.196
			c3.516,0.173,6.807-0.581,9.857-2.183c4.324-2.271,7.394-5.612,9.613-9.652C255.146,141.26,256.197,136.589,256.219,131.705z"/>
		<path fill-rule="evenodd" clip-rule="evenodd" fill="#0494D4" d="M178.008,130.913c0.432,0.068,0.864,0.134,1.295,0.205
			c2.979,0.49,5.639,1.566,7.842,3.525c1.454,1.294,2.172,2.891,2.42,4.693c0.49,3.565,0.966,7.132,1.446,10.697
			c0.075,0.557,0.12,1.118,0.315,1.656c0.105,0.292,0.248,0.562,0.486,0.783c0.551,0.514,1.174,0.566,1.826,0.161
			c0.482-0.3,0.899-0.655,1.168-1.137c0.094-0.169,0.168-0.183,0.327-0.048c0.54,0.461,0.576,0.538,0.14,1.087
			c-1.265,1.591-2.979,2.354-5.126,2.309c-1.932-0.04-3.466-0.755-4.57-2.224c-0.515-0.684-0.728-1.457-0.833-2.269
			c-0.239-1.836-0.492-3.67-0.737-5.504c-0.238-1.777-0.465-3.556-0.716-5.332c-0.206-1.466-0.518-2.908-1.214-4.259
			c-1.001-1.939-2.694-3.023-4.952-3.433c-1.945-0.353-3.91-0.235-5.871-0.23c-0.311,0.001-0.266,0.181-0.264,0.354
			c0.02,1.522,0.044,3.046,0.058,4.568c0.037,3.879,0.067,7.757,0.104,11.636c0.013,1.323,0.042,2.647,0.046,3.972
			c0.001,0.246,0.082,0.346,0.345,0.399c1.167,0.242,2.327,0.511,3.494,0.754c0.283,0.059,0.391,0.166,0.386,0.443
			c-0.005,0.257-0.104,0.31-0.357,0.309c-1.441-0.001-2.883,0.008-4.324,0.02c-3.062,0.022-6.122,0.053-9.184,0.067
			c-0.157,0.001-0.442,0.148-0.463-0.186c-0.017-0.264-0.031-0.467,0.376-0.548c1.093-0.219,2.166-0.521,3.257-0.751
			c0.409-0.086,0.54-0.235,0.534-0.628c-0.051-3.445-0.076-6.89-0.107-10.335c-0.032-3.679-0.062-7.358-0.094-11.037
			c-0.024-2.613-0.052-5.226-0.078-7.839c-0.025-2.589-0.051-5.179-0.079-7.768c-0.014-1.312-0.038-2.624-0.045-3.936
			c-0.002-0.227-0.076-0.322-0.327-0.375c-1.18-0.244-2.354-0.51-3.529-0.77c-0.198-0.044-0.361-0.079-0.37-0.346
			c-0.011-0.324,0.119-0.395,0.437-0.396c4.465-0.026,8.929-0.087,13.393-0.083c3.501,0.003,6.904,0.515,10.083,1.951
			c1.941,0.877,3.614,2.061,4.83,3.732c1.321,1.817,1.866,3.834,1.743,6c-0.197,3.472-1.995,6.043-5.249,7.786
			c-2.213,1.185-4.615,1.838-7.132,2.18c-0.239,0.033-0.479,0.065-0.718,0.097C178.015,130.882,178.011,130.897,178.008,130.913z
			 M170.802,120.353c0.048,0,0.095,0,0.143,0c0,1.745-0.004,3.49,0.002,5.235c0.005,1.464,0.027,2.928,0.027,4.392
			c0,0.237,0.051,0.341,0.336,0.321c0.355-0.024,0.714-0.009,1.07-0.01c1.619-0.002,3.235-0.003,4.824-0.362
			c3.389-0.766,5.706-2.613,6.734-5.706c0.708-2.131,0.721-4.311,0.309-6.498c-0.326-1.733-1.045-3.298-2.368-4.593
			c-1.823-1.784-4.163-2.488-6.739-2.686c-1.299-0.1-2.598-0.031-3.897-0.029c-0.349,0-0.45,0.084-0.449,0.413
			C170.807,114.004,170.802,117.178,170.802,120.353z"/>
		<path fill-rule="evenodd" clip-rule="evenodd" fill="#0494D4" d="M90.425,109.759c1.722,0,3.443-0.006,5.165,0.001
			c3.851,0.015,7.476,0.817,10.792,2.658c3.048,1.692,5.405,4,7.131,6.851c1.649,2.722,2.62,5.646,3.056,8.732
			c0.361,2.556,0.407,5.115,0.135,7.675c-0.476,4.495-1.962,8.657-5.064,12.225c-3.051,3.509-7.038,5.607-11.838,6.438
			c-2.235,0.386-4.49,0.336-6.744,0.355c-3.022,0.027-6.044,0.052-9.067,0.069c-0.156,0.001-0.417,0.121-0.427-0.188
			c-0.008-0.244-0.048-0.454,0.347-0.537c1.178-0.247,2.34-0.558,3.515-0.821c0.275-0.062,0.331-0.178,0.329-0.412
			c-0.068-5.775-0.133-11.551-0.19-17.327c-0.045-4.569-0.075-9.138-0.119-13.708c-0.032-3.35-0.077-6.701-0.108-10.051
			c-0.002-0.216-0.081-0.307-0.31-0.355c-1.179-0.249-2.354-0.511-3.53-0.77c-0.348-0.077-0.462-0.267-0.374-0.583
			c0.053-0.19,0.213-0.136,0.339-0.136c2.321-0.003,4.642-0.002,6.963-0.002C90.425,109.834,90.425,109.796,90.425,109.759z
			 M93.41,132.233c0.026,0,0.052,0,0.078,0c0,0.082,0,0.164,0,0.246c0.049,5.086,0.099,10.171,0.147,15.256
			c0.016,1.77,0.035,3.539,0.032,5.309c0,0.298,0.094,0.379,0.407,0.367c0.611-0.023,1.225-0.004,1.836-0.017
			c2.329-0.049,4.515-0.59,6.494-1.722c2.252-1.288,3.815-3.146,4.972-5.309c1.589-2.974,2.346-6.147,2.664-9.423
			c0.242-2.502,0.247-5.007,0.094-7.514c-0.161-2.637-0.551-5.238-1.395-7.771c-0.74-2.22-1.735-4.325-3.301-6.172
			c-1.911-2.253-4.38-3.664-7.44-4.217c-1.417-0.256-2.843-0.18-4.268-0.203c-0.376-0.006-0.461,0.097-0.457,0.43
			c0.055,4.405,0.103,8.811,0.134,13.216C93.425,127.219,93.41,129.726,93.41,132.233z"/>
		<path fill-rule="evenodd" clip-rule="evenodd" fill="#0494D4" d="M154.926,132.393c0.021,2.843-0.26,5.881-1.093,8.858
			c-0.814,2.911-2.007,5.677-3.93,8.136c-1.929,2.466-4.349,4.367-7.534,5.33c-3.712,1.122-7.195,0.551-10.464-1.312
			c-2.44-1.39-4.239-3.35-5.692-5.591c-1.655-2.551-2.659-5.328-3.295-8.227c-0.715-3.255-0.889-6.547-0.774-9.854
			c0.132-3.832,0.852-7.557,2.455-11.117c1.229-2.731,2.903-5.186,5.363-7.128c2.396-1.892,5.154-3,8.353-3.038
			c2.467-0.029,4.724,0.653,6.794,1.85c2.866,1.658,4.879,4.014,6.389,6.756c1.696,3.082,2.68,6.358,3.112,9.785
			C154.831,128.612,154.927,130.387,154.926,132.393z M148.306,132.069c-0.027-2.014-0.104-4.542-0.361-7.063
			c-0.272-2.675-0.771-5.308-1.628-7.879c-0.661-1.985-1.54-3.88-3.044-5.461c-2.242-2.356-5.62-3.179-8.782-0.934
			c-1.229,0.872-2.035,2.055-2.715,3.31c-1.286,2.373-1.902,4.93-2.365,7.522c-0.479,2.688-0.611,5.402-0.664,8.119
			c-0.047,2.413,0.031,4.825,0.197,7.235c0.219,3.197,0.703,6.354,1.702,9.431c0.69,2.124,1.608,4.151,3.241,5.828
			c1.316,1.353,2.956,2.162,4.967,2.128c1.623-0.028,3.001-0.685,4.172-1.689c1.195-1.026,1.988-2.313,2.621-3.678
			c1.412-3.049,2.013-6.272,2.357-9.544C148.241,137.131,148.312,134.859,148.306,132.069z"/>
		<path fill-rule="evenodd" clip-rule="evenodd" fill="#0494D4" d="M74.459,154.906c-2.295,0-4.591,0.001-6.887-0.004
			c-0.15-0.001-0.388,0.104-0.402-0.178c-0.012-0.243-0.063-0.463,0.331-0.547c1.153-0.243,2.292-0.541,3.442-0.798
			c0.296-0.066,0.388-0.15,0.287-0.441c-1.258-3.633-2.504-7.269-3.75-10.905c-0.064-0.188-0.153-0.282-0.397-0.279
			c-4.579,0.048-9.157,0.09-13.735,0.12c-0.29,0.001-0.327,0.15-0.382,0.33c-0.769,2.485-1.538,4.971-2.306,7.457
			c-0.289,0.934-0.56,1.871-0.871,2.799c-0.102,0.304,0,0.404,0.295,0.503c1.282,0.424,2.556,0.868,3.833,1.306
			c0.281,0.097,0.441,0.43,0.321,0.669c-0.073,0.146-0.22,0.091-0.336,0.092c-1.084,0.01-2.168,0.01-3.252,0.019
			c-2.155,0.017-4.311,0.04-6.466,0.051c-0.147,0.001-0.397,0.12-0.415-0.16c-0.014-0.232-0.083-0.47,0.284-0.595
			c1.301-0.446,2.585-0.933,3.884-1.385c0.258-0.09,0.375-0.222,0.446-0.46c1.386-4.622,2.782-9.241,4.175-13.861
			c1.641-5.444,3.281-10.888,4.921-16.332c1.291-4.282,2.591-8.562,3.858-12.851c0.14-0.475,0.478-0.329,0.784-0.383
			c0.33-0.058,0.433,0.097,0.521,0.357c1.522,4.476,3.054,8.95,4.585,13.423c1.714,5.009,3.432,10.017,5.146,15.027
			c1.695,4.953,3.392,9.906,5.071,14.863c0.126,0.373,0.327,0.534,0.737,0.614c1.132,0.221,2.251,0.502,3.381,0.733
			c0.396,0.08,0.226,0.334,0.246,0.522c0.026,0.248-0.196,0.194-0.349,0.194c-2.334,0.002-4.668,0.001-7.002,0.001
			C74.459,154.841,74.459,154.873,74.459,154.906z M59.735,119.52c-0.044,0.122-0.088,0.226-0.121,0.332
			c-0.297,0.991-0.593,1.983-0.889,2.974c-1.36,4.554-2.72,9.109-4.08,13.663c-0.377,1.263-0.755,2.523-1.131,3.786
			c-0.117,0.391-0.113,0.394,0.313,0.388c0.319-0.005,0.637-0.019,0.956-0.021c3.914-0.032,7.827-0.068,11.741-0.088
			c0.376-0.002,0.401-0.088,0.295-0.388c-0.384-1.077-0.737-2.164-1.104-3.246c-1.933-5.691-3.866-11.382-5.799-17.072
			C59.88,119.739,59.864,119.623,59.735,119.52z"/>
		<path fill-rule="evenodd" clip-rule="evenodd" fill="#0494D4" d="M24.014,141.786c-0.487,0.105-0.942,0.19-1.39,0.304
			c-1.552,0.393-2.955,1.017-4.007,2.188c-0.814,0.905-1.213,1.963-1.384,3.109c-0.249,1.678,0.096,3.219,1.271,4.558
			c1.039,1.185,2.386,1.967,3.939,2.444c1.91,0.586,3.86,0.772,5.829,0.278c2.097-0.526,3.541-1.798,4.539-3.523
			c1.103-1.907,1.601-3.973,1.682-6.109c0.162-4.264-0.017-8.527-0.045-12.791c-0.03-4.511-0.074-9.022-0.114-13.533
			c-0.019-2.168-0.049-4.335-0.061-6.502c-0.001-0.24-0.072-0.352-0.332-0.407c-1.179-0.25-2.348-0.54-3.532-0.759
			c-0.411-0.076-0.346-0.288-0.352-0.524c-0.007-0.307,0.25-0.209,0.412-0.21c3.877-0.034,7.754-0.061,11.631-0.091
			c0.637-0.005,1.275-0.024,1.913-0.027c0.146-0.001,0.373-0.077,0.36,0.179c-0.01,0.207,0.123,0.456-0.277,0.543
			c-1.201,0.262-2.391,0.568-3.589,0.84c-0.245,0.056-0.323,0.148-0.32,0.378c0.059,5.366,0.105,10.732,0.163,16.098
			c0.055,5.191,0.17,10.38,0.124,15.571c-0.024,2.682-0.824,5.177-2.508,7.396c-1.696,2.233-4.042,3.64-6.854,4.394
			c-2.621,0.703-5.304,0.948-7.963,0.288c-4.359-1.082-7.56-3.473-9.017-7.48c-0.897-2.467-0.756-4.991,0.554-7.339
			c0.875-1.568,2.363-2.545,4.229-3.01c0.144-0.036,0.261-0.047,0.388,0.053c1.526,1.188,3.056,2.373,4.584,3.56
			C23.921,141.688,23.951,141.725,24.014,141.786z"/>
		<path fill-rule="evenodd" clip-rule="evenodd" fill="#0494D4" d="M256.218,131.705c-0.021,4.884-1.072,9.555-3.478,13.933
			c-2.22,4.04-5.289,7.382-9.613,9.652c-3.051,1.602-6.342,2.355-9.857,2.183c-3.581-0.175-6.813-1.291-9.726-3.196
			c-4.19-2.741-7.01-6.45-8.932-10.777c-1.22-2.747-1.942-5.609-2.244-8.565c-0.342-3.348-0.169-6.668,0.616-9.953
			c1.258-5.263,3.743-9.937,7.995-13.724c2.758-2.456,5.991-4.147,9.786-4.851c3.024-0.561,6.009-0.39,8.938,0.501
			c4.395,1.337,7.801,3.898,10.519,7.272c3.025,3.755,4.772,7.997,5.564,12.593C256.068,128.408,256.187,130.053,256.218,131.705z
			 M213.806,131.79c-0.008,1.633,0.136,3.254,0.436,4.861c0.57,3.057,1.632,5.962,3.254,8.687c1.92,3.224,4.423,5.979,7.759,8.046
			c2.646,1.638,5.542,2.629,8.762,2.67c3.377,0.042,6.409-0.974,9.175-2.692c3.604-2.239,6.224-5.267,8.169-8.806
			c1.658-3.019,2.646-6.221,3.051-9.583c0.347-2.874,0.234-5.73-0.352-8.565c-0.805-3.891-2.387-7.49-4.896-10.729
			c-1.754-2.266-3.846-4.212-6.407-5.713c-2.545-1.491-5.305-2.389-8.342-2.432c-3.111-0.044-5.95,0.821-8.568,2.323
			c-3.58,2.054-6.252,4.892-8.271,8.259C215.023,122.367,213.826,126.945,213.806,131.79z"/>
		<path fill-rule="evenodd" clip-rule="evenodd" fill="#FCFDFD" d="M170.802,120.353c0-3.174,0.005-6.348-0.009-9.522
			c-0.001-0.328,0.101-0.412,0.449-0.413c1.3-0.002,2.599-0.07,3.897,0.029c2.576,0.198,4.916,0.901,6.739,2.686
			c1.323,1.295,2.042,2.86,2.368,4.593c0.412,2.187,0.399,4.366-0.309,6.498c-1.028,3.092-3.346,4.939-6.734,5.706
			c-1.589,0.359-3.205,0.359-4.824,0.362c-0.356,0-0.715-0.015-1.07,0.01c-0.285,0.02-0.336-0.084-0.336-0.321
			c0-1.464-0.022-2.928-0.027-4.392c-0.006-1.745-0.002-3.49-0.002-5.235C170.896,120.353,170.85,120.353,170.802,120.353z"/>
		<path fill-rule="evenodd" clip-rule="evenodd" fill="#FCFDFD" d="M93.41,132.233c0-2.507,0.015-5.015-0.003-7.522
			c-0.032-4.405-0.08-8.811-0.134-13.216c-0.004-0.333,0.081-0.437,0.457-0.43c1.425,0.023,2.851-0.053,4.268,0.203
			c3.06,0.553,5.529,1.964,7.44,4.217c1.565,1.847,2.561,3.952,3.301,6.172c0.844,2.532,1.234,5.134,1.395,7.771
			c0.152,2.507,0.148,5.012-0.094,7.514c-0.317,3.275-1.075,6.449-2.664,9.423c-1.156,2.163-2.72,4.021-4.972,5.309
			c-1.979,1.132-4.165,1.673-6.494,1.722c-0.612,0.013-1.225-0.007-1.836,0.017c-0.313,0.012-0.407-0.069-0.407-0.367
			c0.003-1.77-0.016-3.539-0.032-5.309c-0.048-5.085-0.098-10.17-0.147-15.256c-0.001-0.082,0-0.164,0-0.246
			C93.462,132.233,93.436,132.233,93.41,132.233z"/>
		<path fill-rule="evenodd" clip-rule="evenodd" fill="#FCFDFD" d="M148.306,132.069c0.006,2.79-0.064,5.062-0.303,7.325
			c-0.345,3.271-0.945,6.495-2.357,9.544c-0.633,1.365-1.426,2.651-2.621,3.678c-1.171,1.005-2.549,1.661-4.172,1.689
			c-2.011,0.034-3.651-0.775-4.967-2.128c-1.632-1.677-2.55-3.704-3.241-5.828c-1-3.077-1.483-6.233-1.702-9.431
			c-0.166-2.41-0.244-4.822-0.197-7.235c0.053-2.717,0.185-5.432,0.664-8.119c0.462-2.592,1.079-5.149,2.365-7.522
			c0.68-1.255,1.486-2.438,2.715-3.31c3.162-2.245,6.54-1.423,8.782,0.934c1.504,1.581,2.383,3.476,3.044,5.461
			c0.856,2.571,1.355,5.204,1.628,7.879C148.201,127.527,148.278,130.055,148.306,132.069z"/>
		<path fill-rule="evenodd" clip-rule="evenodd" fill="#FCFDFD" d="M59.735,119.52c0.128,0.103,0.145,0.22,0.182,0.327
			c1.933,5.69,3.866,11.381,5.799,17.072c0.367,1.082,0.721,2.169,1.104,3.246c0.106,0.3,0.082,0.386-0.295,0.388
			c-3.914,0.02-7.827,0.056-11.741,0.088c-0.318,0.003-0.637,0.017-0.956,0.021c-0.427,0.006-0.43,0.003-0.313-0.388
			c0.375-1.263,0.754-2.523,1.131-3.786c1.36-4.554,2.72-9.108,4.08-13.663c0.296-0.991,0.591-1.983,0.889-2.974
			C59.647,119.745,59.691,119.642,59.735,119.52z"/>
		<path fill-rule="evenodd" clip-rule="evenodd" fill="#FCFDFD" d="M213.806,131.79c0.021-4.845,1.218-9.423,3.769-13.674
			c2.02-3.367,4.691-6.206,8.271-8.259c2.618-1.502,5.457-2.367,8.568-2.323c3.037,0.043,5.797,0.941,8.342,2.432
			c2.562,1.5,4.653,3.447,6.407,5.713c2.509,3.239,4.091,6.838,4.896,10.729c0.586,2.835,0.698,5.691,0.352,8.565
			c-0.405,3.362-1.393,6.564-3.051,9.583c-1.945,3.539-4.565,6.566-8.169,8.806c-2.766,1.719-5.798,2.734-9.175,2.692
			c-3.22-0.041-6.116-1.032-8.762-2.67c-3.336-2.066-5.839-4.822-7.759-8.046c-1.622-2.725-2.684-5.63-3.254-8.687
			C213.941,135.044,213.798,133.423,213.806,131.79z M253.477,131.546c-0.021-1.726-0.199-3.706-0.609-5.667
			c-0.633-3.023-1.72-5.895-3.378-8.574c-1.745-2.819-3.98-5.232-6.95-7.031c-2.257-1.367-4.727-2.191-7.43-2.346
			c-3.065-0.175-5.915,0.515-8.55,1.951c-3.229,1.759-5.631,4.257-7.504,7.205c-1.989,3.132-3.19,6.523-3.758,10.101
			c-0.531,3.35-0.491,6.701,0.146,10.038c0.683,3.563,1.977,6.919,4.084,9.992c1.927,2.81,4.351,5.156,7.553,6.763
			c2.803,1.405,5.795,1.97,8.967,1.595c3.276-0.387,6.087-1.719,8.554-3.695c2.791-2.237,4.791-4.999,6.25-8.1
			C252.646,139.965,253.456,135.96,253.477,131.546z"/>
		<path fill-rule="evenodd" clip-rule="evenodd" fill="#0494D4" d="M253.477,131.546c-0.021,4.414-0.83,8.419-2.625,12.231
			c-1.459,3.101-3.459,5.862-6.25,8.1c-2.467,1.977-5.277,3.309-8.554,3.695c-3.172,0.375-6.164-0.189-8.967-1.595
			c-3.202-1.606-5.626-3.953-7.553-6.763c-2.107-3.073-3.401-6.429-4.084-9.992c-0.638-3.337-0.678-6.688-0.146-10.038
			c0.567-3.577,1.769-6.968,3.758-10.101c1.873-2.948,4.275-5.446,7.504-7.205c2.635-1.436,5.484-2.126,8.55-1.951
			c2.703,0.155,5.173,0.979,7.43,2.346c2.97,1.798,5.205,4.212,6.95,7.031c1.658,2.68,2.745,5.551,3.378,8.574
			C253.277,127.84,253.455,129.82,253.477,131.546z M250.06,120.017c-1.114-0.049-1.737-0.671-2.246-1.494
			c-0.464-0.751-1.214-1.021-2.152-0.855c-0.271,0.048-0.561,0.037-0.839,0.017c-0.745-0.055-1.464-0.737-1.521-1.421
			c-0.025-0.312,0.103-0.432,0.442-0.415c0.222,0.011,0.413,0.11,0.616,0.177c0.291,0.096,0.588,0.192,0.854-0.055
			c0.105-0.098,0.265-0.187,0.21-0.348c-0.058-0.171-0.241-0.09-0.366-0.093c-0.859-0.017-1.52-0.303-1.897-1.064
			c-0.162-0.327-0.438-0.602-0.733-0.847c-0.687-0.568-1.996-0.888-2.861-0.144c-0.212,0.183-0.426,0.367-0.646,0.544
			c-0.476,0.384-0.911,0.844-1.593,0.911c-0.569,0.056-1.142,0.05-1.715-0.021c-0.628-0.079-1.181-0.36-1.779-0.507
			c-1.315-0.325-2.62-0.16-3.859,0.29c-2.255,0.818-3.926,2.311-5.307,4.094c-0.385,0.497-0.599,1.055-0.275,1.682
			c0.164,0.319,0.054,0.622-0.229,0.859c-0.236,0.2-0.305,0.459-0.294,0.733c0.024,0.58,0.21,1.123,0.664,1.531
			c0.644,0.58,0.964,1.25,0.88,2.079c-0.015,0.151,0.002,0.305-0.009,0.457c-0.026,0.387,0.159,0.677,0.477,0.909
			c0.1,0.072,0.208,0.136,0.303,0.214c0.524,0.431,0.543,0.749,0.004,1.152c-0.347,0.26-0.492,0.581-0.56,0.96
			c-0.026,0.15-0.047,0.302-0.09,0.448c-0.173,0.586-0.484,0.812-1.152,0.822c-0.459,0.006-0.918-0.001-1.377-0.013
			c-0.455-0.012-0.773,0.174-1.003,0.525c-0.239,0.366-0.307,0.766-0.287,1.182c0.014,0.305-0.11,0.536-0.365,0.733
			c-0.179,0.138-0.375,0.242-0.573,0.347c-2.119,1.122-3.643,2.711-4.504,4.825c-0.121,0.296-0.105,0.541,0.078,0.822
			c1.348,2.065,2.933,3.965,4.73,5.712c1.633,1.588,3.432,2.996,5.482,4.12c2.686,1.472,5.552,2.316,8.712,2.212
			c2.361-0.078,4.417-0.844,6.163-2.29c1.935-1.604,3.139-3.632,3.925-5.886c0.381-1.095,0.628-2.213,0.717-3.366
			c0.068-0.897,0.041-1.775-0.247-2.638c-0.152-0.458-0.427-0.814-0.957-0.969c-0.205-0.06-0.394-0.166-0.585-0.259
			c-0.1-0.049-0.223-0.108-0.196-0.232c0.029-0.136,0.173-0.119,0.283-0.119c0.331,0.003,0.663,0.015,0.994,0.019
			c0.099,0.001,0.219,0.021,0.271-0.084c0.058-0.117-0.034-0.213-0.117-0.273c-0.211-0.149-0.43-0.293-0.66-0.415
			c-0.982-0.521-2.016-0.95-3.055-1.368c-1.304-0.526-2.149-1.479-2.767-2.612c-0.461-0.846-0.925-1.703-0.888-2.693
			c0.006-0.154-0.009-0.325,0.178-0.395c0.188-0.071,0.304,0.07,0.419,0.176c0.515,0.469,0.95,1.004,1.501,1.445
			c0.829,0.663,1.767,0.842,2.645,0.441c0.249-0.114,0.473-0.274,0.71-0.411c0.37-0.212,0.962-0.237,1.234-0.036
			c0.38,0.279,0.292,0.639,0.178,0.998c-0.028,0.09-0.067,0.177-0.1,0.266c-0.148,0.398-0.299,0.796-0.376,1.214
			c-0.14,0.755,0.286,1.609,0.943,1.865c0.091-0.219-0.076-0.46,0.064-0.679c0.154,0.032,0.229,0.148,0.329,0.232
			c1.265,1.073,2.896,1.211,4.175-0.187c0.306-0.334,0.511-0.726,0.811-1.06c0.443-0.493,0.735-0.509,1.198-0.032
			c0.183,0.188,0.261,0.115,0.334-0.072c0.106-0.274-0.04-0.746-0.294-0.923c-0.308-0.214-0.595-0.129-0.881,0.048
			c-0.611,0.379-1.133,0.874-1.794,1.188c-0.619,0.293-1.258,0.396-1.896,0.06c-0.604-0.318-0.83-0.825-0.8-1.449
			c0.03-0.626,0.519-0.926,1.16-0.702c0.242,0.085,0.441,0.232,0.631,0.39c0.071,0.059,0.11,0.165,0.266,0.133
			c0.004-0.646-0.102-1.271-0.376-1.873c-0.323-0.71-0.887-1.054-1.729-1.018c-0.318,0.014-0.638,0.002-0.957-0.008
			c-0.351-0.011-0.636-0.125-0.821-0.427c-0.102-0.164-0.183-0.333-0.261-0.505c-0.35-0.776-0.543-0.904-1.45-0.791
			c-0.71,0.089-1.369-0.046-2.021-0.257c-0.938-0.305-1.6-0.851-1.776-1.801c-0.107-0.581,0.027-0.785,0.707-1.007
			c0.546-0.179,0.913-0.058,1.18,0.394c0.152,0.258,0.277,0.526,0.342,0.816c0.101,0.458,0.428,0.722,0.891,0.881
			c0.399,0.137,0.808,0.187,1.233,0.2c0.786,0.024,1.5-0.218,2.226-0.44c0.624-0.191,1.251-0.272,1.782,0.213
			c0.306,0.279,0.453,0.645,0.604,1.005c0.206,0.491,0.402,0.986,0.759,1.41c0.367,0.438,0.966,0.632,1.491,0.475
			c0.071-0.021,0.169-0.024,0.171-0.11c0.003-0.085-0.092-0.099-0.164-0.122c-0.654-0.206-1.036-0.659-1.286-1.221
			c-0.202-0.455-0.362-0.926-0.576-1.375c-0.486-1.018-1.206-1.359-2.392-1.158c-0.551,0.094-1.098,0.207-1.649,0.289
			c-0.488,0.072-0.975,0.161-1.467-0.031c-0.456-0.177-0.589-0.521-0.646-0.917c-0.057-0.395,0.136-0.688,0.504-0.869
			c0.516-0.255,1.037-0.29,1.56,0.007c0.368,0.209,0.744,0.407,1.123,0.599c0.823,0.416,1.679,0.687,2.636,0.464
			c0.409-0.095,0.797-0.245,1.183-0.397c0.53-0.209,1.063-0.345,1.612-0.05c0.049,0.026,0.121,0.048,0.17-0.059
			c-0.198-0.219-0.43-0.402-0.756-0.474c-0.568-0.124-1.155-0.176-1.695,0.02c-0.957,0.349-1.698-0.063-2.288-0.804
			c-0.487-0.613-1.069-0.967-1.93-0.917c-0.407,0.023-0.762,0.182-1.148,0.25c-0.571,0.101-0.914-0.08-1.054-0.596
			c-0.059-0.215-0.095-0.436-0.154-0.651c-0.206-0.742-0.565-0.948-1.392-0.85c-0.706,0.084-1.396,0.283-2.117,0.246
			c-0.712-0.037-1.125-0.433-1.39-0.998c-0.24-0.514-0.096-0.956,0.304-1.351c0.375-0.371,0.798-0.691,1.241-0.986
			c0.323-0.215,0.683-0.345,1.101-0.345c0.937,0.001,1.478,0.556,1.961,1.172c0.408,0.521,0.743,1.089,1.175,1.598
			c0.539,0.637,1.21,0.913,2.102,0.793c0.692-0.093,1.409-0.145,2.008,0.32c0.224,0.173,0.441,0.355,0.644,0.549
			C248.595,120.28,249.273,120.354,250.06,120.017z"/>
		<path fill-rule="evenodd" clip-rule="evenodd" fill="#292B2B" d="M250.06,120.017c-0.786,0.337-1.465,0.263-2.052-0.303
			c-0.202-0.194-0.42-0.376-0.644-0.549c-0.599-0.465-1.315-0.413-2.008-0.32c-0.892,0.12-1.563-0.156-2.102-0.793
			c-0.432-0.509-0.767-1.077-1.175-1.598c-0.483-0.617-1.024-1.171-1.961-1.172c-0.418,0-0.777,0.13-1.101,0.345
			c-0.443,0.295-0.866,0.615-1.241,0.986c-0.399,0.395-0.544,0.837-0.304,1.351c0.265,0.565,0.678,0.961,1.39,0.998
			c0.721,0.037,1.411-0.162,2.117-0.246c0.826-0.098,1.186,0.108,1.392,0.85c0.06,0.215,0.096,0.436,0.154,0.651
			c0.14,0.516,0.482,0.697,1.054,0.596c0.387-0.068,0.741-0.227,1.148-0.25c0.86-0.051,1.442,0.304,1.93,0.917
			c0.59,0.741,1.331,1.153,2.288,0.804c0.54-0.196,1.127-0.144,1.695-0.02c0.326,0.071,0.558,0.254,0.756,0.474
			c-0.049,0.106-0.121,0.084-0.17,0.059c-0.55-0.295-1.082-0.159-1.612,0.05c-0.386,0.153-0.773,0.303-1.183,0.397
			c-0.957,0.223-1.813-0.048-2.636-0.464c-0.379-0.192-0.755-0.39-1.123-0.599c-0.522-0.297-1.044-0.262-1.56-0.007
			c-0.368,0.182-0.561,0.474-0.504,0.869c0.057,0.396,0.189,0.74,0.646,0.917c0.492,0.191,0.979,0.103,1.467,0.031
			c0.552-0.082,1.099-0.195,1.649-0.289c1.186-0.201,1.905,0.14,2.392,1.158c0.214,0.449,0.374,0.92,0.576,1.375
			c0.25,0.562,0.632,1.015,1.286,1.221c0.072,0.022,0.167,0.037,0.164,0.122c-0.002,0.086-0.1,0.088-0.171,0.11
			c-0.525,0.157-1.124-0.037-1.491-0.475c-0.356-0.424-0.553-0.919-0.759-1.41c-0.151-0.36-0.299-0.726-0.604-1.005
			c-0.531-0.485-1.158-0.404-1.782-0.213c-0.726,0.222-1.439,0.464-2.226,0.44c-0.426-0.013-0.834-0.063-1.233-0.2
			c-0.463-0.159-0.79-0.423-0.891-0.881c-0.064-0.291-0.189-0.559-0.342-0.816c-0.267-0.452-0.634-0.573-1.18-0.394
			c-0.68,0.223-0.814,0.426-0.707,1.007c0.177,0.95,0.839,1.496,1.776,1.801c0.651,0.211,1.311,0.347,2.021,0.257
			c0.907-0.114,1.101,0.015,1.45,0.791c0.078,0.172,0.159,0.341,0.261,0.505c0.186,0.302,0.471,0.416,0.821,0.427
			c0.319,0.01,0.639,0.021,0.957,0.008c0.843-0.036,1.406,0.308,1.729,1.018c0.274,0.602,0.38,1.227,0.376,1.873
			c-0.155,0.032-0.194-0.074-0.266-0.133c-0.189-0.158-0.389-0.305-0.631-0.39c-0.642-0.224-1.13,0.076-1.16,0.702
			c-0.03,0.624,0.196,1.131,0.8,1.449c0.639,0.337,1.277,0.233,1.896-0.06c0.661-0.313,1.183-0.809,1.794-1.188
			c0.286-0.177,0.573-0.262,0.881-0.048c0.254,0.177,0.4,0.648,0.294,0.923c-0.073,0.188-0.151,0.26-0.334,0.072
			c-0.463-0.477-0.755-0.461-1.198,0.032c-0.3,0.334-0.505,0.726-0.811,1.06c-1.279,1.397-2.91,1.26-4.175,0.187
			c-0.1-0.084-0.175-0.2-0.329-0.232c-0.141,0.219,0.026,0.46-0.064,0.679c-0.657-0.256-1.083-1.11-0.943-1.865
			c0.077-0.418,0.228-0.815,0.376-1.214c0.032-0.089,0.071-0.176,0.1-0.266c0.114-0.358,0.202-0.718-0.178-0.998
			c-0.272-0.201-0.864-0.176-1.234,0.036c-0.237,0.137-0.461,0.297-0.71,0.411c-0.878,0.401-1.815,0.222-2.645-0.441
			c-0.551-0.44-0.986-0.976-1.501-1.445c-0.115-0.105-0.23-0.247-0.419-0.176c-0.187,0.07-0.172,0.241-0.178,0.395
			c-0.037,0.99,0.427,1.847,0.888,2.693c0.617,1.133,1.463,2.086,2.767,2.612c1.039,0.418,2.072,0.847,3.055,1.368
			c0.23,0.122,0.449,0.266,0.66,0.415c0.083,0.061,0.175,0.156,0.117,0.273c-0.052,0.105-0.172,0.085-0.271,0.084
			c-0.331-0.004-0.663-0.016-0.994-0.019c-0.11,0-0.254-0.017-0.283,0.119c-0.026,0.124,0.097,0.184,0.196,0.232
			c0.191,0.093,0.38,0.199,0.585,0.259c0.53,0.154,0.805,0.511,0.957,0.969c0.288,0.862,0.315,1.74,0.247,2.638
			c-0.089,1.153-0.336,2.271-0.717,3.366c-0.786,2.254-1.99,4.282-3.925,5.886c-1.746,1.446-3.802,2.212-6.163,2.29
			c-3.16,0.104-6.026-0.74-8.712-2.212c-2.051-1.124-3.85-2.532-5.482-4.12c-1.798-1.747-3.383-3.646-4.73-5.712
			c-0.184-0.281-0.199-0.526-0.078-0.822c0.861-2.114,2.385-3.703,4.504-4.825c0.198-0.104,0.395-0.209,0.573-0.347
			c0.255-0.197,0.379-0.429,0.365-0.733c-0.02-0.416,0.048-0.815,0.287-1.182c0.229-0.351,0.548-0.537,1.003-0.525
			c0.459,0.012,0.918,0.02,1.377,0.013c0.668-0.01,0.979-0.236,1.152-0.822c0.043-0.146,0.063-0.298,0.09-0.448
			c0.067-0.379,0.213-0.7,0.56-0.96c0.539-0.403,0.521-0.722-0.004-1.152c-0.095-0.078-0.203-0.142-0.303-0.214
			c-0.317-0.232-0.503-0.522-0.477-0.909c0.011-0.152-0.006-0.305,0.009-0.457c0.084-0.829-0.236-1.499-0.88-2.079
			c-0.454-0.409-0.64-0.952-0.664-1.531c-0.011-0.274,0.058-0.534,0.294-0.733c0.282-0.238,0.393-0.541,0.229-0.859
			c-0.323-0.627-0.109-1.185,0.275-1.682c1.381-1.783,3.052-3.276,5.307-4.094c1.239-0.449,2.544-0.615,3.859-0.29
			c0.599,0.147,1.151,0.429,1.779,0.507c0.573,0.072,1.146,0.077,1.715,0.021c0.682-0.067,1.117-0.527,1.593-0.911
			c0.22-0.177,0.434-0.361,0.646-0.544c0.865-0.744,2.175-0.424,2.861,0.144c0.296,0.246,0.571,0.52,0.733,0.847
			c0.378,0.761,1.038,1.047,1.897,1.064c0.125,0.002,0.309-0.079,0.366,0.093c0.055,0.161-0.104,0.25-0.21,0.348
			c-0.267,0.247-0.563,0.151-0.854,0.055c-0.203-0.067-0.395-0.167-0.616-0.177c-0.34-0.017-0.468,0.104-0.442,0.415
			c0.057,0.684,0.775,1.366,1.521,1.421c0.278,0.021,0.568,0.032,0.839-0.017c0.938-0.166,1.688,0.104,2.152,0.855
			C248.322,119.346,248.945,119.968,250.06,120.017z M229.616,147.888c0.855-0.014,1.645-0.143,2.426-0.317
			c2.679-0.6,4.765-1.911,5.953-4.262c0.766-1.515,1.082-3.136,1.243-4.786c0.071-0.729-0.208-1.319-0.813-1.802
			c-0.712-0.567-1.409-1.151-2.096-1.744c-1.646-1.423-2.37-3.182-2.207-5.246c0.061-0.769,0.311-1.459,1.01-1.966
			c0.979-0.709,1.037-1.875,0.161-2.692c-0.765-0.713-0.902-1.706-0.348-2.576c0.193-0.303,0.223-0.612,0.12-0.944
			c-0.103-0.333-0.286-0.628-0.509-0.898c-0.753-0.915-1.522-1.818-2.302-2.714c-0.688-0.79-1.543-0.992-2.555-0.72
			c-1.315,0.354-2.41,0.96-2.813,2.274c-0.218,0.712-0.218,1.436-0.074,2.158c0.114,0.572,0.185,1.168,0.589,1.648
			c0.297,0.351,0.501,0.733,0.6,1.162c0.357,1.552,1.502,2.684,2.475,3.904c0.278,0.349,0.702,0.434,1.171,0.311
			c0.371-0.097,0.707-0.261,1.054-0.406c0.137-0.057,0.263-0.262,0.422-0.129c0.158,0.132,0.083,0.33-0.001,0.492
			c-0.06,0.115-0.13,0.228-0.212,0.33c-0.463,0.581-1.086,0.891-1.868,0.96c-0.648,0.058-1.197,0.323-1.598,0.801
			c-0.613,0.734-0.377,1.283,0.601,1.424c0.025,0.004,0.05,0.009,0.075,0.01c1.233,0.037,1.579,0.782,1.606,1.565
			c0.032,0.948,0.415,1.642,1.394,2.021c0.286,0.111,0.488,0.319,0.451,0.63c-0.038,0.318-0.288,0.484-0.598,0.571
			c-0.155,0.044-0.323,0.069-0.486,0.072c-0.896,0.015-1.553-0.376-2.044-1.038c-0.229-0.31-0.459-0.618-0.697-0.922
			c-0.27-0.343-0.636-0.502-1.095-0.429c-0.614,0.1-1.225,0.216-1.837,0.318c-1.85,0.313-3.576,0.062-5.122-0.969
			c-0.206-0.137-0.395-0.13-0.608-0.063c-0.541,0.17-1,0.464-1.417,0.812c-1.091,0.909-1.933,1.981-2.487,3.242
			c-0.082,0.186-0.067,0.322,0.047,0.486c0.687,0.987,1.409,1.951,2.195,2.872c1.635,1.915,3.404,3.707,5.626,5.07
			C226.445,147.257,227.939,147.877,229.616,147.888z"/>
		<path fill-rule="evenodd" clip-rule="evenodd" fill="#FCFDFD" d="M229.616,147.888c-1.677-0.011-3.171-0.631-4.568-1.488
			c-2.222-1.363-3.991-3.155-5.626-5.07c-0.786-0.921-1.509-1.885-2.195-2.872c-0.114-0.164-0.129-0.301-0.047-0.486
			c0.555-1.261,1.396-2.333,2.487-3.242c0.417-0.348,0.876-0.642,1.417-0.812c0.214-0.066,0.402-0.073,0.608,0.063
			c1.546,1.03,3.272,1.281,5.122,0.969c0.612-0.103,1.223-0.219,1.837-0.318c0.459-0.073,0.825,0.086,1.095,0.429
			c0.238,0.304,0.468,0.612,0.697,0.922c0.491,0.662,1.148,1.053,2.044,1.038c0.163-0.003,0.331-0.028,0.486-0.072
			c0.31-0.087,0.56-0.253,0.598-0.571c0.037-0.311-0.165-0.519-0.451-0.63c-0.979-0.38-1.361-1.073-1.394-2.021
			c-0.027-0.783-0.373-1.528-1.606-1.565c-0.025-0.001-0.05-0.006-0.075-0.01c-0.978-0.141-1.214-0.689-0.601-1.424
			c0.4-0.479,0.949-0.744,1.598-0.801c0.782-0.069,1.405-0.379,1.868-0.96c0.082-0.103,0.152-0.215,0.212-0.33
			c0.084-0.163,0.159-0.36,0.001-0.492c-0.159-0.133-0.285,0.072-0.422,0.129c-0.347,0.145-0.683,0.309-1.054,0.406
			c-0.469,0.123-0.893,0.038-1.171-0.311c-0.973-1.22-2.117-2.352-2.475-3.904c-0.099-0.428-0.303-0.811-0.6-1.162
			c-0.404-0.479-0.475-1.076-0.589-1.648c-0.144-0.722-0.144-1.446,0.074-2.158c0.402-1.313,1.497-1.919,2.813-2.274
			c1.012-0.272,1.867-0.07,2.555,0.72c0.779,0.896,1.549,1.8,2.302,2.714c0.223,0.27,0.406,0.565,0.509,0.898
			c0.103,0.332,0.073,0.641-0.12,0.944c-0.555,0.87-0.417,1.863,0.348,2.576c0.876,0.817,0.817,1.983-0.161,2.692
			c-0.699,0.507-0.949,1.197-1.01,1.966c-0.163,2.064,0.562,3.823,2.207,5.246c0.687,0.593,1.384,1.177,2.096,1.744
			c0.605,0.482,0.885,1.072,0.813,1.802c-0.161,1.65-0.478,3.271-1.243,4.786c-1.188,2.351-3.274,3.662-5.953,4.262
			C231.261,147.745,230.472,147.874,229.616,147.888z"/>
	</g>
</g>
</svg>
