<?xml version="1.0" encoding="utf-8"?>
<!-- Generator: Adobe Illustrator 16.0.2, SVG Export Plug-In . SVG Version: 6.00 Build 0)  -->
<!DOCTYPE svg PUBLIC "-//W3C//DTD SVG 1.1//EN" "http://www.w3.org/Graphics/SVG/1.1/DTD/svg11.dtd">
<svg version="1.1" id="Layer_1" xmlns="http://www.w3.org/2000/svg" xmlns:xlink="http://www.w3.org/1999/xlink" x="0px" y="0px"
	 width="270px" height="260px" viewBox="0 0 270 260" enable-background="new 0 0 270 260" xml:space="preserve">
<g>
	<defs>
		<rect id="SVGID_1_" x="6.22" width="257.56" height="257.561"/>
	</defs>
	<clipPath id="SVGID_2_">
		<use xlink:href="#SVGID_1_"  overflow="visible"/>
	</clipPath>
	<path clip-path="url(#SVGID_2_)" fill-rule="evenodd" clip-rule="evenodd" fill="#CDBC65" d="M79.653,165.738l-0.718-0.719
		c-1.273,1.221-2.883,1.83-4.832,1.83c-1.318,0-2.516-0.291-3.595-0.871c-1.078-0.582-1.925-1.385-2.539-2.41
		s-0.921-2.168-0.921-3.434c0-1.264,0.307-2.408,0.921-3.434s1.461-1.826,2.539-2.408c1.079-0.582,2.277-0.873,3.595-0.873
		c1.962,0,3.574,0.604,4.832,1.811l0.718-0.721c-0.673-0.697-1.49-1.223-2.448-1.58c-0.959-0.355-2.007-0.533-3.146-0.533
		c-1.542,0-2.933,0.334-4.168,1.002c-1.236,0.668-2.21,1.592-2.921,2.768c-0.712,1.18-1.068,2.5-1.068,3.969
		s0.356,2.791,1.068,3.967c0.711,1.18,1.685,2.102,2.921,2.77c1.235,0.67,2.626,1.004,4.168,1.004c1.123,0,2.169-0.184,3.135-0.545
		C78.16,166.967,78.979,166.436,79.653,165.738 M98.068,164.102c0.712-1.176,1.067-2.498,1.067-3.967s-0.355-2.789-1.067-3.969
		c-0.712-1.176-1.689-2.1-2.932-2.768c-1.244-0.668-2.637-1.002-4.18-1.002c-1.543,0-2.936,0.338-4.18,1.014
		c-1.243,0.676-2.221,1.602-2.932,2.779c-0.711,1.178-1.067,2.492-1.067,3.945s0.356,2.77,1.067,3.945
		c0.711,1.178,1.689,2.105,2.932,2.781c1.244,0.676,2.637,1.014,4.18,1.014c1.543,0,2.936-0.334,4.18-1.004
		C96.379,166.203,97.356,165.281,98.068,164.102 M90.957,166.85c-1.319,0-2.513-0.291-3.583-0.871
		c-1.072-0.582-1.914-1.385-2.528-2.41c-0.615-1.025-0.921-2.168-0.921-3.434c0-1.264,0.306-2.408,0.921-3.434
		c0.614-1.025,1.456-1.826,2.528-2.408c1.07-0.582,2.265-0.873,3.583-0.873c1.318,0,2.509,0.291,3.572,0.873
		s1.903,1.383,2.517,2.408c0.613,1.025,0.921,2.17,0.921,3.434c0,1.266-0.308,2.408-0.921,3.434
		c-0.614,1.025-1.454,1.828-2.517,2.41C93.465,166.559,92.274,166.85,90.957,166.85 M117.045,167.766v-15.26h-1.146v13.254
		l-10.696-13.254h-0.966v15.26h1.146V154.51l10.72,13.256H117.045z M126.663,167.766h1.146v-14.258h5.663v-1.002H121v1.002h5.663
		V167.766z M149.649,167.766l-3.932-5.342c1.184-0.334,2.092-0.912,2.729-1.732c0.637-0.82,0.955-1.836,0.955-3.041
		c0-1.613-0.562-2.875-1.685-3.783c-1.124-0.908-2.675-1.361-4.652-1.361h-5.64v15.26h1.146v-4.992h4.494
		c0.464,0,0.974-0.035,1.528-0.109l3.753,5.102H149.649z M143.065,161.793h-4.494v-8.285h4.494c1.678,0,2.959,0.359,3.843,1.078
		c0.884,0.721,1.326,1.742,1.326,3.064s-0.442,2.342-1.326,3.063C146.024,161.432,144.743,161.793,143.065,161.793 M155.335,163.471
		h9.123l2.022,4.295h1.236l-7.236-15.26h-1.146l-7.236,15.26h1.235L155.335,163.471z M159.896,153.727l4.135,8.807h-8.247
		L159.896,153.727z M174.569,154.293c1.079-0.582,2.276-0.873,3.596-0.873c1.962,0,3.573,0.604,4.831,1.811l0.719-0.721
		c-0.674-0.697-1.49-1.223-2.449-1.58c-0.959-0.355-2.007-0.533-3.146-0.533c-1.543,0-2.933,0.334-4.168,1.002
		c-1.236,0.668-2.21,1.592-2.921,2.768c-0.713,1.18-1.068,2.5-1.068,3.969s0.355,2.791,1.068,3.967
		c0.711,1.18,1.685,2.102,2.921,2.77c1.235,0.67,2.625,1.004,4.168,1.004c1.123,0,2.168-0.184,3.135-0.545
		c0.966-0.363,1.786-0.895,2.46-1.592l-0.719-0.719c-1.274,1.221-2.884,1.83-4.831,1.83c-1.319,0-2.517-0.291-3.596-0.871
		c-1.079-0.582-1.925-1.385-2.539-2.41s-0.921-2.168-0.921-3.434c0-1.264,0.307-2.408,0.921-3.434S173.49,154.875,174.569,154.293
		 M191.49,167.766h1.146v-14.258h5.662v-1.002h-12.472v1.002h5.663V167.766z M24.477,184.268c1.079-0.58,2.277-0.871,3.596-0.871
		c1.962,0,3.573,0.604,4.831,1.809l0.72-0.719c-0.674-0.697-1.491-1.223-2.45-1.58c-0.958-0.355-2.007-0.535-3.146-0.535
		c-1.543,0-2.933,0.336-4.168,1.004s-2.21,1.592-2.921,2.768c-0.712,1.178-1.067,2.5-1.067,3.969c0,1.467,0.355,2.791,1.067,3.967
		c0.711,1.178,1.685,2.102,2.921,2.77s2.625,1.004,4.168,1.004c1.124,0,2.168-0.184,3.135-0.547
		c0.966-0.363,1.787-0.893,2.461-1.592l-0.72-0.719c-1.273,1.221-2.884,1.832-4.831,1.832c-1.319,0-2.517-0.291-3.596-0.871
		c-1.078-0.582-1.925-1.385-2.539-2.41c-0.615-1.025-0.921-2.17-0.921-3.434s0.307-2.408,0.921-3.434
		C22.552,185.652,23.398,184.852,24.477,184.268 M49.105,183.375c-1.244-0.668-2.638-1.004-4.18-1.004s-2.937,0.34-4.18,1.016
		c-1.244,0.676-2.221,1.602-2.932,2.777c-0.713,1.18-1.068,2.494-1.068,3.947s0.355,2.768,1.068,3.945
		c0.711,1.178,1.688,2.104,2.932,2.781c1.243,0.676,2.637,1.014,4.18,1.014s2.936-0.336,4.18-1.004
		c1.242-0.668,2.22-1.592,2.932-2.77c0.711-1.176,1.067-2.5,1.067-3.967c0-1.469-0.356-2.791-1.067-3.969
		C51.325,184.967,50.347,184.043,49.105,183.375 M51.014,193.545c-0.614,1.025-1.453,1.828-2.516,2.41
		c-1.064,0.58-2.255,0.871-3.573,0.871c-1.318,0-2.514-0.291-3.585-0.871c-1.07-0.582-1.913-1.385-2.527-2.41
		s-0.921-2.17-0.921-3.434s0.307-2.408,0.921-3.434s1.457-1.826,2.527-2.41c1.071-0.58,2.267-0.871,3.585-0.871
		c1.317,0,2.508,0.291,3.573,0.871c1.063,0.584,1.902,1.385,2.516,2.41c0.615,1.025,0.921,2.17,0.921,3.434
		S51.629,192.52,51.014,193.545 M69.867,195.736L59.171,182.48h-0.966v15.262h1.146v-13.256l10.719,13.256h0.944V182.48h-1.146
		V195.736z M84.922,190.482c-0.688-0.262-1.61-0.531-2.763-0.807c-1.034-0.248-1.851-0.48-2.45-0.699
		c-0.599-0.217-1.101-0.529-1.506-0.938c-0.405-0.406-0.606-0.951-0.606-1.635c0-0.9,0.374-1.635,1.124-2.201
		c0.749-0.566,1.85-0.852,3.303-0.852c0.734,0,1.479,0.111,2.236,0.328c0.756,0.219,1.449,0.537,2.078,0.959l0.427-0.893
		c-0.614-0.422-1.34-0.756-2.18-1.004c-0.838-0.246-1.693-0.371-2.562-0.371c-1.243,0-2.28,0.184-3.113,0.547
		c-0.831,0.361-1.448,0.854-1.853,1.471s-0.606,1.297-0.606,2.037c0,0.918,0.243,1.646,0.729,2.193
		c0.487,0.543,1.079,0.947,1.775,1.209s1.622,0.531,2.775,0.807c1.018,0.232,1.827,0.457,2.426,0.676
		c0.6,0.219,1.102,0.529,1.506,0.938c0.405,0.406,0.607,0.951,0.607,1.635c0,0.887-0.383,1.605-1.146,2.158
		c-0.764,0.553-1.895,0.828-3.393,0.828c-1.033,0-2.019-0.178-2.955-0.535c-0.936-0.354-1.682-0.816-2.235-1.383l-0.517,0.828
		c0.583,0.611,1.396,1.109,2.438,1.494c1.041,0.385,2.138,0.578,3.292,0.578c1.243,0,2.292-0.184,3.146-0.547
		c0.854-0.363,1.487-0.85,1.898-1.461c0.412-0.609,0.619-1.285,0.619-2.027c0-0.9-0.244-1.615-0.731-2.146
		C86.2,191.141,85.611,190.744,84.922,190.482 M103.753,191.225c0,1.873-0.442,3.275-1.326,4.205
		c-0.884,0.932-2.157,1.396-3.82,1.396c-1.678,0-2.958-0.465-3.843-1.396c-0.884-0.93-1.326-2.332-1.326-4.205v-8.744h-1.146v8.785
		c0,2.152,0.55,3.787,1.652,4.906c1.1,1.119,2.647,1.68,4.64,1.68c1.992,0,3.543-0.561,4.651-1.68
		c1.109-1.119,1.663-2.754,1.663-4.906v-8.785h-1.146V191.225z M112.517,182.48h-1.146v15.262h10.202v-1.004h-9.055V182.48z
		 M121.528,183.484h5.663v14.258h1.146v-14.258H134v-1.004h-12.472V183.484z M137.953,197.742h1.146V182.48h-1.146V197.742z
		 M157.368,195.736l-10.696-13.256h-0.967v15.262h1.146v-13.256l10.72,13.256h0.942V182.48h-1.146V195.736z M168.233,184.268
		c1.086-0.58,2.303-0.871,3.65-0.871c0.989,0,1.892,0.143,2.708,0.426s1.555,0.744,2.214,1.383l0.719-0.74
		c-0.688-0.684-1.517-1.201-2.482-1.559c-0.967-0.355-2.027-0.535-3.181-0.535c-1.572,0-2.984,0.336-4.235,1.004
		s-2.231,1.592-2.943,2.768c-0.712,1.178-1.067,2.5-1.067,3.969c0,1.467,0.355,2.791,1.067,3.967
		c0.712,1.178,1.692,2.102,2.943,2.77s2.655,1.004,4.214,1.004c1.093,0,2.13-0.168,3.112-0.502c0.98-0.334,1.816-0.822,2.505-1.461
		v-5.711h-1.101v5.252c-1.184,0.932-2.675,1.396-4.473,1.396c-1.348,0-2.562-0.295-3.64-0.885c-1.079-0.588-1.929-1.395-2.55-2.418
		c-0.622-1.025-0.933-2.162-0.933-3.412c0-1.264,0.306-2.408,0.921-3.434C166.296,185.652,167.146,184.852,168.233,184.268
		 M200.804,183.844c-1.123-0.908-2.674-1.363-4.651-1.363h-5.641v15.262h1.146v-4.992h4.494c1.978,0,3.528-0.455,4.651-1.363
		c1.124-0.908,1.686-2.162,1.686-3.76C202.489,186.014,201.928,184.752,200.804,183.844 M199.995,190.678
		c-0.884,0.713-2.165,1.068-3.843,1.068h-4.494v-8.262h4.494c1.678,0,2.959,0.359,3.843,1.078c0.883,0.719,1.325,1.74,1.325,3.064
		C201.32,188.947,200.878,189.967,199.995,190.678 M208.624,182.48h-1.146v15.262h10.201v-1.004h-9.056V182.48z M232.758,191.225
		c0,1.873-0.442,3.275-1.326,4.205c-0.884,0.932-2.157,1.396-3.819,1.396c-1.679,0-2.959-0.465-3.843-1.396
		c-0.885-0.93-1.326-2.332-1.326-4.205v-8.744h-1.146v8.785c0,2.152,0.55,3.787,1.65,4.906c1.103,1.119,2.648,1.68,4.641,1.68
		s3.543-0.561,4.651-1.68s1.663-2.754,1.663-4.906v-8.785h-1.146V191.225z M249.441,191.67c-0.486-0.529-1.074-0.926-1.763-1.188
		c-0.689-0.262-1.61-0.531-2.764-0.807c-1.034-0.248-1.851-0.48-2.45-0.699c-0.599-0.217-1.102-0.529-1.505-0.938
		c-0.405-0.406-0.607-0.951-0.607-1.635c0-0.9,0.374-1.635,1.124-2.201c0.749-0.566,1.851-0.852,3.304-0.852
		c0.732,0,1.478,0.111,2.235,0.328c0.756,0.219,1.449,0.537,2.079,0.959l0.426-0.893c-0.614-0.422-1.341-0.756-2.179-1.004
		c-0.84-0.246-1.693-0.371-2.562-0.371c-1.244,0-2.281,0.184-3.113,0.547c-0.831,0.361-1.449,0.854-1.854,1.471
		c-0.405,0.617-0.606,1.297-0.606,2.037c0,0.918,0.243,1.646,0.73,2.193c0.485,0.543,1.078,0.947,1.774,1.209
		c0.697,0.262,1.622,0.531,2.775,0.807c1.019,0.232,1.828,0.457,2.427,0.676c0.6,0.219,1.102,0.529,1.506,0.938
		c0.404,0.406,0.606,0.951,0.606,1.635c0,0.887-0.381,1.605-1.146,2.158s-1.896,0.828-3.394,0.828c-1.033,0-2.02-0.178-2.954-0.535
		c-0.938-0.354-1.683-0.816-2.236-1.383l-0.518,0.828c0.585,0.611,1.396,1.109,2.438,1.494s2.139,0.578,3.293,0.578
		c1.242,0,2.292-0.184,3.146-0.547s1.486-0.85,1.897-1.461c0.412-0.609,0.619-1.285,0.619-2.027
		C250.173,192.916,249.93,192.201,249.441,191.67"/>
	<path clip-path="url(#SVGID_2_)" fill-rule="evenodd" clip-rule="evenodd" fill="#CDBC65" d="M134.833,60.027v-0.008L94.442,83.028
		v43.273h0.001v2.172l29.858-17.009v-1.673V98.278l10.531-5.999V92.26l10.531,5.993v13.176l29.856,16.994v-2.169h0.003V83.017
		L134.833,60.027z M151.187,113.072l-4.336-2.468V97.429l-12.018-6.84v0.018l-12.018,6.846v13.187l-4.336,2.47V95.393l16.354-9.316
		v-0.014l16.354,9.309V113.072z M156.763,116.246l-4.089-2.327V94.546l-17.841-10.155v0.013l-17.841,10.162v19.388l-4.089,2.331
		V92.508l21.93-12.493v-0.009l21.93,12.483V116.246z M162.462,119.49l-4.213-2.397V91.664l-23.416-13.329v0.008l-23.416,13.339
		v25.449l-4.213,2.4V89.743l27.629-15.738v-0.004l27.629,15.725V119.49z M168.16,122.734l-4.212-2.397V88.901l-29.115-16.572v0.003
		l-29.115,16.585v31.461l-4.213,2.399V86.859l33.328-18.986v0l33.327,18.97V122.734z M173.736,125.907l-4.09-2.326V86.019
		l-34.813-19.816V66.2l-34.815,19.833v37.593l-4.089,2.328v-42.1l38.904-22.162v0.005l38.903,22.144V125.907z"/>
</g>
</svg>
