<?xml version="1.0" encoding="utf-8"?>
<!-- Generator: Adobe Illustrator 16.0.2, SVG Export Plug-In . SVG Version: 6.00 Build 0)  -->
<!DOCTYPE svg PUBLIC "-//W3C//DTD SVG 1.1//EN" "http://www.w3.org/Graphics/SVG/1.1/DTD/svg11.dtd">
<svg version="1.1" id="Layer_1" xmlns="http://www.w3.org/2000/svg" xmlns:xlink="http://www.w3.org/1999/xlink" x="0px" y="0px"
	 width="270px" height="260px" viewBox="0 0 270 260" enable-background="new 0 0 270 260" xml:space="preserve">
<g>
	<g>
		<path fill-rule="evenodd" clip-rule="evenodd" fill="#FCFDFC" d="M136.875,50.398c43.036,0,86.073,0.092,129.108-0.128
			c4.856-0.024,5.971,1.098,5.952,5.953c-0.207,50.479-0.207,100.958,0,151.435c0.019,4.855-1.098,5.959-5.952,5.949
			c-86.071-0.171-172.145-0.171-258.217,0c-4.853,0.01-5.972-1.093-5.952-5.948c0.206-50.479,0.206-100.958,0-151.435
			c-0.02-4.856,1.096-5.978,5.953-5.954C50.802,50.49,93.839,50.398,136.875,50.398z M63.364,129.491
			c1.051,8.696-1.278,16.798-3.375,24.852c-1.867,7.17-6.681,12.251-14.388,12.185c-7.102-0.062-10.574-5.427-12.372-11.771
			c-0.591-2.083-0.071-5.263-3.108-5.179c-3.558,0.1-4.272,3.399-4.794,6.313c-2.547,14.203,12.084,27.802,26.132,24.069
			c12.532-3.33,21.201-10.938,23.822-24.048c4.5-22.508,7.654-45.206,8.578-68.169c0.153-3.785,0.999-8.571-4.021-9.652
			c-5.402-1.164-5.827,4.153-7.147,7.472c-5.475,13.775-10.634,27.675-16.035,41.48c-1.245,3.182-2.035,8.44-5.753,7.941
			c-4.204-0.564-4.157-5.917-4.467-9.674c-0.794-9.651-1.316-19.325-1.958-28.988c-0.175-2.645-0.492-5.623-3.559-6.143
			c-3.488-0.592-4.032,2.745-4.625,5.083c-2.312,9.116-3.697,18.412-2.698,27.807c0.871,8.185,2.491,17.124,11.638,19.503
			C55.05,145.125,59.142,137,63.364,129.491z M139.572,141.808c-0.757-8.263-1.523-18.238-5.691-27.489
			c-6.088-13.511-17.07-16.431-29.138-7.931c-16.842,11.862-23.652,44.753-12.897,62.285c9.6,15.648,29.955,15.789,39.784,0.313
			C136.582,161.192,139.316,152.749,139.572,141.808z M234.225,137.131c2.872,13.367,2.229,25.576,7.22,36.614
			c1.746,3.86,3.713,8.153,9.225,5.971c5.134-2.032,3.217-5.89,2.226-9.762c-4.877-19.055-9.878-38.117-6.99-58.138
			c0.262-1.813-0.081-3.981-0.883-5.625c-1.729-3.549-4.629-5.72-6.491-0.471c-1.878,5.288-5.941,5.926-10.271,7.326
			c-22.131,7.157-34.774,25.734-32.189,46.863c1.242,10.16,8.255,13.877,17.175,9.06c4.685-2.53,8.081-6.269,10.429-11.071
			C226.771,151.565,230.049,145.325,234.225,137.131z M143.559,115.71c-1.649,16.794-1.697,33.579-0.063,50.336
			c0.378,3.891,0.684,7.771,2.448,11.274c2.695,5.354,6.991,2.957,9.769,0.797c3.649-2.836,6.979-11.319,6.124-11.369
			c-7.967-0.458-4.892-6.184-5.016-9.575c-0.364-9.995-0.021-20.014-0.027-30.023c-0.011-17.092,1.542-34.231-1.231-51.247
			c-0.672-4.122-1.478-9.471-6.46-9.513c-5.615-0.049-5.356,5.7-5.439,9.627C143.388,89.244,143.559,102.479,143.559,115.71z
			 M169.057,119.458c0.005,17.409-0.806,34.851,1.87,52.159c0.536,3.47,0.873,7.842,5.004,8.491
			c3.916,0.616,7.688-1.452,9.489-5.354c1.313-2.846,4.977-8.705,2.479-8.501c-9.096,0.743-4.593-5.7-4.741-8.12
			c-0.732-11.897-0.427-23.824,0.279-35.766c0.914-15.456,0.854-30.977-1.118-46.378c-0.518-4.047-1.508-9.329-6.461-9.629
			c-5.187-0.316-4.952,5.013-5.422,8.634C168.524,89.761,169.36,104.629,169.057,119.458z"/>
		<path fill-rule="evenodd" clip-rule="evenodd" fill="#70C151" d="M63.364,129.491c-4.222,7.509-8.314,15.634-18.13,13.08
			c-9.147-2.38-10.767-11.318-11.638-19.503c-0.999-9.395,0.386-18.691,2.698-27.807c0.593-2.338,1.137-5.675,4.625-5.083
			c3.067,0.521,3.384,3.498,3.559,6.143c0.642,9.664,1.163,19.337,1.958,28.988c0.31,3.757,0.263,9.109,4.467,9.674
			c3.718,0.499,4.509-4.759,5.753-7.941c5.401-13.806,10.561-27.705,16.035-41.48c1.32-3.319,1.745-8.636,7.147-7.472
			c5.02,1.082,4.173,5.867,4.021,9.652c-0.923,22.963-4.077,45.662-8.578,68.169c-2.621,13.11-11.29,20.718-23.822,24.048
			c-14.048,3.732-28.68-9.866-26.132-24.069c0.521-2.913,1.236-6.213,4.794-6.313c3.037-0.084,2.517,3.096,3.108,5.179
			c1.798,6.345,5.27,11.71,12.372,11.771c7.707,0.066,12.521-5.015,14.388-12.185C62.086,146.289,64.415,138.188,63.364,129.491z"/>
		<path fill-rule="evenodd" clip-rule="evenodd" fill="#70C151" d="M139.572,141.808c-0.256,10.941-2.99,19.385-7.942,27.179
			c-9.83,15.476-30.185,15.335-39.784-0.313c-10.755-17.532-3.945-50.423,12.897-62.285c12.068-8.5,23.049-5.58,29.138,7.931
			C138.049,123.569,138.815,133.545,139.572,141.808z M133.876,142.834c-1.428-8.427-1.444-18.106-7.428-25.869
			c-2.761-3.581-6.127-8.405-11.838-3.897c-10.41,8.217-14.642,38.815-6.954,49.688c3.246,4.59,7.68,6.722,13.314,6.256
			c5.276-0.437,7.756-4.106,9.589-8.425C132.859,155.169,133.62,149.438,133.876,142.834z"/>
		<path fill-rule="evenodd" clip-rule="evenodd" fill="#70C151" d="M234.225,137.131c-4.176,8.194-7.454,14.435-10.551,20.766
			c-2.348,4.803-5.744,8.541-10.429,11.071c-8.92,4.817-15.933,1.101-17.175-9.06c-2.585-21.129,10.059-39.706,32.189-46.863
			c4.329-1.4,8.393-2.038,10.271-7.326c1.862-5.249,4.762-3.078,6.491,0.471c0.802,1.644,1.145,3.812,0.883,5.625
			c-2.888,20.021,2.113,39.083,6.99,58.138c0.991,3.872,2.908,7.729-2.226,9.762c-5.512,2.183-7.479-2.11-9.225-5.971
			C236.454,162.707,237.097,150.498,234.225,137.131z M235.328,118.379c-20.952,7.086-24.711,19.526-25.031,36.38
			c-0.04,2.107,0.096,4.862,2.465,5.718c0.971,0.351,3.199-0.921,3.929-2.053C224.597,146.154,231.509,133.413,235.328,118.379z"/>
		<path fill-rule="evenodd" clip-rule="evenodd" fill="#73C255" d="M143.559,115.71c0-13.231-0.171-26.466,0.104-39.692
			c0.083-3.927-0.176-9.676,5.439-9.627c4.982,0.042,5.788,5.391,6.46,9.513c2.773,17.016,1.221,34.154,1.231,51.247
			c0.007,10.009-0.337,20.028,0.027,30.023c0.124,3.392-2.951,9.117,5.016,9.575c0.855,0.05-2.475,8.533-6.124,11.369
			c-2.777,2.16-7.073,4.557-9.769-0.797c-1.765-3.504-2.07-7.384-2.448-11.274C141.861,149.289,141.909,132.505,143.559,115.71z"/>
		<path fill-rule="evenodd" clip-rule="evenodd" fill="#70C151" d="M169.048,119.457c0.313-14.828-0.523-29.696,1.388-44.463
			c0.47-3.621,0.235-8.95,5.422-8.634c4.953,0.3,5.943,5.582,6.461,9.629c1.973,15.402,2.032,30.922,1.118,46.378
			c-0.706,11.941-1.012,23.868-0.279,35.766c0.148,2.42-4.354,8.863,4.741,8.12c2.498-0.204-1.165,5.655-2.479,8.501
			c-1.801,3.902-5.573,5.971-9.489,5.354c-4.131-0.649-4.468-5.021-5.004-8.491C168.251,154.309,169.062,136.867,169.048,119.457z"
			/>
		<path fill-rule="evenodd" clip-rule="evenodd" fill="#FCFDFC" d="M133.876,142.834c-0.257,6.604-1.017,12.335-3.316,17.753
			c-1.833,4.318-4.313,7.988-9.589,8.425c-5.635,0.466-10.068-1.666-13.314-6.256c-7.688-10.872-3.457-41.47,6.954-49.688
			c5.711-4.508,9.077,0.316,11.838,3.897C132.433,124.728,132.449,134.407,133.876,142.834z"/>
		<path fill-rule="evenodd" clip-rule="evenodd" fill="#FCFDFC" d="M235.328,118.379c-3.819,15.034-10.731,27.775-18.638,40.045
			c-0.729,1.132-2.958,2.403-3.929,2.053c-2.369-0.855-2.505-3.61-2.465-5.718C210.617,137.905,214.376,125.465,235.328,118.379z"/>
	</g>
</g>
</svg>
