<svg width="40" height="40" viewBox="0 0 40 40" fill="none" xmlns="http://www.w3.org/2000/svg">
<path fill-rule="evenodd" clip-rule="evenodd" d="M22.9141 20.1371C21.6012 20.7254 20.1459 21.0526 18.6141 21.0526C17.0854 21.0526 15.6328 20.7268 14.322 20.1407L5.72838 24.0469C4.60103 24.5593 3.87724 25.6834 3.87724 26.9217V28.4211C3.87724 30.1651 5.29107 31.5789 7.03513 31.5789H17.5614C18.1428 31.5789 18.6141 32.0502 18.6141 32.6316C18.6141 33.2129 18.1428 33.6842 17.5614 33.6842H7.03513C4.12837 33.6842 1.77197 31.3278 1.77197 28.4211V26.9217C1.77197 24.8578 2.9783 22.9844 4.85722 22.1303L12.1344 18.8225C9.67111 16.8959 8.08776 13.896 8.08776 10.5263C8.08776 4.71279 12.8006 0 18.6141 0C24.4276 0 29.1404 4.71279 29.1404 10.5263C29.1404 13.8798 27.5722 16.8671 25.1291 18.7947L30.6069 21.1374C31.1415 21.366 31.3895 21.9847 31.1609 22.5192C30.9323 23.0537 30.3136 23.3017 29.7791 23.0731L22.9141 20.1371ZM28.7044 32.632L23.133 27.0606C22.7219 26.6495 22.7219 25.983 23.133 25.5719C23.5441 25.1609 24.2105 25.1609 24.6216 25.5719L30.1931 31.1434L35.7646 25.5719C36.1756 25.1609 36.8421 25.1609 37.2532 25.5719C37.6643 25.983 37.6643 26.6495 37.2532 27.0606L31.6817 32.632L37.2532 38.2035C37.6643 38.6146 37.6643 39.2811 37.2532 39.6922C36.8421 40.1032 36.1756 40.1032 35.7646 39.6922L30.1931 34.1207L24.6216 39.6922C24.2105 40.1032 23.5441 40.1032 23.133 39.6922C22.7219 39.2811 22.7219 38.6146 23.133 38.2035L28.7044 32.632ZM27.0359 10.527C27.0359 15.1778 23.2657 18.9481 18.6149 18.9481C13.9641 18.9481 10.1938 15.1778 10.1938 10.527C10.1938 5.8762 13.9641 2.10596 18.6149 2.10596C23.2657 2.10596 27.0359 5.8762 27.0359 10.527Z" fill="#00B3DF"/>
</svg>
