<svg width="40" height="40" viewBox="0 0 40 40" fill="none" xmlns="http://www.w3.org/2000/svg">
<path d="M19.2718 18.5963V22.9506H23.4052V18.5963C23.4052 18.2638 23.6747 17.9943 24.0072 17.9943H28.3614V13.8608H24.0072C23.6747 13.8608 23.4052 13.5913 23.4052 13.2588V8.90454H19.2718V13.2588C19.2718 13.5913 19.0022 13.8608 18.6697 13.8608H14.3154V17.9943H18.6697C19.0022 17.9943 19.2718 18.2639 19.2718 18.5963Z" fill="white"/>
<path d="M12.9995 20.0002H17.0002L16.9995 24.0002C16.9995 24.3327 17.667 25.0002 17.9995 25.0002H23.9995C24.332 25.0002 24.9995 24.3327 24.9995 24.0002L25.0002 20.0002H29.0002C29.3327 20.0002 30.0002 19.3326 30.0002 19.0002V13.0002C30.0002 12.6677 29.3327 12.0002 29.0002 12.0002H25.0002V8.00024C25.0002 7.66774 24.3327 7.00024 24.0002 7.00024H18.0002C17.6677 7.00024 17.0002 7.66782 17.0002 8.00024V12.0002H12.9997C12.6672 12.0002 11.9995 12.6678 11.9995 13.0002V19.0002C11.9996 19.3327 12.6671 20.0002 12.9995 20.0002ZM14.3155 13.8605H17.9656C18.2981 13.8605 18.9995 13.3327 18.9995 13.0002V9.00024H22.9995V13.0002C22.9995 13.3327 23.6748 14.0002 24.0073 14.0002H28.0002V18.0002L24.0073 17.994C23.6748 17.994 22.9995 18.6677 22.9995 19.0002V23.0002H18.9995V19.0002C18.9995 18.6677 18.332 18.0002 17.9995 18.0002L14.3155 17.994V13.8605Z" fill="#00B3DF"/>
<path d="M39.387 3H2.61296C2.27434 3 2 3.27717 2 3.61902V28.3809C2 28.7228 2.27434 28.9999 2.61296 28.9999L7 29C7.33854 29 8 28.5 8 28C8 27.5 7.33854 27 7 27H4V5H38V27H10C9.66146 27 9 27.4477 9 28C9 28.5523 9.66146 29 10 29H39.387C39.7257 29 40 28.7228 40 28.381V3.61902C40 3.27717 39.7257 3 39.387 3Z" fill="#00B3DF"/>
<path d="M2 37.9995C1.49563 37.9995 1 37.5038 1 36.9995V2.99951C1 2.49982 1.50031 1.99951 2 1.99951C2.50445 1.99951 3 2.49521 3 2.99951V36.9995C3 37.504 2.5043 37.9995 2 37.9995Z" fill="#00B3DF"/>
</svg>
