<svg width="45" height="40" viewBox="0 0 45 40" fill="none" xmlns="http://www.w3.org/2000/svg">
<mask id="mask0" mask-type="alpha" maskUnits="userSpaceOnUse" x="0" y="0" width="45" height="40">
<path fill-rule="evenodd" clip-rule="evenodd" d="M45 15.8363V24.1649C45 24.9404 44.5517 25.5682 44 25.5682C43.4467 25.5682 43 24.9404 43 24.1649V15.8363C43 15.0609 43.4467 14.4307 44 14.4307C44.5517 14.4307 45 15.0609 45 15.8363ZM41 12.7377V27.265C41 28.0405 40.5533 28.6707 40 28.6707C39.4483 28.6707 39 28.0405 39 27.265V12.7377C39 11.9622 39.4483 11.332 40 11.332C40.5533 11.332 41 11.9622 41 12.7377ZM2 15.8359V24.1645C2 24.94 1.55167 25.5678 1 25.5678C0.446667 25.5678 0 24.94 0 24.1645V15.8359C0 15.0605 0.446667 14.4303 1 14.4303C1.55167 14.4303 2 15.0605 2 15.8359ZM7 12.7377V27.265C7 28.0405 6.55167 28.6707 6 28.6707C5.44667 28.6707 5 28.0405 5 27.265V12.7377C5 11.9622 5.44667 11.332 6 11.332C6.55167 11.332 7 11.9622 7 12.7377ZM33 30H13V5.43672C13 3.54342 14.424 2 16.1736 2H29.8241C31.576 2 33 3.54342 33 5.43672V30ZM33 34.2107C33 36.301 31.576 38 29.8241 38H16.1736C14.424 38 13 36.301 13 34.2107V32H33V34.2107ZM29.4197 0H16.5768C13.5026 0 11 2.71524 11 6.05365V33.9464C11 37.2848 13.5026 40 16.5768 40H29.4197C32.4961 40 34.9965 37.2848 34.9965 33.9464V6.05365C34.9965 2.71524 32.4961 0 29.4197 0Z" fill="#626262"/>
</mask>
<g mask="url(#mask0)">
<rect x="-5.71631" y="-13.6929" width="57.1704" height="62.0522" fill="#00B3DF"/>
</g>
</svg>
