<svg width="40" height="40" viewBox="0 0 40 40" fill="none" xmlns="http://www.w3.org/2000/svg">
<g clip-path="url(#clip0)">
<path d="M39.7706 0.228828C39.6241 0.0823437 39.4253 0 39.2181 0L19.9998 0.00101562C19.5684 0.00101562 19.2186 0.350859 19.2186 0.782266V3.01641L11.8132 5.0007C11.3964 5.11242 11.1491 5.54078 11.2608 5.9575L15.0988 20.2811L11.7786 23.6013C11.356 22.9843 10.6465 22.5785 9.84393 22.5785H2.34416C1.05182 22.5785 0.000488281 23.6299 0.000488281 24.9222V37.6562C0.000488281 38.9486 1.05182 40 2.34416 40H9.844C10.9419 40 11.8655 39.2409 12.1186 38.2203L13.0475 39.0304C13.7646 39.6557 14.6834 40.0001 15.6349 40.0001H39.2182C39.6496 40.0001 39.9995 39.6502 39.9995 39.2188V0.78125C39.9993 0.574062 39.9171 0.375313 39.7706 0.228828ZM10.6251 37.6563C10.6251 38.087 10.2746 38.4376 9.84385 38.4376H2.34408C1.9133 38.4376 1.56283 38.0871 1.56283 37.6563V24.9223C1.56283 24.4915 1.9133 24.141 2.34408 24.141H5.31275V33.1406C5.31275 33.572 5.6626 33.9219 6.094 33.9219C6.52541 33.9219 6.87525 33.572 6.87525 33.1406V24.141H9.84393C10.2747 24.141 10.6252 24.4915 10.6252 24.9223L10.6251 37.6563ZM12.9722 6.30773L19.2186 4.63398V7.52891L19.1484 23.4371H17.5804L16.7724 20.2759C16.7467 20.1752 16.7017 20.0825 16.6414 20.0019L12.9722 6.30773ZM30.4424 38.4375H15.6347C15.0609 38.4375 14.5067 38.2298 14.0742 37.8527L12.1876 36.2073V25.4021L15.5984 21.9913L16.217 24.4116C16.3054 24.7575 16.6169 24.9994 16.9738 24.9994L32.3335 25.0003C32.9367 25.0003 33.4273 25.4909 33.4273 26.0941C33.4273 26.6972 32.9367 27.1878 32.3335 27.1878H24.4632C24.0318 27.1878 23.682 27.5377 23.682 27.9691C23.682 28.4005 24.0318 28.7503 24.4632 28.7503H34.7789C35.382 28.7503 35.8726 29.2409 35.8726 29.8441C35.8726 30.4472 35.382 30.9378 34.7789 30.9378H24.4632C24.0318 30.9378 23.682 31.2877 23.682 31.7191C23.682 32.1505 24.0318 32.5003 24.4632 32.5003H33.1072C33.7103 32.5003 34.201 32.9909 34.201 33.5941C34.201 34.1972 33.7103 34.6878 33.1072 34.6878H24.4632C24.0318 34.6878 23.682 35.0377 23.682 35.4691C23.682 35.9005 24.0318 36.2503 24.4632 36.2503H30.4424C31.0455 36.2503 31.5361 36.7409 31.5361 37.3441C31.536 37.9469 31.0454 38.4375 30.4424 38.4375ZM38.437 38.4375H32.862C33.0135 38.1037 33.0985 37.7336 33.0985 37.3438C33.0985 36.9539 33.0135 36.5838 32.862 36.25H33.1072C34.5718 36.25 35.7634 35.0584 35.7634 33.5938C35.7634 33.1666 35.6614 32.763 35.4814 32.405C36.6061 32.0961 37.4349 31.0652 37.4349 29.8439C37.4349 29.2514 37.2398 28.7037 36.9106 28.2615L36.9106 11.012C36.9106 11.012 36.5607 11.7932 36.1293 11.7932C35.6979 11.7932 35.3481 11.012 35.3481 11.012L35.3481 27.2499C35.1646 27.2097 34.9742 27.1878 34.7787 27.1878H34.7531C34.9046 26.854 34.9896 26.4839 34.9896 26.0941C34.9896 24.6294 33.7981 23.4379 32.3335 23.4379H31.0776C32.4111 22.866 33.3477 21.5405 33.3477 20C33.3477 17.9384 31.6705 16.2611 29.6088 16.2611C27.5473 16.2611 25.87 17.9384 25.87 20C25.87 21.5405 26.8067 22.866 28.1401 23.4379H23.8696V8.58305C25.2652 8.27891 26.3664 7.17773 26.6705 5.78203H32.5471C32.8512 7.17773 33.9524 8.27891 35.3481 8.58305V11.012C35.3481 11.012 35.6979 11.7932 36.1293 11.7932C36.5607 11.7932 36.9106 11.012 36.9106 11.012V7.88555C36.9106 7.45414 36.5607 7.1043 36.1293 7.1043C34.9694 7.1043 34.0259 6.16063 34.0259 5.00078C34.0259 4.56938 33.676 4.21953 33.2446 4.21953H25.9731C25.5417 4.21953 25.1918 4.56938 25.1918 5.00078C25.1918 6.1607 24.2482 7.1043 23.0884 7.1043C22.657 7.1043 22.3071 7.45414 22.3071 7.88555V23.4378H20.7812V1.56336L38.437 1.5625V38.4375ZM29.609 22.1764C28.4089 22.1764 27.4327 21.2001 27.4327 20.0001C27.4327 18.8001 28.409 17.8237 29.609 17.8237C30.809 17.8237 31.7853 18.8 31.7853 20C31.7853 21.2 30.8091 22.1764 29.609 22.1764Z" fill="#00B3DF"/>
</g>
<defs>
<clipPath id="clip0">
<rect width="40" height="40" fill="white"/>
</clipPath>
</defs>
</svg>
