<svg width="40" height="26" viewBox="0 0 40 26" fill="none" xmlns="http://www.w3.org/2000/svg">
<mask id="mask0" mask-type="alpha" maskUnits="userSpaceOnUse" x="0" y="0" width="40" height="26">
<path fill-rule="evenodd" clip-rule="evenodd" d="M26.416 19.2948C26.416 18.6868 26.9236 18.196 27.5481 18.196H31.3219C31.9465 18.196 32.4522 18.6868 32.4522 19.2948C32.4522 19.9028 31.9465 20.3936 31.3219 20.3936H27.5481C26.9236 20.3936 26.416 19.9028 26.416 19.2948ZM37.738 7.0189H2.26465V4.76082C2.26465 3.347 3.44961 2.19507 4.90628 2.19507H35.0964C36.5512 2.19507 37.738 3.347 37.738 4.76082V7.0189ZM37.738 21.2392C37.738 22.6528 36.5512 23.8046 35.0964 23.8046H4.90628C3.44961 23.8046 2.26465 22.6528 2.26465 21.2392V9.21606H37.738V21.2392ZM35.096 0H4.90589C2.2001 0 0 2.13508 0 4.7609V21.2391C0 23.8649 2.2001 26 4.90589 26H35.096C37.7999 26 40 23.8649 40 21.2391V4.7609C40 2.13508 37.7999 0 35.096 0Z" fill="#00B3DF"/>
</mask>
<g mask="url(#mask0)">
<rect x="-5" y="-12.3569" width="50" height="48.349" fill="#00B3DF"/>
</g>
</svg>
