<svg width="40" height="40" viewBox="0 0 40 40" fill="none" xmlns="http://www.w3.org/2000/svg">
<path d="M11.7333 30.6667L10.8 31.6C10.4 32 10.4 32.6667 10.8 33.0667C10.9333 33.3333 11.2 33.3333 11.4667 33.3333C11.7333 33.3333 12 33.3333 12.2667 33.0667L13.2 32.1333C13.6 31.7333 13.6 31.0667 13.2 30.6667C12.8 30.2667 12.1333 30.4 11.7333 30.6667ZM9.33333 22.9333H8C7.46667 22.9333 6.93333 23.3333 6.93333 24C6.93333 24.6667 7.33333 25.0667 8 25.0667H9.33333C9.86667 25.0667 10.4 24.6667 10.4 24C10.4 23.3333 9.86667 22.9333 9.33333 22.9333ZM20 14.1333C20.5333 14.1333 21.0667 13.7333 21.0667 13.0667V11.7333C21.0667 11.2 20.6667 10.6667 20 10.6667C19.3333 10.6667 18.9333 11.0667 18.9333 11.7333V13.0667C18.9333 13.7333 19.4667 14.1333 20 14.1333ZM12.2667 14.6667C11.8667 14.2667 11.2 14.2667 10.8 14.6667C10.4 15.0667 10.4 15.7333 10.8 16.1333L11.7333 17.0667C11.8667 17.2 12.1333 17.3333 12.4 17.3333C12.6667 17.3333 12.9333 17.2 13.0667 17.0667C13.4667 16.6667 13.4667 16 13.0667 15.6L12.2667 14.6667ZM24.6667 17.7333L20.2667 22C19.6 21.8667 18.9333 22 18.4 22.4C17.6 23.2 17.6 24.4 18.4 25.2C19.2 26 20.4 26 21.2 25.2C21.7333 24.6667 21.8667 24 21.7333 23.3333L26.1333 19.0667C26.5333 18.6667 26.5333 18 26.1333 17.6C25.7333 17.3333 25.0667 17.3333 24.6667 17.7333ZM21.0667 7.86667V7.06667C22.5333 6.66667 23.7333 5.2 23.7333 3.6C23.6 1.73333 22 0 20 0C18 0 16.4 1.6 16.4 3.6C16.4 5.2 17.4667 6.66667 19.0667 7.06667V7.86667C10.6667 8.4 4 15.3333 4 23.7333C4 32.5333 11.2 39.7333 20 39.7333C28.8 39.7333 36 32.5333 36 23.7333C36 15.3333 29.3333 8.4 21.0667 7.86667ZM18.4 3.73333C18.4 2.8 19.0667 2.13333 20 2.13333C20.9333 2.13333 21.6 2.8 21.6 3.73333C21.6 4.53333 20.9333 5.33333 20 5.33333C19.0667 5.33333 18.4 4.53333 18.4 3.73333ZM20 37.7333C12.2667 37.7333 6 31.4667 6 23.7333C6 16 12.2667 9.86667 20 9.86667C27.7333 9.86667 34 16.1333 34 23.8667C34 31.6 27.7333 37.7333 20 37.7333ZM20 33.6C19.4667 33.6 18.9333 34 18.9333 34.6667V36C18.9333 36.5333 19.3333 37.0667 20 37.0667C20.6667 37.0667 21.0667 36.6667 21.0667 36V34.6667C21.0667 34 20.5333 33.6 20 33.6ZM32 22.9333H30.6667C30.1333 22.9333 29.6 23.3333 29.6 24C29.6 24.6667 30 25.0667 30.6667 25.0667H32C32.5333 25.0667 33.0667 24.6667 33.0667 24C33.0667 23.3333 32.5333 22.9333 32 22.9333ZM27.7333 14.6667L26.8 15.6C26.4 16 26.4 16.6667 26.8 17.0667C26.9333 17.2 27.2 17.3333 27.4667 17.3333C27.7333 17.3333 28 17.2 28.1333 17.0667L29.0667 16.1333C29.4667 15.7333 29.4667 15.0667 29.0667 14.6667C28.8 14.2667 28.1333 14.2667 27.7333 14.6667ZM28.2667 30.6667C27.8667 30.2667 27.2 30.2667 26.8 30.6667C26.4 31.0667 26.4 31.7333 26.8 32.1333L27.7333 33.0667C28 33.3333 28.2667 33.3333 28.5333 33.3333C28.8 33.3333 29.0667 33.2 29.2 33.0667C29.6 32.6667 29.6 32 29.2 31.6L28.2667 30.6667Z" fill="#00B3DF"/>
</svg>
