<svg width="40" height="40" viewBox="0 0 40 40" fill="none" xmlns="http://www.w3.org/2000/svg">
<g clip-path="url(#clip0)">
<path d="M19.1323 11.6448C17.8616 11.6448 16.6194 12.0193 15.5629 12.7209C14.5063 13.4225 13.6829 14.4197 13.1966 15.5865C12.7103 16.7532 12.5831 18.0371 12.831 19.2757C13.0789 20.5143 13.6908 21.652 14.5893 22.545C15.4878 23.438 16.6326 24.0462 17.8789 24.2925C19.1252 24.5389 20.417 24.4125 21.591 23.9292C22.7649 23.4459 23.7683 22.6275 24.4743 21.5774C25.1803 20.5274 25.5571 19.2929 25.5571 18.03C25.5571 17.1915 25.3909 16.3612 25.068 15.5865C24.7451 14.8118 24.2719 14.1079 23.6753 13.515C23.0787 12.922 22.3704 12.4517 21.591 12.1308C20.8115 11.8099 19.976 11.6448 19.1323 11.6448ZM19.1323 22.6386C18.2109 22.6386 17.3102 22.3668 16.5444 21.8577C15.7785 21.3486 15.1819 20.6251 14.8301 19.7787C14.4783 18.9323 14.3872 18.0013 14.5682 17.1034C14.7493 16.2055 15.1944 15.3812 15.8471 14.735C16.4999 14.0887 17.331 13.6495 18.2351 13.473C19.1392 13.2964 20.0757 13.3906 20.9259 13.7434C21.7762 14.0963 22.502 14.692 23.0113 15.455C23.5206 16.2181 23.7907 17.1143 23.7872 18.03C23.7825 19.2539 23.29 20.4261 22.4175 21.2899C21.5451 22.1536 20.3638 22.6386 19.1323 22.6386Z" fill="#00B3DF"/>
<path d="M38.4602 13.861C38.8702 13.8564 39.2618 13.6913 39.5501 13.4015C39.8384 13.1117 40 12.7206 40 12.3131V9.88566C39.9954 9.48121 39.8317 9.09461 39.5439 8.8086C39.2561 8.52259 38.8671 8.35989 38.4602 8.35532H38.2832V3.51803C38.2832 2.58499 37.9102 1.69017 37.2464 1.03041C36.5826 0.370649 35.6822 0 34.7434 0L3.53982 0C2.601 0 1.70064 0.370649 1.03679 1.03041C0.372945 1.69017 0 2.58499 0 3.51803L0 32.5594C0 33.4924 0.372945 34.3872 1.03679 35.047C1.70064 35.7067 2.601 36.0774 3.53982 36.0774H5.30973V38.4872C5.30973 38.8978 5.47383 39.2915 5.76592 39.5818C6.05801 39.8721 6.45418 40.0352 6.86726 40.0352H12.7611C13.1711 40.0352 13.5646 39.8745 13.8562 39.588C14.1478 39.3015 14.3139 38.9123 14.3186 38.5048V36.0598H23.9823V38.4697C23.9823 38.8802 24.1464 39.2739 24.4385 39.5642C24.7306 39.8545 25.1267 40.0176 25.5398 40.0176H31.4513C31.8614 40.0176 32.2549 39.8569 32.5465 39.5704C32.838 39.2839 33.0042 38.8947 33.0089 38.4872V36.0598H34.7788C35.7176 36.0598 36.6179 35.6892 37.2818 35.0294C37.9456 34.3696 38.3186 33.4748 38.3186 32.5418V27.7045H38.4956C38.9056 27.7045 39.2991 27.5438 39.5907 27.2573C39.8823 26.9708 40.0484 26.5816 40.0531 26.1741V23.7467C40.0485 23.3422 39.8848 22.9556 39.597 22.6696C39.3092 22.3836 38.9202 22.2209 38.5133 22.2164H38.3363V13.861H38.4602ZM38.2478 23.9578V25.9455H30.9381V23.9578H38.2478ZM30.7257 22.1988C30.3157 22.2034 29.924 22.3685 29.6358 22.6583C29.3475 22.9481 29.1858 23.3392 29.1858 23.7467V26.1741C29.1858 26.5847 29.3499 26.9784 29.642 27.2687C29.9341 27.559 30.3303 27.7221 30.7434 27.7221H31.8584V29.9033H6.46018V6.15655H31.8584V8.35532H30.7611C30.3511 8.35995 29.9594 8.52508 29.6712 8.81487C29.3829 9.10467 29.2212 9.49575 29.2212 9.90325V12.3131C29.2212 12.7236 29.3853 13.1174 29.6774 13.4077C29.9695 13.698 30.3657 13.861 30.7788 13.861H31.8584V22.1988H30.7257ZM30.9558 12.102V10.1143H38.2301V12.102H30.9558ZM12.531 38.241H7.07965V36.0598H12.531V38.241ZM31.2212 38.241H25.7345V36.0598H31.2035L31.2212 38.241ZM36.531 32.5594C36.531 33.0259 36.3445 33.4733 36.0126 33.8032C35.6807 34.1331 35.2305 34.3184 34.7611 34.3184H3.53982C3.07041 34.3184 2.62023 34.1331 2.28831 33.8032C1.95638 33.4733 1.76991 33.0259 1.76991 32.5594V3.51803C1.76991 3.05151 1.95638 2.6041 2.28831 2.27422C2.62023 1.94434 3.07041 1.75901 3.53982 1.75901H34.7611C35.2305 1.75901 35.6807 1.94434 36.0126 2.27422C36.3445 2.6041 36.531 3.05151 36.531 3.51803V8.35532H33.6283V5.27704C33.6283 5.04378 33.5351 4.82008 33.3691 4.65514C33.2032 4.4902 32.9781 4.39754 32.7434 4.39754H5.57522C5.34052 4.39754 5.11542 4.4902 4.94946 4.65514C4.7835 4.82008 4.69027 5.04378 4.69027 5.27704V30.7828C4.69027 31.016 4.7835 31.2397 4.94946 31.4047C5.11542 31.5696 5.34052 31.6623 5.57522 31.6623H32.708C32.9427 31.6623 33.1678 31.5696 33.3337 31.4047C33.4997 31.2397 33.5929 31.016 33.5929 30.7828V27.7045H36.5133L36.531 32.5594ZM36.531 22.1988H33.6283V13.861H36.5487L36.531 22.1988Z" fill="#00B3DF"/>
</g>
<defs>
<clipPath id="clip0">
<rect width="40" height="40" fill="white"/>
</clipPath>
</defs>
</svg>
