<svg width="35" height="40" viewBox="0 0 35 40" fill="none" xmlns="http://www.w3.org/2000/svg">
<mask id="mask0" mask-type="alpha" maskUnits="userSpaceOnUse" x="0" y="0" width="35" height="40">
<path fill-rule="evenodd" clip-rule="evenodd" d="M25.5378 14.8305C25.9792 15.2712 25.9792 15.9868 25.5378 16.4294L16.2834 25.6685C16.0627 25.8889 15.7722 26 15.4836 26C15.195 26 14.9045 25.8889 14.6838 25.6685L9.96798 20.9605C9.52658 20.5198 9.52658 19.8041 9.96798 19.3616C10.4094 18.9209 11.1243 18.9209 11.5676 19.3616L15.4836 23.2712L23.9382 14.8305C24.3814 14.3898 25.0964 14.3898 25.5378 14.8305ZM32.9703 17.1009C32.9703 24.1417 29.4738 30.5961 23.6185 34.3656L18.1577 37.8821C17.9105 38.0393 17.5935 38.0393 17.3463 37.8821L11.8854 34.3656C6.03016 30.5961 2.53551 24.1417 2.53551 17.1009V11.7389C2.53551 11.4629 2.68081 11.208 2.91668 11.072L17.752 2.5L32.5891 11.072C32.8231 11.208 32.9703 11.4629 32.9703 11.7389V17.1009ZM33.4719 8.98559L18.061 0.149895C17.7115 -0.0499649 17.2885 -0.0499649 16.939 0.149895L1.52995 8.98559C0.585537 9.52617 0 10.5388 0 11.6333V16.959C0 24.7383 3.89476 31.8705 10.4131 36.0371L15.8832 39.5299C16.3743 39.8439 16.9352 40 17.5 40C18.0648 40 18.6257 39.8439 19.1168 39.5299H19.1187L24.5869 36.0371C31.1052 31.8705 35 24.7383 35 16.959V11.6333C35 10.5388 34.4145 9.52617 33.4719 8.98559Z" fill="#979797"/>
</mask>
<g mask="url(#mask0)">
<rect x="0.5" y="0.5" width="39.7273" height="39" fill="#00B3DF" stroke="#B8DAFC"/>
</g>
</svg>
