<svg width="34" height="40" viewBox="0 0 34 40" fill="none" xmlns="http://www.w3.org/2000/svg">
<mask id="mask0" mask-type="alpha" maskUnits="userSpaceOnUse" x="0" y="0" width="34" height="40">
<path fill-rule="evenodd" clip-rule="evenodd" d="M20.7789 25.6602C20.7789 27.7433 19.0858 29.4339 16.9998 29.4339C14.9137 29.4339 13.2207 27.7433 13.2207 25.6602C13.2207 23.5772 14.9137 21.8866 16.9998 21.8866C19.0858 21.8866 20.7789 23.5772 20.7789 25.6602ZM30.9826 31.321C30.9826 34.8587 28.101 37.7361 24.5581 37.7361H9.44187C5.899 37.7361 3.01746 34.8587 3.01746 31.321V20.0003C3.01746 16.4626 5.899 13.5852 9.44187 13.5852H24.5581C28.101 13.5852 30.9826 16.4626 30.9826 20.0003V31.321ZM10.576 8.6791C10.576 5.14091 13.4576 2.26318 17.0005 2.26318C18.701 2.26318 20.3185 2.93119 21.5391 4.13323C22.756 5.36358 23.4249 6.97888 23.4249 8.6791V11.3209H10.576V8.6791ZM25.6919 11.3943V8.67924C25.6919 6.38113 24.7906 4.20189 23.1429 2.53396C21.482 0.9 19.3015 0 17 0C12.2063 0 8.30814 3.89245 8.30814 8.67924V11.3943C4.04913 11.9509 0.75 15.5981 0.75 20V31.3208C0.75 36.1075 4.64811 40 9.44186 40H24.5581C29.35 40 33.25 36.1075 33.25 31.3208V20C33.25 15.5981 29.9509 11.9509 25.6919 11.3943Z" fill="url(#paint0_radial)"/>
</mask>
<g mask="url(#mask0)">
<rect x="-7.5" y="-6.69043" width="49" height="48.976" fill="#00B3DF" stroke="#00B3DF"/>
</g>
<defs>
<radialGradient id="paint0_radial" cx="0" cy="0" r="1" gradientUnits="userSpaceOnUse" gradientTransform="translate(17.7172 13.2669) rotate(90) scale(32.1226 27.4043)">
<stop stop-color="#0CDFFC"/>
<stop offset="0.113984" stop-color="#1FC0FB"/>
<stop offset="1" stop-color="#8628FF"/>
</radialGradient>
</defs>
</svg>
