<svg width="40" height="40" viewBox="0 0 40 40" fill="none" xmlns="http://www.w3.org/2000/svg">
<g clip-path="url(#clip0)">
<path d="M7.85151 14.0609C8.33238 14.2888 8.85414 14.4177 9.3858 14.4399V14.9696C9.3858 14.9696 9.3858 15.523 9.99146 15.523C10.5971 15.523 10.5952 14.9696 10.5952 14.9696V14.4399C11.3604 14.3926 12.0921 14.1088 12.6891 13.6277C12.9493 13.4074 13.1549 13.1297 13.2896 12.8165C13.4243 12.5033 13.4844 12.163 13.4652 11.8226C13.4838 11.3981 13.3771 10.9775 13.1584 10.6132C12.9163 10.2721 12.5854 10.0036 12.2017 9.83706C11.6223 9.58514 11.017 9.3975 10.3966 9.27749C10.0493 9.21211 9.70584 9.12775 9.36775 9.02478C9.13538 8.94133 8.92537 8.80545 8.75404 8.62767C8.62114 8.472 8.55043 8.27272 8.55548 8.0681C8.53767 7.89568 8.5731 7.72195 8.65701 7.57027C8.74091 7.4186 8.86927 7.29626 9.02479 7.21973C9.35282 7.03012 9.72976 6.94217 10.1078 6.96702C10.4379 6.96384 10.7626 7.05125 11.0465 7.21973C11.1702 7.29041 11.2776 7.38646 11.3615 7.50156C11.4455 7.61666 11.5042 7.74821 11.5338 7.8876C11.5638 7.95693 11.6147 8.01512 11.6795 8.05398C11.7442 8.09283 11.8196 8.1104 11.8948 8.10421H13.0681C13.1351 8.10421 13.1994 8.07758 13.2468 8.03019C13.2942 7.9828 13.3208 7.91852 13.3208 7.8515C13.2938 7.51615 13.182 7.19317 12.9959 6.91287C12.7683 6.5674 12.4661 6.27747 12.1114 6.06449C11.7146 5.84904 11.279 5.60578 10.8298 5.55908V5.02771C10.8298 5.02771 10.6472 4.40602 10.1078 4.40723C9.67461 4.4082 9.45801 5.02771 9.45801 5.02771V5.55908C8.74848 5.61301 8.07628 5.89838 7.54465 6.37135C7.31813 6.58004 7.1383 6.83427 7.01697 7.11736C6.89565 7.40045 6.83557 7.706 6.84068 8.01395C6.82208 8.32194 6.87423 8.63009 6.99312 8.91481C7.11202 9.19953 7.2945 9.45325 7.5266 9.65655C8.1647 10.1203 8.89874 10.4349 9.67461 10.5771C10.2643 10.7336 10.7095 10.8659 11.0104 10.9742C11.2656 11.0542 11.4999 11.1898 11.6963 11.3714C11.7686 11.445 11.825 11.5326 11.8623 11.6288C11.8995 11.725 11.9168 11.8278 11.9129 11.9309C11.9151 12.0894 11.8765 12.2458 11.8006 12.3849C11.7247 12.5241 11.6141 12.6413 11.4797 12.7251C11.0831 12.9439 10.632 13.0441 10.18 13.014C9.75753 13.0359 9.33766 12.9356 8.97064 12.7251C8.70159 12.5654 8.49717 12.3162 8.39303 12.0212C8.35274 11.9498 8.29728 11.8882 8.23057 11.8407C8.15414 11.817 8.07235 11.817 7.99591 11.8407H6.80458C6.74078 11.8155 6.66982 11.8155 6.60602 11.8407C6.5838 11.8988 6.5838 11.9631 6.60602 12.0212C6.62372 12.4087 6.7487 12.7836 6.96703 13.1042C7.17586 13.493 7.48025 13.8223 7.85151 14.0609Z" fill="#00B3DF"/>
<path d="M10.0722 20.1444C12.0643 20.1444 14.0117 19.5537 15.668 18.4469C17.3244 17.3402 18.6154 15.7671 19.3777 13.9267C20.14 12.0862 20.3395 10.061 19.9509 8.10722C19.5622 6.1534 18.6029 4.35871 17.1943 2.95008C15.7857 1.54146 13.991 0.582177 12.0372 0.193539C10.0834 -0.195099 8.05819 0.0043641 6.21774 0.766705C4.37728 1.52905 2.80422 2.82003 1.69747 4.47639C0.590724 6.13276 0 8.08011 0 10.0722C0.00477186 12.7421 1.06748 15.3012 2.95535 17.1891C4.84322 19.0769 7.40235 20.1396 10.0722 20.1444ZM10.0722 1.80506C11.7022 1.80863 13.2946 2.29501 14.6483 3.2028C16.0021 4.11059 17.0566 5.39911 17.6788 6.90569C18.3009 8.41228 18.4627 10.0694 18.1438 11.6679C17.825 13.2664 17.0397 14.7346 15.8871 15.8871C14.7346 17.0397 13.2664 17.825 11.6679 18.1438C10.0694 18.4627 8.41227 18.3009 6.90569 17.6788C5.3991 17.0566 4.11059 16.0021 3.2028 14.6484C2.295 13.2946 1.80862 11.7022 1.80505 10.0722C1.80267 8.98588 2.01489 7.90978 2.42951 6.90569C2.84413 5.9016 3.45299 4.98929 4.22114 4.22114C4.98929 3.45299 5.9016 2.84413 6.90569 2.42951C7.90978 2.01489 8.98588 1.80268 10.0722 1.80506Z" fill="#00B3DF"/>
<path d="M29.9282 19.8557C27.9361 19.8557 25.9887 20.4464 24.3323 21.5532C22.676 22.6599 21.385 24.233 20.6227 26.0735C19.8603 27.9139 19.6609 29.9391 20.0495 31.8929C20.4381 33.8467 21.3974 35.6414 22.806 37.05C24.2147 38.4587 26.0094 39.4179 27.9632 39.8066C29.917 40.1952 31.9422 39.9958 33.7826 39.2334C35.6231 38.4711 37.1961 37.1801 38.3029 35.5237C39.4096 33.8674 40.0004 31.92 40.0004 29.9279C40.0004 28.6052 39.7398 27.2955 39.2337 26.0735C38.7275 24.8514 37.9856 23.7411 37.0503 22.8058C36.115 21.8705 35.0046 21.1286 33.7826 20.6224C32.5606 20.1162 31.2509 19.8557 29.9282 19.8557ZM29.9282 38.177C28.2966 38.177 26.7018 37.6932 25.3452 36.7868C23.9887 35.8804 22.9313 34.592 22.307 33.0847C21.6826 31.5774 21.5193 29.9188 21.8376 28.3186C22.1559 26.7184 22.9415 25.2486 24.0952 24.0949C25.2488 22.9413 26.7187 22.1556 28.3188 21.8373C29.919 21.519 31.5776 21.6824 33.085 22.3067C34.5923 22.9311 35.8806 23.9884 36.787 25.345C37.6935 26.7015 38.1773 28.2964 38.1773 29.9279C38.1773 31.0112 37.9639 32.0839 37.5493 33.0847C37.1348 34.0855 36.5272 34.9949 35.7612 35.7609C34.9952 36.5269 34.0858 37.1345 33.085 37.5491C32.0841 37.9636 31.0115 38.177 29.9282 38.177Z" fill="#00B3DF"/>
<path d="M23.4658 10.9927H36.8412L34.5127 13.3573C34.3567 13.5328 34.2737 13.7613 34.2806 13.9959C34.2875 14.2306 34.3838 14.4538 34.5498 14.6198C34.7159 14.7858 34.939 14.8821 35.1737 14.889C35.4084 14.8959 35.6368 14.8129 35.8123 14.657L39.7112 10.7219C39.793 10.6385 39.8574 10.5398 39.9008 10.4313C39.9441 10.3229 39.9656 10.2069 39.9639 10.0902C39.9854 9.97686 39.9854 9.86053 39.9639 9.74721C39.9048 9.62155 39.8185 9.51058 39.7112 9.4223L35.7943 5.41508C35.6188 5.25912 35.3903 5.17611 35.1557 5.18302C34.921 5.18992 34.6978 5.28624 34.5318 5.45225C34.3658 5.61826 34.2695 5.84143 34.2626 6.07611C34.2557 6.31078 34.3387 6.53923 34.4946 6.71472L36.8773 9.09739H23.4658C23.3321 9.07054 23.1942 9.07368 23.062 9.1066C22.9298 9.13951 22.8065 9.20137 22.7011 9.28772C22.5956 9.37407 22.5107 9.48274 22.4524 9.60591C22.394 9.72907 22.3638 9.86365 22.3638 9.99992C22.3638 10.1362 22.394 10.2708 22.4524 10.3939C22.5107 10.5171 22.5956 10.6258 22.7011 10.7121C22.8065 10.7985 22.9298 10.8603 23.062 10.8932C23.1942 10.9262 23.3321 10.9293 23.4658 10.9024V10.9927Z" fill="#00B3DF"/>
<path d="M16.4979 29.0255H3.1225L5.41492 26.6428C5.56585 26.475 5.64986 26.2575 5.65097 26.0318C5.65208 25.8061 5.57022 25.5878 5.42095 25.4185C5.27168 25.2492 5.0654 25.1406 4.84132 25.1134C4.61724 25.0862 4.39097 25.1423 4.20553 25.271L0.270511 29.2963C0.18609 29.3786 0.118633 29.4767 0.071955 29.5851C0.0247917 29.6964 0.000488281 29.8161 0.000488281 29.937C0.000488281 30.058 0.0247917 30.1777 0.071955 30.289C0.11325 30.3959 0.174508 30.4939 0.25246 30.5778L4.18748 34.5129C4.26006 34.6347 4.3598 34.7381 4.47894 34.8151C4.59808 34.892 4.73339 34.9404 4.8743 34.9564C5.01522 34.9725 5.15793 34.9557 5.29131 34.9075C5.42469 34.8593 5.54513 34.7809 5.64323 34.6785C5.74133 34.5761 5.81443 34.4524 5.85684 34.317C5.89925 34.1817 5.90982 34.0384 5.88772 33.8983C5.86562 33.7582 5.81145 33.6251 5.72943 33.5094C5.64742 33.3937 5.53978 33.2985 5.41492 33.2313L3.1225 30.8486H16.4979C16.7064 30.8067 16.894 30.6939 17.0287 30.5294C17.1635 30.3648 17.2371 30.1587 17.2371 29.9461C17.2371 29.7334 17.1635 29.5273 17.0287 29.3628C16.894 29.1983 16.7064 29.0855 16.4979 29.0435V29.0255Z" fill="#00B3DF"/>
<path d="M33.4088 31.5721C33.4083 31.1234 33.3144 30.6815 33.1352 30.2844C32.9559 29.8873 32.6966 29.547 32.3797 29.2927C32.5801 28.9733 32.7096 28.6009 32.7566 28.2088C32.8035 27.8167 32.7666 27.4172 32.649 27.0459C32.5314 26.6745 32.3368 26.3429 32.0826 26.0807C31.8284 25.8184 31.5225 25.6337 31.1922 25.543V25.107C31.1922 24.9111 31.1255 24.7231 31.0067 24.5846C30.888 24.446 30.7269 24.3682 30.5589 24.3682C30.391 24.3682 30.2299 24.446 30.1111 24.5846C29.9923 24.7231 29.9256 24.9111 29.9256 25.107V25.4765H29.2923V25.107C29.2923 24.9111 29.2256 24.7231 29.1068 24.5846C28.988 24.446 28.8269 24.3682 28.659 24.3682C28.491 24.3682 28.3299 24.446 28.2112 24.5846C28.0924 24.7231 28.0257 24.9111 28.0257 25.107V25.4765H27.709C27.541 25.4765 27.3799 25.5543 27.2612 25.6929C27.1424 25.8314 27.0757 26.0194 27.0757 26.2153V33.604C27.0757 33.8 27.1424 33.9879 27.2612 34.1265C27.3799 34.265 27.541 34.3429 27.709 34.3429H28.0257V34.7123C28.0257 34.9083 28.0924 35.0962 28.2112 35.2348C28.3299 35.3734 28.491 35.4512 28.659 35.4512C28.8269 35.4512 28.988 35.3734 29.1068 35.2348C29.2256 35.0962 29.2923 34.9083 29.2923 34.7123V34.3429H29.9256V34.7123C29.9256 34.9083 29.9923 35.0962 30.1111 35.2348C30.2299 35.3734 30.391 35.4512 30.5589 35.4512C30.7269 35.4512 30.888 35.3734 31.0067 35.2348C31.1255 35.0962 31.1922 34.9083 31.1922 34.7123V34.3429C31.7943 34.296 32.3584 33.9835 32.7701 33.4688C33.1818 32.9542 33.4102 32.2761 33.4088 31.5721ZM31.5089 27.8778C31.5089 28.1227 31.4255 28.3577 31.277 28.5309C31.1286 28.7041 30.9272 28.8014 30.7172 28.8014H28.3423V26.9542H30.7172C30.9272 26.9542 31.1286 27.0515 31.277 27.2247C31.4255 27.3979 31.5089 27.6328 31.5089 27.8778ZM31.0339 32.8652H28.3423V30.2791H31.0339C31.3278 30.2791 31.6097 30.4153 31.8176 30.6578C32.0254 30.9003 32.1422 31.2292 32.1422 31.5721C32.1422 31.9151 32.0254 32.244 31.8176 32.4864C31.6097 32.7289 31.3278 32.8652 31.0339 32.8652Z" fill="#00B3DF"/>
</g>
<defs>
<clipPath id="clip0">
<rect width="40" height="40" fill="white"/>
</clipPath>
</defs>
</svg>
