<svg width="40" height="40" viewBox="0 0 40 40" fill="none" xmlns="http://www.w3.org/2000/svg">
<path d="M37.1614 22.139L31.8236 25.2206L28.394 23.2407L32.451 20.8984C32.8151 20.6882 33.0394 20.3 33.0394 19.8795C33.0394 19.4592 32.8151 19.0707 32.451 18.8608L28.1853 16.3977L31.8233 14.2972L37.1614 17.3792C37.3467 17.4863 37.549 17.5369 37.7486 17.5369C38.1554 17.5369 38.5506 17.326 38.7685 16.9485C39.0935 16.3858 38.9006 15.6662 38.3379 15.3415L34.1765 12.9388L37.1089 11.2454C37.6717 10.9207 37.8645 10.2011 37.5395 9.63837C37.2148 9.07562 36.4952 8.88275 35.9325 9.20807L32.9997 10.9009V6.09558C32.9997 5.44586 32.473 4.91913 31.8233 4.91913C31.1736 4.91913 30.6468 5.44586 30.6468 6.09558V12.2595L27.1132 14.2996V9.61487C27.1132 9.19464 26.8889 8.80615 26.5248 8.59589C26.1607 8.38593 25.7124 8.38593 25.3484 8.59589L21.1867 10.9985V6.79749L26.5248 3.71552C27.0876 3.39081 27.2804 2.6712 26.9554 2.10846C26.6304 1.54572 25.9111 1.35315 25.3484 1.67786L21.1867 4.08051V1.17645C21.1867 0.526733 20.66 0 20.0102 0C19.3605 0 18.8338 0.526733 18.8338 1.17645V4.08051L14.6721 1.67786C14.1097 1.35284 13.3897 1.54572 13.065 2.10846C12.7403 2.6712 12.9329 3.39081 13.4956 3.71552L18.8338 6.79749V10.9985L14.6721 8.59589C14.3083 8.38562 13.8597 8.38562 13.4956 8.59589C13.1316 8.80615 12.9076 9.19434 12.9076 9.61487V14.2996L9.37364 12.2592V6.09558C9.37364 5.44586 8.8469 4.91913 8.19718 4.91913C7.54746 4.91913 7.02073 5.44586 7.02073 6.09558V10.9009L4.50547 9.44885C3.94273 9.12384 3.22343 9.31671 2.89842 9.87946C2.57371 10.4422 2.76658 11.1618 3.32902 11.4865L5.84428 12.9385L1.6826 15.3412C1.11985 15.6662 0.927285 16.3855 1.25199 16.9482C1.46989 17.3257 1.8654 17.5369 2.27189 17.5369C2.47147 17.5369 2.67381 17.486 2.85905 17.3788L8.19718 14.2969L11.8355 16.3977L7.56944 18.8605C7.20536 19.0707 6.98106 19.4589 6.98106 19.8795C6.98106 20.2997 7.20536 20.6882 7.56944 20.8981L11.6267 23.2407L8.19718 25.2206L2.85905 22.1387C2.2963 21.8137 1.5767 22.0065 1.25199 22.5693C0.927285 23.132 1.11985 23.8516 1.6826 24.1763L5.84428 26.579L3.32902 28.031C2.76658 28.356 2.57371 29.0753 2.89842 29.6381C3.11631 30.0156 3.51182 30.2267 3.91831 30.2267C4.1179 30.2267 4.32023 30.1758 4.50547 30.0687L7.02073 28.6166V33.4222C7.02073 34.072 7.54746 34.5987 8.19718 34.5987C8.8469 34.5987 9.37364 34.072 9.37364 33.4222V27.2583L12.9076 25.2179V30.144C12.9076 30.5643 13.1316 30.9528 13.4956 31.1627C13.8597 31.373 14.3083 31.373 14.6721 31.1627L18.8338 28.7604V32.7203L13.4956 35.8023C12.9329 36.127 12.7403 36.8466 13.065 37.4094C13.3901 37.9721 14.1097 38.165 14.6721 37.84L18.8338 35.4373V38.8235C18.8338 39.4733 19.3605 40 20.0102 40C20.66 40 21.1867 39.4733 21.1867 38.8235V35.4373L25.3484 37.84C25.5336 37.9471 25.7359 37.9977 25.9355 37.9977C26.342 37.9977 26.7375 37.7869 26.9554 37.4094C27.2804 36.8466 27.0876 36.127 26.5248 35.8023L21.1867 32.7203V28.7604L25.3484 31.163C25.5303 31.268 25.7335 31.3208 25.9367 31.3208C26.1397 31.3208 26.3429 31.268 26.5248 31.163C26.8889 30.9528 27.1132 30.5646 27.1132 30.1443V25.2182L30.6471 27.2586V33.4225C30.6471 34.0723 31.1739 34.599 31.8236 34.599C32.4733 34.599 33 34.0723 33 33.4225V28.6169L35.9325 30.3101C36.1177 30.4172 36.32 30.4681 36.5196 30.4681C36.9264 30.4681 37.3216 30.257 37.5395 29.8795C37.8645 29.3167 37.6717 28.5971 37.1089 28.2724L34.1765 26.5793L38.3382 24.1766C38.9009 23.8519 39.0935 23.1323 38.7688 22.5696C38.4438 22.0065 37.7242 21.814 37.1614 22.139ZM13.9797 21.8823L10.5107 19.8795L14.1884 17.756L17.6573 19.7589L13.9797 21.8823ZM18.8338 26.0434L15.2605 28.1064V23.8599L18.8338 21.7966V26.0434ZM18.8338 17.7213L15.2605 15.6583V11.6525L18.8338 13.7155V17.7213ZM21.1867 13.7155L24.7603 11.6525V15.6583L21.1867 17.7213V13.7155ZM24.76 28.1064L21.1867 26.0434V21.7966L24.7603 23.8596V28.1064H24.76ZM26.0411 21.8823L22.3631 19.7589L25.8324 17.756L29.51 19.8795L26.0411 21.8823Z" fill="#00B3DF"/>
</svg>
