<svg width="42" height="42" viewBox="0 0 42 42" fill="none" xmlns="http://www.w3.org/2000/svg">
<mask id="mask0" mask-type="alpha" maskUnits="userSpaceOnUse" x="0" y="0" width="43" height="43">
<path d="M32.3966 34.9723V27.9401C32.3966 21.8371 27.2612 16.8896 20.9263 16.8896C14.5915 16.8896 9.45605 21.8371 9.45605 27.9401V33.9677" stroke="#00B3DF" stroke-width="2" stroke-linecap="round" stroke-linejoin="round"/>
<path d="M41.0002 9.7667C36.1944 4.40861 28.9677 1 20.8864 1C13.1643 1 6.2226 4.11229 1.42773 9.06382" stroke="#00B3DF" stroke-width="2" stroke-linecap="round" stroke-linejoin="round"/>
<mask id="path-3-inside-1" mask-type="luminance" fill="white">
<path fill-rule="evenodd" clip-rule="evenodd" d="M26.4958 10.1006C26.6919 9.58424 27.2694 9.32464 27.7857 9.52071C35.0823 12.2916 40.2781 19.1941 40.2781 27.2992C40.2781 27.8515 39.8303 28.2992 39.2781 28.2992C38.7258 28.2992 38.2781 27.8515 38.2781 27.2992C38.2781 20.0815 33.6501 13.8871 27.0757 11.3904C26.5594 11.1944 26.2998 10.6169 26.4958 10.1006ZM1 27.3015C1 16.7338 9.82155 8.21826 20.6392 8.21826C21.1915 8.21826 21.6392 8.66598 21.6392 9.21826C21.6392 9.77055 21.1915 10.2183 20.6392 10.2183C10.8686 10.2183 3 17.895 3 27.3015C3 27.8538 2.55228 28.3015 2 28.3015C1.44772 28.3015 1 27.8538 1 27.3015Z"/>
</mask>
<path d="M27.7857 9.52071L29.2058 5.78126V5.78126L27.7857 9.52071ZM26.4958 10.1006L22.7564 8.6805V8.6805L26.4958 10.1006ZM27.0757 11.3904L25.6556 15.1299L27.0757 11.3904ZM29.2058 5.78126C26.6242 4.80092 23.7367 6.09895 22.7564 8.6805L30.2353 11.5206C29.6471 13.0695 27.9146 13.8484 26.3657 13.2601L29.2058 5.78126ZM44.2781 27.2992C44.2781 17.4184 37.9456 9.10022 29.2058 5.78126L26.3657 13.2601C32.2189 15.4829 36.2781 20.9698 36.2781 27.2992H44.2781ZM39.2781 32.2992C42.0395 32.2992 44.2781 30.0606 44.2781 27.2992H36.2781C36.2781 25.6423 37.6212 24.2992 39.2781 24.2992V32.2992ZM34.2781 27.2992C34.2781 30.0606 36.5166 32.2992 39.2781 32.2992V24.2992C40.9349 24.2992 42.2781 25.6423 42.2781 27.2992H34.2781ZM25.6556 15.1299C30.7849 17.0777 34.2781 21.8553 34.2781 27.2992H42.2781C42.2781 18.3077 36.5154 10.6965 28.4957 7.65098L25.6556 15.1299ZM22.7564 8.6805C21.7761 11.262 23.0741 14.1495 25.6556 15.1299L28.4957 7.65098C30.0447 8.23919 30.8235 9.97168 30.2353 11.5206L22.7564 8.6805ZM20.6392 4.21826C7.72926 4.21826 -3 14.4096 -3 27.3015H5C5 19.058 11.9138 12.2183 20.6392 12.2183V4.21826ZM25.6392 9.21826C25.6392 6.45684 23.4007 4.21826 20.6392 4.21826V12.2183C18.9824 12.2183 17.6392 10.8751 17.6392 9.21826H25.6392ZM20.6392 14.2183C23.4007 14.2183 25.6392 11.9797 25.6392 9.21826H17.6392C17.6392 7.56141 18.9824 6.21826 20.6392 6.21826V14.2183ZM7 27.3015C7 20.2155 12.9647 14.2183 20.6392 14.2183V6.21826C8.77248 6.21826 -1 15.5745 -1 27.3015H7ZM2 32.3015C4.76143 32.3015 7 30.0629 7 27.3015H-1C-1 25.6447 0.343144 24.3015 2 24.3015V32.3015ZM-3 27.3015C-3 30.0629 -0.761425 32.3015 2 32.3015V24.3015C3.65686 24.3015 5 25.6447 5 27.3015H-3Z" fill="#00B3DF" mask="url(#path-3-inside-1)"/>
<path d="M23.7939 36.9373V28.0889C23.7939 26.4434 22.4245 25.1094 20.7352 25.1094C19.0459 25.1094 17.6764 26.4434 17.6764 28.0889C17.6764 28.0889 17.845 32.0012 17.6764 33.9244C17.2587 38.6907 14.6177 41.0003 14.6177 41.0003" stroke="#00B3DF" stroke-width="2" stroke-linecap="round" stroke-linejoin="round"/>
</mask>
<g mask="url(#mask0)">
<rect x="-6.5166" y="-7.93848" width="54.4774" height="52.3082" fill="#00B3DF" stroke="#00B3DF"/>
</g>
</svg>
