<?xml version="1.0" encoding="utf-8"?>
<!-- Generator: Adobe Illustrator 16.0.2, SVG Export Plug-In . SVG Version: 6.00 Build 0)  -->
<!DOCTYPE svg PUBLIC "-//W3C//DTD SVG 1.1//EN" "http://www.w3.org/Graphics/SVG/1.1/DTD/svg11.dtd">
<svg version="1.1" id="Layer_1" xmlns="http://www.w3.org/2000/svg" xmlns:xlink="http://www.w3.org/1999/xlink" x="0px" y="0px"
	 width="436px" height="475px" viewBox="0 0 436 475" enable-background="new 0 0 436 475" xml:space="preserve">
<circle opacity="0.2" fill-rule="evenodd" clip-rule="evenodd" fill="none" stroke="#5D5D5D" stroke-width="8" stroke-miterlimit="10" cx="218.078" cy="237.66" r="142.661"/>
<circle opacity="0.5" fill-rule="evenodd" clip-rule="evenodd" fill="none" stroke="#FFFF36" stroke-width="6" stroke-miterlimit="10" cx="219.983" cy="226.25" r="210.566"/>
<g>
	<path fill="none" stroke="#000000" stroke-width="5" stroke-miterlimit="10" d="M13.166,384.69
		c2.407-3.21,36.103-28.08,36.103-28.08l34.499,28.08l32.893-48.939l69.798,33.696l32.091-96.274l45.729,32.092
		c0,0,20.058-32.894,22.465-32.092c2.406,0.802,36.904,31.289,36.102,27.68c-0.802-3.611,67.392-104.698,67.392-104.698
		l32.894-16.046"/>
	<circle fill="#FFFF36" stroke="#000000" stroke-miterlimit="10" cx="12.898" cy="388.433" r="11.232"/>
	<circle fill="#FFFF36" stroke="#000000" stroke-miterlimit="10" cx="48.199" cy="353.935" r="11.232"/>
	<circle fill="#FFFF36" stroke="#000000" stroke-miterlimit="10" cx="81.895" cy="380.409" r="11.232"/>
	<circle fill="#FFFF36" stroke="#000000" stroke-miterlimit="10" cx="117.997" cy="335.482" r="11.232"/>
	<circle fill="#FFFF36" stroke="#000000" stroke-miterlimit="10" cx="184.586" cy="365.969" r="11.232"/>
	<circle fill="#FFFF36" cx="218.281" cy="271.3" r="11.232"/>
	<circle fill="#FFFF36" stroke="#000000" stroke-miterlimit="10" cx="286.476" cy="273.707" r="11.231"/>
	<circle fill="#FFFF36" stroke="#000000" stroke-miterlimit="10" cx="321.776" cy="297.774" r="11.232"/>
	<circle fill="#FFFF36" stroke="#000000" stroke-miterlimit="10" cx="389.97" cy="195.886" r="11.232"/>
	<circle fill="#FFFF36" stroke="#000000" stroke-miterlimit="10" cx="425.27" cy="179.84" r="11.232"/>
	<path fill="#5D5D5D" d="M306,214.675c0,6.387-4.313,11.325-9.629,11.325H143.938c-5.317,0-9.938-4.938-9.938-11.325v-5.783
		c0-6.387,4.621-10.892,9.938-10.892h152.433c5.316,0,9.629,4.505,9.629,10.892V214.675z"/>
	<rect x="274" y="198" width="3" height="28"/>
	<rect x="148" y="207" fill="#FFFFFF" width="117" height="12"/>
	<g>
		
			<line fill="none" stroke="#000000" stroke-width="15" stroke-miterlimit="10" x1="205.312" y1="262.475" x2="186.642" y2="242.033"/>
		<path fill="#5D5D5D" d="M288.782,322.641c3.871,3.973,3.679,10.437-0.428,14.437l-6.817,6.637
			c-4.105,4.001-10.573,4.021-14.443,0.048L200.52,275.4c-3.869-3.976-3.677-10.439,0.43-14.438l6.816-6.639
			c4.106-3.998,10.573-4.02,14.443-0.045L288.782,322.641z"/>
		<path fill="none" stroke="#000000" stroke-width="15" stroke-miterlimit="10" d="M200.74,209.191
			c0,12.905-5.407,24.557-14.098,32.842c-8.241,7.857-19.434,12.688-31.764,12.688c-25.329,0-45.862-20.385-45.862-45.529
			c0-25.146,20.533-45.53,45.862-45.53C180.208,163.662,200.74,184.046,200.74,209.191z"/>
	</g>
</g>
<polygon fill="#848484" points="205.312,256.714 286.476,338.906 280.445,314.079 230.191,262.475 "/>
<circle opacity="0.3" fill="#B4D5ED" cx="155.154" cy="209.179" r="38.821"/>
<g>
	<path fill="#B4D5ED" d="M125.307,200.824c0,0-0.015-0.049-0.043-0.146c-0.027-0.094-0.078-0.242-0.104-0.427
		c-0.059-0.372-0.178-0.947-0.215-1.617c-0.062-0.695-0.041-1.488,0.019-2.419c0.099-0.896,0.229-1.933,0.523-2.984
		c0.138-0.534,0.315-1.072,0.495-1.642c0.204-0.551,0.456-1.095,0.702-1.675c0.5-1.151,1.215-2.249,1.971-3.387
		c0.396-0.557,0.855-1.073,1.311-1.609l0.694-0.808c0.249-0.254,0.524-0.484,0.789-0.729c0.54-0.477,1.065-0.989,1.65-1.429
		c0.572-0.455,1.207-0.844,1.819-1.258c0.643-0.368,1.26-0.773,1.924-1.1c0.661-0.336,1.365-0.582,2.036-0.867
		c0.671-0.287,1.348-0.54,2.063-0.681c0.7-0.173,1.389-0.34,2.08-0.446c1.348-0.315,2.743-0.249,4.005-0.251
		c0.643,0.047,1.244,0.006,1.846,0.134c0.601,0.123,1.169,0.217,1.715,0.359c1.089,0.291,2.057,0.525,2.899,0.946
		c0.841,0.408,1.551,0.808,2.122,1.178c0.57,0.35,1.003,0.715,1.293,0.925c0.291,0.227,0.44,0.373,0.44,0.373l-0.016,0.8
		c0,0-0.604,0.046-1.659,0.126c-0.526,0.04-1.164,0.088-1.896,0.144c-0.732,0.042-1.537,0.271-2.426,0.396
		c-0.443,0.077-0.904,0.156-1.381,0.238c-0.479,0.073-0.95,0.258-1.447,0.388c-0.979,0.314-2.048,0.523-3.074,0.98
		c-1.034,0.429-2.143,0.775-3.165,1.365c-0.521,0.269-1.048,0.54-1.576,0.812c-0.526,0.277-1.01,0.632-1.518,0.944
		c-0.5,0.326-1.03,0.606-1.505,0.965c-0.477,0.356-0.953,0.71-1.424,1.062c-0.483,0.337-0.924,0.721-1.355,1.106
		c-0.435,0.38-0.864,0.756-1.287,1.125c-0.771,0.816-1.604,1.524-2.275,2.309c-0.347,0.383-0.684,0.755-1.01,1.115
		c-0.307,0.377-0.603,0.742-0.887,1.092c-0.58,0.693-1.045,1.377-1.501,1.955c-0.412,0.605-0.795,1.124-1.067,1.573
		c-0.287,0.444-0.5,0.796-0.636,1.037c-0.142,0.237-0.213,0.378-0.213,0.378L125.307,200.824z"/>
</g>
<g>
	<path d="M407,451.814c0,7.834-6.352,14.186-14.187,14.186H263.187c-7.835,0-14.187-6.352-14.187-14.186v-82.629
		c0-7.834,6.352-14.186,14.187-14.186h129.627c7.835,0,14.187,6.352,14.187,14.186V451.814z"/>
	<path fill="#5D5D5D" d="M226.668,457.29c0,0.887-1.182,6.206,2.364,7.979c3.547,1.773,193.877,1.478,193.877,1.478
		s8.052-4.844,6.982-8.776L226.668,457.29z"/>
	<rect x="257" y="361" fill="#5D5D5D" width="142" height="93"/>
	<g>
		<rect x="270" y="427" fill="#FFFF36" width="4" height="9"/>
		<rect x="276" y="420" fill="#FFFF36" width="4" height="16"/>
		<rect x="282" y="416" fill="#FFFF36" width="4" height="20"/>
		<rect x="288" y="416" fill="#FFFF36" width="4" height="20"/>
		<rect x="294" y="422" fill="#FFFF36" width="4" height="14"/>
		<rect x="300" y="414" fill="#FFFF36" width="4" height="22"/>
		<rect x="307" y="409" fill="#FFFF36" width="4" height="27"/>
		<rect x="313" y="413" fill="#FFFF36" width="4" height="23"/>
		<rect x="319" y="413" fill="#FFFF36" width="4" height="23"/>
		<rect x="325" y="403" fill="#FFFF36" width="4" height="33"/>
		<rect x="331" y="420" fill="#FFFF36" width="4" height="16"/>
		<rect x="337" y="422" fill="#FFFF36" width="4" height="14"/>
		<rect x="344" y="409" fill="#FFFF36" width="4" height="27"/>
		<rect x="350" y="406" fill="#FFFF36" width="4" height="30"/>
		<rect x="357" y="410" fill="#FFFF36" width="4" height="26"/>
		<rect x="363" y="408" fill="#FFFF36" width="4" height="28"/>
		<rect x="369" y="390" fill="#FFFF36" width="4" height="46"/>
		<rect x="374" y="393" fill="#FFFF36" width="4" height="43"/>
		<rect x="380" y="400" fill="#FFFF36" width="4" height="36"/>
		<path fill="none" stroke="#FFFFFF" stroke-width="1.5" stroke-miterlimit="10" d="M271.443,419.756
			c0.443-0.739,11.526-8.275,11.526-8.275l12.855,4.729l7.685-13.004l13.004,5.911l10.048-15.664c0,0,10.788,24.53,11.083,24.53
			c0.296,0,8.423-16.698,9.605-16.698c1.182,0,13.3,5.32,13.3,5.32s9.014-22.609,9.753-22.166
			c0.738,0.443,10.787,8.127,10.787,8.127"/>
		<circle cx="270.482" cy="420.568" r="2.143"/>
		<circle cx="283.486" cy="411.111" r="2.143"/>
		<circle cx="295.309" cy="415.84" r="2.143"/>
		<circle cx="303.583" cy="402.836" r="2.143"/>
		<circle cx="315.405" cy="408.747" r="2.143"/>
		<circle cx="326.045" cy="393.379" r="2.143"/>
		<circle cx="337.866" cy="418.204" r="2.143"/>
		<circle cx="347.324" cy="401.654" r="2.143"/>
		<circle cx="360.328" cy="406.383" r="2.143"/>
		<circle cx="381.607" cy="392.196" r="2.143"/>
	</g>
	<circle cx="369.785" cy="383.921" r="2.143"/>
</g>
<g>
	<path fill="#FFFF36" stroke="#000000" stroke-width="2" stroke-miterlimit="10" d="M47.999,121c0,0-27.14-29.438,1.333-40.833
		c1.667-0.667,1-22.084,25.667-17.084c0,0,15.001-19.208,35.333-11.208c20.334,8,21,25.563,21,25.563s17.667,6.781,17.667,24.781
		S129.332,121,129.332,121H47.999z"/>
	<g>
		<circle fill="none" stroke="#000000" stroke-width="2" stroke-miterlimit="10" cx="93.417" cy="89.084" r="20.25"/>
		<path d="M70.416,91.178c0.334-0.583,3.133-6.022,3.133-6.022l3.117,5.439L70.416,91.178z"/>
		<path d="M110.416,84.156c0.334,0.583,3.133,6.022,3.133,6.022l3.117-5.439L110.416,84.156z"/>
	</g>
</g>
<g>
	<path stroke="#FFFF36" stroke-miterlimit="10" d="M427.273,80.348c-4.363,10.098-14.338,16.518-26.474,18.411l-10.649,24.647
		l-18.598-28.232c-0.691-0.266-1.375-0.55-2.063-0.848c-24.079-10.403-37.255-33.536-29.426-51.657
		c7.83-18.122,33.705-24.382,57.783-13.979C421.927,39.094,435.103,62.227,427.273,80.348z"/>
	<g>
		<path fill-rule="evenodd" clip-rule="evenodd" fill="#FFFFFF" d="M393.811,38.226c3.359,1.451,6.758,2.814,10.064,4.376
			c3.655,1.727,6.639,4.213,8.188,8.122c1.307,3.295,1.369,6.686,0.107,9.898c-2.598,6.621-5.417,13.158-8.261,19.68
			c-0.854,1.958-1.888,3.906-3.188,5.587c-3.715,4.796-8.703,6.338-14.534,4.917c-2.245-0.547-4.439-1.392-6.571-2.302
			c-5.424-2.318-10.826-4.693-16.188-7.155c-3.223-1.481-5.967-3.596-7.677-6.828c-1.919-3.626-2.054-7.428-0.766-11.221
			c2.558-7.53,5.891-14.745,9.319-21.908c0.712-1.488,1.685-2.909,2.779-4.146c3.739-4.22,8.504-5.579,13.871-4.147
			c3.215,0.857,6.283,2.268,9.404,3.463c1.191,0.456,2.348,1.004,3.52,1.511C393.856,38.123,393.834,38.174,393.811,38.226z
			 M375.277,81.193c-0.033,0.083-0.068,0.166-0.104,0.249c3.75,1.467,7.477,2.994,11.255,4.384c4.185,1.54,8.171,0.289,10.757-3.306
			c0.69-0.96,1.299-2.006,1.775-3.088c2.656-6.051,5.276-12.12,7.87-18.198c0.442-1.037,0.782-2.136,1.021-3.237
			c0.828-3.83-0.235-7.021-3.439-9.369c-0.955-0.698-1.984-1.332-3.06-1.822c-4.413-2.013-8.832-4.02-13.3-5.907
			c-2.738-1.157-5.515-2.286-8.371-3.081c-3.846-1.071-7.115,0.107-9.521,3.36c-0.637,0.861-1.253,1.774-1.674,2.752
			c-2.975,6.901-5.989,13.787-8.798,20.755c-1.588,3.938-0.435,7.82,2.749,10.33c0.992,0.783,2.094,1.479,3.242,2.003
			C368.852,78.469,372.075,79.81,375.277,81.193z"/>
		<path fill-rule="evenodd" clip-rule="evenodd" fill="#FFFFFF" d="M378.271,74.215c-6.721-2.923-9.924-10.944-7.029-17.605
			c2.914-6.707,11.021-9.87,17.716-6.913c6.716,2.966,9.896,11,6.975,17.626C392.985,74.011,384.982,77.134,378.271,74.215z
			 M380.27,69.702c4.357,1.87,9.288-0.073,11.15-4.393c1.854-4.303-0.146-9.244-4.499-11.113c-4.354-1.869-9.301,0.081-11.152,4.397
			C373.918,62.908,375.913,67.832,380.27,69.702z"/>
		<path fill-rule="evenodd" clip-rule="evenodd" fill="#FFFFFF" d="M400.49,57.725c-1.627-0.716-2.35-2.55-1.648-4.179
			c0.716-1.658,2.598-2.406,4.24-1.685c1.625,0.714,2.359,2.651,1.621,4.276C403.98,57.732,402.107,58.438,400.49,57.725z"/>
	</g>
</g>
<g>
	<path stroke="#FFFF36" stroke-miterlimit="10" d="M377.39,132.903c2.371,7.583,0.253,15.698-5.971,22.602l5.788,18.508
		l-23.325-6.736c-0.503,0.181-0.932,0.322-1.448,0.483c-18.08,5.654-36.152-0.809-40.408-14.416
		c-4.255-13.607,6.896-29.209,24.976-34.863C355.082,112.827,373.135,119.296,377.39,132.903z"/>
	<path fill-rule="evenodd" clip-rule="evenodd" fill="#FFFFFF" d="M355.843,138.532c-0.761,0.238-1.535,0.481-2.311,0.722
		c-0.778,0.244-1.563,0.476-2.338,0.736c-0.368,0.124-0.59,0.086-0.712-0.335c-0.312-1.07-0.684-2.125-0.979-3.201
		c-0.446-1.617,0.17-2.672,1.774-3.151c0.803-0.239,1.593-0.512,2.397-0.743c0.403-0.116,0.554-0.278,0.405-0.721
		c-0.406-1.208-0.756-2.436-1.165-3.644c-0.062-0.183-0.36-0.45-0.488-0.421c-2.186,0.508-4.448,0.846-6.325,2.204
		c-2.045,1.478-2.899,3.565-2.507,6.007c0.277,1.737,0.903,3.419,1.386,5.123c0.213,0.751,0.227,0.749-0.533,0.987
		c-1.251,0.392-2.502,0.782-3.786,1.184c0.544,1.738,1.069,3.42,1.619,5.179c1.099-0.343,2.173-0.69,3.253-1.014
		c1.458-0.438,1.223-0.635,1.705,0.9c1.226,3.897,2.441,7.797,3.659,11.696c0.235,0.75,0.231,0.753-0.514,0.986
		c-5.326,1.666-10.65,3.332-15.976,4.996c-1.431,0.447-2.485-0.096-2.93-1.511c-3.224-10.307-6.447-20.615-9.669-30.923
		c-0.431-1.378,0.131-2.441,1.52-2.875c10.346-3.237,20.691-6.472,31.037-9.706c1.384-0.433,2.447,0.126,2.881,1.512
		c3.225,10.308,6.448,20.616,9.67,30.923c0.434,1.388-0.122,2.451-1.505,2.884c-2.737,0.859-5.48,1.701-8.212,2.582
		c-0.507,0.164-0.689,0.048-0.842-0.448c-1.279-4.151-2.576-8.296-3.889-12.437c-0.162-0.509-0.095-0.751,0.451-0.904
		c1.171-0.326,2.322-0.721,3.485-1.073c0.287-0.087,0.45-0.202,0.39-0.541c-0.279-1.585-0.545-3.174-0.821-4.76
		C355.966,138.692,355.915,138.646,355.843,138.532z"/>
</g>
<g>
	<path d="M282,129c0,6.627-5.373,12-12,12h-64c-6.627,0-12-5.373-12-12V86c0-6.627,5.373-12,12-12h64c6.627,0,12,5.373,12,12V129z"
		/>
	<rect x="203" y="92" fill="#5D5D5D" width="69" height="41"/>
	<circle fill="#FFFF36" cx="230.5" cy="112.75" r="18.5"/>
	<path d="M228.737,94.586c-1.654,0.179,0,18.414,0,18.414H249C249,113,248.725,92.422,228.737,94.586z"/>
	<path fill="#5D5D5D" d="M262.666,84.503c0,0-30-33.333,0-42C262.666,42.503,292.666,47.17,262.666,84.503z"/>
	<circle fill="#FFFFFF" cx="262.918" cy="57.585" r="5.918"/>
</g>
<g>
	<path fill="#5D5D5D" d="M30,244c0,0,6.333,54.999,6.333,53.665s7.333-42.001,7.333-42.001L89,254.332L83.333,244H30z"/>
	<path d="M36.167,303c0.333-5,7.5-47,7.5-47H117l-6,47H36.167z"/>
	<path fill="#FFFFFF" d="M36.333,298.996c0.013-0.21,0.041-0.665,0.082-1.325c0.476-7.737,2.668-43.675,2.668-43.675L105,249.663
		c0,0,2.667,6.337,0,6.337s-61,0-61,0h-1"/>
</g>
<path fill-rule="evenodd" clip-rule="evenodd" d="M65.909,446.354c-0.363,0.313-0.955,0.7-1.382,1.222
	c-0.665,0.813-1.289,1.544-2.434,0.841c-1.058-0.65-1.104-1.493-0.478-2.494c0.735-1.178,0.367-2.099-0.643-2.962
	c-0.897-0.767-1.744-1.616-2.489-2.53c-0.856-1.049-1.77-1.362-2.945-0.626c-0.986,0.617-1.825,0.591-2.511-0.457
	c-0.773-1.181,0.001-1.877,0.846-2.4c1.306-0.81,1.483-1.799,0.947-3.156c-0.376-0.95-0.657-1.969-0.78-2.98
	c-0.178-1.448-0.953-2.107-2.331-2.155c-1.083-0.038-1.989-0.34-2.02-1.595c-0.033-1.342,0.906-1.698,2.05-1.722
	c1.404-0.029,2.138-0.704,2.347-2.129c0.156-1.062,0.46-2.126,0.869-3.118c0.555-1.346,0.193-2.221-0.967-3.021
	c-0.538-0.371-1.11-1.035-1.204-1.639c-0.187-1.214,1.313-2.063,2.491-1.37c1.553,0.912,2.692,0.654,3.709-0.769
	c0.356-0.497,0.796-0.971,1.291-1.326c1.691-1.217,2.421-2.558,1.114-4.561c-0.217-0.333,0.205-1.396,0.636-1.741
	c0.373-0.298,1.207-0.16,1.782-0.01c0.322,0.085,0.572,0.564,0.789,0.908c0.748,1.187,1.681,1.503,3.023,0.937
	c0.987-0.417,2.058-0.704,3.119-0.861c1.38-0.204,1.982-0.958,2.024-2.271c0.036-1.124,0.312-2.111,1.669-2.106
	c1.357,0.005,1.608,0.991,1.662,2.117c0.062,1.309,0.708,2.062,2.088,2.221c0.913,0.104,1.857,0.3,2.689,0.672
	c1.632,0.729,2.783,0.491,3.766-1.11c0.759-1.237,2.044-1.217,2.729-0.037c0.249,0.43,0.257,1.248,0.007,1.673
	c-0.894,1.518-0.501,2.564,0.824,3.562c0.815,0.613,1.525,1.392,2.189,2.174c0.858,1.012,1.781,1.362,2.963,0.605
	c0.974-0.623,1.843-0.618,2.514,0.436c0.719,1.132,0.079,1.838-0.82,2.416c-1.117,0.718-1.45,1.58-0.911,2.885
	c0.468,1.133,0.761,2.355,0.99,3.564c0.229,1.202,0.868,1.845,2.056,1.906c1.09,0.056,1.971,0.376,1.991,1.627
	c0.019,1.239-0.819,1.633-1.927,1.689c-1.274,0.065-1.9,0.757-2.094,2.032c-0.169,1.112-0.433,2.243-0.868,3.275
	c-0.589,1.398-0.238,2.309,0.956,3.163c1.266,0.906,1.273,2.179,0.021,2.823c-0.471,0.242-1.304,0.131-1.815-0.129
	c-1.132-0.573-1.92-0.319-2.72,0.571c-0.893,0.995-1.84,1.95-2.835,2.843c-0.888,0.796-1.239,1.617-0.569,2.703
	c0.628,1.019,0.45,1.872-0.579,2.494c-1.087,0.657-1.747-0.009-2.287-0.837c-0.707-1.083-1.568-1.292-2.783-0.827
	c-1.147,0.439-2.362,0.753-3.576,0.95c-1.279,0.209-1.945,0.853-2.009,2.119c-0.057,1.115-0.48,1.929-1.715,1.899
	c-1.15-0.028-1.542-0.813-1.584-1.864c-0.055-1.339-0.769-1.973-2.1-2.22C69.176,447.376,67.71,446.856,65.909,446.354z
	 M74.673,415.551c-6.42-0.036-11.654,5.118-11.691,11.515c-0.036,6.419,5.121,11.655,11.515,11.691
	c6.42,0.036,11.654-5.119,11.691-11.515C86.224,420.822,81.068,415.587,74.673,415.551z"/>
<path fill-rule="evenodd" clip-rule="evenodd" d="M104.124,464.001c-0.222,0.192-0.584,0.429-0.846,0.748
	c-0.407,0.497-0.789,0.944-1.489,0.515c-0.647-0.398-0.675-0.914-0.293-1.526c0.45-0.721,0.225-1.284-0.393-1.813
	c-0.549-0.47-1.067-0.989-1.523-1.549c-0.523-0.642-1.083-0.833-1.802-0.383c-0.604,0.378-1.117,0.361-1.537-0.279
	c-0.473-0.723,0.001-1.148,0.518-1.469c0.799-0.496,0.908-1.102,0.579-1.932c-0.23-0.582-0.402-1.205-0.478-1.824
	c-0.108-0.886-0.583-1.289-1.426-1.318c-0.663-0.023-1.217-0.208-1.236-0.976c-0.02-0.821,0.554-1.04,1.254-1.054
	c0.859-0.019,1.308-0.431,1.437-1.303c0.095-0.649,0.281-1.301,0.531-1.908c0.339-0.823,0.119-1.359-0.592-1.849
	c-0.329-0.228-0.679-0.634-0.736-1.003c-0.114-0.743,0.803-1.263,1.524-0.839c0.95,0.559,1.647,0.4,2.27-0.47
	c0.218-0.305,0.487-0.594,0.79-0.812c1.035-0.745,1.481-1.565,0.682-2.791c-0.133-0.203,0.125-0.854,0.389-1.065
	c0.229-0.183,0.738-0.098,1.091-0.006c0.197,0.052,0.35,0.346,0.482,0.556c0.458,0.727,1.029,0.92,1.85,0.573
	c0.604-0.255,1.259-0.431,1.909-0.527c0.845-0.125,1.213-0.586,1.239-1.39c0.022-0.688,0.191-1.292,1.021-1.289
	c0.831,0.003,0.984,0.606,1.017,1.296c0.038,0.801,0.434,1.261,1.278,1.358c0.559,0.064,1.136,0.184,1.646,0.411
	c0.999,0.446,1.703,0.301,2.304-0.68c0.465-0.757,1.251-0.744,1.669-0.022c0.153,0.263,0.157,0.764,0.004,1.023
	c-0.547,0.929-0.307,1.569,0.504,2.18c0.499,0.375,0.933,0.852,1.339,1.33c0.525,0.619,1.09,0.834,1.813,0.37
	c0.596-0.381,1.128-0.378,1.538,0.267c0.44,0.693,0.049,1.125-0.502,1.479c-0.683,0.439-0.887,0.967-0.557,1.766
	c0.287,0.693,0.466,1.441,0.606,2.181c0.14,0.736,0.531,1.129,1.258,1.167c0.667,0.034,1.206,0.229,1.218,0.995
	c0.012,0.759-0.501,0.999-1.18,1.034c-0.779,0.04-1.163,0.463-1.281,1.243c-0.104,0.681-0.265,1.373-0.531,2.005
	c-0.36,0.855-0.146,1.412,0.584,1.936c0.775,0.554,0.779,1.333,0.013,1.728c-0.288,0.147-0.798,0.08-1.111-0.079
	c-0.693-0.351-1.175-0.195-1.664,0.35c-0.546,0.608-1.126,1.193-1.735,1.739c-0.543,0.487-0.758,0.989-0.348,1.654
	c0.384,0.623,0.275,1.146-0.354,1.526c-0.665,0.402-1.069-0.006-1.399-0.513c-0.432-0.662-0.959-0.79-1.703-0.506
	c-0.702,0.269-1.446,0.461-2.188,0.581c-0.783,0.128-1.19,0.522-1.229,1.297c-0.035,0.683-0.294,1.181-1.049,1.162
	c-0.704-0.017-0.943-0.497-0.97-1.141c-0.033-0.819-0.471-1.207-1.285-1.358C106.123,464.627,105.226,464.309,104.124,464.001z
	 M109.487,445.152c-3.929-0.021-7.131,3.132-7.154,7.046c-0.022,3.928,3.133,7.132,7.046,7.154c3.929,0.022,7.132-3.133,7.154-7.046
	C116.555,448.378,113.4,445.175,109.487,445.152z"/>
<path fill-rule="evenodd" clip-rule="evenodd" d="M115.436,428.942c-0.45,0.388-1.183,0.867-1.711,1.513
	c-0.823,1.006-1.595,1.911-3.013,1.041c-1.31-0.806-1.367-1.849-0.592-3.089c0.91-1.458,0.454-2.599-0.796-3.667
	c-1.111-0.949-2.159-2.001-3.082-3.133c-1.06-1.299-2.191-1.688-3.646-0.775c-1.221,0.764-2.26,0.731-3.109-0.566
	c-0.957-1.462,0.001-2.324,1.048-2.972c1.617-1.003,1.837-2.228,1.172-3.908c-0.466-1.177-0.813-2.438-0.966-3.69
	c-0.22-1.794-1.18-2.609-2.886-2.669c-1.342-0.047-2.462-0.421-2.501-1.975c-0.041-1.661,1.122-2.103,2.539-2.132
	c1.739-0.036,2.647-0.872,2.906-2.636c0.193-1.314,0.569-2.633,1.076-3.861c0.687-1.666,0.239-2.75-1.198-3.741
	c-0.667-0.46-1.375-1.282-1.491-2.029c-0.231-1.503,1.625-2.554,3.085-1.696c1.923,1.129,3.333,0.81,4.593-0.952
	c0.44-0.615,0.986-1.201,1.598-1.642c2.094-1.507,2.999-3.167,1.38-5.647c-0.269-0.412,0.254-1.729,0.788-2.156
	c0.462-0.368,1.494-0.198,2.207-0.012c0.398,0.105,0.708,0.699,0.977,1.125c0.925,1.469,2.082,1.86,3.743,1.159
	c1.222-0.517,2.548-0.872,3.862-1.066c1.709-0.253,2.454-1.187,2.507-2.813c0.045-1.392,0.386-2.614,2.067-2.608
	c1.681,0.006,1.991,1.228,2.058,2.621c0.077,1.621,0.876,2.553,2.586,2.75c1.13,0.13,2.299,0.371,3.33,0.832
	c2.021,0.902,3.446,0.608,4.663-1.375c0.94-1.532,2.531-1.507,3.378-0.046c0.309,0.532,0.318,1.546,0.009,2.071
	c-1.107,1.88-0.621,3.176,1.021,4.41c1.009,0.76,1.888,1.724,2.71,2.691c1.063,1.253,2.205,1.688,3.668,0.75
	c1.207-0.771,2.283-0.766,3.113,0.539c0.891,1.402,0.098,2.276-1.016,2.992c-1.383,0.889-1.795,1.956-1.128,3.572
	c0.58,1.402,0.943,2.916,1.226,4.413c0.283,1.488,1.075,2.284,2.546,2.36c1.35,0.069,2.44,0.466,2.465,2.015
	c0.023,1.534-1.015,2.021-2.386,2.092c-1.578,0.081-2.353,0.938-2.593,2.517c-0.209,1.377-0.536,2.777-1.075,4.056
	c-0.729,1.731-0.294,2.858,1.184,3.917c1.567,1.122,1.577,2.697,0.026,3.495c-0.583,0.3-1.615,0.162-2.248-0.159
	c-1.402-0.71-2.378-0.396-3.368,0.707c-1.105,1.232-2.278,2.415-3.51,3.521c-1.1,0.985-1.534,2.002-0.704,3.347
	c0.777,1.262,0.557,2.318-0.717,3.089c-1.346,0.813-2.163-0.012-2.831-1.037c-0.875-1.341-1.942-1.6-3.446-1.023
	c-1.42,0.544-2.925,0.932-4.428,1.176c-1.584,0.259-2.408,1.056-2.487,2.624c-0.07,1.381-0.595,2.389-2.124,2.353
	c-1.424-0.035-1.909-1.008-1.962-2.309c-0.067-1.658-0.952-2.442-2.6-2.749C119.481,430.208,117.666,429.564,115.436,428.942z
	 M126.288,390.801c-7.95-0.044-14.431,6.338-14.476,14.258c-0.044,7.948,6.341,14.433,14.258,14.477
	c7.95,0.045,14.431-6.338,14.476-14.258C140.591,397.328,134.207,390.846,126.288,390.801z"/>
</svg>
