<svg width="206" height="225" viewBox="0 0 206 225" fill="none" xmlns="http://www.w3.org/2000/svg">
<g clip-path="url(#clip0)">
<path d="M133.1 225C91.8 225 50.3999 225 9.09995 225C1.69995 221.7 -0.500049 216 -4.94421e-05 208.1C1.99995 179.3 3.39995 150.6 4.99995 121.9C5.89995 104.8 6.69995 87.7 7.69995 70.6C8.19995 62.6 13.4 58 21.5 57.9C24.9 57.9 28.4 57.9 32.2 57.9C32.2 50.5 32 43.7 32.2 36.9C32.5 27.6 36.2 19.6 42.4 12.6C48.8 5.4 57.2 2.3 66.1 0C69.4 0 72.7999 0 76.1 0C76.7 0.3 77.3 0.6 77.9 0.8C98.7 5.4 110 19.4 110.3 40.8C110.4 46.4 110.3 52 110.3 57.8C111.7 57.9 112.5 58 113.3 58.1C115.8 58.1 118.3 58.1 120.8 58.1C129 58.1 134.1 62.3 134.7 70.6C135.6 82.7 135.5 94.9 136.7 107C137.4 113.7 134.2 117.8 130.6 122.3C127.8 119.8 125.4 117.5 122.8 115.5C107.3 103.4 86.7999 105.6 74.2 120.8C64.2999 132.7 63.1 154 78.6 167.6C89.2999 177.1 100 186.6 110.7 196.1C116.9 201.7 123.2 207.2 131.9 208.5C135.3 209 138.7 209.1 142.1 209.4C142.8 217.7 140.9 221 133.1 225ZM87.5 57.9C87.5 51.4 87.8 45.4 87.4 39.5C86.9 29.3 80.4 23 71.1 23.1C61.8 23.2 55.2999 29.6 54.7999 39.7C54.5 45.6 54.7 51.6 54.7 57.8C55.7999 57.9 56.6 58 57.4 58C67.2999 57.9 77 57.9 87.5 57.9Z" fill="#EE1E5B"/>
<path d="M135.8 151.5C142.6 140.5 149.1 130.1 155.7 119.7C163.1 108 170.3 96.2998 177.9 84.7998C182.4 77.9998 191.2 76.5998 197.8 80.6998C205 85.2998 207.3 93.0998 203.4 100.6C201.8 103.7 199.9 106.7 198.1 109.6C183.5 132.9 169 156.1 154.3 179.3C152.4 182.3 150.1 185.5 147.2 187.5C141.6 191.5 134.3 190.6 128.7 185.8C116.4 175.1 104.2 164.3 92.0999 153.3C86.2999 148.1 85.1999 140.7 88.4999 134.2C91.2999 128.8 98.7999 125 105.1 126.9C108.7 128 112.2 130.5 115.2 133C121.9 138.9 128.5 145.1 135.8 151.5Z" fill="#EE1E5B"/>
</g>
<defs>
<clipPath id="clip0">
<rect width="205.2" height="225" fill="white"/>
</clipPath>
</defs>
</svg>
