<svg width="214" height="259" viewBox="0 0 214 259" fill="none" xmlns="http://www.w3.org/2000/svg">
<g clip-path="url(#clip0)">
<path d="M0 135.06C0 119.962 0 105.069 0 89.8698C29.5067 89.8698 58.9113 89.8698 88.4179 89.8698C88.4179 89.7678 88.4179 89.5638 88.4179 89.4618C86.2739 89.0538 84.1298 88.6457 81.9857 88.1357C66.6708 84.4634 52.0706 79.0569 38.8998 70.3862C32.0592 65.8978 25.9332 60.6954 21.5429 53.6568C17.2548 46.7202 15.6212 39.3756 17.3569 31.3169C18.1737 27.6446 20.1136 24.3803 22.8702 21.8301C30.834 14.7915 39.3082 8.36493 48.7013 3.3665C55.2357 0.000218619 62.2805 -0.713842 69.3254 0.714279C76.0639 2.04039 80.8626 6.52877 84.8445 11.9352C90.6641 19.7899 94.2376 28.6646 96.8922 37.9474C100.057 48.8624 102.201 59.9813 103.631 71.3043C103.733 72.2224 103.937 73.1404 104.141 73.9565C104.243 73.9565 104.448 73.9565 104.55 74.0585C104.856 73.2424 105.162 72.4264 105.469 71.7123C107.715 64.7757 109.757 57.7371 112.207 50.9025C115.985 40.2936 120.783 30.0928 127.624 21.014C131.3 16.1176 135.486 11.7312 141.101 8.97698C151.413 3.77454 162.542 5.10065 171.118 12.9553C178.878 20.0959 186.025 27.8486 192.253 36.3153C197.358 43.1499 198.481 50.8005 195.418 58.7572C193.274 64.2657 189.19 68.346 184.595 71.8143C177.142 77.4248 168.668 80.9951 159.785 83.6473C150.392 86.5036 140.693 88.3397 130.891 89.3598C130.177 89.4618 129.462 89.5638 128.849 89.6658C128.849 89.7678 128.849 89.9719 128.849 90.0739C157.029 90.0739 185.31 90.0739 213.694 90.0739C213.796 105.273 214 120.166 214.102 135.162C182.349 135.162 150.29 135.162 118.129 135.162C118.129 120.268 118.129 105.375 118.129 90.3799C117.618 90.3799 117.21 90.2779 116.802 90.2779C110.267 90.2779 103.733 90.2779 97.1985 90.2779C95.9733 90.2779 95.7691 90.6859 95.7691 91.808C95.7691 105.681 95.7691 119.656 95.7691 133.53C95.7691 135.366 95.7691 135.366 94.0334 135.366C63.3015 135.366 32.5697 135.366 1.83779 135.366C1.12309 135.06 0.612595 135.06 0 135.06ZM45.0258 22.8502C44.8216 22.9522 44.7195 22.9522 44.5153 23.0542C44.6174 24.1763 44.6174 25.4004 44.8216 26.5225C45.8426 33.051 48.8034 38.6615 52.2748 44.17C56.3588 50.6985 61.6679 56.105 66.9771 61.5114C75.6555 70.4882 85.1508 78.5469 95.3607 85.7895C95.8712 86.1975 96.4838 86.4016 96.9943 86.7076C97.0964 86.6056 97.0964 86.5036 97.1985 86.5036C96.7901 85.7895 96.3817 85.0754 95.8712 84.3614C88.8263 74.0585 81.9857 63.5516 74.7366 53.2487C67.1813 42.4358 58.1966 32.847 47.6803 24.7883C46.8636 24.0743 45.9447 23.4622 45.0258 22.8502ZM108.531 87.1156C108.634 87.2176 108.634 87.2176 108.736 87.3196C108.838 87.3196 109.042 87.2176 109.144 87.2176C117.006 82.9333 124.969 78.8529 132.729 74.3645C141.918 68.9581 150.596 62.8375 158.05 55.0849C163.155 49.7804 166.626 43.5579 168.362 36.4173C168.464 35.8053 168.464 35.1932 168.464 34.4791C167.953 34.5812 167.749 34.5812 167.647 34.6832C167.239 34.8872 166.83 35.0912 166.422 35.2952C158.05 40.3956 149.78 45.7001 142.735 52.5347C132.014 62.9396 121.6 73.6505 111.084 84.2594C110.267 85.1774 109.45 86.1975 108.531 87.1156Z" fill="#EE1E5B"/>
<path d="M118.027 259C118.027 219.522 118.027 180.249 118.027 140.771C146.206 140.771 174.283 140.771 202.565 140.771C202.565 180.147 202.565 219.522 202.565 259C174.283 259 146.206 259 118.027 259Z" fill="#EE1E5B"/>
<path d="M95.5648 259C67.3855 259 39.3082 259 11.1288 259C11.1288 219.624 11.1288 180.249 11.1288 140.771C39.3082 140.771 67.3855 140.771 95.5648 140.771C95.5648 180.147 95.5648 219.522 95.5648 259Z" fill="#EE1E5B"/>
</g>
<defs>
<clipPath id="clip0">
<rect width="214" height="259" fill="white"/>
</clipPath>
</defs>
</svg>
